<?xml version="1.0" encoding="utf-8"?>
<!-- Generator: Adobe Illustrator 23.0.2, SVG Export Plug-In . SVG Version: 6.00 Build 0)  -->
<svg version="1.1" xmlns="http://www.w3.org/2000/svg" xmlns:xlink="http://www.w3.org/1999/xlink" x="0px" y="0px"
	 viewBox="0 0 244.84 123.13" style="enable-background:new 0 0 244.84 123.13;" xml:space="preserve">
<style type="text/css">
	.st0{fill:#3EAF99;stroke:#000000;stroke-width:1.5;stroke-linecap:square;stroke-linejoin:round;stroke-miterlimit:10;}
	.st1{fill:#ACDD4B;stroke:#000000;stroke-width:1.5;stroke-linecap:square;stroke-linejoin:round;stroke-miterlimit:10;}
	.st2{fill:#A08157;stroke:#000000;stroke-width:1.5;stroke-linecap:square;stroke-linejoin:round;stroke-miterlimit:10;}
	
		.st3{clip-path:url(#SVGID_2_);fill:url(#SVGID_3_);stroke:#0000FF;stroke-width:1.5;stroke-linecap:square;stroke-linejoin:round;stroke-miterlimit:10;}
	.st4{fill:none;stroke:#000000;stroke-width:1.5;stroke-linecap:square;stroke-linejoin:round;}
	.st5{font-family:'MyriadPro-SemiExt';}
	.st6{font-size:8.4306px;}
</style>
<g id="Superlattice">
	<rect x="108.53" y="28.17" class="st0" width="26.59" height="92.5"/>
	<rect x="135.11" y="28.17" class="st1" width="14.28" height="92.5"/>
	<rect x="149.4" y="28.17" class="st2" width="12.24" height="92.5"/>
	<rect x="94.24" y="28.17" class="st1" width="14.28" height="92.5"/>
	<rect x="82" y="28.17" class="st2" width="12.24" height="92.5"/>
	<rect x="67.72" y="28.17" class="st1" width="14.28" height="92.5"/>
	<rect x="55.48" y="28.17" class="st2" width="12.24" height="92.5"/>
	<rect x="41.19" y="28.17" class="st1" width="14.28" height="92.5"/>
	<rect x="28.95" y="28.17" class="st2" width="12.24" height="92.5"/>
	<rect x="14.67" y="28.17" class="st1" width="14.28" height="92.5"/>
	<rect x="2.43" y="28.17" class="st2" width="12.24" height="92.5"/>
	<rect x="161.64" y="28.17" class="st1" width="14.28" height="92.5"/>
	<rect x="175.92" y="28.17" class="st2" width="12.24" height="92.5"/>
	<rect x="188.16" y="28.17" class="st1" width="14.28" height="92.5"/>
	<rect x="202.45" y="28.17" class="st2" width="12.24" height="92.5"/>
	<rect x="214.69" y="28.17" class="st1" width="14.28" height="92.5"/>
	<rect x="228.97" y="28.17" class="st2" width="12.24" height="92.5"/>
</g>
<g id="Wave">
	<g>
		<defs>
			<rect id="SVGID_1_" x="2.43" y="28.17" width="238.79" height="92.5"/>
		</defs>
		<clipPath id="SVGID_2_">
			<use xlink:href="#SVGID_1_"  style="overflow:visible;"/>
		</clipPath>
		<linearGradient id="SVGID_3_" gradientUnits="userSpaceOnUse" x1="-52.9659" y1="68.0712" x2="297.1002" y2="68.0712">
			<stop  offset="0.3501" style="stop-color:#A081D9"/>
			<stop  offset="0.503" style="stop-color:#B0F169"/>
			<stop  offset="0.6552" style="stop-color:#A081D9"/>
		</linearGradient>
		<polyline class="st3" points="-52.97,90.05 -4.77,90.01 3.99,89.98 15.38,90 18.01,89.88 20.64,89.68 26.77,89.14 28.53,89.09 
			30.28,89.12 32.03,89.24 33.78,89.44 38.17,89.99 39.48,90.05 40.36,90.03 41.23,89.95 42.11,89.81 42.98,89.6 43.86,89.32 
			44.74,88.96 46.05,88.3 47.37,87.52 52.19,84.46 53.06,84.06 53.94,83.76 54.81,83.59 55.69,83.55 56.57,83.65 57.44,83.9 
			58.32,84.29 59.2,84.81 60.51,85.79 64.45,89.07 65.33,89.59 66.21,89.93 66.64,90.02 67.08,90.05 67.52,90.02 67.96,89.91 
			68.4,89.74 68.83,89.5 69.71,88.78 70.59,87.76 71.46,86.45 72.34,84.86 73.65,82.05 75.84,76.72 77.6,72.54 78.91,69.88 
			79.79,68.49 80.66,67.48 81.1,67.14 81.54,66.91 81.98,66.81 82.42,66.82 82.85,66.96 83.29,67.22 83.73,67.61 84.17,68.11 
			85.05,69.47 85.92,71.24 87.24,74.53 89.43,80.83 90.74,84.47 91.62,86.56 92.49,88.25 93.37,89.42 93.81,89.79 94.25,90 
			94.68,90.04 95.12,89.91 95.56,89.6 96,89.12 96.44,88.45 97.31,86.59 98.19,84.06 99.07,80.93 100.38,75.34 102.57,64.75 
			104.32,56.62 105.2,53.12 106.08,50.2 106.95,48 107.39,47.2 107.83,46.61 108.27,46.24 108.7,46.09 109.14,46.18 109.58,46.49 
			110.02,47.03 110.46,47.78 111.33,49.93 112.21,52.85 113.09,56.42 114.4,62.67 117.9,80.14 118.78,83.68 119.66,86.54 
			120.53,88.6 120.97,89.31 121.41,89.78 121.85,90.02 122.29,90.02 122.72,89.78 123.16,89.31 123.6,88.6 124.04,87.68 
			124.91,85.2 125.79,81.99 127.11,76.09 131.49,54.57 132.36,51.3 133.24,48.76 133.68,47.78 134.12,47.03 134.55,46.49 
			134.99,46.18 135.43,46.09 135.87,46.24 136.31,46.61 136.74,47.2 137.18,48 138.06,50.2 138.94,53.12 139.81,56.62 141.13,62.63 
			144.19,77.3 145.51,82.57 146.38,85.41 147.26,87.61 148.14,89.12 148.57,89.6 149.01,89.91 149.45,90.04 149.89,90 150.33,89.79 
			150.76,89.42 151.2,88.9 152.08,87.46 152.95,85.55 154.27,82.09 157.77,72.27 158.65,70.31 159.53,68.74 160.4,67.61 
			160.84,67.22 161.28,66.96 161.72,66.82 162.16,66.81 162.59,66.91 163.03,67.14 163.47,67.48 163.91,67.94 164.78,69.14 
			165.66,70.7 166.98,73.54 169.6,79.98 171.36,83.97 172.67,86.45 173.55,87.76 174.42,88.78 175.3,89.5 175.74,89.74 
			176.18,89.91 176.61,90.02 177.05,90.05 177.49,90.02 177.93,89.93 178.37,89.78 179.24,89.35 180.12,88.76 181.43,87.69 
			184.06,85.44 185.38,84.54 186.25,84.08 187.13,83.76 188.01,83.58 188.88,83.55 189.76,83.66 190.63,83.9 191.51,84.25 
			192.83,84.94 194.58,86.06 197.21,87.79 198.52,88.54 199.84,89.15 200.71,89.47 201.59,89.71 202.46,89.89 203.34,90 
			204.22,90.04 205.53,90.02 206.85,89.91 209.04,89.62 211.66,89.29 213.42,89.14 215.17,89.09 216.92,89.12 219.11,89.27 
			227.44,89.95 230.07,90.03 233.13,90.04 246.28,89.99 259.42,90.05 297.1,90.05 297.1,90.05 		"/>
	</g>
</g>
<g id="MicroPillar">
</g>
<g id="Texto">
	<g>
		<g>
			<line class="st4" x1="140.44" y1="22.98" x2="235.95" y2="22.98"/>
			<g>
				<polygon points="135.14,22.98 142.61,26.03 140.84,22.98 142.61,19.93 				"/>
			</g>
			<g>
				<polygon points="241.24,22.98 233.78,26.03 235.55,22.98 233.78,19.93 				"/>
			</g>
		</g>
	</g>
	<g>
		<g>
			<line class="st4" x1="7.69" y1="22.98" x2="103.2" y2="22.98"/>
			<g>
				<polygon points="2.4,22.98 9.86,26.03 8.09,22.98 9.86,19.93 				"/>
			</g>
			<g>
				<polygon points="108.5,22.98 101.03,26.03 102.8,22.98 101.03,19.93 				"/>
			</g>
		</g>
	</g>
	<g>
		<g>
			<line class="st4" x1="113.88" y1="22.98" x2="129.82" y2="22.98"/>
			<g>
				<polygon points="108.59,22.98 116.05,26.03 114.28,22.98 116.05,19.93 				"/>
			</g>
			<g>
				<polygon points="135.11,22.98 127.65,26.03 129.42,22.98 127.65,19.93 				"/>
			</g>
		</g>
	</g>
	<text transform="matrix(1 0 0 1 109.9713 14.3394)" class="st5 st6">Cavity</text>
	<text transform="matrix(1 0 0 1 150.8649 9.2808)"><tspan x="0" y="0" class="st5 st6">Photonic/phononic</tspan><tspan x="25.43" y="10.12" class="st5 st6">mirror</tspan></text>
	<text transform="matrix(1 0 0 1 18.1154 9.2808)"><tspan x="0" y="0" class="st5 st6">Photonic/phononic</tspan><tspan x="25.43" y="10.12" class="st5 st6">mirror</tspan></text>
</g>
<g id="Letras">
</g>
<g id="Fano">
</g>
</svg>
