<svg width="1506.667" height="1356" viewBox="0 0 1130 1017" xmlns="http://www.w3.org/2000/svg" version="1.2" baseProfile="tiny"><path d="M418.239 652.653V508.398m145.257 144.255V508.398M418.239 652.653h145.257M418.239 508.398h145.257m0 144.255V508.398M707.75 652.653V508.398M563.496 652.653H707.75M563.496 508.398H707.75m-289.511 0V364.143m145.257 144.255V364.143M418.239 508.398h145.257M418.239 364.143h145.257m0 144.255V364.143M707.75 508.398V364.143M563.496 508.398H707.75M563.496 364.143H707.75m-493.271 492.27l50.99-50.99m108.892 157.879l32.658-86.453m-192.54-20.436l12.622 12.222 13.123 11.72 13.524 11.32 13.825 10.82 14.325 10.218 14.626 9.817 14.926 9.216 15.327 8.716 15.528 8.214 15.928 7.513 16.128 7.113M265.47 805.423l141.55 71.426m-32.659 86.453l32.658-86.453m155.475 124.421v-87.155m-188.133 49.187l16.33 6.411 16.629 5.81 16.83 5.31 16.93 4.608 17.13 4.107 17.23 3.406 17.33 2.805 17.532 2.204 17.53 1.603 17.532.902 17.53.3M407.02 876.85l155.875 36.764M265.47 805.423l51.09-51.09m90.46 122.517l32.757-86.453M265.47 805.423l141.55 71.426m-90.46-122.516l123.217 36.064m122.717 210.873v-87.155m189.034 49.187l-32.658-86.453m-155.975 123.919l17.63-.3 17.532-.902 17.53-1.603 17.532-2.204 17.33-2.805 17.23-3.406 17.131-4.107 16.93-4.608 16.83-5.31 16.629-5.81 16.329-6.411m-188.633-49.688L718.87 876.85m32.658 86.452l-32.658-86.453m192.54-20.436l-50.99-50.99M751.528 963.302l16.128-7.113 15.928-7.513 15.528-8.214 15.327-8.716 14.926-9.216 14.626-9.817 14.326-10.218 13.824-10.82 13.524-11.32 13.123-11.72 12.622-12.222M718.87 876.85l141.55-71.427M718.87 876.85l-32.758-86.453m174.308 15.026l-51.09-51.09M718.87 876.85l141.55-71.427m-174.308-15.026l123.218-36.064m-594.851 102.08l-12.222-12.622-11.72-13.123-11.32-13.524-10.82-13.825-10.218-14.325-9.817-14.626-9.216-14.926-8.716-15.327-8.214-15.528-7.513-15.928-7.113-16.128m157.88 108.892l-71.427-141.55m20.436 192.54l50.99-50.99M107.59 696.53l86.453-32.657m71.427 141.55l-71.427-141.55m122.517 90.46l-36.064-123.218M265.47 805.423l51.09-51.09m-122.517-90.46l86.453-32.758M107.59 696.53l-6.411-16.328-5.81-16.63-5.31-16.83-4.608-16.93-4.107-17.13-3.406-17.23-2.805-17.33-2.204-17.532-1.603-17.53-.902-17.531-.3-17.531m123.919 155.875l-36.765-155.875M107.59 696.53l86.453-32.657M70.625 508.398h87.154m-87.655-.4l.3-17.632.902-17.53 1.603-17.532 2.204-17.53 2.805-17.331 3.406-17.23 4.107-17.13 4.608-16.93 5.31-16.83 5.81-16.63 6.411-16.329m49.688 188.634l36.765-155.976M70.625 508.398h87.154M107.59 319.364l86.453 32.658m-86.453-32.658l7.113-16.128 7.513-15.928 8.214-15.528 8.716-15.327 9.216-14.926 9.817-14.626 10.219-14.325 10.819-13.825 11.32-13.524 11.72-13.123 12.222-12.622m-20.436 192.54l71.426-141.55M107.59 319.364l86.453 32.658m20.436-192.54l50.99 50.99m-71.426 141.55l71.426-141.55m15.027 174.308l36.063-123.218m-122.516 90.46l86.453 32.758M265.47 210.472l51.09 51.09m594.85 594.851l-50.99-50.99M1018.3 696.53l-86.454-32.657m-20.436 192.54l12.222-12.622 11.72-13.123 11.32-13.524 10.82-13.825 10.218-14.325 9.817-14.626 9.216-14.926 8.716-15.327 8.214-15.528 7.514-15.928 7.112-16.128M860.42 805.423l71.426-141.55m86.454 32.657l-86.454-32.657m123.519-155.475H968.21m50.09 188.132l6.41-16.328 5.81-16.63 5.31-16.83 4.608-16.93 4.108-17.13 3.406-17.23 2.805-17.33 2.203-17.532 1.603-17.53.902-17.531.3-17.531M931.846 663.873l36.765-155.875M860.42 805.423l-51.09-51.09m122.516-90.46l-86.452-32.758m15.026 174.308l71.426-141.55m-122.516 90.46l36.064-123.218m209.971-122.717H968.21m50.09-189.034l-86.454 32.658m123.919 155.976l-.3-17.632-.902-17.53-1.603-17.532-2.203-17.53-2.805-17.331-3.406-17.23-4.108-17.13-4.608-16.93-5.31-16.83-5.81-16.63-6.41-16.329m-49.689 188.634l-36.765-155.976m86.454-32.658l-86.454 32.658m-20.436-192.54l-50.99 50.99m157.88 108.892l-7.113-16.128-7.514-15.928-8.214-15.528-8.716-15.327-9.216-14.926-9.817-14.626-10.218-14.325-10.82-13.825-11.32-13.524-11.72-13.123-12.222-12.622m20.436 192.54l-71.426-141.55m71.426 141.55l-86.452 32.758m15.026-174.308l-51.09 51.09m122.516 90.46l-71.426-141.55M845.394 384.78L809.33 261.562m-594.851-102.08l12.622-12.222 13.123-11.72 13.524-11.32 13.825-10.82 14.325-10.218 14.626-9.817 14.926-9.216 15.327-8.716 15.528-8.214 15.928-7.514 16.128-7.112M265.47 210.472l141.55-71.426m-192.541 20.436l50.99 50.99M374.361 52.593l32.658 86.453M265.47 210.472l141.55-71.426m-90.46 122.516l123.217-36.064M265.47 210.472l51.09 51.09m90.46-122.516l32.757 86.452M374.361 52.593l16.33-6.411 16.629-5.81 16.83-5.31 16.93-4.608 17.13-4.107 17.23-3.406 17.33-2.805 17.532-2.204 17.53-1.603 17.532-.902 17.53-.3M407.02 139.046l155.875-36.765M374.361 52.593l32.658 86.453M562.494 15.527v87.154m.401-87.554l17.63.3 17.532.902 17.53 1.603 17.532 2.204 17.33 2.805 17.23 3.406 17.131 4.107 16.93 4.608 16.83 5.31 16.629 5.81 16.329 6.41M562.895 102.28l155.975 36.766M562.494 15.527v87.154m189.034-50.088l-32.658 86.453m32.658-86.453l16.128 7.112 15.928 7.514 15.528 8.214 15.327 8.716 14.926 9.216 14.626 9.817 14.326 10.218 13.824 10.82 13.524 11.32 13.123 11.72 12.622 12.222m-192.54-20.436l141.55 71.426M751.528 52.593l-32.658 86.453m192.54 20.436l-50.99 50.99m-141.55-71.426l141.55 71.426m-174.308 15.026l123.218 36.064m-90.46-122.516l-32.758 86.452m174.308-15.026l-51.09 51.09M316.56 754.333l50.99-50.99m72.227 87.054l25.445-69.022M316.56 754.333l123.217 36.064m-72.227-87.054l97.672 18.032m-25.445 69.022l25.445-69.022m97.673 105.185l.1-87.154m-123.218 50.991l123.118 36.163m-97.673-105.185l97.773 18.031M367.55 703.343l51.09-51.09m46.582 69.122l25.545-69.123M367.55 703.343l97.672 18.032m-46.983-68.722h72.127m-25.144 68.722l25.545-69.123m72.729 87.555v-87.154m-98.274 68.722l97.773 18.031m-72.629-86.753h73.13m-.601 173.907l.1-87.154m123.117 50.991l-25.445-69.022M562.895 826.56l123.217-36.163m-123.117-50.991l97.672-18.031m25.445 69.022l-25.445-69.022m148.663 32.958l-50.99-50.99m-72.228 87.054l123.218-36.064m-148.663-32.958l97.673-18.032m-194.844 36.464v-87.154m97.171 68.722l-25.545-69.123m-72.127 87.154l97.672-18.031m-97.171-68.722h72.127m25.044 68.722l-25.545-69.123m123.218 51.091l-51.09-51.09m-46.583 69.122l97.673-18.032m-122.717-50.69h72.128M316.56 754.333l-36.064-123.218m87.054 72.228l-18.032-97.673M316.56 754.333l50.99-50.99m-87.054-72.228l69.022-25.445m18.032 97.673l-18.032-97.673m68.721 46.983v-72.127M367.55 703.343l51.09-51.09m-69.122-46.583l69.122-25.545m-138.144 50.99l-36.164-123.117m105.186 97.672l-18.032-97.773m-50.99 123.218l69.022-25.445m-105.186-97.672l87.154-.1m18.032 97.772l-18.032-97.773m86.753 72.629v-72.128m-68.721 97.272l69.122-25.545m-87.555-71.727h87.154m-173.907-.4l36.164-123.218m50.99 123.117l18.032-97.672m-105.186 97.773l87.154-.1m-50.99-123.118l69.022 25.445m-18.032 97.672l18.032-97.672m68.721 98.173v-72.127m-87.154 72.127h87.154m-68.721-98.173l69.122 25.545m-138.144-50.99l36.063-123.218m32.959 148.663l18.031-97.673m-87.053 72.228l69.022 25.445M316.56 261.562l50.99 50.99m-18.032 97.673l18.031-97.673m50.69 123.718v-72.127m-68.721 46.082l69.122 25.545m-51.09-123.218l51.09 51.09m390.69 390.691l-50.99-50.99m87.054-72.228l-69.022-25.445m32.958 148.663l36.064-123.218m-87.054 72.228l18.032-97.673m69.022 25.445l-69.022-25.445m105.186-97.672l-87.154-.1m50.99 123.217l36.164-123.117M776.372 605.67l18.032-97.773M758.34 703.343l-51.09-51.09m69.122-46.583l-69.122-25.545m51.09 123.218l18.032-97.673m-68.622 46.983v-72.127m68.622 25.144l-69.122-25.545m87.654-71.727h-87.153m68.621 97.272l18.032-97.773m-86.654 72.629v-72.128m173.808-.4l-87.154-.1m50.99-123.118l-69.022 25.445m105.186 97.773L845.394 384.78m-50.99 123.117l-18.032-97.672m69.022-25.445l-69.022 25.445m32.958-148.663l-50.99 50.99m87.054 72.228L809.33 261.562m-32.958 148.663l-18.032-97.673m36.564 195.846h-87.153m68.621-98.173L707.25 435.77m87.154 72.127l-18.032-97.672m-68.622 98.173v-72.127m68.622-26.046L707.25 435.77m51.09-123.218l-51.09 51.09m69.122 46.583l-18.032-97.673M707.75 436.27v-72.127M316.56 261.562l123.217-36.064m-72.227 87.054l97.672-18.032M316.56 261.562l50.99 50.99m72.227-87.054l25.445 69.022m-97.672 18.032l97.672-18.032m-46.983 69.623h72.127M367.55 312.552l51.09 51.09m46.582-69.122l25.545 69.123m-50.99-138.145l123.118-36.163M465.222 294.52l97.773-18.031m-123.218-50.991l25.445 69.022m97.673-105.185l.1 87.154m-97.773 18.031l97.773-18.031m-72.629 87.654h73.13m-98.274-69.623l25.545 69.123m72.729-86.653v87.153m-.601-174.808l123.217 36.163m-123.117 50.991l97.672 18.031m-97.772-105.185l.1 87.154m123.117-50.991l-25.445 69.022m-97.672-18.031l97.672 18.031m-97.171 69.623h72.127m-72.127-87.153v87.153m97.171-69.623l-25.545 69.123m50.99-138.145l123.218 36.064M660.667 294.52l97.673 18.032m-72.228-87.054l-25.445 69.022m148.663-32.958l-50.99 50.99m-97.673-18.032l97.673 18.032m-122.717 51.591h72.128m-47.084-69.623l-25.545 69.123m123.218-51.091l-51.09 51.09M407.02 876.85l16.328-43.177m61.609 61.609l8.214-43.377M407.02 876.85l77.937 18.432m-61.609-61.609l69.823 18.232m-8.214 43.377l8.214-43.377m69.323 62.21v-44.078m-77.537 25.245l77.938 18.332m-69.724-61.709l69.724 18.232m-139.547-36.464l16.429-43.276m53.394 61.508l8.215-43.376m-78.038 25.144l69.823 18.232m-53.394-61.508l61.609 18.132m-8.215 43.376l8.215-43.376m61.108 61.508v-43.076m-69.323 24.944l69.724 18.232m-61.509-61.608l61.509 18.031m-.401 87.555v-44.078m78.438 25.245l-8.214-43.377m-69.823 61.709l78.037-18.332m-78.037-25.145l69.823-18.232m8.214 43.377l-8.214-43.377m86.152 24.945l-16.329-43.177m-61.609 61.609l77.938-18.433m-86.152-24.944l69.823-18.232m-140.047 36.364v-43.076m70.224 24.944l-8.215-43.376m-61.608 61.608l69.823-18.232m-69.823-25.345l61.608-18.031m8.215 43.376l-8.215-43.376m78.038 25.144l-16.429-43.276m-53.394 61.508l69.823-18.232m-78.038-25.144l61.61-18.132m-492.07-126.524l-18.433-77.938m61.61 61.609l-18.233-69.823m-24.944 86.152l43.176-16.329m-61.609-61.609l43.377-8.214m18.233 69.823l-18.233-69.823m61.509 53.394l-18.132-61.609m-25.144 78.038l43.276-16.429m-61.509-53.395l43.377-8.214m-86.754 16.429l-18.332-77.937m61.709 69.722l-18.232-69.722m-25.145 77.937l43.377-8.214m-61.208-69.323h43.076m18.132 69.322l-18.232-69.722m61.609 61.508l-18.032-61.508m-25.345 69.722l43.377-8.214m-61.509-61.108h43.076m-86.653-.4l18.332-78.038m25.145 78.038l18.232-69.824m-61.208 70.224h43.076M175.61 429.96l43.377 8.214m-18.232 69.824l18.232-69.824m25.345 69.824l18.032-61.61m-61.509 62.01h43.076m-24.944-70.224l43.377 8.215M175.61 429.96l18.433-77.938m24.944 86.152l18.232-69.823M175.61 429.96l43.377 8.214m-24.944-86.152l43.176 16.329m-18.232 69.823l18.232-69.823m25.145 78.038l18.132-61.61m-61.509 53.395l43.377 8.215M237.22 368.35l43.276 16.43m651.35 279.093l-43.176-16.329m61.609-61.609l-43.377-8.214m24.944 86.152l18.433-77.938m-61.609 61.609l18.232-69.823m43.377 8.214l-43.377-8.214m61.308-69.323h-43.075m25.144 77.537l18.332-77.937m-61.709 69.722l18.233-69.722M888.67 647.544l-43.276-16.429m61.508-53.395l-43.376-8.214m25.144 78.038l18.232-69.823m-61.508 53.394l18.132-61.609m43.376 8.214l-43.376-8.214m61.609-61.108h-43.077m24.844 69.322l18.233-69.722m-61.609 61.508l18.032-61.508m86.652.4h-43.075m25.144-78.438l-43.377 8.214m61.709 69.824L950.28 429.96m-25.145 78.038l-18.233-69.824m43.377-8.214l-43.377 8.214m24.944-86.152l-43.176 16.329m61.609 61.609l-18.433-77.938m-24.944 86.152l-18.232-69.823m36.465 140.047h-43.077m24.844-70.224l-43.376 8.215m61.609 61.609l-18.233-69.824m-25.344 69.824l-18.032-61.61m43.376-8.214l-43.376 8.215m25.144-78.039l-43.276 16.43m61.508 53.394l-18.232-69.823m-25.144 78.038l-18.132-61.61M407.02 139.046l77.937-18.433m-61.609 61.609l69.823-18.232m-86.151-24.944l16.328 43.176m61.609-61.609l8.214 43.377m-69.823 18.232l69.823-18.232m-53.394 61.508l61.609-18.132m-78.038-25.144l16.429 43.276m53.394-61.508l8.215 43.376m-16.429-86.753l77.938-18.332m-69.724 61.709l69.724-18.232m-77.938-25.145l8.214 43.377m69.323-61.309v43.077m-69.323 18.232l69.724-18.232m-61.509 61.608l61.509-18.031m-69.724-25.345l8.215 43.376m61.108-61.608v44.077m.401-87.555l78.037 18.333m-78.037 25.145l69.823 18.232m-70.224-61.309v43.077m78.438-25.145l-8.214 43.377m-69.823-18.232l69.823 18.232m-69.823 25.345l61.608 18.031m-62.009-61.608v44.077m70.224-25.845l-8.215 43.376m16.429-86.753l77.938 18.433m-86.152 24.944l69.823 18.232m-61.609-61.609l-8.214 43.377m86.152-24.944l-16.329 43.176m-69.823-18.232l69.823 18.232m-78.038 25.144l61.61 18.132m-53.395-61.508l-8.215 43.376m78.038-25.144l-16.429 43.276" stroke-width="3.005" stroke-miterlimit="2" fill="none" stroke="#000" font-family="Sans Serif" font-size="9" font-weight="400"/></svg>