<svg width="1506.667" height="1356" viewBox="0 0 1130 1017" xmlns="http://www.w3.org/2000/svg" version="1.2" baseProfile="tiny"><g stroke-width="3.005" stroke-miterlimit="2" fill="none" stroke="#000" fill-rule="evenodd" font-family="Sans Serif" font-size="9" font-weight="400"><path d="M493.372 577.52v-69.122m70.124 69.122v-69.122m-70.124 69.122h70.124m-70.124-69.122h70.124m0 69.122v-69.122m69.122 69.122v-69.122m-69.122 69.122h69.122m-69.122-69.122h69.122m-139.246 0v-70.124m70.124 70.124v-70.124m-70.124 70.124h70.124m-70.124-70.124h70.124m0 70.124v-70.124m69.122 70.124v-70.124m-69.122 70.124h69.122m-69.122-70.124h69.122M214.479 856.413l116.105-116.105m43.777 222.994l62.811-151.768m-222.693 44.879l12.622 12.222 13.123 11.72 13.524 11.32 13.825 10.82 14.325 10.218 14.626 9.817 14.926 9.216 15.327 8.716 15.528 8.214 15.928 7.513 16.128 7.113m-43.777-222.994l8.515 8.114 8.716 7.814 9.015 7.513 9.217 7.213 9.517 6.812 9.717 6.512 10.017 6.21 10.218 5.811 10.319 5.41 10.618 5.109 10.72 4.708m-62.812 151.768l62.811-151.768m125.322 189.736V836.978M374.361 963.302l16.33 6.411 16.629 5.81 16.83 5.31 16.93 4.608 17.13 4.107 17.23 3.406 17.33 2.805 17.532 2.204 17.53 1.603 17.532.902 17.53.3M437.172 811.534l10.92 4.207 11.12 3.907 11.22 3.506 11.219 3.106 11.42 2.705 11.52 2.304 11.621 1.903 11.62 1.403 11.721 1.102 11.62.6 11.722.201m-232.311-96.17L446.79 624.103m-9.618 187.431l62.912-151.768"/><path d="M330.584 740.308l8.515 8.114 8.716 7.814 9.015 7.513 9.217 7.213 9.517 6.812 9.717 6.512 10.017 6.21 10.218 5.811 10.319 5.41 10.618 5.109 10.72 4.708m9.617-187.431l4.207 4.107 4.408 3.907 4.508 3.706 4.608 3.607 4.708 3.406 4.909 3.306 5.009 3.105 5.109 2.905 5.109 2.705 5.309 2.504 5.41 2.405m-62.912 151.768l62.912-151.768m62.811 176.712l.1-164.29M437.172 811.534l10.92 4.207 11.12 3.907 11.22 3.506 11.219 3.106 11.42 2.705 11.52 2.304 11.621 1.903 11.62 1.403 11.721 1.102 11.62.6 11.722.201m-62.811-176.712l5.41 2.103 5.61 1.904 5.609 1.803 5.61 1.503 5.71 1.402 5.71 1.102 5.81 1.002 5.81.701 5.911.501 5.81.3 5.91.1m-.5 329.083V836.978m189.034 126.324l-62.811-151.768m-125.822 189.234l17.63-.3 17.532-.902 17.53-1.603 17.532-2.204 17.33-2.805 17.23-3.406 17.131-4.107 16.93-4.608 16.83-5.31 16.629-5.81 16.329-6.411M562.895 836.478l11.82-.2 11.621-.601 11.72-1.102 11.621-1.403 11.62-1.903 11.521-2.304 11.42-2.705 11.22-3.106 11.22-3.506 11.12-3.907 10.919-4.207m62.811 151.768l-62.811-151.768m222.693 44.879L795.305 740.308m-43.777 222.994l16.128-7.113 15.928-7.513 15.528-8.214 15.327-8.716 14.926-9.216 14.626-9.817 14.326-10.218 13.824-10.82 13.524-11.32 13.123-11.72 12.622-12.222m-222.693-44.879l10.719-4.708 10.619-5.11 10.318-5.409 10.218-5.81 10.018-6.211 9.717-6.512 9.517-6.812 9.216-7.213 9.016-7.513 8.715-7.814 8.515-8.114m-232.41 96.17l.1-164.29m125.722 139.346l-62.911-151.768"/><path d="M562.895 836.478l11.82-.2 11.621-.601 11.72-1.102 11.621-1.403 11.62-1.903 11.521-2.304 11.42-2.705 11.22-3.106 11.22-3.506 11.12-3.907 10.919-4.207M562.995 672.188l5.81-.1 5.81-.301 5.91-.5 5.811-.702 5.81-1.002 5.71-1.102 5.71-1.402 5.61-1.503 5.61-1.803 5.61-1.904 5.41-2.103m62.911 151.768l-62.911-151.768m169.499 80.542L679.1 624.103m9.617 187.431l10.719-4.708 10.619-5.11 10.318-5.409 10.218-5.81 10.018-6.211 9.717-6.512 9.517-6.812 9.216-7.213 9.016-7.513 8.715-7.814 8.515-8.114m-169.499-80.542l5.41-2.405 5.309-2.504 5.109-2.705 5.109-2.905 5.009-3.105 4.908-3.306 4.709-3.406 4.608-3.607 4.508-3.706 4.407-3.907 4.208-4.107m-232.31 0l23.24-23.241m30.054 58.904l15.828-45.38m-69.122 9.717l4.207 4.107 4.408 3.907 4.508 3.706 4.608 3.607 4.708 3.406 4.909 3.306 5.009 3.105 5.109 2.905 5.109 2.705 5.309 2.504 5.41 2.405m-30.054-58.904l45.882 13.524m-15.828 45.38l15.828-45.38m47.584 58.303v-48.085m-63.412 35.162l5.41 2.103 5.61 1.904 5.609 1.803 5.61 1.503 5.71 1.402 5.71 1.102 5.81 1.002 5.81.701 5.911.501 5.81.3 5.91.1m-47.082-57.801l47.083 10.518m-92.965-24.042l23.242-23.241m22.64 36.765l12.221-36.765m-58.103 23.241l45.882 13.524m-22.54-36.866h35.062m-12.522 36.866l12.221-36.765m35.363 46.983V577.52m-47.584 36.866l47.083 10.518m-34.561-47.384h35.062m0 95.169v-48.085m62.31 35.162l-15.828-45.38"/><path d="M562.995 672.188l5.81-.1 5.81-.301 5.91-.5 5.811-.702 5.81-1.002 5.71-1.102 5.71-1.402 5.61-1.503 5.61-1.803 5.61-1.904 5.41-2.103m-62.811-34.862l46.983-10.518m15.828 45.38l-15.828-45.38m69.122 9.717l-23.241-23.241m-30.053 58.904l5.41-2.405 5.309-2.504 5.109-2.705 5.109-2.905 5.009-3.105 4.908-3.306 4.709-3.406 4.608-3.607 4.508-3.706 4.407-3.907 4.208-4.107m-69.122-9.717l45.88-13.524m-92.362 23.742V577.52m46.482 36.866l-12.222-36.765m-34.761 47.283l46.983-10.518m-46.482-36.866h34.06m12.422 36.866l-12.222-36.765m58.103 23.241l-23.241-23.241m-22.64 36.765l45.88-13.524m-58.302-23.342h35.062M214.479 856.413l-12.222-12.622-11.72-13.123-11.32-13.524-10.82-13.825-10.218-14.325-9.817-14.626-9.216-14.926-8.716-15.327-8.214-15.528-7.513-15.928-7.113-16.128m222.994 43.777l-8.114-8.515-7.814-8.715-7.513-9.016-7.213-9.217-6.812-9.516-6.512-9.718-6.21-10.017-5.81-10.218-5.41-10.319-5.11-10.618-4.708-10.72m-44.879 222.694l116.105-116.105M107.59 696.53l151.768-62.81"/><path d="M330.584 740.308l-8.114-8.515-7.814-8.715-7.513-9.016-7.213-9.217-6.812-9.516-6.512-9.718-6.21-10.017-5.81-10.218-5.41-10.319-5.11-10.618-4.708-10.72m187.432-9.616l-4.108-4.208-3.907-4.408-3.706-4.507-3.607-4.609-3.406-4.708-3.306-4.909-3.105-5.008-2.905-5.11-2.705-5.109-2.504-5.309-2.405-5.41m-80.542 169.5L446.79 624.103m-187.432 9.617l151.768-62.911M107.59 696.53l-6.411-16.328-5.81-16.63-5.31-16.83-4.608-16.93-4.107-17.13-3.406-17.23-2.805-17.33-2.204-17.532-1.603-17.53-.902-17.531-.3-17.531M259.358 633.72l-4.207-10.92-3.907-11.12-3.506-11.22-3.106-11.219-2.705-11.42-2.304-11.52-1.903-11.621-1.402-11.62-1.102-11.721-.601-11.62-.2-11.721M107.59 696.53l151.768-62.81M70.625 508.398h164.29"/><path d="M259.358 633.72l-4.207-10.92-3.907-11.12-3.506-11.22-3.106-11.219-2.705-11.42-2.304-11.52-1.903-11.621-1.402-11.62-1.102-11.721-.601-11.62-.2-11.721m176.711 62.811l-2.103-5.41-1.904-5.61-1.803-5.61-1.503-5.61-1.402-5.71-1.102-5.71-1.002-5.81-.7-5.81-.502-5.91-.3-5.811-.1-5.91M259.358 633.72l151.768-62.911m-176.712-62.811l164.29-.1m48.086 116.205l-4.108-4.208-3.907-4.408-3.706-4.507-3.607-4.609-3.406-4.708-3.306-4.909-3.105-5.008-2.905-5.11-2.705-5.109-2.504-5.309-2.405-5.41m58.904 30.054l-13.523-45.881m-9.717 69.122l23.24-23.241m-58.904-30.053l45.38-15.828m13.524 45.881l-13.523-45.881m36.865 22.539v-35.062m-23.342 58.404l23.242-23.241m-36.765-22.641l36.765-12.221"/><path d="M411.126 570.809l-2.103-5.41-1.904-5.61-1.803-5.61-1.503-5.61-1.402-5.71-1.102-5.71-1.002-5.81-.7-5.81-.502-5.91-.3-5.811-.1-5.91m57.802 47.082l-10.519-47.083m-34.862 62.912l45.38-15.828m-57.301-46.583h47.084m10.218 46.582l-10.519-47.083m47.384 34.561v-34.06m-36.865 46.582l36.765-12.221m-46.983-34.361h47.083m-423.248-.4l.3-17.632.902-17.53 1.603-17.532 2.204-17.53 2.805-17.331 3.406-17.23 4.107-17.13 4.608-16.93 5.31-16.83 5.81-16.63 6.411-16.329m126.824 188.634l.2-11.821.602-11.62 1.102-11.722 1.402-11.62 1.903-11.62 2.304-11.521 2.705-11.42 3.106-11.22 3.506-11.22 3.907-11.12 4.207-10.919M70.625 508.398h164.29M107.59 319.364l151.768 62.811"/><path d="M234.414 507.998l.2-11.821.602-11.62 1.102-11.722 1.402-11.62 1.903-11.62 2.304-11.521 2.705-11.42 3.106-11.22 3.506-11.22 3.907-11.12 4.207-10.919m139.346 125.722l.1-5.81.301-5.81.501-5.91.701-5.81 1.002-5.811 1.102-5.71 1.402-5.71 1.503-5.61 1.803-5.61 1.904-5.61 2.103-5.41m-176.712 62.912l164.29-.1M259.358 382.175l151.768 62.911M107.59 319.364l7.113-16.128 7.513-15.928 8.214-15.528 8.716-15.327 9.216-14.926 9.817-14.626 10.219-14.325 10.819-13.825 11.32-13.524 11.72-13.123 12.222-12.622m44.879 222.693l4.709-10.719 5.109-10.618 5.41-10.319 5.81-10.218 6.21-10.017 6.512-9.718 6.812-9.516 7.213-9.217 7.513-9.016 7.814-8.715 8.114-8.515M107.59 319.364l151.768 62.811m-44.879-222.693l116.105 116.105"/><path d="M259.358 382.175l4.709-10.719 5.109-10.618 5.41-10.319 5.81-10.218 6.21-10.017 6.512-9.718 6.812-9.516 7.213-9.217 7.513-9.016 7.814-8.715 8.114-8.515m80.542 169.499l2.405-5.41 2.504-5.309 2.705-5.109 2.905-5.109 3.105-5.008 3.306-4.91 3.406-4.707 3.607-4.609 3.706-4.508 3.907-4.407 4.107-4.208m-187.431-9.617l151.768 62.911m-80.542-169.499L446.79 391.792m-48.086 116.105l.1-5.81.301-5.81.501-5.91.701-5.81 1.002-5.811 1.102-5.71 1.402-5.71 1.503-5.61 1.803-5.61 1.904-5.61 2.103-5.41m34.862 62.811l10.519-46.983m-57.302 47.484h47.084m-35.163-63.312l45.38 15.828m-10.518 46.983l10.519-46.983m36.865 47.484v-35.062m-47.083 35.062h47.083m-36.865-47.484l36.765 12.222"/><path d="M411.126 445.086l2.405-5.41 2.504-5.309 2.705-5.109 2.905-5.109 3.105-5.008 3.306-4.91 3.406-4.707 3.607-4.609 3.706-4.508 3.907-4.407 4.107-4.208m9.718 69.122l13.523-45.88m-58.904 30.052l45.38 15.828m-9.716-69.122l23.24 23.241m-13.523 45.881l13.523-45.88m23.342 58.302v-35.062m-36.865 22.64l36.765 12.222m-23.242-58.103l23.242 23.241M911.41 856.413L795.305 740.308M1018.3 696.53l-151.77-62.81m44.88 222.693l12.222-12.622 11.72-13.123 11.32-13.524 10.82-13.825 10.218-14.325 9.817-14.626 9.216-14.926 8.716-15.327 8.214-15.528 7.514-15.928 7.112-16.128m-222.994 43.777l8.115-8.515 7.813-8.715 7.514-9.016 7.212-9.217 6.812-9.516 6.512-9.718 6.21-10.017 5.811-10.218 5.41-10.319 5.109-10.618 4.708-10.72M1018.3 696.53l-151.77-62.81m188.835-125.322h-164.29M1018.3 696.53l6.41-16.328 5.81-16.63 5.31-16.83 4.608-16.93 4.108-17.13 3.406-17.23 2.805-17.33 2.203-17.532 1.603-17.53.902-17.531.3-17.531M866.531 633.72l4.207-10.92 3.907-11.12 3.507-11.22 3.105-11.219 2.705-11.42 2.304-11.52 1.903-11.621 1.403-11.62 1.102-11.721.6-11.62.201-11.721m-96.17 232.31L679.1 624.103m187.431 9.617l-151.768-62.911"/><path d="M795.305 740.308l8.115-8.515 7.813-8.715 7.514-9.016 7.212-9.217 6.812-9.516 6.512-9.718 6.21-10.017 5.811-10.218 5.41-10.319 5.109-10.618 4.708-10.72M679.1 624.103l4.107-4.208 3.907-4.408 3.707-4.507 3.606-4.609 3.406-4.708 3.306-4.909 3.105-5.008 2.905-5.11 2.705-5.109 2.505-5.309 2.404-5.41m151.768 62.912l-151.768-62.911m176.712-62.811l-164.29-.1M866.531 633.72l4.207-10.92 3.907-11.12 3.507-11.22 3.105-11.219 2.705-11.42 2.304-11.52 1.903-11.621 1.403-11.62 1.102-11.721.6-11.62.201-11.721m-176.712 62.811l2.104-5.41 1.903-5.61 1.803-5.61 1.503-5.61 1.402-5.71 1.102-5.71 1.002-5.81.701-5.81.501-5.91.3-5.811.1-5.91m328.181.5h-164.29M1018.3 319.364l-151.77 62.811m189.235 125.823l-.3-17.632-.902-17.53-1.603-17.532-2.203-17.53-2.805-17.331-3.406-17.23-4.108-17.13-4.608-16.93-5.31-16.83-5.81-16.63-6.41-16.329M891.475 507.998l-.2-11.821-.601-11.62-1.102-11.722-1.403-11.62-1.903-11.62-2.304-11.521-2.705-11.42-3.105-11.22-3.507-11.22-3.907-11.12-4.207-10.919m151.769-62.811l-151.77 62.811m44.88-222.693L795.305 275.587m222.995 43.777l-7.113-16.128-7.514-15.928-8.214-15.528-8.716-15.327-9.216-14.926-9.817-14.626-10.218-14.325-10.82-13.825-11.32-13.524-11.72-13.123-12.222-12.622m-44.879 222.693l-4.708-10.719-5.11-10.618-5.409-10.319-5.81-10.218-6.211-10.017-6.512-9.718-6.812-9.516-7.212-9.217-7.514-9.016-7.813-8.715-8.115-8.515m96.17 232.411l-164.29-.1m139.346-125.723l-151.768 62.911"/><path d="M891.475 507.998l-.2-11.821-.601-11.62-1.102-11.722-1.403-11.62-1.903-11.62-2.304-11.521-2.705-11.42-3.105-11.22-3.507-11.22-3.907-11.12-4.207-10.919M727.185 507.897l-.1-5.81-.3-5.81-.502-5.91-.701-5.81-1.002-5.811-1.102-5.71-1.402-5.71-1.503-5.61-1.803-5.61-1.903-5.61-2.104-5.41m151.768-62.911l-151.768 62.911m80.542-169.499L679.1 391.792m187.431-9.617l-4.708-10.719-5.11-10.618-5.409-10.319-5.81-10.218-6.211-10.017-6.512-9.718-6.812-9.516-7.212-9.217-7.514-9.016-7.813-8.715-8.115-8.515m-80.542 169.499l-2.404-5.41-2.505-5.309-2.705-5.109-2.905-5.109-3.105-5.008-3.306-4.91-3.406-4.707-3.606-4.609-3.707-4.508-3.907-4.407-4.107-4.208m0 232.311l-23.241-23.241m58.904-30.053l-45.38-15.828m9.717 69.122l4.107-4.208 3.907-4.408 3.707-4.507 3.606-4.609 3.406-4.708 3.306-4.909 3.105-5.008 2.905-5.11 2.705-5.109 2.505-5.309 2.404-5.41m-58.904 30.054l13.524-45.881m45.38 15.828l-45.38-15.828m57.401-46.583h-47.083m35.062 62.411l2.104-5.41 1.903-5.61 1.803-5.61 1.503-5.61 1.402-5.71 1.102-5.71 1.002-5.81.701-5.81.501-5.91.3-5.811.1-5.91m-57.801 47.082l10.518-47.083m-24.042 92.965l-23.241-23.241m36.765-22.641l-36.765-12.221m23.241 58.103l13.524-45.881m-36.765 22.539v-35.062m36.765 12.522l-36.765-12.221m47.082-34.361h-47.082m36.765 46.582l10.518-47.083m-47.283 34.561v-34.06m94.166 0h-47.083m35.062-63.312l-45.38 15.828"/><path d="M727.185 507.897l-.1-5.81-.3-5.81-.502-5.91-.701-5.81-1.002-5.811-1.102-5.71-1.402-5.71-1.503-5.61-1.803-5.61-1.903-5.61-2.104-5.41m-34.862 62.811l-10.518-46.983m45.38-15.828l-45.38 15.828m9.717-69.122l-23.241 23.241m58.904 30.053l-2.404-5.41-2.505-5.309-2.705-5.109-2.905-5.109-3.105-5.008-3.306-4.91-3.406-4.707-3.606-4.609-3.707-4.508-3.907-4.407-4.107-4.208m-9.717 69.122l-13.524-45.88m23.841 93.364h-47.082m36.765-47.484l-36.765 12.222m47.283 34.761l-10.518-46.983m-36.765 47.484v-35.062m36.765-12.422l-36.765 12.222m23.241-58.103l-23.241 23.241m36.765 22.64l-13.524-45.88m-23.241 58.302v-35.062M214.479 159.482l12.622-12.222 13.123-11.72 13.524-11.32 13.825-10.82 14.325-10.218 14.626-9.817 14.926-9.216 15.327-8.716 15.528-8.214 15.928-7.514 16.128-7.112m-43.777 222.994l8.515-8.114 8.716-7.814 9.015-7.513 9.217-7.213 9.517-6.812 9.717-6.512 10.017-6.21 10.218-5.811 10.319-5.41 10.618-5.109 10.72-4.708m-222.694-44.879l116.105 116.105m43.777-222.994l62.811 151.768"/><path d="M330.584 275.587l8.515-8.114 8.716-7.814 9.015-7.513 9.217-7.213 9.517-6.812 9.717-6.512 10.017-6.21 10.218-5.811 10.319-5.41 10.618-5.109 10.72-4.708m9.617 187.431l4.207-4.107 4.408-3.907 4.508-3.706 4.608-3.607 4.708-3.406 4.909-3.306 5.009-3.105 5.109-2.905 5.109-2.705 5.309-2.505 5.41-2.404m-169.5-80.542L446.79 391.792m-9.618-187.431l62.912 151.768M374.361 52.593l16.33-6.411 16.629-5.81 16.83-5.31 16.93-4.608 17.13-4.107 17.23-3.406 17.33-2.805 17.532-2.204 17.53-1.603 17.532-.902 17.53-.3M437.172 204.361l10.92-4.207 11.12-3.907 11.22-3.506 11.219-3.106 11.42-2.705 11.52-2.304 11.621-1.903 11.62-1.403 11.721-1.102 11.62-.6 11.722-.201M374.361 52.593l62.811 151.768M562.494 15.527v164.29"/><path d="M437.172 204.361l10.92-4.207 11.12-3.907 11.22-3.506 11.219-3.106 11.42-2.705 11.52-2.304 11.621-1.903 11.62-1.403 11.721-1.102 11.62-.6 11.722-.201M500.084 356.13l5.41-2.104 5.61-1.904 5.609-1.803 5.61-1.503 5.71-1.402 5.71-1.102 5.81-1.002 5.81-.701 5.911-.501 5.81-.3 5.91-.1M437.172 204.361l62.912 151.768m62.811-176.712l.1 164.29M446.79 391.792l4.207-4.107 4.408-3.907 4.508-3.706 4.608-3.607 4.708-3.406 4.909-3.306 5.009-3.105 5.109-2.905 5.109-2.705 5.309-2.505 5.41-2.404m-30.054 58.904l45.882-13.524m-69.122-9.717l23.24 23.241m30.054-58.903l15.828 45.38m-45.882 13.523l45.882-13.524m-22.54 36.765h35.062m-58.404-23.241l23.242 23.241m22.64-36.764l12.221 36.764"/><path d="M500.084 356.13l5.41-2.104 5.61-1.904 5.609-1.803 5.61-1.503 5.71-1.402 5.71-1.102 5.81-1.002 5.81-.701 5.911-.501 5.81-.3 5.91-.1m-47.082 57.802l47.083-10.52m-62.911-34.86l15.828 45.38m47.584-57.402v47.083m-47.584 10.319l47.083-10.52m-34.561 47.284h35.062m-47.584-36.764l12.221 36.764m35.363-47.083v47.083m-.601-423.147l17.63.3 17.532.902 17.53 1.603 17.532 2.204 17.33 2.805 17.23 3.406 17.131 4.107 16.93 4.608 16.83 5.31 16.629 5.81 16.329 6.41M562.895 179.417l11.82.2 11.621.601 11.72 1.102 11.621 1.403 11.62 1.903 11.521 2.304 11.42 2.705 11.22 3.106 11.22 3.506 11.12 3.907 10.919 4.207M562.494 15.527v164.29M751.528 52.593L688.717 204.36"/><path d="M562.895 179.417l11.82.2 11.621.601 11.72 1.102 11.621 1.403 11.62 1.903 11.521 2.304 11.42 2.705 11.22 3.106 11.22 3.506 11.12 3.907 10.919 4.207M562.995 343.707l5.81.1 5.81.301 5.91.5 5.811.702 5.81 1.002 5.71 1.102 5.71 1.402 5.61 1.503 5.61 1.803 5.61 1.904 5.41 2.103m-62.911-176.712l.1 164.29m125.722-139.346L625.806 356.13M751.528 52.593l16.128 7.112 15.928 7.514 15.528 8.214 15.327 8.716 14.926 9.216 14.626 9.817 14.326 10.218 13.824 10.82 13.524 11.32 13.123 11.72 12.622 12.222m-222.693 44.879l10.719 4.708 10.619 5.11 10.318 5.409 10.218 5.81 10.018 6.211 9.717 6.512 9.517 6.812 9.216 7.213 9.016 7.513 8.715 7.814 8.515 8.114M751.528 52.593L688.717 204.36m222.693-44.878L795.305 275.587"/><path d="M688.717 204.361l10.719 4.708 10.619 5.11 10.318 5.409 10.218 5.81 10.018 6.211 9.717 6.512 9.517 6.812 9.216 7.213 9.016 7.513 8.715 7.814 8.515 8.114M625.806 356.13l5.41 2.403 5.309 2.505 5.109 2.705 5.109 2.905 5.009 3.105 4.908 3.306 4.709 3.406 4.608 3.607 4.508 3.706 4.407 3.907 4.208 4.107m9.617-187.431L625.806 356.13m169.499-80.543L679.1 391.792m-116.105-48.085l5.81.1 5.81.301 5.91.5 5.811.702 5.81 1.002 5.71 1.102 5.71 1.402 5.61 1.503 5.61 1.803 5.61 1.904 5.41 2.103m-62.811 34.861l46.983 10.52m-46.482-57.402v47.083m62.31-35.061l-15.828 45.38m-46.983-10.52l46.983 10.52m-46.482 36.764h34.06m-34.06-47.083v47.083m46.482-36.764l-12.222 36.764"/><path d="M625.806 356.13l5.41 2.403 5.309 2.505 5.109 2.705 5.109 2.905 5.009 3.105 4.908 3.306 4.709 3.406 4.608 3.607 4.508 3.706 4.407 3.907 4.208 4.107m-69.122 9.718l45.88 13.523m-30.052-58.903l-15.828 45.38m69.122-9.718l-23.241 23.241m-45.881-13.523l45.88 13.523m-58.302 23.241h35.062m-22.64-36.764l-12.222 36.764m58.103-23.241l-23.241 23.241"/></g></svg>