<?xml version="1.0" encoding="UTF-8" standalone="no"?>
<svg
   xmlns:dc="http://purl.org/dc/elements/1.1/"
   xmlns:cc="http://creativecommons.org/ns#"
   xmlns:rdf="http://www.w3.org/1999/02/22-rdf-syntax-ns#"
   xmlns:svg="http://www.w3.org/2000/svg"
   xmlns="http://www.w3.org/2000/svg"
   xmlns:sodipodi="http://sodipodi.sourceforge.net/DTD/sodipodi-0.dtd"
   xmlns:inkscape="http://www.inkscape.org/namespaces/inkscape"
   viewBox="0 0 869.63239 928.40999"
   version="1.2"
   id="svg708"
   sodipodi:docname="exact_vs_interpolate_q1.svg"
   inkscape:version="0.92.2 5c3e80d, 2017-08-06">
  <metadata
     id="metadata712">
    <rdf:RDF>
      <cc:Work
         rdf:about="">
        <dc:format>image/svg+xml</dc:format>
        <dc:type
           rdf:resource="http://purl.org/dc/dcmitype/StillImage" />
      </cc:Work>
    </rdf:RDF>
  </metadata>
  <sodipodi:namedview
     pagecolor="#ffffff"
     bordercolor="#666666"
     borderopacity="1"
     objecttolerance="10"
     gridtolerance="10"
     guidetolerance="10"
     inkscape:pageopacity="0"
     inkscape:pageshadow="2"
     inkscape:window-width="640"
     inkscape:window-height="480"
     id="namedview710"
     showgrid="false"
     inkscape:zoom="0.11484381"
     inkscape:cx="939.01653"
     inkscape:cy="619.3419"
     inkscape:window-x="0"
     inkscape:window-y="0"
     inkscape:window-maximized="0"
     inkscape:current-layer="svg708" />
  <title
     id="title632">Qt SVG Document</title>
  <desc
     id="desc634">Generated with Qt</desc>
  <defs
     id="defs636" />
  <g
     id="g706"
     style="fill:none;fill-rule:evenodd;stroke:#000000;stroke-width:1;stroke-linecap:square;stroke-linejoin:bevel"
     transform="translate(-255.73721,-13.096465)">
    <g
       font-size="9"
       font-weight="400"
       font-style="normal"
       id="g638"
       style="font-style:normal;font-weight:400;font-size:9px;font-family:'Sans Serif';fill:none;stroke:#000000;stroke-width:1;stroke-linecap:square;stroke-linejoin:bevel;stroke-opacity:1" />
    <g
       transform="scale(1.00104)"
       font-size="9"
       font-weight="400"
       font-style="normal"
       id="g640"
       style="font-style:normal;font-weight:400;font-size:9px;font-family:'Sans Serif';fill:none;stroke:#000000;stroke-width:1;stroke-linecap:square;stroke-linejoin:bevel;stroke-opacity:1" />
    <g
       transform="scale(1.00104)"
       font-size="9"
       font-weight="400"
       font-style="normal"
       id="g644"
       style="font-style:normal;font-weight:400;font-size:9px;font-family:'Sans Serif';fill:none;stroke:#000000;stroke-width:1;stroke-linecap:round;stroke-linejoin:round;stroke-opacity:1">
      <polyline
         points="257.5,15.5 257.5,15.5 257.5,938.5 1122.5,938.5 1122.5,15.5 257.5,15.5 "
         id="polyline642"
         style="vector-effect:none;fill:none" />
    </g>
    <g
       transform="scale(1.00104)"
       font-size="9"
       font-weight="400"
       font-style="normal"
       id="g646"
       style="font-style:normal;font-weight:400;font-size:9px;font-family:'Sans Serif';fill:none;stroke:#000000;stroke-width:1;stroke-linecap:square;stroke-linejoin:bevel;stroke-opacity:1" />
    <g
       transform="scale(1.00104)"
       font-size="9"
       font-weight="400"
       font-style="normal"
       id="g648"
       style="font-style:normal;font-weight:400;font-size:9px;font-family:'Sans Serif';fill:none;stroke:#000000;stroke-width:1;stroke-linecap:square;stroke-linejoin:bevel;stroke-opacity:1" />
    <g
       transform="scale(1.00104)"
       font-size="9"
       font-weight="400"
       font-style="normal"
       id="g650"
       style="font-style:normal;font-weight:400;font-size:9px;font-family:'Sans Serif';fill:none;stroke:#000000;stroke-width:1;stroke-linecap:square;stroke-linejoin:bevel;stroke-opacity:1" />
    <g
       transform="scale(1.00104)"
       font-size="9"
       font-weight="400"
       font-style="normal"
       id="g652"
       style="font-style:normal;font-weight:400;font-size:9px;font-family:'Sans Serif';fill:none;stroke:#000000;stroke-width:1;stroke-linecap:square;stroke-linejoin:bevel;stroke-opacity:1" />
    <g
       transform="scale(1.00104)"
       font-size="9"
       font-weight="400"
       font-style="normal"
       id="g668"
       style="font-style:normal;font-weight:400;font-size:9px;font-family:'Sans Serif';fill:none;stroke:#ff0000;stroke-width:4;stroke-linecap:round;stroke-linejoin:round;stroke-dasharray:4, 8;stroke-dashoffset:0;stroke-opacity:1">
      <polyline
         points="306.5,938.5 306.5,600.5 257.5,600.5 "
         id="polyline654"
         style="vector-effect:none;fill:none" />
      <polyline
         points="784.4,122.3 784.4,122.3 306.5,600.1 "
         id="polyline656"
         style="vector-effect:none;fill:none" />
      <polyline
         points="1122.2,938 1122.2,923.1 1121.4,893.5 1119.9,863.8 1117.6,834.2 1114.6,804.6 1110.7,775.2 1106.2,745.8 1100.8,716.6 1094.8,687.5 1087.9,658.6 1080.4,629.9 1072.1,601.3 1063,573 1053.3,545 1042.8,517.2 1031.6,489.7 1019.7,462.5 1007.1,435.6 993.8,409 979.9,382.8 965.2,356.9 950,331.4 934,306.4 917.4,281.7 900.2,257.5 882.4,233.8 863.9,210.5 844.9,187.7 825.3,165.3 805.1,143.5 784.4,122.3 "
         id="polyline658"
         style="vector-effect:none;fill:none" />
      <polyline
         points="306.5,938.5 306.5,600.5 "
         id="polyline660"
         style="vector-effect:none;fill:none" />
      <polyline
         points="660.6,15.1 672.9,24.3 696.2,42.7 719,61.7 741.3,81.4 763.1,101.5 784.4,122.3 "
         id="polyline662"
         style="vector-effect:none;fill:none" />
      <polyline
         points="257.5,600.5 306.5,600.5 "
         id="polyline664"
         style="vector-effect:none;fill:none" />
      <polyline
         points="784.4,122.3 784.4,122.3 306.5,600.1 "
         id="polyline666"
         style="vector-effect:none;fill:none" />
    </g>
    <g
       transform="scale(1.00104)"
       font-size="9"
       font-weight="400"
       font-style="normal"
       id="g670"
       style="font-style:normal;font-weight:400;font-size:9px;font-family:'Sans Serif';fill:none;stroke:#000000;stroke-width:1;stroke-linecap:square;stroke-linejoin:bevel;stroke-opacity:1" />
    <g
       transform="scale(1.00104)"
       font-size="9"
       font-weight="400"
       font-style="normal"
       id="g672"
       style="font-style:normal;font-weight:400;font-size:9px;font-family:'Sans Serif';fill:none;stroke:#000000;stroke-width:1;stroke-linecap:square;stroke-linejoin:bevel;stroke-opacity:1" />
    <g
       transform="scale(1.00104)"
       font-size="9"
       font-weight="400"
       font-style="normal"
       id="g674"
       style="font-style:normal;font-weight:400;font-size:9px;font-family:'Sans Serif';fill:none;stroke:#000000;stroke-width:1;stroke-linecap:square;stroke-linejoin:bevel;stroke-opacity:1" />
    <g
       transform="scale(1.00104)"
       font-size="9"
       font-weight="400"
       font-style="normal"
       id="g676"
       style="font-style:normal;font-weight:400;font-size:9px;font-family:'Sans Serif';fill:none;stroke:#000000;stroke-width:1;stroke-linecap:square;stroke-linejoin:bevel;stroke-opacity:1" />
    <g
       transform="scale(1.00104)"
       font-size="9"
       font-weight="400"
       font-style="normal"
       id="g692"
       style="font-style:normal;font-weight:400;font-size:9px;font-family:'Sans Serif';fill:none;stroke:#000000;stroke-width:4;stroke-linecap:round;stroke-linejoin:round;stroke-opacity:1">
      <polyline
         points="306.5,938.5 306.5,600.5 257.5,600.5 "
         id="polyline678"
         style="vector-effect:none;fill:none" />
      <polyline
         points="784.4,122.3 784.4,122.3 306.5,600.1 "
         id="polyline680"
         style="vector-effect:none;fill:none" />
      <polyline
         points="784.5,938.5 784.5,924.5 784.5,897.5 784.5,871.5 784.5,844.5 784.5,817.5 784.5,790.5 784.5,764.5 784.5,737.5 784.5,710.5 784.5,683.5 784.5,657.5 784.5,630.5 784.5,603.5 784.5,576.5 784.5,550.5 784.5,523.5 784.5,496.5 784.5,470.5 784.5,443.5 784.5,416.5 784.5,389.5 784.5,363.5 784.5,336.5 784.5,309.5 784.5,282.5 784.5,256.5 784.5,229.5 784.5,202.5 784.5,175.5 784.5,149.5 784.5,122.5 "
         id="polyline682"
         style="vector-effect:none;fill:none" />
      <polyline
         points="306.5,938.5 306.5,600.5 "
         id="polyline684"
         style="vector-effect:none;fill:none" />
      <polyline
         points="257.5,122.5 276.5,122.5 302.5,122.5 329.5,122.5 356.5,122.5 383.5,122.5 409.5,122.5 436.5,122.5 463.5,122.5 490.5,122.5 516.5,122.5 543.5,122.5 570.5,122.5 597.5,122.5 623.5,122.5 650.5,122.5 677.5,122.5 704.5,122.5 730.5,122.5 757.5,122.5 784.5,122.5 "
         id="polyline686"
         style="vector-effect:none;fill:none" />
      <polyline
         points="257.5,600.5 306.5,600.5 "
         id="polyline688"
         style="vector-effect:none;fill:none" />
      <polyline
         points="784.4,122.3 784.4,122.3 306.5,600.1 "
         id="polyline690"
         style="vector-effect:none;fill:none" />
    </g>
    <g
       transform="scale(1.00104)"
       font-size="9"
       font-weight="400"
       font-style="normal"
       id="g694"
       style="font-style:normal;font-weight:400;font-size:9px;font-family:'Sans Serif';fill:none;stroke:#000000;stroke-width:1;stroke-linecap:square;stroke-linejoin:bevel;stroke-opacity:1" />
    <g
       transform="scale(1.00104)"
       font-size="9"
       font-weight="400"
       font-style="normal"
       id="g696"
       style="font-style:normal;font-weight:400;font-size:9px;font-family:'Sans Serif';fill:none;stroke:#000000;stroke-width:1;stroke-linecap:square;stroke-linejoin:bevel;stroke-opacity:1" />
    <g
       transform="scale(1.00104)"
       font-size="9"
       font-weight="400"
       font-style="normal"
       id="g700"
       style="font-style:normal;font-weight:400;font-size:9px;font-family:'Sans Serif';fill:none;stroke:#000000;stroke-width:1;stroke-linecap:round;stroke-linejoin:round;stroke-opacity:1">
      <polyline
         points="257.5,15.5 257.5,938.5 1122.5,938.5 1122.5,15.5 257.5,15.5 "
         id="polyline698"
         style="vector-effect:none;fill:none" />
    </g>
    <g
       transform="scale(1.00104)"
       font-size="9"
       font-weight="400"
       font-style="normal"
       id="g702"
       style="font-style:normal;font-weight:400;font-size:9px;font-family:'Sans Serif';fill:none;stroke:#000000;stroke-width:1;stroke-linecap:square;stroke-linejoin:bevel;stroke-opacity:1" />
    <g
       font-size="9"
       font-weight="400"
       font-style="normal"
       id="g704"
       style="font-style:normal;font-weight:400;font-size:9px;font-family:'Sans Serif';fill:none;stroke:#000000;stroke-width:1;stroke-linecap:square;stroke-linejoin:bevel;stroke-opacity:1" />
  </g>
</svg>
