<svg width="1506.667" height="1356" viewBox="0 0 1130 1017" xmlns="http://www.w3.org/2000/svg" version="1.2" baseProfile="tiny"><g stroke-width="3.005" stroke-miterlimit="2" fill="none" stroke="#000" fill-rule="evenodd" font-family="Sans Serif" font-size="9" font-weight="400"><path d="M493.372 577.52v-69.122m70.124 69.122v-69.122m-70.124 69.122h70.124m-70.124-69.122h70.124m0 69.122v-69.122m69.122 69.122v-69.122m-69.122 69.122h69.122m-69.122-69.122h69.122m-139.246 0v-70.124m70.124 70.124v-70.124m-70.124 70.124h70.124m-70.124-70.124h70.124m0 70.124v-70.124m69.122 70.124v-70.124m-69.122 70.124h69.122m-69.122-70.124h69.122M446.79 624.103l23.24-23.241m30.054 58.904l15.828-45.38m-69.122 9.717l4.207 4.107 4.408 3.907 4.508 3.706 4.608 3.607 4.708 3.406 4.909 3.306 5.009 3.105 5.109 2.905 5.109 2.705 5.309 2.504 5.41 2.405m-30.054-58.904l45.882 13.524m-15.828 45.38l15.828-45.38m47.584 58.303v-48.085m-63.412 35.162l5.41 2.103 5.61 1.904 5.609 1.803 5.61 1.503 5.71 1.402 5.71 1.102 5.81 1.002 5.81.701 5.911.501 5.81.3 5.91.1m-47.082-57.801l47.083 10.518m-92.965-24.042l23.242-23.241m22.64 36.765l12.221-36.765m-58.103 23.241l45.882 13.524m-22.54-36.866h35.062m-12.522 36.866l12.221-36.765m35.363 46.983V577.52m-47.584 36.866l47.083 10.518m-34.561-47.384h35.062m0 95.169v-48.085m62.31 35.162l-15.828-45.38m-46.983 57.802l5.81-.1 5.81-.301 5.91-.5 5.811-.702 5.81-1.002 5.71-1.102 5.71-1.402 5.61-1.503 5.61-1.803 5.61-1.904 5.41-2.103m-62.811-34.862l46.983-10.518m15.828 45.38l-15.828-45.38m69.122 9.717l-23.241-23.241m-30.053 58.904l5.41-2.405 5.309-2.504 5.109-2.705 5.109-2.905 5.009-3.105 4.908-3.306 4.709-3.406 4.608-3.607 4.508-3.706 4.407-3.907 4.208-4.107m-69.122-9.717l45.88-13.524m-92.362 23.742V577.52m46.482 36.866l-12.222-36.765m-34.761 47.283l46.983-10.518m-46.482-36.866h34.06m12.422 36.866l-12.222-36.765m58.103 23.241l-23.241-23.241m-22.64 36.765l45.88-13.524m-58.302-23.342h35.062M446.79 624.103l-4.108-4.208-3.907-4.408-3.706-4.507-3.607-4.609-3.406-4.708-3.306-4.909-3.105-5.008-2.905-5.11-2.705-5.109-2.504-5.309-2.405-5.41m58.904 30.054l-13.523-45.881m-9.717 69.122l23.24-23.241m-58.904-30.053l45.38-15.828m13.524 45.881l-13.523-45.881m36.865 22.539v-35.062m-23.342 58.404l23.242-23.241m-36.765-22.641l36.765-12.221m-82.146 28.05l-2.103-5.41-1.904-5.61-1.803-5.61-1.503-5.61-1.402-5.71-1.102-5.71-1.002-5.81-.7-5.81-.502-5.91-.3-5.811-.1-5.91m57.802 47.082l-10.519-47.083m-34.862 62.912l45.38-15.828m-57.301-46.583h47.084m10.218 46.582l-10.519-47.083m47.384 34.561v-34.06m-36.865 46.582l36.765-12.221m-46.983-34.361h47.083m-94.668-.501l.1-5.81.301-5.81.501-5.91.701-5.81 1.002-5.811 1.102-5.71 1.402-5.71 1.503-5.61 1.803-5.61 1.904-5.61 2.103-5.41m34.862 62.811l10.519-46.983m-57.302 47.484h47.084m-35.163-63.312l45.38 15.828m-10.518 46.983l10.519-46.983m36.865 47.484v-35.062m-47.083 35.062h47.083m-36.865-47.484l36.765 12.222m-82.146-28.05l2.405-5.41 2.504-5.309 2.705-5.109 2.905-5.109 3.105-5.008 3.306-4.91 3.406-4.707 3.607-4.609 3.706-4.508 3.907-4.407 4.107-4.208m9.718 69.122l13.523-45.88m-58.904 30.052l45.38 15.828m-9.716-69.122l23.24 23.241m-13.523 45.881l13.523-45.88m23.342 58.302v-35.062m-36.865 22.64l36.765 12.222m-23.242-58.103l23.242 23.241M679.1 624.103l-23.241-23.241m58.904-30.053l-45.38-15.828m9.717 69.122l4.107-4.208 3.907-4.408 3.707-4.507 3.606-4.609 3.406-4.708 3.306-4.909 3.105-5.008 2.905-5.11 2.705-5.109 2.505-5.309 2.404-5.41m-58.904 30.054l13.524-45.881m45.38 15.828l-45.38-15.828m57.401-46.583h-47.083m35.062 62.411l2.104-5.41 1.903-5.61 1.803-5.61 1.503-5.61 1.402-5.71 1.102-5.71 1.002-5.81.701-5.81.501-5.91.3-5.811.1-5.91m-57.801 47.082l10.518-47.083m-24.042 92.965l-23.241-23.241m36.765-22.641l-36.765-12.221m23.241 58.103l13.524-45.881m-36.765 22.539v-35.062m36.765 12.522l-36.765-12.221m47.082-34.361h-47.082m36.765 46.582l10.518-47.083m-47.283 34.561v-34.06m94.166 0h-47.083m35.062-63.312l-45.38 15.828m57.802 46.983l-.1-5.81-.3-5.81-.502-5.91-.701-5.81-1.002-5.811-1.102-5.71-1.402-5.71-1.503-5.61-1.803-5.61-1.903-5.61-2.104-5.41m-34.862 62.811l-10.518-46.983m45.38-15.828l-45.38 15.828m9.717-69.122l-23.241 23.241m58.904 30.053l-2.404-5.41-2.505-5.309-2.705-5.109-2.905-5.109-3.105-5.008-3.306-4.91-3.406-4.707-3.606-4.609-3.707-4.508-3.907-4.407-4.107-4.208m-9.717 69.122l-13.524-45.88m23.841 93.364h-47.082m36.765-47.484l-36.765 12.222m47.283 34.761l-10.518-46.983m-36.765 47.484v-35.062m36.765-12.422l-36.765 12.222m23.241-58.103l-23.241 23.241m36.765 22.64l-13.524-45.88m-23.241 58.302v-35.062M446.79 391.792l4.207-4.107 4.408-3.907 4.508-3.706 4.608-3.607 4.708-3.406 4.909-3.306 5.009-3.105 5.109-2.905 5.109-2.705 5.309-2.505 5.41-2.404m-30.054 58.904l45.882-13.524m-69.122-9.717l23.24 23.241m30.054-58.903l15.828 45.38m-45.882 13.523l45.882-13.524m-22.54 36.765h35.062m-58.404-23.241l23.242 23.241m22.64-36.764l12.221 36.764m-28.049-82.144l5.41-2.104 5.61-1.904 5.609-1.803 5.61-1.503 5.71-1.402 5.71-1.102 5.81-1.002 5.81-.701 5.911-.501 5.81-.3 5.91-.1m-47.082 57.802l47.083-10.52m-62.911-34.86l15.828 45.38m47.584-57.402v47.083m-47.584 10.319l47.083-10.52m-34.561 47.284h35.062m-47.584-36.764l12.221 36.764m35.363-47.083v47.083m-.501-94.567l5.81.1 5.81.301 5.91.5 5.811.702 5.81 1.002 5.71 1.102 5.71 1.402 5.61 1.503 5.61 1.803 5.61 1.904 5.41 2.103m-62.811 34.861l46.983 10.52m-46.482-57.402v47.083m62.31-35.061l-15.828 45.38m-46.983-10.52l46.983 10.52m-46.482 36.764h34.06m-34.06-47.083v47.083m46.482-36.764l-12.222 36.764m28.05-82.144l5.41 2.403 5.309 2.505 5.109 2.705 5.109 2.905 5.009 3.105 4.908 3.306 4.709 3.406 4.608 3.607 4.508 3.706 4.407 3.907 4.208 4.107m-69.122 9.718l45.88 13.523m-30.052-58.903l-15.828 45.38m69.122-9.718l-23.241 23.241m-45.881-13.523l45.88 13.523m-58.302 23.241h35.062m-22.64-36.764l-12.222 36.764m58.103-23.241l-23.241 23.241M214.479 856.413l58.103-58.102m16.528 119.41l45.682-68.32m-120.313 7.012l6.311 6.211 6.311 6.01 6.512 5.911 6.611 5.81 6.712 5.71 6.812 5.61 6.913 5.51 6.912 5.31 7.112 5.209 7.213 5.009 7.213 5.008M272.582 798.31l5.209 5.21 5.31 5.009 5.409 4.908 5.51 4.909 5.61 4.708 5.61 4.709 5.81 4.508 5.81 4.407 5.91 4.408 5.91 4.208 6.112 4.107m-45.682 68.32l45.682-68.32m39.569 113.901l31.456-75.934M289.11 917.721l7.414 4.809 7.413 4.708 7.513 4.508 7.614 4.408 7.713 4.308 7.714 4.207 7.814 4.007 7.914 3.807 8.014 3.706 8.014 3.607 8.114 3.506M334.792 849.4l6.11 4.008 6.211 3.907 6.311 3.806 6.312 3.707 6.41 3.606 6.412 3.406 6.512 3.306 6.611 3.306 6.612 3.106 6.712 2.905 6.812 2.905m-31.456 75.934l31.456-75.934m61.008 103.883l16.028-80.542m-108.492 52.593l8.115 3.206 8.214 3.205 8.315 3.006 8.315 2.805 8.314 2.704 8.515 2.605 8.415 2.404 8.515 2.204 8.515 2.104 8.616 2.003 8.615 1.703m-61.008-103.883l6.812 2.705 6.812 2.704 6.912 2.505 6.913 2.304 6.912 2.304 7.112 2.104 7.013 2.003 7.112 1.904 7.113 1.703 7.112 1.602 7.213 1.503m-16.028 80.542l16.028-80.542m79.641 90.561v-82.146m-95.669 72.127l8.615 1.703 8.715 1.503 8.616 1.302 8.715 1.203 8.816 1.001 8.715.802 8.816.7 8.715.602 8.816.4 8.815.201 8.716.1m-80.042-90.058l7.213 1.402 7.213 1.202 7.212 1.102 7.313 1.001 7.213.902 7.313.701 7.313.601 7.313.401 7.313.3 7.313.2 7.313.101m-80.042-7.913l16.028-80.543m63.613 88.957v-82.145"/><path d="M482.853 910.71l7.213 1.402 7.213 1.202 7.212 1.102 7.313 1.001 7.213.902 7.313.701 7.313.601 7.313.401 7.313.3 7.313.2 7.313.101m-64.014-88.456l5.71 1.102 5.81 1.002 5.811.901 5.81.802 5.81.6 5.81.602 5.911.5 5.81.301 5.81.3 5.911.201h5.81M468.628 735.6l31.456-75.834m14.826 89.858l16.028-80.542m-62.31 66.518l4.107 1.603 4.108 1.602 4.107 1.503 4.207 1.403 4.107 1.402 4.308 1.302 4.208 1.202 4.207 1.102 4.308 1.002 4.307 1.002 4.308.901m-14.826-89.858l2.704 1.001 2.705 1.102 2.805 1.002 2.805.902 2.705.901 2.905.902 2.805.801 2.805.702 2.805.7 2.905.702 2.905.601m-16.028 80.542l16.028-80.542m32.558 85.752v-82.145m-48.586 76.935l4.307.802 4.308.801 4.308.601 4.407.601 4.408.501 4.308.401 4.408.4 4.407.301 4.408.2 4.408.1h4.408m-32.057-85.25l2.805.501 2.905.501 2.905.5 2.905.402 2.906.3 2.905.3 3.005.201 2.905.2 2.905.1 2.905.1h3.006m-.501 329.083v-82.146m96.57 72.127l-16.028-80.542m-80.141 90.059l8.815-.1 8.816-.2 8.815-.401 8.716-.601 8.815-.701 8.716-.802 8.815-1.001 8.716-1.203 8.615-1.302 8.715-1.503 8.615-1.703m-96.169-72.628l7.413-.1 7.313-.2 7.313-.301 7.312-.4 7.313-.602 7.313-.701 7.213-.902 7.313-1.001 7.213-1.102 7.212-1.202 7.213-1.403m16.028 80.542l-16.028-80.542m108.492 52.593l-31.456-75.934m-61.008 103.883l8.616-1.703 8.615-2.003 8.515-2.104 8.515-2.204 8.415-2.404 8.515-2.605 8.315-2.704 8.314-2.805 8.315-3.006 8.215-3.205 8.114-3.206M643.036 910.71l7.213-1.504 7.112-1.602 7.113-1.703 7.113-1.904 7.012-2.003 7.113-2.104 6.912-2.304 6.912-2.304 6.912-2.505 6.812-2.704 6.812-2.705m-157.578 31.756v-82.145m80.542 73.731l-16.028-80.543"/><path d="M562.895 918.623l7.413-.1 7.313-.2 7.313-.301 7.312-.4 7.313-.602 7.313-.701 7.213-.902 7.313-1.001 7.213-1.102 7.212-1.202 7.213-1.403m-80.141-74.231h5.91l5.91-.2 5.81-.3 5.811-.301 5.91-.501 5.81-.601 5.811-.601 5.81-.802 5.81-.901 5.81-1.002 5.71-1.102m124.521 133.135l-31.456-75.934m116.706 30.353l-45.68-68.32m-39.57 113.901l8.114-3.506 8.014-3.607 8.015-3.706 7.913-3.807 7.814-4.007 7.714-4.207 7.714-4.308 7.613-4.408 7.513-4.508 7.413-4.708 7.413-4.809m-116.706-30.353l6.812-2.905 6.712-2.905 6.612-3.106 6.612-3.306 6.511-3.306 6.411-3.406 6.412-3.606 6.31-3.707 6.312-3.806 6.211-3.907 6.11-4.007m45.681 68.32l-45.68-68.32m120.312 7.012l-58.102-58.102m-16.53 119.41l7.213-5.008 7.213-5.01 7.113-5.208 6.912-5.31 6.912-5.51 6.812-5.61 6.712-5.71 6.612-5.81 6.511-5.91 6.311-6.01 6.311-6.212M791.098 849.4l6.11-4.106 5.911-4.208 5.91-4.408 5.81-4.407 5.811-4.508 5.61-4.709 5.61-4.708 5.51-4.909 5.41-4.908 5.308-5.01 5.21-5.208m-289.812-43.477v-82.145m47.484 76.935l-16.029-80.542m-31.956 85.251h4.307l4.408-.1 4.408-.2 4.408-.301 4.408-.401 4.307-.4 4.408-.502 4.408-.6 4.307-.602 4.308-.801 4.308-.802m-47.985-77.436h2.905l2.905-.1 2.905-.1 2.905-.201 3.006-.2 2.905-.3 2.905-.301 2.905-.401 2.905-.501 2.905-.5 2.805-.502m16.029 80.542l-16.029-80.542m62.31 66.518l-31.455-75.834m-14.826 89.858l4.307-.901 4.308-1.002 4.307-1.002 4.208-1.102 4.207-1.202 4.308-1.302 4.107-1.402 4.208-1.403 4.107-1.503 4.107-1.602 4.107-1.603m-62.31-66.518l2.905-.6 2.905-.702 2.805-.701 2.805-.702 2.805-.801 2.905-.902 2.705-.901 2.805-.902 2.805-1.002 2.705-1.102 2.705-1.001M214.479 856.413l-6.211-6.311-6.01-6.311-5.911-6.512-5.81-6.611-5.71-6.712-5.61-6.812-5.51-6.912-5.31-6.913-5.209-7.112-5.009-7.213-5.008-7.213m119.411 16.529l-5.21-5.209-5.008-5.31-4.91-5.409-4.908-5.51-4.708-5.61-4.708-5.61-4.508-5.81-4.408-5.81-4.408-5.91-4.207-5.91-4.108-6.111m-7.012 120.312l58.103-58.102m-119.412-16.53l68.321-45.68m-68.321 45.68l-4.808-7.413-4.708-7.413-4.508-7.513-4.408-7.614-4.308-7.713-4.207-7.714-4.007-7.814-3.807-7.914-3.706-8.014-3.607-8.014-3.506-8.114M221.491 736.1l-4.007-6.11-3.907-6.211-3.806-6.311-3.707-6.311-3.606-6.412-3.406-6.411-3.306-6.512-3.306-6.611-3.105-6.612-2.906-6.712-2.905-6.812M153.17 781.781l68.321-45.68M107.59 696.53l75.934-31.455M107.59 696.53l-3.206-8.114-3.205-8.214-3.006-8.315-2.804-8.315-2.705-8.314-2.605-8.515-2.404-8.415-2.204-8.515-2.104-8.515-2.003-8.615-1.703-8.616m103.883 61.008l-2.705-6.812-2.704-6.812-2.505-6.912-2.304-6.912-2.304-6.913-2.104-7.112-2.003-7.013-1.903-7.112-1.703-7.113-1.603-7.112-1.503-7.213M107.59 696.53l75.934-31.455M79.64 604.067l80.543-16.028M79.64 604.067l-1.702-8.615-1.503-8.715-1.302-8.616-1.202-8.715-1.002-8.816-.802-8.715-.7-8.815-.602-8.716-.4-8.815-.2-8.816-.101-8.715m90.059 80.041l-1.402-7.213-1.203-7.212-1.102-7.213-1.001-7.313-.902-7.213-.701-7.313-.601-7.313-.4-7.313-.301-7.313-.2-7.313-.101-7.312M79.64 604.067l80.543-16.028m-89.558-79.641h82.145"/><path d="M160.183 588.039l-1.402-7.213-1.203-7.212-1.102-7.213-1.001-7.313-.902-7.213-.701-7.313-.601-7.313-.4-7.313-.301-7.313-.2-7.313-.101-7.312m88.456 64.012l-1.102-5.71-1.001-5.81-.902-5.81-.801-5.81-.601-5.81-.602-5.81-.5-5.911-.3-5.81-.301-5.81-.2-5.911v-5.81m-74.232 80.041l80.542-16.028m-87.955-63.613h82.145m100.377 93.866l-1.602-4.107-1.603-4.107-1.503-4.108-1.402-4.207-1.403-4.107-1.302-4.308-1.202-4.207-1.102-4.208-1.002-4.307-1.002-4.308-.901-4.308m89.858 14.827l-1.001-2.705-1.102-2.705-1.002-2.805-.902-2.805-.901-2.705-.902-2.905-.801-2.805-.702-2.805-.7-2.805-.702-2.905-.601-2.905m-66.518 62.31l75.834-31.455m-89.858-14.827l80.542-16.028m-80.542 16.028l-.802-4.307-.801-4.308-.601-4.307-.601-4.408-.501-4.408-.4-4.308-.402-4.407-.3-4.408-.2-4.408-.1-4.408v-4.408m85.25 32.057l-.5-2.805-.502-2.905-.5-2.905-.401-2.905-.3-2.905-.301-2.906-.2-3.005-.201-2.905-.1-2.905-.1-2.905v-3.006m-77.437 48.085l80.542-16.028m-84.75-31.556h82.145m-329.081-.4l.1-8.816.2-8.816.401-8.815.601-8.716.701-8.815.802-8.716 1.002-8.815 1.202-8.716 1.302-8.615 1.503-8.715 1.703-8.615m72.628 96.17l.1-7.414.2-7.312.301-7.313.4-7.313.602-7.313.701-7.313.902-7.213 1.001-7.313 1.102-7.213 1.203-7.212 1.402-7.213m-89.558 80.542h82.145m-73.13-96.57l80.543 16.028"/><path d="M152.269 507.998l.1-7.414.2-7.312.301-7.313.4-7.313.602-7.313.701-7.313.902-7.213 1.001-7.313 1.102-7.213 1.203-7.212 1.402-7.213m74.231 80.142v-5.91l.2-5.911.301-5.81.3-5.81.501-5.911.602-5.81.6-5.81.802-5.811.902-5.81 1.001-5.81 1.102-5.71m-87.955 64.513h82.145m-74.732-80.542l80.542 16.028M79.64 411.828l1.704-8.616 2.003-8.615 2.104-8.515 2.204-8.515 2.404-8.415 2.605-8.515 2.705-8.314 2.804-8.315 3.006-8.315 3.205-8.214 3.206-8.115m52.593 108.492l1.503-7.213 1.603-7.112 1.703-7.113 1.903-7.112 2.003-7.013 2.104-7.112 2.304-6.913 2.304-6.912 2.505-6.912 2.704-6.812 2.705-6.812M79.64 411.828l80.543 16.028M107.59 319.364l75.934 31.456M316.56 507.897v-4.307l.1-4.408.2-4.408.3-4.408.401-4.407.4-4.308.502-4.408.6-4.408.602-4.307.801-4.308.802-4.307m77.436 47.984v-2.905l.1-2.905.1-2.905.201-2.905.2-3.005.301-2.906.3-2.905.401-2.905.501-2.905.501-2.905.5-2.805m-84.749 32.457h82.145m-77.937-48.485l80.542 16.028m-80.542-16.028l.901-4.308 1.002-4.308 1.002-4.307 1.102-4.208 1.202-4.207 1.302-4.308 1.403-4.107 1.402-4.207 1.503-4.108 1.603-4.107 1.602-4.107m66.518 62.309l.601-2.904.701-2.905.701-2.805.702-2.805.801-2.805.902-2.905.901-2.705.902-2.805 1.002-2.805 1.102-2.705 1.001-2.705m-89.858 14.827l80.542 16.028m-66.518-62.311l75.834 31.456M107.59 319.364l3.506-8.114 3.607-8.014 3.706-8.014 3.807-7.914 4.007-7.814 4.207-7.714 4.308-7.713 4.408-7.614 4.508-7.513 4.708-7.413 4.809-7.413m30.353 116.706l2.905-6.812 2.906-6.712 3.105-6.612 3.306-6.611 3.306-6.512 3.406-6.411 3.606-6.412 3.707-6.31 3.806-6.312 3.907-6.21 4.007-6.112m-113.901 39.57l75.934 31.456M153.17 234.114l68.321 45.68m-68.321-45.68l5.01-7.213 5.008-7.213 5.21-7.112 5.309-6.913 5.51-6.912 5.61-6.812 5.71-6.712 5.81-6.611 5.91-6.512 6.011-6.311 6.211-6.311m7.012 120.312l4.108-6.11 4.207-5.91 4.408-5.911 4.408-5.81 4.508-5.81 4.708-5.61 4.708-5.61 4.909-5.51 4.909-5.41 5.008-5.31 5.21-5.209m-119.412 16.53l68.321 45.68m-7.012-120.312l58.103 58.102M911.41 856.413l-58.102-58.102m119.411-16.53l-68.321-45.68m7.012 120.312l6.211-6.311 6.01-6.311 5.911-6.512 5.81-6.611 5.71-6.712 5.61-6.812 5.51-6.912 5.31-6.913 5.209-7.112 5.009-7.213 5.009-7.213M853.308 798.31l5.209-5.209 5.009-5.31 4.908-5.409 4.91-5.51 4.707-5.61 4.709-5.61 4.508-5.81 4.407-5.81 4.408-5.91 4.208-5.91 4.107-6.111m68.321 45.68l-68.321-45.68M1018.3 696.53l-75.935-31.455m30.354 116.706l4.808-7.413 4.708-7.413 4.508-7.513 4.408-7.614 4.308-7.713 4.207-7.714 4.007-7.814 3.807-7.914 3.707-8.014 3.606-8.014 3.506-8.114M904.398 736.1l4.007-6.11 3.907-6.211 3.807-6.311 3.706-6.311 3.607-6.412 3.406-6.411 3.305-6.512 3.306-6.611 3.106-6.612 2.905-6.712 2.905-6.812m75.935 31.455l-75.935-31.455m103.884-61.008l-80.543-16.028M1018.3 696.53l3.205-8.114 3.206-8.214 3.005-8.315 2.805-8.315 2.705-8.314 2.604-8.515 2.404-8.415 2.204-8.515 2.104-8.515 2.004-8.615 1.703-8.616m-103.884 61.008l2.705-6.812 2.705-6.812 2.504-6.912 2.304-6.912 2.304-6.913 2.104-7.112 2.003-7.013 1.904-7.112 1.703-7.113 1.603-7.112 1.502-7.213m80.543 16.028l-80.543-16.028m89.659-79.641H973.22m73.029 95.669l1.703-8.615 1.502-8.715 1.303-8.616 1.202-8.715 1.001-8.816.802-8.715.701-8.815.601-8.716.4-8.815.201-8.816.1-8.715m-90.059 80.041l1.403-7.213 1.202-7.212 1.102-7.213 1.002-7.313.901-7.213.701-7.313.601-7.313.401-7.313.3-7.313.201-7.313.1-7.312m-7.914 80.041l-80.542-16.028m88.056-63.613h-82.146"/><path d="M965.706 588.039l1.403-7.213 1.202-7.212 1.102-7.213 1.002-7.313.901-7.213.701-7.313.601-7.313.401-7.313.3-7.313.201-7.313.1-7.312m-88.456 64.012l1.102-5.71 1.002-5.81.901-5.81.802-5.81.6-5.81.602-5.81.5-5.911.301-5.81.3-5.81.201-5.911v-5.81m-100.878 94.266l-75.834-31.455m89.859-14.827l-80.543-16.028m66.518 62.31l1.603-4.107 1.603-4.107 1.502-4.108 1.403-4.207 1.402-4.107 1.302-4.308 1.203-4.207 1.102-4.208 1.001-4.307 1.002-4.308.902-4.308m-89.859 14.827l1.002-2.705 1.102-2.705 1.001-2.805.902-2.805.902-2.705.901-2.905.802-2.805.7-2.805.702-2.805.701-2.905.601-2.905m80.543 16.028l-80.543-16.028m84.851-31.556h-82.146m77.838 47.584l.801-4.307.801-4.308.602-4.307.6-4.408.502-4.408.4-4.308.4-4.407.301-4.408.2-4.408.101-4.408v-4.408m-85.25 32.057l.5-2.805.501-2.905.501-2.905.4-2.905.301-2.905.3-2.906.201-3.005.2-2.905.1-2.905.1-2.905v-3.006m328.181.501H973.22m73.029-96.57l-80.543 16.028m90.059 80.142l-.1-8.816-.2-8.816-.4-8.815-.602-8.716-.701-8.815-.802-8.716-1.001-8.815-1.202-8.716-1.303-8.615-1.502-8.715-1.703-8.615m-72.629 96.17l-.1-7.414-.2-7.312-.3-7.313-.402-7.313-.6-7.313-.702-7.313-.901-7.213-1.002-7.313-1.102-7.213-1.202-7.212-1.403-7.213m80.543-16.028l-80.543 16.028m52.594-108.492l-75.935 31.456m103.884 61.008l-1.703-8.616-2.004-8.615-2.104-8.515-2.204-8.515-2.404-8.415-2.604-8.515-2.705-8.314-2.805-8.315-3.005-8.315-3.206-8.214-3.206-8.115m-52.593 108.492l-1.502-7.213-1.603-7.112-1.703-7.113-1.904-7.112-2.003-7.013-2.104-7.112-2.304-6.913-2.304-6.912-2.504-6.912-2.705-6.812-2.705-6.812m30.855 157.578h-82.146m74.632-80.542l-80.542 16.028"/><path d="M973.62 507.998l-.1-7.414-.2-7.312-.3-7.313-.402-7.313-.6-7.313-.702-7.313-.901-7.213-1.002-7.313-1.102-7.213-1.202-7.212-1.403-7.213m-74.231 80.142v-5.91l-.2-5.911-.3-5.81-.301-5.81-.501-5.911-.601-5.81-.601-5.81-.802-5.811-.901-5.81-1.002-5.81-1.102-5.71M1018.3 319.364l-75.935 31.456m30.354-116.706l-68.321 45.68m113.902 39.57l-3.507-8.114-3.606-8.014-3.707-8.014-3.807-7.914-4.007-7.814-4.207-7.714-4.308-7.713-4.408-7.614-4.508-7.513-4.708-7.413-4.808-7.413M942.365 350.82l-2.905-6.812-2.905-6.712-3.106-6.612-3.306-6.611-3.305-6.512-3.406-6.411-3.607-6.412-3.706-6.31-3.807-6.312-3.907-6.21-4.007-6.112m68.321-45.68l-68.321 45.68m7.012-120.312l-58.102 58.102m119.411 16.53l-5.01-7.213-5.008-7.213-5.21-7.112-5.309-6.913-5.51-6.912-5.61-6.812-5.71-6.712-5.81-6.611-5.91-6.512-6.01-6.311-6.212-6.311m-7.012 120.312l-4.107-6.11-4.208-5.91-4.408-5.911-4.407-5.81-4.508-5.81-4.709-5.61-4.708-5.61-4.909-5.51-4.908-5.41-5.01-5.31-5.208-5.209M808.93 508.398h-82.146m77.838-48.485l-80.543 16.028m85.251 31.956v-4.307l-.1-4.408-.2-4.408-.301-4.408-.4-4.407-.401-4.308-.501-4.408-.601-4.408-.602-4.307-.8-4.308-.802-4.307m-77.437 47.984v-2.905l-.1-2.905-.1-2.905-.2-2.905-.201-3.005-.3-2.906-.301-2.905-.401-2.905-.5-2.905-.502-2.905-.5-2.805m80.542-16.028l-80.543 16.028m66.518-62.311l-75.834 31.456m89.859 14.827l-.902-4.308-1.002-4.308-1.001-4.307-1.102-4.208-1.203-4.207-1.302-4.308-1.402-4.107-1.403-4.207-1.502-4.108-1.603-4.107-1.603-4.107M724.08 475.94l-.602-2.904-.7-2.905-.702-2.805-.701-2.805-.802-2.805-.901-2.905-.902-2.705-.902-2.805-1.001-2.805-1.102-2.705-1.002-2.705M214.479 159.482l6.311-6.211 6.311-6.01 6.512-5.911 6.611-5.81 6.712-5.71 6.812-5.61 6.913-5.51 6.912-5.31 7.112-5.209 7.213-5.009 7.213-5.009m-16.529 119.411l5.209-5.209 5.31-5.009 5.409-4.908 5.51-4.909 5.61-4.708 5.61-4.709 5.81-4.508 5.81-4.407 5.91-4.408 5.91-4.208 6.112-4.107m-120.313-7.012l58.103 58.102M289.11 98.173l45.682 68.321M289.11 98.173l7.414-4.808 7.413-4.708 7.513-4.508 7.614-4.408 7.713-4.308 7.714-4.207 7.814-4.007 7.914-3.807 8.014-3.707 8.014-3.606 8.114-3.506m-39.569 113.901l6.11-4.007 6.211-3.907 6.311-3.807 6.312-3.706 6.41-3.606 6.412-3.406 6.512-3.306 6.611-3.306 6.612-3.106 6.712-2.905 6.812-2.905M289.11 98.173l45.682 68.321m39.569-113.901l31.456 75.934m-31.456-75.934l8.115-3.206 8.214-3.205 8.315-3.006 8.315-2.805 8.314-2.704 8.515-2.605 8.415-2.404 8.515-2.204 8.515-2.104 8.616-2.003 8.615-1.703m-61.008 103.883l6.812-2.705 6.812-2.704 6.912-2.505 6.913-2.304 6.912-2.304 7.112-2.104 7.013-2.003 7.112-1.904 7.113-1.703 7.112-1.602 7.213-1.503M374.361 52.593l31.456 75.934m61.008-103.883l16.028 80.542m-16.028-80.542l8.615-1.703 8.715-1.503 8.616-1.302 8.715-1.203 8.816-1.001 8.715-.802 8.816-.701 8.715-.601 8.816-.4 8.815-.201 8.716-.1"/><path d="M482.853 105.186l7.213-1.403 7.213-1.202 7.212-1.102 7.313-1.001 7.213-.902 7.313-.701 7.313-.601 7.313-.401 7.313-.3 7.313-.201 7.313-.1m-96.07-72.628l16.028 80.542m79.641-89.659v82.146"/><path d="M482.853 105.186l7.213-1.403 7.213-1.202 7.212-1.102 7.313-1.001 7.213-.902 7.313-.701 7.313-.601 7.313-.401 7.313-.3 7.313-.201 7.313-.1m-64.014 88.456l5.71-1.102 5.81-1.002 5.811-.901 5.81-.802 5.81-.6 5.81-.602 5.911-.5 5.81-.301 5.81-.3 5.911-.201h5.81m-80.041-74.231l16.028 80.542m63.613-88.055v82.145m-93.866 100.477l4.107-1.603 4.108-1.602 4.107-1.503 4.207-1.403 4.107-1.402 4.308-1.302 4.208-1.202 4.207-1.102 4.308-1.002 4.307-1.002 4.308-.902m-14.826 89.86l2.704-1.003 2.705-1.101 2.805-1.002 2.805-.902 2.705-.901 2.905-.902 2.805-.801 2.805-.702 2.805-.7 2.905-.702 2.905-.601m-62.31-66.518l31.456 75.834m14.826-89.859l16.028 80.543M514.91 266.27l4.307-.8 4.308-.802 4.308-.601 4.407-.601 4.408-.501 4.308-.401 4.408-.4 4.407-.301 4.408-.2 4.408-.1h4.408m-32.057 85.25l2.805-.501 2.905-.501 2.905-.5 2.905-.402 2.906-.3 2.905-.3 3.005-.201 2.905-.2 2.905-.1 2.905-.1h3.006M514.91 266.27l16.028 80.543m32.558-84.85v82.145m-.601-328.981l8.815.1 8.816.2 8.815.401 8.716.601 8.815.701 8.716.802 8.815 1.001 8.716 1.203 8.615 1.302 8.715 1.503 8.615 1.703m-96.169 72.628l7.413.1 7.313.2 7.313.3 7.312.402 7.313.6 7.313.702 7.213.902 7.313 1.001 7.213 1.102 7.212 1.202 7.213 1.403m-80.542-89.659v82.146m96.57-73.029l-16.028 80.542"/><path d="M562.895 97.272l7.413.1 7.313.2 7.313.3 7.312.402 7.313.6 7.313.702 7.213.902 7.313 1.001 7.213 1.102 7.212 1.202 7.213 1.403m-80.141 74.231h5.91l5.91.2 5.81.3 5.811.301 5.91.501 5.81.601 5.811.601 5.81.802 5.81.901 5.81 1.002 5.71 1.102m-64.513-88.055v82.145m80.542-74.632l-16.028 80.542m32.056-161.084l8.616 1.703 8.615 2.003 8.515 2.104 8.515 2.204 8.415 2.404 8.515 2.605 8.315 2.704 8.314 2.805 8.315 3.006 8.215 3.205 8.114 3.206m-108.492 52.593l7.213 1.503 7.112 1.602 7.113 1.703 7.113 1.904 7.012 2.003 7.113 2.104 6.912 2.304 6.912 2.304 6.912 2.505 6.812 2.704 6.812 2.705M659.064 24.644l-16.028 80.542m108.492-52.593l-31.456 75.934M562.995 261.562h4.307l4.408.1 4.408.2 4.408.301 4.408.4 4.307.402 4.408.5 4.408.602 4.307.6 4.308.802 4.308.801m-47.985 77.437h2.905l2.905.1 2.905.1 2.905.201 3.006.2 2.905.3 2.905.301 2.905.401 2.905.501 2.905.5 2.805.502m-31.455-84.85v82.145m47.484-77.838l-16.029 80.543m16.029-80.543l4.307.902 4.308 1.002 4.307 1.002 4.208 1.102 4.207 1.202 4.308 1.302 4.107 1.402 4.208 1.403 4.107 1.503 4.107 1.602 4.107 1.603m-62.31 66.518l2.905.6 2.905.702 2.805.701 2.805.702 2.805.801 2.905.902 2.705.901 2.805.902 2.805 1.002 2.705 1.101 2.705 1.002M610.98 266.27l-16.029 80.543m62.31-66.518l-31.455 75.834M751.528 52.593l8.114 3.506 8.014 3.606 8.015 3.707 7.913 3.807 7.814 4.007 7.714 4.207 7.714 4.308 7.613 4.408 7.513 4.508 7.413 4.708 7.413 4.808m-116.706 30.354l6.812 2.905 6.712 2.905 6.612 3.106 6.612 3.306 6.511 3.306 6.411 3.406 6.412 3.606 6.31 3.706 6.312 3.807 6.211 3.907 6.11 4.007M751.528 52.593l-31.456 75.934m116.706-30.354l-45.68 68.321m45.68-68.321l7.213 5.01 7.213 5.008 7.113 5.21 6.912 5.309 6.912 5.51 6.812 5.61 6.712 5.71 6.612 5.81 6.511 5.91 6.311 6.01 6.311 6.212m-120.312 7.012l6.11 4.107 5.911 4.208 5.91 4.408 5.81 4.407 5.811 4.508 5.61 4.709 5.61 4.708 5.51 4.909 5.41 4.908 5.308 5.01 5.21 5.208m-16.53-119.411l-45.68 68.321m120.312-7.012l-58.102 58.102M330.584 740.308l58.103-58.103m-8.315 98.875l45.68-68.22m-95.468 27.448l4.208 4.107 4.307 4.007 4.308 3.907 4.408 3.907 4.407 3.807 4.608 3.706 4.609 3.707 4.608 3.506 4.708 3.506 4.809 3.306 4.808 3.306m8.315-98.875l3.205 3.106 3.106 3.005 3.306 2.905 3.306 2.905 3.305 2.906 3.406 2.805 3.507 2.704 3.406 2.705 3.606 2.605 3.606 2.504 3.607 2.505m-45.681 68.22l45.68-68.22m11.12 98.674l31.456-75.934m-88.256 45.48l4.909 3.306 5.009 3.105 5.008 3.006 5.11 2.905 5.108 2.905 5.11 2.805 5.209 2.605 5.31 2.604 5.308 2.505 5.41 2.404 5.31 2.304m-11.12-98.674l3.706 2.404 3.707 2.304 3.706 2.304 3.807 2.204 3.907 2.104 3.807 2.103 3.907 2.004 4.007 1.903 4.007 1.904 4.007 1.803 4.007 1.703m-79.941-53.395l58.102-58.102m-20.736 88.757l45.58-68.321"/><path d="M388.687 682.205l3.205 3.106 3.106 3.005 3.306 2.905 3.306 2.905 3.305 2.906 3.406 2.805 3.507 2.704 3.406 2.705 3.606 2.605 3.606 2.504 3.607 2.505m20.737-88.757l2.103 2.103 2.104 2.004 2.204 1.903 2.204 2.004 2.204 1.903 2.304 1.803 2.304 1.904 2.304 1.703 2.304 1.803 2.404 1.603 2.404 1.703m-45.58 68.321l45.58-68.321m-3.005 91.061l31.456-75.834m-74.031 53.094l3.706 2.404 3.707 2.304 3.706 2.304 3.807 2.204 3.907 2.104 3.807 2.103 3.907 2.004 4.007 1.903 4.007 1.904 4.007 1.803 4.007 1.703m3.005-91.061l2.505 1.603 2.504 1.602 2.505 1.503 2.504 1.403 2.605 1.502 2.504 1.403 2.605 1.302 2.704 1.302 2.605 1.202 2.705 1.203 2.705 1.202m188.633 151.768L657.26 735.6m88.257 45.48l-45.68-68.22m-11.12 98.674l5.31-2.304 5.409-2.404 5.31-2.505 5.309-2.604 5.209-2.605 5.109-2.805 5.109-2.905 5.109-2.905 5.009-3.006 5.009-3.105 4.908-3.306m-88.256-45.48l4.007-1.703 4.007-1.803 4.008-1.904 4.007-1.903 3.907-2.004 3.806-2.103 3.907-2.104 3.807-2.204 3.706-2.304 3.707-2.304 3.707-2.404m45.68 68.22l-45.68-68.22m95.468 27.448l-58.102-58.103m8.314 98.875l4.809-3.306 4.808-3.306 4.709-3.506 4.608-3.506 4.608-3.707 4.608-3.706 4.408-3.807 4.408-3.907 4.307-3.907 4.308-4.007 4.207-4.107m-95.468-27.448l3.606-2.505 3.606-2.504 3.607-2.605 3.406-2.705 3.506-2.704 3.406-2.805 3.306-2.906 3.306-2.905 3.305-2.905 3.106-3.005 3.206-3.106M657.261 735.6l-31.455-75.834m74.031 53.094l-45.581-68.321"/><path d="M657.261 735.6l4.007-1.703 4.007-1.803 4.008-1.904 4.007-1.903 3.907-2.004 3.806-2.103 3.907-2.104 3.807-2.204 3.706-2.304 3.707-2.304 3.707-2.404m-74.031-53.094l2.704-1.202 2.705-1.203 2.605-1.202 2.705-1.302 2.604-1.302 2.505-1.403 2.604-1.502 2.505-1.403 2.504-1.503 2.505-1.602 2.504-1.603m45.581 68.321l-45.581-68.321m82.947 37.666L679.1 624.103m20.737 88.757l3.606-2.505 3.606-2.504 3.607-2.605 3.406-2.705 3.506-2.704 3.406-2.805 3.306-2.906 3.306-2.905 3.305-2.905 3.106-3.005 3.206-3.106m-82.947-37.666l2.404-1.703 2.404-1.603 2.305-1.803 2.304-1.703 2.304-1.904 2.304-1.803 2.204-1.903 2.204-2.004 2.203-1.903 2.104-2.004 2.104-2.103M330.584 740.308l-4.107-4.207-4.007-4.308-3.907-4.308-3.907-4.407-3.807-4.408-3.706-4.608-3.707-4.608-3.506-4.609-3.506-4.708-3.306-4.808-3.306-4.809m98.875-8.315L385.58 679l-3.005-3.106-2.905-3.306-2.905-3.305-2.905-3.306-2.805-3.406-2.705-3.507-2.705-3.406-2.605-3.606-2.504-3.606-2.504-3.607m-27.448 95.469l58.103-58.103m-98.875 8.315l68.22-45.68"/><path d="M388.687 682.205L385.58 679l-3.005-3.106-2.905-3.306-2.905-3.305-2.905-3.306-2.805-3.406-2.705-3.507-2.705-3.406-2.605-3.606-2.504-3.606-2.504-3.607m88.758-20.736l-2.104-2.104-2.004-2.104-1.903-2.204-2.004-2.204-1.903-2.203-1.803-2.304-1.904-2.305-1.703-2.304-1.803-2.304-1.603-2.404-1.703-2.404m-37.666 82.946l58.102-58.102m-88.756 20.737l68.32-45.581M289.812 690.52l-3.306-4.909-3.105-5.008-3.006-5.01-2.905-5.108-2.905-5.11-2.805-5.108-2.604-5.21-2.605-5.309-2.504-5.31-2.405-5.409-2.304-5.31m98.675 11.121l-2.405-3.707-2.304-3.707-2.304-3.706-2.204-3.807-2.103-3.907-2.104-3.807-2.004-3.907-1.903-4.007-1.903-4.007-1.804-4.007-1.703-4.007m-45.48 88.256l68.22-45.68m-98.674-11.12l75.934-31.456"/><path d="M358.033 644.84l-2.405-3.707-2.304-3.707-2.304-3.706-2.204-3.807-2.103-3.907-2.104-3.807-2.004-3.907-1.903-4.007-1.903-4.007-1.804-4.007-1.703-4.007m91.061-3.005l-1.603-2.505-1.602-2.504-1.503-2.504-1.402-2.505-1.503-2.604-1.403-2.505-1.302-2.605-1.302-2.704-1.202-2.605-1.202-2.705-1.203-2.704m-53.093 74.031l68.32-45.581m-91.061 3.005l75.834-31.455M259.358 382.175l2.304-5.31 2.405-5.409 2.504-5.31 2.605-5.308 2.604-5.21 2.805-5.109 2.905-5.109 2.905-5.109 3.006-5.009 3.105-5.008 3.306-4.91m45.48 88.256l1.703-4.006 1.804-4.007 1.903-4.007 1.903-4.007 2.004-3.907 2.104-3.807 2.103-3.907 2.204-3.807 2.304-3.706 2.304-3.707 2.405-3.706m-98.675 11.119l75.934 31.456m-45.48-88.256l68.22 45.68"/><path d="M335.292 413.63l1.703-4.006 1.804-4.007 1.903-4.007 1.903-4.007 2.004-3.907 2.104-3.807 2.103-3.907 2.204-3.807 2.304-3.706 2.304-3.707 2.405-3.706m53.093 74.03l1.203-2.704 1.202-2.705 1.202-2.605 1.302-2.705 1.302-2.604 1.403-2.505 1.503-2.604 1.402-2.505 1.503-2.504 1.602-2.504 1.603-2.505m-91.061-3.006l75.834 31.456m-53.093-74.03l68.32 45.58m-136.541-91.261l3.306-4.809 3.306-4.808 3.506-4.708 3.506-4.609 3.707-4.608 3.706-4.608 3.807-4.408 3.907-4.407 3.907-4.308 4.007-4.308 4.107-4.207m27.449 95.469l2.504-3.607 2.504-3.606 2.605-3.607 2.705-3.406 2.705-3.506 2.805-3.406 2.905-3.306 2.905-3.305 2.905-3.306 3.005-3.106 3.106-3.205m-98.875-8.315l68.22 45.68m-27.448-95.468l58.103 58.103"/><path d="M358.033 371.056l2.504-3.607 2.504-3.606 2.605-3.607 2.705-3.406 2.705-3.506 2.805-3.406 2.905-3.306 2.905-3.305 2.905-3.306 3.005-3.106 3.106-3.205m37.666 82.946l1.703-2.404 1.603-2.404 1.803-2.304 1.703-2.304 1.904-2.305 1.803-2.304 1.903-2.204 2.004-2.203 1.903-2.204 2.004-2.104 2.103-2.104m-88.756-20.736l68.32 45.58m-37.666-82.946l58.102 58.102m348.516 348.516l-58.102-58.103m98.874 8.315l-68.22-45.68m27.448 95.468l4.107-4.207 4.008-4.308 3.906-4.308 3.907-4.407 3.807-4.408 3.707-4.608 3.706-4.608 3.506-4.609 3.507-4.708 3.305-4.808 3.306-4.809m-98.874-8.315l3.105-3.205 3.005-3.106 2.905-3.306 2.906-3.305 2.905-3.306 2.805-3.406 2.704-3.507 2.705-3.406 2.605-3.606 2.504-3.606 2.505-3.607m68.22 45.681l-68.22-45.68m98.674-11.12l-75.934-31.456m45.48 88.256l3.306-4.909 3.106-5.008 3.005-5.01 2.905-5.108 2.905-5.11 2.805-5.108 2.605-5.21 2.604-5.309 2.505-5.31 2.404-5.409 2.304-5.31m-98.674 11.121l2.404-3.707 2.304-3.707 2.304-3.706 2.204-3.807 2.104-3.907 2.103-3.807 2.004-3.907 1.903-4.007 1.904-4.007 1.803-4.007 1.703-4.007m-53.394 79.941L679.1 624.103m88.757 20.737l-68.321-45.581"/><path d="M737.203 682.205l3.105-3.205 3.005-3.106 2.905-3.306 2.906-3.305 2.905-3.306 2.805-3.406 2.704-3.507 2.705-3.406 2.605-3.606 2.504-3.606 2.505-3.607M679.1 624.103l2.104-2.104 2.003-2.104 1.904-2.204 2.003-2.204 1.903-2.203 1.804-2.304 1.903-2.305 1.703-2.304 1.803-2.304 1.603-2.404 1.703-2.404m68.321 45.581l-68.321-45.581m91.061 3.005l-75.834-31.455m53.094 74.031l2.404-3.707 2.304-3.707 2.304-3.706 2.204-3.807 2.104-3.907 2.103-3.807 2.004-3.907 1.903-4.007 1.904-4.007 1.803-4.007 1.703-4.007m-91.061-3.005l1.603-2.505 1.603-2.504 1.502-2.504 1.403-2.505 1.502-2.604 1.403-2.505 1.302-2.605 1.303-2.704 1.202-2.605 1.202-2.705 1.202-2.704m151.768-188.634l-75.934 31.456m45.48-88.256l-68.22 45.68m98.674 11.12l-2.304-5.31-2.404-5.409-2.505-5.31-2.604-5.308-2.605-5.21-2.805-5.109-2.905-5.109-2.905-5.109-3.005-5.009-3.106-5.008-3.306-4.91m-45.48 88.256l-1.703-4.006-1.803-4.007-1.904-4.007-1.903-4.007-2.004-3.907-2.103-3.807-2.104-3.907-2.204-3.807-2.304-3.706-2.304-3.707-2.404-3.706m68.22-45.681l-68.22 45.68m27.448-95.468l-58.102 58.103m98.874-8.315l-3.306-4.809-3.305-4.808-3.507-4.708-3.506-4.609-3.706-4.608-3.707-4.608-3.807-4.408-3.907-4.407-3.906-4.308-4.008-4.308-4.107-4.207m-27.448 95.469l-2.505-3.607-2.504-3.606-2.605-3.607-2.705-3.406-2.704-3.506-2.805-3.406-2.905-3.306-2.906-3.305-2.905-3.306-3.005-3.106-3.105-3.205m53.394 79.94l-75.834 31.456m53.094-74.03l-68.321 45.58"/><path d="M790.597 413.63l-1.703-4.006-1.803-4.007-1.904-4.007-1.903-4.007-2.004-3.907-2.103-3.807-2.104-3.907-2.204-3.807-2.304-3.706-2.304-3.707-2.404-3.706m-53.094 74.03l-1.202-2.704-1.202-2.705-1.202-2.605-1.303-2.705-1.302-2.604-1.403-2.505-1.502-2.604-1.403-2.505-1.502-2.504-1.603-2.504-1.603-2.505m68.321-45.58l-68.321 45.58m37.667-82.946L679.1 391.792m88.757-20.736l-2.505-3.607-2.504-3.606-2.605-3.607-2.705-3.406-2.704-3.506-2.805-3.406-2.905-3.306-2.906-3.305-2.905-3.306-3.005-3.106-3.105-3.205m-37.667 82.946l-1.703-2.404-1.603-2.404-1.803-2.304-1.703-2.304-1.903-2.305-1.804-2.304-1.903-2.204-2.003-2.203-1.904-2.204-2.003-2.104-2.104-2.104M330.584 275.587l4.208-4.107 4.307-4.007 4.308-3.907 4.408-3.907 4.407-3.807 4.608-3.706 4.609-3.707 4.608-3.506 4.708-3.506 4.809-3.306 4.808-3.306m8.315 98.875l3.205-3.106 3.106-3.005 3.306-2.905 3.306-2.905 3.305-2.906 3.406-2.805 3.507-2.704 3.406-2.705 3.606-2.605 3.606-2.504 3.607-2.505m-95.469-27.448l58.103 58.103m-8.315-98.875l45.68 68.22"/><path d="M388.687 333.69l3.205-3.106 3.106-3.005 3.306-2.905 3.306-2.905 3.305-2.906 3.406-2.805 3.507-2.704 3.406-2.705 3.606-2.605 3.606-2.504 3.607-2.505m20.737 88.757l2.103-2.103 2.104-2.004 2.204-1.903 2.204-2.004 2.204-1.903 2.304-1.803 2.304-1.904 2.304-1.703 2.304-1.803 2.404-1.603 2.404-1.703m-82.946-37.666l58.102 58.102m-20.736-88.757l45.58 68.321m-91.261-136.541l4.909-3.306 5.009-3.105 5.008-3.006 5.11-2.905 5.108-2.905 5.11-2.805 5.209-2.605 5.31-2.604 5.308-2.505 5.41-2.404 5.31-2.304m-11.12 98.674l3.706-2.404 3.707-2.304 3.706-2.304 3.807-2.204 3.907-2.104 3.807-2.103 3.907-2.004 4.007-1.903 4.007-1.904 4.007-1.803 4.007-1.703m-88.256-45.48l45.68 68.22m11.12-98.674l31.456 75.934"/><path d="M426.053 303.035l3.706-2.404 3.707-2.304 3.706-2.304 3.807-2.204 3.907-2.104 3.807-2.103 3.907-2.004 4.007-1.903 4.007-1.904 4.007-1.803 4.007-1.703m3.005 91.061l2.505-1.603 2.504-1.603 2.505-1.502 2.504-1.403 2.605-1.502 2.504-1.403 2.605-1.302 2.704-1.302 2.605-1.203 2.705-1.202 2.705-1.202m-74.031-53.094l45.58 68.321m-3.005-91.061l31.456 75.834m188.633-151.768l5.31 2.304 5.409 2.404 5.31 2.505 5.309 2.604 5.209 2.605 5.109 2.805 5.109 2.905 5.109 2.905 5.009 3.006 5.009 3.105 4.908 3.306m-88.256 45.48l4.007 1.703 4.007 1.803 4.008 1.904 4.007 1.903 3.907 2.004 3.806 2.103 3.907 2.104 3.807 2.204 3.706 2.304 3.707 2.304 3.707 2.404m-11.12-98.674l-31.456 75.934m88.256-45.48l-45.68 68.22"/><path d="M657.261 280.295l4.007 1.703 4.007 1.803 4.008 1.904 4.007 1.903 3.907 2.004 3.806 2.103 3.907 2.104 3.807 2.204 3.706 2.304 3.707 2.304 3.707 2.404m-74.031 53.095l2.704 1.201 2.705 1.202 2.605 1.203 2.705 1.302 2.604 1.302 2.505 1.403 2.604 1.502 2.505 1.403 2.504 1.502 2.505 1.603 2.504 1.603m3.005-91.061l-31.455 75.834m74.031-53.094l-45.581 68.321m91.261-136.541l4.809 3.306 4.808 3.306 4.709 3.506 4.608 3.506 4.608 3.707 4.608 3.706 4.408 3.807 4.408 3.907 4.307 3.907 4.308 4.007 4.207 4.107m-95.468 27.448l3.606 2.505 3.606 2.504 3.607 2.605 3.406 2.705 3.506 2.704 3.406 2.805 3.306 2.906 3.306 2.905 3.305 2.905 3.106 3.005 3.206 3.106m8.314-98.875l-45.68 68.22m95.468-27.448l-58.102 58.103"/><path d="M699.837 303.035l3.606 2.505 3.606 2.504 3.607 2.605 3.406 2.705 3.506 2.704 3.406 2.805 3.306 2.906 3.306 2.905 3.305 2.905 3.106 3.005 3.206 3.106m-82.947 37.666l2.404 1.703 2.404 1.603 2.305 1.803 2.304 1.703 2.304 1.904 2.304 1.803 2.204 1.903 2.204 2.004 2.203 1.903 2.104 2.004 2.104 2.103m20.737-88.757l-45.581 68.321m82.947-37.666L679.1 391.792M272.582 798.31l29.05-29.05m.802 56.198l26.046-31.756m-55.898 4.608l2.604 2.605 2.605 2.605 2.604 2.504 2.705 2.505 2.705 2.504 2.705 2.404 2.705 2.505 2.804 2.404 2.805 2.404 2.805 2.304 2.805 2.404m-.801-56.198l2.304 2.403 2.404 2.305 2.304 2.203 2.405 2.304 2.504 2.204 2.404 2.204 2.505 2.204 2.404 2.204 2.504 2.104 2.505 2.204 2.604 2.103m-26.046 31.756l26.046-31.756m6.312 55.698l22.84-34.16m-55.198 10.218l2.805 2.305 2.905 2.203 2.906 2.305 2.905 2.203 2.905 2.204 2.905 2.204 3.005 2.204 2.905 2.104 3.006 2.104 3.105 2.103 3.006 2.004m-6.312-55.699l2.505 2.004 2.604 2.104 2.605 2.003 2.605 2.004 2.604 2.003 2.705 2.004 2.605 1.903 2.704 1.904 2.705 1.903 2.705 1.903 2.805 1.803m-55.999-45.98l28.951-28.952m-2.104 53.394l26.046-31.756"/><path d="M301.633 769.26l2.304 2.403 2.404 2.305 2.304 2.203 2.405 2.304 2.504 2.204 2.404 2.204 2.505 2.204 2.404 2.204 2.504 2.104 2.505 2.204 2.604 2.103m2.104-53.394l2.104 2.004 2.104 2.103 2.103 2.004 2.204 2.003 2.104 2.004 2.204 1.903 2.204 2.004 2.204 1.903 2.203 1.904 2.204 1.903 2.304 1.903m-26.046 31.756l26.046-31.756m3.106 53.294l22.74-34.16m-51.892 12.622l2.505 2.004 2.604 2.104 2.605 2.003 2.605 2.004 2.604 2.003 2.705 2.004 2.605 1.903 2.704 1.904 2.705 1.903 2.705 1.903 2.805 1.803m-3.106-53.294l2.304 1.803 2.204 1.804 2.405 1.903 2.304 1.703 2.304 1.803 2.404 1.703 2.304 1.803 2.404 1.703 2.405 1.603 2.404 1.703 2.404 1.603m-45.58 68.32l22.84-34.16m11.721 54.897l19.334-36.264M334.792 849.4l3.005 2.004 3.105 2.004 3.106 2.003 3.105 1.904 3.106 1.903 3.205 1.903 3.106 1.904 3.206 1.803 3.205 1.803 3.206 1.803 3.206 1.703m-11.721-54.897l2.705 1.804 2.805 1.803 2.805 1.803 2.704 1.803 2.905 1.703 2.805 1.703 2.805 1.603 2.906 1.703 2.804 1.603 2.906 1.603 2.905 1.502m-19.334 36.264l19.334-36.264m17.13 53.495l15.728-37.967m-52.192 20.736l3.205 1.703 3.306 1.703 3.206 1.603 3.306 1.703 3.305 1.603 3.306 1.503 3.306 1.603 3.406 1.502 3.306 1.403 3.406 1.502 3.406 1.403m-17.13-53.495l2.905 1.603 3.005 1.503 2.905 1.502 2.905 1.403 3.006 1.503 3.005 1.402 3.005 1.403 3.006 1.302 3.005 1.402 3.005 1.303 3.106 1.202m-63.913-34.161l22.74-34.16m8.315 52.793l19.334-36.164"/><path d="M357.632 815.24l2.705 1.804 2.805 1.803 2.805 1.803 2.704 1.803 2.905 1.703 2.805 1.703 2.805 1.603 2.906 1.703 2.804 1.603 2.906 1.603 2.905 1.502m-8.315-52.793l2.504 1.703 2.405 1.603 2.504 1.503 2.505 1.602 2.504 1.503 2.504 1.503 2.505 1.502 2.604 1.403 2.505 1.502 2.604 1.403 2.505 1.402m-19.334 36.164l19.334-36.164m13.524 51.691l15.627-37.866m-48.485 22.339l2.905 1.603 3.005 1.503 2.905 1.502 2.905 1.403 3.006 1.503 3.005 1.402 3.005 1.403 3.006 1.302 3.005 1.402 3.005 1.303 3.106 1.202M408.02 797.71l2.606 1.402 2.604 1.302 2.605 1.303 2.705 1.302 2.604 1.302 2.705 1.302 2.604 1.203 2.705 1.202 2.705 1.202 2.605 1.102 2.704 1.202m-31.355 75.834l15.728-37.967m22.139 51.591l11.921-39.37m-49.788 25.746l3.406 1.402 3.406 1.303 3.406 1.402 3.406 1.302 3.406 1.203 3.506 1.302 3.406 1.202 3.507 1.102 3.506 1.202 3.406 1.102 3.506 1.102M421.545 849.4l3.005 1.303 3.106 1.202 3.005 1.202 3.105 1.102 3.106 1.202 3.105 1.102 3.106 1.102 3.105 1.002 3.206 1.102 3.106 1.002 3.105.901m-11.921 39.37l11.921-39.37m27.248 49.088l8.014-40.272m-47.183 30.554l3.606 1.002 3.507 1.001 3.506 1.002 3.506 1.002 3.606.902 3.506.901 3.607.802 3.506.801 3.606.801 3.607.802 3.606.701m-27.248-49.087l3.206 1.002 3.205.902 3.106.901 3.205.802 3.206.901 3.206.802 3.205.701 3.206.801 3.206.702 3.205.7 3.306.602M421.545 849.4l15.627-37.866m18.433 50.088l11.921-39.269"/><path d="M421.545 849.4l3.005 1.303 3.106 1.202 3.005 1.202 3.105 1.102 3.106 1.202 3.105 1.102 3.106 1.102 3.105 1.002 3.206 1.102 3.106 1.002 3.105.901m-18.433-50.088l2.805 1.102 2.705 1.002 2.705 1.102 2.705 1.001 2.805 1.002 2.704 1.002 2.805 1.002 2.805.901 2.805.902 2.705.901 2.805.902m-11.921 39.269l11.921-39.269m23.341 48.085l8.014-40.271m-43.276 31.455l3.206 1.002 3.205.902 3.106.901 3.205.802 3.206.901 3.206.802 3.205.701 3.206.801 3.206.702 3.205.7 3.306.602m-23.341-48.085l2.905.801 2.805.802 2.805.801 2.805.802 2.805.7 2.905.702 2.805.701 2.905.702 2.805.6 2.905.602 2.905.6m-61.709-18.632l15.728-37.967m14.626 48.786l11.921-39.27"/><path d="M437.172 811.534l2.805 1.102 2.705 1.002 2.705 1.102 2.705 1.001 2.805 1.002 2.704 1.002 2.805 1.002 2.805.901 2.805.902 2.705.901 2.805.902M452.9 773.567l2.404.901 2.405 1.002 2.404.902 2.404.901 2.404.902 2.405.902 2.404.8 2.404.802 2.505.802 2.404.801 2.404.802m-11.921 39.269l11.921-39.27m19.434 47.084l8.015-40.271m-39.37 32.457l2.905.801 2.805.802 2.805.801 2.805.802 2.805.7 2.905.702 2.805.701 2.905.702 2.805.6 2.905.602 2.905.6m-19.434-47.082l2.505.7 2.504.702 2.404.701 2.505.702 2.504.6 2.504.602 2.505.6 2.404.602 2.605.6 2.504.502 2.505.5M452.9 773.567l15.728-37.967m10.819 47.484l11.921-39.37"/><path d="M452.9 773.567l2.404.901 2.405 1.002 2.404.902 2.404.901 2.404.902 2.405.902 2.404.8 2.404.802 2.505.802 2.404.801 2.404.802M468.628 735.6l2.104.801 2.003.802 2.004.801 2.104.801 2.103.802 2.004.701 2.103.701 2.104.702 2.104.7 2.003.702 2.104.601m-11.921 39.37l11.921-39.37m15.528 46.182l8.014-40.272m-35.463 33.46l2.505.7 2.504.702 2.404.701 2.505.702 2.504.6 2.504.602 2.505.6 2.404.602 2.605.6 2.504.502 2.505.5m-15.528-46.181l2.204.701 2.104.601 2.104.601 2.103.501 2.104.601 2.104.501 2.204.501 2.103.501 2.204.5 2.104.502 2.204.4m-16.029 80.543l8.015-40.271m23.842 44.979l4.007-40.872m-35.864 36.164l2.805.6 2.906.502 2.905.5 2.905.502 2.905.4 2.905.501 2.905.4 2.905.402 2.905.3 2.906.3 2.905.301m-23.842-44.979l2.504.5 2.504.501 2.505.401 2.504.4 2.605.402 2.504.4 2.505.401 2.604.3 2.505.301 2.604.3 2.505.2m-4.007 40.873l4.007-40.872m27.749 42.976v-41.073m-31.756 38.969l2.905.3 2.905.301 3.005.2 2.905.2 2.906.101 2.905.2 2.905.1 3.005.1 2.905.101h5.811m-28.15-42.475l2.604.3 2.505.2 2.604.201 2.505.2 2.604.1 2.505.1 2.605.101 2.604.1 2.505.1h5.109m-55.999-5.509l8.014-40.272m19.835 44.379l4.007-40.872"/><path d="M506.896 789.896l2.504.5 2.504.501 2.505.401 2.504.4 2.605.402 2.504.4 2.505.401 2.604.3 2.505.301 2.604.3 2.505.2m-19.835-44.378l2.103.401 2.204.4 2.104.402 2.204.4 2.204.3 2.104.301 2.204.3 2.203.301 2.204.301 2.204.2 2.104.2m-4.007 40.873l4.007-40.872m24.143 42.274l.1-41.072m-28.25 39.67l2.604.3 2.505.2 2.604.201 2.505.2 2.604.1 2.505.1 2.605.101 2.604.1 2.505.1h5.109m-24.143-42.275l2.204.201 2.204.2 2.204.2 2.203.1 2.204.201 2.204.1 2.204.1h2.204l2.204.1h4.408m80.041 156.378l-8.014-40.272m47.183 30.554l-11.92-39.37m-27.249 49.088l3.607-.702 3.606-.802 3.606-.801 3.506-.801 3.607-.802 3.506-.901 3.606-.902 3.507-1.002 3.506-1.002 3.506-1.001 3.606-1.002m-47.183-30.554l3.306-.601 3.206-.701 3.205-.702 3.206-.801 3.206-.701 3.205-.802 3.206-.901 3.205-.802 3.106-.901 3.206-.902 3.205-1.002m11.921 39.37l-11.92-39.37m49.787 25.746L704.344 849.4m-22.139 51.592l3.507-1.102 3.406-1.102 3.506-1.202 3.506-1.102 3.406-1.202 3.506-1.302 3.406-1.203 3.406-1.302 3.406-1.402 3.406-1.303 3.406-1.402m-49.788-25.746l3.106-.901 3.105-1.002 3.206-1.102 3.105-1.002 3.106-1.102 3.105-1.102 3.106-1.202 3.105-1.102 3.006-1.202 3.105-1.202 3.005-1.302m-69.322 21.037l-8.014-40.271m43.276 31.455l-11.92-39.269"/><path d="M635.022 870.438l3.306-.601 3.206-.701 3.205-.702 3.206-.801 3.206-.701 3.205-.802 3.206-.901 3.205-.802 3.106-.901 3.206-.902 3.205-1.002m-43.276-31.455l2.905-.601 2.905-.601 2.805-.601 2.905-.702 2.805-.7 2.905-.702 2.805-.701 2.805-.802 2.805-.801 2.805-.802 2.905-.801m11.921 39.269l-11.92-39.269m45.98 27.047l-15.627-37.866m-18.433 50.088l3.106-.901 3.105-1.002 3.206-1.102 3.105-1.002 3.106-1.102 3.105-1.102 3.106-1.202 3.105-1.102 3.006-1.202 3.105-1.202 3.005-1.302m-45.981-27.048l2.805-.902 2.705-.901 2.805-.902 2.805-.901 2.805-1.002 2.705-1.002 2.805-1.002 2.704-1.001 2.705-1.102 2.705-1.002 2.805-1.102m31.355 75.834L704.344 849.4m52.193 20.737l-19.334-36.264m-17.131 53.495l3.406-1.403 3.406-1.502 3.306-1.403 3.406-1.502 3.306-1.603 3.306-1.503 3.306-1.603 3.306-1.703 3.205-1.603 3.306-1.703 3.206-1.703M704.344 849.4l3.106-1.201 3.005-1.303 3.006-1.402 3.005-1.302 3.005-1.403 3.006-1.402 3.005-1.503 2.905-1.403 2.905-1.502 3.005-1.503 2.906-1.603m19.334 36.264l-19.334-36.264m53.895 15.527l-22.84-34.16m-11.721 54.897l3.205-1.703 3.206-1.803 3.206-1.803 3.205-1.803 3.106-1.904 3.206-1.903 3.105-1.903 3.105-1.904 3.106-2.003 3.105-2.004 3.006-2.003m-53.895-15.528l2.905-1.502 2.905-1.603 2.805-1.603 2.905-1.703 2.805-1.603 2.805-1.703 2.905-1.703 2.705-1.803 2.805-1.803 2.805-1.803 2.704-1.804m-63.913 34.16l-15.627-37.866m48.486 22.339l-19.335-36.164"/><path d="M704.344 849.4l3.106-1.201 3.005-1.303 3.006-1.402 3.005-1.302 3.005-1.403 3.006-1.402 3.005-1.503 2.905-1.403 2.905-1.502 3.005-1.503 2.906-1.603m-48.486-22.339l2.705-1.202 2.604-1.102 2.705-1.202 2.705-1.202 2.604-1.203 2.705-1.302 2.605-1.302 2.705-1.302 2.604-1.303 2.605-1.302 2.604-1.403m19.335 36.164l-19.335-36.164m50.389 17.531l-22.74-34.16m-8.314 52.793l2.905-1.502 2.905-1.603 2.805-1.603 2.905-1.703 2.805-1.603 2.805-1.703 2.905-1.703 2.705-1.803 2.805-1.803 2.805-1.803 2.704-1.804m-50.389-17.53l2.505-1.403 2.604-1.403 2.505-1.502 2.604-1.403 2.505-1.502 2.504-1.503 2.505-1.503 2.504-1.602 2.505-1.503 2.404-1.603 2.504-1.703m45.581 68.32l-22.84-34.16m55.197 10.218l-26.046-31.756m-6.311 55.698l3.005-2.003 3.106-2.103 3.005-2.104 2.905-2.104 3.005-2.204 2.905-2.204 2.906-2.204 2.905-2.203 2.905-2.305 2.905-2.203 2.805-2.305m-55.198-10.218l2.805-1.803 2.705-1.903 2.705-1.903 2.705-1.904 2.604-1.903 2.705-2.004 2.605-2.003 2.604-2.004 2.605-2.003 2.604-2.104 2.505-2.004m26.046 31.756l-26.046-31.756m55.899 4.608l-29.052-29.05m-.801 56.198l2.805-2.404 2.805-2.304 2.805-2.404 2.805-2.404 2.705-2.505 2.704-2.404 2.705-2.504 2.705-2.505 2.604-2.504 2.605-2.605 2.605-2.604m-55.899-4.609l2.605-2.103 2.504-2.204 2.504-2.104 2.405-2.204 2.504-2.204 2.404-2.204 2.505-2.204 2.404-2.304 2.304-2.203 2.404-2.305 2.304-2.404m-55.999 45.981l-22.74-34.16m51.892 12.622l-26.046-31.756"/><path d="M768.257 815.24l2.805-1.803 2.705-1.903 2.705-1.903 2.705-1.904 2.604-1.903 2.705-2.004 2.605-2.003 2.604-2.004 2.605-2.003 2.604-2.104 2.505-2.004m-51.892-12.622l2.404-1.603 2.405-1.703 2.404-1.603 2.404-1.703 2.304-1.803 2.405-1.703 2.304-1.803 2.304-1.703 2.404-1.903 2.204-1.804 2.304-1.803m26.046 31.756l-26.046-31.756m52.893 7.314l-28.95-28.952m2.103 53.394l2.605-2.103 2.504-2.204 2.504-2.104 2.405-2.204 2.504-2.204 2.404-2.204 2.505-2.204 2.404-2.304 2.304-2.203 2.404-2.305 2.304-2.404m-52.893-7.313l2.304-1.903 2.204-1.903 2.204-1.904 2.204-1.903 2.204-2.004 2.203-1.903 2.104-2.004 2.204-2.003 2.104-2.004 2.103-2.103 2.104-2.004m-232.811 96.671v-41.073m32.658 38.969l-4.008-40.872m-28.249 42.475h5.91l2.905-.1 3.005-.1 2.906-.1 2.905-.2 2.905-.101 2.905-.2 3.005-.2 2.905-.301 2.906-.3m-32.257-39.471h5.209l2.504-.1 2.605-.1 2.604-.1 2.505-.1 2.604-.1 2.505-.2 2.604-.201 2.505-.2 2.604-.301m4.008 40.872l-4.008-40.872m35.864 36.164l-8.014-40.271m-23.842 44.979l2.905-.3 2.905-.3 2.905-.301 2.905-.401 2.905-.4 2.905-.502 2.905-.4 2.906-.501 2.905-.501 2.905-.501 2.805-.601m-35.864-36.164l2.505-.2 2.605-.301 2.504-.3 2.605-.301 2.504-.4 2.504-.401 2.605-.401 2.504-.4 2.505-.402 2.504-.5 2.505-.501m-56.099 5.509l.1-41.072m28.149 39.67l-4.007-40.872"/><path d="M562.895 795.405h5.209l2.504-.1 2.605-.1 2.604-.1 2.505-.1 2.604-.1 2.505-.2 2.604-.201 2.505-.2 2.604-.301m-28.149-39.67h4.307l2.204-.1h2.204l2.204-.1 2.204-.1 2.204-.201 2.204-.1 2.204-.2 2.204-.201 2.203-.2m4.007 40.872l-4.007-40.872m31.857 36.765l-8.014-40.272m-19.836 44.379l2.505-.2 2.605-.301 2.504-.3 2.605-.301 2.504-.4 2.504-.401 2.605-.401 2.504-.4 2.505-.402 2.504-.5 2.505-.501m-31.857-36.766l2.104-.2 2.204-.2 2.204-.3 2.204-.301 2.204-.3 2.103-.301 2.204-.3 2.204-.401 2.104-.401 2.204-.4 2.104-.402m16.028 80.543l-8.014-40.271m39.369 32.457l-11.92-39.27m-19.435 47.084l2.905-.601 2.905-.601 2.805-.601 2.905-.702 2.805-.7 2.905-.702 2.805-.701 2.805-.802 2.805-.801 2.805-.802 2.905-.801m-39.369-32.457l2.504-.501 2.505-.501 2.604-.601 2.404-.601 2.505-.601 2.504-.601 2.505-.601 2.504-.702 2.404-.7 2.505-.702 2.504-.701m11.921 39.269l-11.92-39.27m42.274 28.451l-15.728-37.967m-14.626 48.786l2.805-.902 2.705-.901 2.805-.902 2.805-.901 2.805-1.002 2.705-1.002 2.805-1.002 2.704-1.001 2.705-1.102 2.705-1.002 2.805-1.102m-42.275-28.45l2.404-.802 2.405-.801 2.504-.802 2.404-.801 2.405-.801 2.404-.902 2.404-.902 2.404-.901 2.405-.902 2.404-1.002 2.404-.901m-53.995 16.329l-8.014-40.272m35.462 33.46l-11.92-39.37"/><path d="M618.994 789.896l2.504-.501 2.505-.501 2.604-.601 2.404-.601 2.505-.601 2.504-.601 2.505-.601 2.504-.702 2.404-.7 2.505-.702 2.504-.701m-35.462-33.46l2.203-.4 2.104-.501 2.204-.501 2.104-.5 2.204-.502 2.103-.5 2.104-.602 2.104-.5 2.104-.602 2.103-.6 2.204-.702m11.921 39.37l-11.92-39.37m38.468 29.853L657.26 735.6m-10.818 47.484l2.404-.802 2.405-.801 2.504-.802 2.404-.801 2.405-.801 2.404-.902 2.404-.902 2.404-.901 2.405-.902 2.404-1.002 2.404-.901m-38.468-29.853l2.104-.601 2.003-.701 2.104-.701 2.104-.702 2.104-.701 2.003-.701 2.104-.802 2.104-.801 2.003-.801 2.004-.802 2.103-.801m-384.679 62.71l-2.605-2.604-2.605-2.605-2.504-2.604-2.504-2.705-2.505-2.705-2.404-2.705-2.505-2.704-2.404-2.805-2.404-2.805-2.304-2.805-2.404-2.805m56.199.802l-2.404-2.305-2.304-2.404-2.204-2.304-2.304-2.404-2.204-2.505-2.204-2.404-2.204-2.505-2.204-2.404-2.104-2.504-2.204-2.505-2.103-2.604m-4.608 55.898l29.05-29.05m-56.198-.802l31.756-26.046"/><path d="M301.633 769.26l-2.404-2.305-2.304-2.404-2.204-2.304-2.304-2.404-2.204-2.505-2.204-2.404-2.204-2.505-2.204-2.404-2.104-2.504-2.204-2.505-2.103-2.604m53.394-2.104l-2.003-2.104-2.104-2.103-2.004-2.104-2.003-2.204-2.004-2.104-1.903-2.204-2.004-2.204-1.903-2.203-1.903-2.204-1.904-2.204-1.903-2.304m-7.313 52.894l28.951-28.952m-53.394 2.104l31.756-26.046m-63.512 52.092l-2.304-2.805-2.204-2.905-2.304-2.905-2.204-2.906-2.204-2.905-2.204-2.905-2.204-3.005-2.104-2.905-2.103-3.006-2.104-3.105-2.004-3.005m55.699 6.311l-2.004-2.505-2.103-2.604-2.004-2.605-2.004-2.604-2.003-2.605-2.004-2.705-1.903-2.604-1.903-2.705-1.904-2.705-1.903-2.705-1.803-2.805m-10.218 55.198l31.756-26.046m-55.699-6.312l34.16-22.84"/><path d="M277.19 742.412l-2.004-2.505-2.103-2.604-2.004-2.605-2.004-2.604-2.003-2.605-2.004-2.705-1.903-2.604-1.903-2.705-1.904-2.705-1.903-2.705-1.803-2.805m53.294 3.106l-1.803-2.304-1.804-2.204-1.903-2.404-1.703-2.305-1.803-2.304-1.703-2.404-1.803-2.304-1.703-2.404-1.603-2.404-1.703-2.405-1.603-2.404m-12.622 51.892l31.756-26.046m-53.294-3.106l34.16-22.74m-68.321 45.58l-2.003-3.005-2.004-3.105-2.003-3.106-1.904-3.105-1.903-3.106-1.903-3.205-1.904-3.106-1.803-3.205-1.803-3.206-1.803-3.206-1.703-3.205m54.897 11.72l-1.803-2.705-1.804-2.804-1.803-2.805-1.803-2.705-1.703-2.905-1.703-2.805-1.603-2.805-1.703-2.905-1.603-2.805-1.603-2.905-1.502-2.906M221.491 736.1l34.16-22.84m-54.896-11.72l36.264-19.335"/><path d="M255.652 713.26l-1.803-2.705-1.804-2.804-1.803-2.805-1.803-2.705-1.703-2.905-1.703-2.805-1.603-2.805-1.703-2.905-1.603-2.805-1.603-2.905-1.502-2.906m52.793 8.315l-1.703-2.504-1.603-2.405-1.502-2.504-1.603-2.504-1.503-2.505-1.503-2.504-1.502-2.505-1.403-2.604-1.502-2.505-1.403-2.604-1.402-2.505m-17.531 50.389l34.16-22.74m-52.793-8.315l36.164-19.334m-72.428 38.669l-1.703-3.206-1.703-3.306-1.603-3.206-1.703-3.305-1.603-3.306-1.503-3.306-1.602-3.306-1.503-3.406-1.403-3.306-1.502-3.406-1.403-3.406m53.495 17.13l-1.603-2.905-1.503-3.005-1.502-2.905-1.403-2.905-1.502-3.006-1.403-3.005-1.402-3.005-1.303-3.006-1.402-3.005-1.303-3.005-1.202-3.106m-20.736 52.193l36.264-19.335m-53.495-17.13l37.967-15.728"/><path d="M237.019 682.205l-1.603-2.905-1.503-3.005-1.502-2.905-1.403-2.905-1.502-3.006-1.403-3.005-1.402-3.005-1.303-3.006-1.402-3.005-1.303-3.005-1.202-3.106m51.692 13.524l-1.403-2.604-1.302-2.605-1.302-2.605-1.303-2.704-1.302-2.605-1.302-2.705-1.202-2.604-1.203-2.705-1.202-2.705-1.102-2.605-1.202-2.704m-22.339 48.485l36.164-19.334m-51.692-13.524l37.867-15.627m-75.834 31.355l-1.402-3.406-1.303-3.406-1.402-3.406-1.302-3.406-1.202-3.406-1.303-3.506-1.202-3.406-1.102-3.506-1.202-3.507-1.102-3.406-1.102-3.506m51.591 22.139l-1.302-3.005-1.202-3.105-1.202-3.006-1.102-3.105-1.202-3.106-1.102-3.105-1.102-3.106-1.002-3.105-1.102-3.206-1.002-3.105-.901-3.106m-25.746 49.788l37.967-15.728M169.9 627.208l39.37-11.92"/><path d="M221.491 649.347l-1.302-3.005-1.202-3.105-1.202-3.006-1.102-3.105-1.202-3.106-1.102-3.105-1.102-3.106-1.002-3.105-1.102-3.206-1.002-3.105-.901-3.106m50.088 18.433l-1.102-2.805-1.001-2.705-1.102-2.705-1.002-2.705-1.002-2.805-1.002-2.704-1.001-2.805-.902-2.805-.902-2.805-.901-2.705-.902-2.805m-27.048 45.981l37.867-15.627m-50.088-18.433l39.27-11.92m-78.64 23.841l-1.002-3.606-1.001-3.506-1.002-3.507-1.002-3.506-.901-3.606-.902-3.506-.801-3.607-.802-3.506-.801-3.606-.802-3.607-.701-3.606"/><path d="M209.27 615.287l-1.002-3.206-.902-3.205-.901-3.106-.802-3.205-.901-3.206-.802-3.206-.7-3.205-.802-3.206-.702-3.206-.7-3.205-.602-3.306M169.9 627.208l39.37-11.92m-49.087-27.249l40.271-8.014"/><path d="M209.27 615.287l-1.002-3.206-.902-3.205-.901-3.106-.802-3.205-.901-3.206-.802-3.206-.7-3.205-.802-3.206-.702-3.206-.7-3.205-.602-3.306m48.086 23.341l-.802-2.905-.802-2.805-.801-2.805-.802-2.805-.7-2.805-.702-2.905-.701-2.805-.701-2.905-.602-2.805-.6-2.905-.602-2.905m-31.455 43.276l39.27-11.92m-48.086-23.342l40.271-8.014m18.633 61.709l-1.102-2.805-1.001-2.705-1.102-2.705-1.002-2.705-1.002-2.805-1.002-2.704-1.001-2.805-.902-2.805-.902-2.805-.901-2.705-.902-2.805m48.786 14.626l-.901-2.404-1.002-2.405-.902-2.404-.901-2.404-.902-2.404-.901-2.405-.802-2.404-.801-2.404-.802-2.504-.801-2.405-.801-2.404m-28.451 42.275l37.967-15.728m-48.785-14.626l39.269-11.921"/><path d="M297.325 617.992l-.901-2.404-1.002-2.405-.902-2.404-.901-2.404-.902-2.404-.901-2.405-.802-2.404-.801-2.404-.802-2.504-.801-2.405-.801-2.404m47.483 10.819l-.801-2.104-.801-2.003-.802-2.004-.801-2.103-.802-2.104-.7-2.004-.702-2.103-.701-2.104-.702-2.104-.7-2.003-.602-2.104m-29.853 38.468l37.967-15.728m-47.483-10.819l39.37-11.921m-78.639 23.842l-.802-2.905-.802-2.805-.801-2.805-.802-2.805-.7-2.805-.702-2.905-.701-2.805-.701-2.905-.602-2.805-.6-2.905-.602-2.905m47.084 19.434l-.702-2.504-.701-2.505-.701-2.404-.701-2.505-.601-2.504-.602-2.504-.6-2.505-.602-2.404-.6-2.605-.502-2.504-.5-2.504m-32.457 39.369l39.269-11.921m-47.084-19.435l40.271-8.013"/><path d="M287.809 591.445l-.702-2.504-.701-2.505-.701-2.404-.701-2.505-.601-2.504-.602-2.504-.6-2.505-.602-2.404-.6-2.605-.502-2.504-.5-2.504m46.181 15.527l-.701-2.204-.601-2.104-.601-2.103-.501-2.104-.601-2.104-.501-2.104-.501-2.203-.5-2.104-.502-2.204-.5-2.104-.401-2.204m-33.459 35.463l39.37-11.921m-46.183-15.527l40.272-8.015m-80.543 16.028l-.6-2.804-.502-2.905-.5-2.906-.501-2.905-.401-2.905-.501-2.905-.4-2.905-.401-2.905-.3-2.905-.301-2.905-.301-2.906m44.979 23.843l-.5-2.505-.501-2.504-.401-2.505-.4-2.504-.401-2.605-.401-2.504-.4-2.505-.301-2.604-.3-2.505-.301-2.604-.2-2.505m-36.165 35.863l40.271-8.013m-44.979-23.843l40.872-4.007"/><path d="M280.996 563.997l-.5-2.505-.501-2.504-.401-2.505-.4-2.504-.401-2.605-.401-2.504-.4-2.505-.301-2.604-.3-2.505-.301-2.604-.2-2.505m44.378 19.835l-.401-2.103-.4-2.204-.401-2.104-.401-2.204-.3-2.204-.301-2.103-.3-2.204-.301-2.204-.3-2.204-.201-2.204-.2-2.104m-36.766 31.857l40.272-8.015m-44.378-19.835l40.871-4.007m-81.744 8.014l-.3-2.905-.301-2.905-.2-3.005-.2-2.905-.1-2.905-.201-2.906-.1-2.905-.1-3.005-.1-2.905v-5.81m42.475 28.149l-.301-2.604-.2-2.505-.201-2.604-.2-2.505-.1-2.604-.1-2.505-.1-2.604-.101-2.605-.1-2.504v-5.109m-39.47 32.156l40.872-4.007m-41.974-27.749h41.073"/><path d="M276.89 536.147l-.301-2.604-.2-2.505-.201-2.604-.2-2.505-.1-2.604-.1-2.505-.1-2.604-.101-2.605-.1-2.504v-5.109m42.274 24.142l-.2-2.204-.2-2.204-.2-2.203-.1-2.204-.201-2.204-.1-2.204-.1-2.204v-2.204l-.1-2.204v-4.408m-39.67 28.25l40.871-4.007m-42.274-24.142l41.072-.1m-156.376-80.042l.701-3.606.802-3.607.801-3.606.802-3.506.8-3.607.903-3.506.901-3.606 1.002-3.506 1.002-3.507 1.001-3.506 1.002-3.606m30.554 47.183l.601-3.306.701-3.205.702-3.206.801-3.206.701-3.205.802-3.206.901-3.206.802-3.205.901-3.106.902-3.206 1.002-3.205m-49.087 27.248l40.271 8.014M169.9 388.687l39.37 11.92"/><path d="M200.454 435.87l.601-3.306.701-3.205.702-3.206.801-3.206.701-3.205.802-3.206.901-3.206.802-3.205.901-3.106.902-3.206 1.002-3.205m31.455 43.276l.601-2.905.601-2.905.602-2.805.7-2.905.702-2.805.701-2.905.701-2.805.802-2.805.801-2.805.802-2.805.801-2.905m-48.085 23.341l40.271 8.014m-31.455-43.276l39.27 11.92m-78.64-23.841l1.102-3.506 1.102-3.406 1.202-3.507 1.102-3.506 1.202-3.406 1.303-3.506 1.202-3.406 1.302-3.406 1.402-3.406 1.303-3.406 1.402-3.406m25.746 49.788l.901-3.106 1.002-3.105 1.102-3.206 1.002-3.105 1.102-3.106 1.102-3.105 1.202-3.106 1.102-3.105 1.202-3.006 1.202-3.105 1.302-3.005M169.9 388.687l39.37 11.92m-25.746-49.787l37.967 15.728"/><path d="M209.27 400.608l.901-3.106 1.002-3.105 1.102-3.206 1.002-3.105 1.102-3.106 1.102-3.105 1.202-3.106 1.102-3.105 1.202-3.006 1.202-3.105 1.302-3.005m27.049 45.981l.9-2.805.902-2.705.902-2.805.902-2.805 1.001-2.805 1.002-2.704 1.002-2.805 1.002-2.705 1.102-2.705 1.001-2.705 1.102-2.805m-50.088 18.433l39.27 11.92m-27.049-45.98l37.867 15.627m-24.944 125.823v-5.911l.1-2.905.1-3.005.1-2.905.201-2.906.1-2.905.2-2.905.201-3.005.3-2.905.301-2.905m39.47 32.257v-5.21l.1-2.504.1-2.605.1-2.604.1-2.505.1-2.604.201-2.505.2-2.604.2-2.505.301-2.604m-41.974 28.65h41.073m-39.971-32.658l40.872 4.008"/><path d="M275.487 507.998v-5.21l.1-2.504.1-2.605.1-2.604.1-2.505.1-2.604.201-2.505.2-2.604.2-2.505.301-2.604m39.671 28.149v-4.307l.1-2.204v-2.204l.1-2.204.1-2.204.2-2.204.1-2.204.2-2.203.201-2.204.2-2.204m-42.274 24.243l41.072-.1m-39.669-28.15l40.871 4.007m-81.744-8.015l.3-2.905.301-2.905.3-2.905.401-2.905.401-2.905.5-2.905.402-2.905.5-2.905.501-2.906.501-2.905.601-2.805m36.165 35.864l.2-2.505.3-2.604.3-2.505.301-2.604.4-2.505.402-2.504.4-2.605.401-2.504.4-2.505.502-2.504.5-2.505m-44.979 23.842l40.872 4.008m-36.164-35.864l40.271 8.014"/><path d="M276.89 479.748l.2-2.505.3-2.604.3-2.505.301-2.604.4-2.505.402-2.504.4-2.605.401-2.504.4-2.505.502-2.504.5-2.505m36.765 31.857l.2-2.104.201-2.204.3-2.204.301-2.204.3-2.204.301-2.103.3-2.204.402-2.204.4-2.104.4-2.204.402-2.103m-44.378 19.835l40.871 4.007m-36.765-31.857l40.272 8.015m-80.543-16.029l.601-2.905.601-2.905.602-2.805.7-2.905.702-2.805.701-2.905.701-2.805.802-2.805.801-2.805.802-2.805.801-2.905m32.457 39.369l.501-2.504.501-2.504.601-2.605.601-2.404.601-2.505.602-2.504.6-2.505.702-2.504.701-2.404.701-2.505.702-2.504m-47.084 19.434l40.271 8.014m-32.456-39.369l39.269 11.92"/><path d="M280.996 451.898l.501-2.504.501-2.504.601-2.605.601-2.404.601-2.505.602-2.504.6-2.505.702-2.504.701-2.404.701-2.505.702-2.504m33.459 35.463l.4-2.204.501-2.104.501-2.204.501-2.104.5-2.204.502-2.103.6-2.104.502-2.104.6-2.103.602-2.104.701-2.204m-46.182 15.527l40.272 8.015m-33.459-35.463l39.37 11.921m-78.639-23.842l.9-2.805.902-2.705.902-2.805.902-2.805 1.001-2.805 1.002-2.704 1.002-2.805 1.002-2.705 1.102-2.705 1.001-2.705 1.102-2.805m28.451 42.275l.8-2.404.802-2.405.802-2.504.801-2.404.802-2.404.901-2.405.902-2.404.901-2.404.902-2.404 1.002-2.405.901-2.404m-48.785 14.626l39.269 11.92m-28.451-42.274l37.967 15.728"/><path d="M287.809 424.45l.8-2.404.802-2.405.802-2.504.801-2.404.802-2.404.901-2.405.902-2.404.901-2.404.902-2.404 1.002-2.405.901-2.404m29.853 38.468l.601-2.104.701-2.003.702-2.104.7-2.104.702-2.103.701-2.004.802-2.104.801-2.103.802-2.004.801-2.003.801-2.104m-47.483 10.819l39.37 11.921m-29.854-38.468l37.967 15.728M183.524 350.82l1.403-3.406 1.502-3.406 1.403-3.306 1.503-3.406 1.602-3.306 1.503-3.306 1.603-3.306 1.703-3.305 1.603-3.206 1.703-3.306 1.703-3.206m20.736 52.193l1.202-3.106 1.303-3.005 1.402-3.005 1.303-3.006 1.402-3.005 1.403-3.005 1.502-3.006 1.403-2.905 1.502-2.905 1.503-3.005 1.603-2.905m-53.495 17.13l37.967 15.728m-20.736-52.193l36.264 19.335"/><path d="M221.491 366.548l1.202-3.106 1.303-3.005 1.402-3.005 1.303-3.006 1.402-3.005 1.403-3.005 1.502-3.006 1.403-2.905 1.502-2.905 1.503-3.005 1.603-2.905m22.339 48.485l1.202-2.705 1.102-2.604 1.202-2.705 1.203-2.705 1.202-2.604 1.302-2.705 1.302-2.605 1.303-2.704 1.302-2.605 1.302-2.605 1.403-2.604m-51.692 13.524l37.867 15.627m-22.339-48.485l36.164 19.334m-72.428-38.669l1.703-3.205 1.803-3.206 1.803-3.206 1.803-3.205 1.904-3.106 1.903-3.205 1.903-3.106 1.904-3.105 2.003-3.106 2.004-3.105 2.003-3.006m15.528 53.896l1.502-2.906 1.603-2.905 1.603-2.805 1.703-2.905 1.603-2.805 1.703-2.805 1.703-2.905 1.803-2.705 1.803-2.805 1.804-2.805 1.803-2.704m-54.897 11.72l36.264 19.335m-15.528-53.896l34.16 22.84"/><path d="M237.019 333.69l1.502-2.906 1.603-2.905 1.603-2.805 1.703-2.905 1.603-2.805 1.703-2.805 1.703-2.905 1.803-2.705 1.803-2.805 1.804-2.805 1.803-2.704m17.531 50.389l1.402-2.505 1.403-2.604 1.502-2.505 1.403-2.604 1.502-2.505 1.503-2.504 1.503-2.505 1.603-2.504 1.502-2.504 1.603-2.405 1.703-2.504m-52.793 8.315l36.164 19.334m-17.531-50.389l34.16 22.74m-68.321-45.581l2.004-3.005 2.104-3.105 2.103-3.006 2.104-2.905 2.204-3.005 2.204-2.905 2.204-2.905 2.204-2.906 2.304-2.905 2.204-2.905 2.304-2.805m10.218 55.198l1.803-2.805 1.903-2.705 1.904-2.705 1.903-2.705 1.903-2.604 2.004-2.705 2.003-2.605 2.004-2.604 2.004-2.605 2.103-2.604 2.004-2.505m-55.699 6.311l34.16 22.84m-10.217-55.197l31.756 26.046"/><path d="M255.652 302.635l1.803-2.805 1.903-2.705 1.904-2.705 1.903-2.705 1.903-2.604 2.004-2.705 2.003-2.605 2.004-2.604 2.004-2.605 2.103-2.604 2.004-2.505m12.622 51.892l1.603-2.404 1.703-2.405 1.603-2.404 1.703-2.404 1.803-2.304 1.703-2.404 1.803-2.304 1.703-2.305 1.903-2.404 1.804-2.204 1.803-2.304m-53.294 3.106l34.16 22.74m-12.622-51.892l31.756 26.046m-63.512-52.092l2.404-2.805 2.304-2.805 2.404-2.805 2.404-2.805 2.505-2.704 2.404-2.705 2.505-2.705 2.504-2.705 2.504-2.604 2.605-2.605 2.605-2.605m4.608 55.899l2.103-2.604 2.204-2.505 2.104-2.504 2.204-2.404 2.204-2.505 2.204-2.404 2.204-2.505 2.304-2.404 2.204-2.304 2.304-2.404 2.404-2.304m-56.199.801l31.756 26.046m-4.608-55.899l29.05 29.052"/><path d="M277.19 273.483l2.103-2.604 2.204-2.505 2.104-2.504 2.204-2.404 2.204-2.505 2.204-2.404 2.204-2.505 2.304-2.404 2.204-2.304 2.304-2.404 2.404-2.304m7.313 52.894l1.903-2.305 1.904-2.204 1.903-2.204 1.903-2.204 2.004-2.203 1.903-2.204 2.004-2.104 2.003-2.204 2.004-2.104 2.104-2.103 2.003-2.104m-53.394-2.104l31.756 26.046m-7.313-52.893l28.951 28.95M853.308 798.31l-29.052-29.05m56.2-.802L848.7 742.412m4.608 55.898l2.604-2.604 2.605-2.605 2.504-2.604 2.505-2.705 2.504-2.705 2.404-2.705 2.505-2.704 2.404-2.805 2.404-2.805 2.304-2.805 2.405-2.805m-56.2.802l2.405-2.305 2.304-2.404 2.204-2.304 2.304-2.404 2.204-2.505 2.203-2.404 2.204-2.505 2.204-2.404 2.104-2.504 2.204-2.505 2.104-2.604m31.756 26.046L848.7 742.412m55.698-6.312l-34.16-22.84m10.218 55.198l2.304-2.805 2.204-2.905 2.304-2.905 2.204-2.906 2.203-2.905 2.204-2.905 2.204-3.005 2.104-2.905 2.104-3.006 2.103-3.105 2.004-3.005m-55.698 6.311l2.003-2.505 2.104-2.604 2.003-2.605 2.004-2.604 2.003-2.605 2.004-2.705 1.903-2.604 1.904-2.705 1.903-2.705 1.903-2.705 1.804-2.805m-45.982 56l-28.95-28.952m53.394 2.104l-31.757-26.046"/><path d="M824.256 769.26l2.405-2.305 2.304-2.404 2.204-2.304 2.304-2.404 2.204-2.505 2.203-2.404 2.204-2.505 2.204-2.404 2.104-2.504 2.204-2.505 2.104-2.604m-53.395-2.104l2.004-2.104 2.103-2.103 2.004-2.104 2.004-2.204 2.003-2.104 1.903-2.204 2.004-2.204 1.903-2.203 1.904-2.204 1.903-2.204 1.903-2.304m31.757 26.046l-31.757-26.046m53.295-3.106l-34.16-22.74m12.622 51.892l2.003-2.505 2.104-2.604 2.003-2.605 2.004-2.604 2.003-2.605 2.004-2.705 1.903-2.604 1.904-2.705 1.903-2.705 1.903-2.705 1.804-2.805m-53.295 3.106l1.804-2.304 1.803-2.204 1.903-2.404 1.703-2.305 1.803-2.304 1.703-2.404 1.804-2.304 1.703-2.404 1.602-2.404 1.703-2.405 1.603-2.404m68.321 45.58l-34.16-22.84m54.897-11.72l-36.264-19.335m15.527 53.895l2.003-3.005 2.004-3.105 2.004-3.106 1.903-3.105 1.903-3.106 1.904-3.205 1.903-3.106 1.803-3.205 1.803-3.206 1.804-3.206 1.703-3.205m-54.897 11.72l1.803-2.705 1.803-2.804 1.803-2.805 1.803-2.705 1.703-2.905 1.703-2.805 1.603-2.805 1.703-2.905 1.603-2.805 1.603-2.905 1.503-2.906m36.264 19.335l-36.264-19.335m53.494-17.13l-37.967-15.728m20.737 52.193l1.703-3.206 1.703-3.306 1.602-3.206 1.703-3.305 1.603-3.306 1.503-3.306 1.603-3.306 1.502-3.406 1.403-3.306 1.503-3.406 1.402-3.406m-53.495 17.13l1.603-2.905 1.503-3.005 1.503-2.905 1.402-2.905 1.503-3.006 1.402-3.005 1.403-3.005 1.302-3.006 1.403-3.005 1.302-3.005 1.202-3.106m-34.16 63.913l-34.16-22.74m52.792-8.315l-36.163-19.334"/><path d="M870.238 713.26l1.803-2.705 1.803-2.804 1.803-2.805 1.803-2.705 1.703-2.905 1.703-2.805 1.603-2.805 1.703-2.905 1.603-2.805 1.603-2.905 1.503-2.906m-52.794 8.315l1.703-2.504 1.603-2.405 1.503-2.504 1.603-2.504 1.502-2.505 1.503-2.504 1.503-2.505 1.402-2.604 1.503-2.505 1.402-2.604 1.403-2.505m36.163 19.334l-36.163-19.334m51.691-13.524l-37.867-15.627m22.339 48.485l1.603-2.905 1.503-3.005 1.503-2.905 1.402-2.905 1.503-3.006 1.402-3.005 1.403-3.005 1.302-3.006 1.403-3.005 1.302-3.005 1.202-3.106m-51.691 13.524l1.402-2.604 1.302-2.605 1.303-2.605 1.302-2.704 1.302-2.605 1.303-2.705 1.202-2.604 1.202-2.705 1.202-2.705 1.102-2.605 1.202-2.704m75.834 31.355l-37.967-15.728m51.592-22.139l-39.37-11.92m25.745 49.787l1.403-3.406 1.302-3.406 1.402-3.406 1.303-3.406 1.202-3.406 1.302-3.506 1.202-3.406 1.102-3.506 1.202-3.507 1.102-3.406 1.102-3.506m-51.591 22.139l1.302-3.005 1.202-3.105 1.203-3.006 1.101-3.105 1.203-3.106 1.102-3.105 1.101-3.106 1.002-3.105 1.102-3.206 1.002-3.105.902-3.106m39.37 11.921l-39.37-11.92m49.086-27.249l-40.27-8.014m30.554 47.183l1-3.606 1.003-3.506 1.001-3.507 1.002-3.506.902-3.606.901-3.506.802-3.607.801-3.506.802-3.606.801-3.607.701-3.606m-49.086 27.248l1.001-3.206.902-3.205.902-3.106.8-3.205.903-3.206.8-3.206.702-3.205.802-3.206.7-3.206.702-3.205.601-3.306m-21.037 69.322l-37.867-15.627m50.089-18.433l-39.27-11.92"/><path d="M904.398 649.347l1.302-3.005 1.202-3.105 1.203-3.006 1.101-3.105 1.203-3.106 1.102-3.105 1.101-3.106 1.002-3.105 1.102-3.206 1.002-3.105.902-3.106m-50.089 18.433l1.102-2.805 1.002-2.705 1.102-2.705 1.001-2.705 1.002-2.805 1.002-2.704 1.002-2.805.901-2.805.902-2.805.902-2.705.901-2.805m39.27 11.921l-39.27-11.92m48.085-23.342l-40.271-8.014m31.456 43.276l1.001-3.206.902-3.205.902-3.106.8-3.205.903-3.206.8-3.206.702-3.205.802-3.206.7-3.206.702-3.205.601-3.306m-48.085 23.341l.802-2.905.801-2.805.801-2.805.802-2.805.701-2.805.701-2.905.702-2.805.7-2.905.602-2.805.6-2.905.602-2.905m-18.633 61.709l-37.967-15.728m48.786-14.626l-39.27-11.921"/><path d="M866.531 633.72l1.102-2.805 1.002-2.705 1.102-2.705 1.001-2.705 1.002-2.805 1.002-2.704 1.002-2.805.901-2.805.902-2.805.902-2.705.901-2.805m-48.786 14.626l.902-2.404 1.001-2.405.902-2.404.902-2.404.901-2.404.902-2.405.801-2.404.802-2.404.8-2.504.802-2.405.802-2.404m39.269 11.921l-39.27-11.921m47.084-19.435l-40.271-8.013m32.457 39.369l.802-2.905.801-2.805.801-2.805.802-2.805.701-2.805.701-2.905.702-2.805.7-2.905.602-2.805.6-2.905.602-2.905m-47.084 19.434l.702-2.504.701-2.505.701-2.404.702-2.505.6-2.504.602-2.504.6-2.505.602-2.404.601-2.605.5-2.504.502-2.504m-16.329 53.995l-37.967-15.728m47.483-10.819l-39.369-11.921"/><path d="M828.564 617.992l.902-2.404 1.001-2.405.902-2.404.902-2.404.901-2.404.902-2.405.801-2.404.802-2.404.8-2.504.802-2.405.802-2.404m-47.484 10.819l.801-2.104.802-2.003.801-2.004.802-2.103.801-2.104.701-2.004.701-2.103.702-2.104.7-2.104.702-2.003.601-2.104m39.369 11.921l-39.369-11.921m46.182-15.527l-40.271-8.015m33.458 35.463l.702-2.504.701-2.505.701-2.404.702-2.505.6-2.504.602-2.504.6-2.505.602-2.404.601-2.605.5-2.504.502-2.504m-46.182 15.527l.701-2.204.602-2.104.6-2.103.501-2.104.602-2.104.5-2.104.501-2.203.501-2.104.501-2.204.501-2.104.4-2.204m80.543 16.028l-40.271-8.013m44.979-23.843L849 536.147m36.164 35.863l.601-2.804.5-2.905.502-2.906.5-2.905.401-2.905.501-2.905.401-2.905.4-2.905.301-2.905.3-2.905.301-2.906m-44.979 23.843l.5-2.505.502-2.504.4-2.505.401-2.504.4-2.605.401-2.504.401-2.505.3-2.604.301-2.505.3-2.604.201-2.505m40.872 4.007L849 536.147m42.074-27.749h-41.072m39.87 31.756l.3-2.905.301-2.905.2-3.005.201-2.905.1-2.905.2-2.906.1-2.905.1-3.005.101-2.905v-5.81M849 536.147l.3-2.604.201-2.505.2-2.604.2-2.505.1-2.604.101-2.505.1-2.604.1-2.605.1-2.504v-5.109m-5.509 55.999l-40.271-8.015M849 536.147l-40.872-4.007"/><path d="M844.893 563.997l.5-2.505.502-2.504.4-2.505.401-2.504.4-2.605.401-2.504.401-2.505.3-2.604.301-2.505.3-2.604.201-2.505m-44.378 19.835l.4-2.103.401-2.204.4-2.104.401-2.204.301-2.204.3-2.103.301-2.204.3-2.204.301-2.204.2-2.204.2-2.104M849 536.147l-40.872-4.007m42.275-24.142l-41.073-.1M849 536.147l.3-2.604.201-2.505.2-2.604.2-2.505.1-2.604.101-2.505.1-2.604.1-2.605.1-2.504v-5.109m-42.274 24.142l.2-2.204.2-2.204.2-2.203.101-2.204.2-2.204.1-2.204.1-2.204v-2.204l.101-2.204v-4.408m156.376-80.041l-40.27 8.014m30.554-47.183l-39.37 11.92m49.086 27.249l-.701-3.606-.801-3.607-.802-3.606-.801-3.506-.802-3.607-.901-3.506-.902-3.606-1.002-3.506-1.001-3.507-1.002-3.506-1.002-3.606m-30.554 47.183l-.6-3.306-.702-3.205-.701-3.206-.802-3.206-.701-3.205-.801-3.206-.902-3.206-.801-3.205-.902-3.106-.902-3.206-1.001-3.205m39.37-11.921l-39.37 11.92m25.745-49.787l-37.967 15.728m51.592 22.139l-1.103-3.506-1.102-3.406-1.202-3.507-1.102-3.506-1.202-3.406-1.302-3.506-1.202-3.406-1.303-3.406-1.402-3.406-1.302-3.406-1.403-3.406m-25.745 49.788l-.902-3.106-1.002-3.105-1.102-3.206-1.002-3.105-1.101-3.106-1.102-3.105-1.203-3.106-1.101-3.105-1.203-3.006-1.202-3.105-1.302-3.005m21.037 69.322l-40.271 8.014m31.456-43.276l-39.27 11.92"/><path d="M925.435 435.87l-.6-3.306-.702-3.205-.701-3.206-.802-3.206-.701-3.205-.801-3.206-.902-3.206-.801-3.205-.902-3.106-.902-3.206-1.001-3.205m-31.456 43.276l-.601-2.905-.601-2.905-.601-2.805-.701-2.905-.702-2.805-.7-2.905-.702-2.805-.802-2.805-.801-2.805-.801-2.805-.802-2.905m39.27-11.921l-39.27 11.92m27.048-45.98l-37.867 15.627m50.089 18.433l-.902-3.106-1.002-3.105-1.102-3.206-1.002-3.105-1.101-3.106-1.102-3.105-1.203-3.106-1.101-3.105-1.203-3.006-1.202-3.105-1.302-3.005m-27.048 45.981l-.901-2.805-.902-2.705-.902-2.805-.901-2.805-1.002-2.805-1.002-2.704-1.002-2.805-1.001-2.705-1.102-2.705-1.002-2.705-1.102-2.805m75.834-31.355l-37.967 15.728m20.737-52.193L888.87 333.69m53.495 17.13l-1.402-3.406-1.503-3.406-1.403-3.306-1.502-3.406-1.603-3.306-1.503-3.306-1.603-3.306-1.703-3.305-1.602-3.206-1.703-3.306-1.703-3.206m-20.737 52.193l-1.202-3.106-1.302-3.005-1.403-3.005-1.302-3.006-1.403-3.005-1.402-3.005-1.503-3.006-1.402-2.905-1.503-2.905-1.503-3.005-1.602-2.905m36.264-19.335L888.87 333.69m15.528-53.896l-34.16 22.84m54.897 11.721l-1.703-3.205-1.804-3.206-1.803-3.206-1.803-3.205-1.903-3.106-1.904-3.205-1.903-3.106-1.903-3.105-2.004-3.106-2.004-3.105-2.003-3.006M888.87 333.69l-1.502-2.906-1.603-2.905-1.603-2.805-1.703-2.905-1.603-2.805-1.703-2.805-1.703-2.905-1.803-2.705-1.803-2.805-1.803-2.805-1.803-2.704m34.16 63.913l-37.867 15.627m22.339-48.485l-36.163 19.334"/><path d="M904.398 366.548l-1.202-3.106-1.302-3.005-1.403-3.005-1.302-3.006-1.403-3.005-1.402-3.005-1.503-3.006-1.402-2.905-1.503-2.905-1.503-3.005-1.602-2.905m-22.34 48.485l-1.202-2.705-1.102-2.604-1.202-2.705-1.202-2.705-1.202-2.604-1.303-2.705-1.302-2.605-1.302-2.704-1.303-2.605-1.302-2.605-1.402-2.604m36.163-19.334l-36.163 19.334m17.531-50.389l-34.16 22.74m52.792 8.315l-1.502-2.906-1.603-2.905-1.603-2.805-1.703-2.905-1.603-2.805-1.703-2.805-1.703-2.905-1.803-2.705-1.803-2.805-1.803-2.805-1.803-2.704m-17.531 50.389l-1.403-2.505-1.402-2.604-1.503-2.505-1.402-2.604-1.503-2.505-1.503-2.504-1.502-2.505-1.603-2.504-1.503-2.504-1.603-2.405-1.703-2.504m68.321-45.581l-34.16 22.84m10.218-55.197L848.7 273.483m55.698 6.311l-2.004-3.005-2.103-3.105-2.104-3.006-2.104-2.905-2.204-3.005-2.204-2.905-2.203-2.905-2.204-2.906-2.304-2.905-2.204-2.905-2.304-2.805m-10.218 55.198l-1.804-2.805-1.903-2.705-1.903-2.705-1.904-2.705-1.903-2.604-2.004-2.705-2.003-2.605-2.004-2.604-2.003-2.605-2.104-2.604-2.003-2.505m31.756-26.046L848.7 273.483m4.608-55.899l-29.052 29.052m56.2.801l-2.405-2.805-2.304-2.805-2.404-2.805-2.404-2.805-2.505-2.704-2.404-2.705-2.504-2.705-2.505-2.705-2.504-2.604-2.605-2.605-2.604-2.605m-4.608 55.899l-2.104-2.604-2.204-2.505-2.104-2.504-2.204-2.404-2.204-2.505-2.203-2.404-2.204-2.505-2.304-2.404-2.204-2.304-2.304-2.404-2.405-2.304m45.982 55.999l-34.16 22.74m12.622-51.892l-31.757 26.046"/><path d="M870.238 302.635l-1.804-2.805-1.903-2.705-1.903-2.705-1.904-2.705-1.903-2.604-2.004-2.705-2.003-2.605-2.004-2.604-2.003-2.605-2.104-2.604-2.003-2.505m-12.623 51.892l-1.603-2.404-1.703-2.405-1.602-2.404-1.703-2.404-1.804-2.304-1.703-2.404-1.803-2.304-1.703-2.305-1.903-2.404-1.803-2.204-1.804-2.304m31.757-26.046l-31.757 26.046m7.313-52.893l-28.95 28.95m53.394-2.103l-2.104-2.604-2.204-2.505-2.104-2.504-2.204-2.404-2.204-2.505-2.203-2.404-2.204-2.505-2.304-2.404-2.204-2.304-2.304-2.404-2.405-2.304m-7.313 52.894l-1.903-2.305-1.903-2.204-1.904-2.204-1.903-2.204-2.004-2.203-1.903-2.204-2.003-2.104-2.004-2.204-2.004-2.104-2.103-2.103-2.004-2.104m95.769 232.811h-41.072m39.87-32.658L849 479.749m42.475 28.249v-5.911l-.1-2.905-.1-3.005-.1-2.905-.2-2.906-.1-2.905-.201-2.905-.2-3.005-.301-2.905-.3-2.905m-39.47 32.257v-5.21l-.1-2.504-.1-2.605-.101-2.604-.1-2.505-.1-2.604-.2-2.505-.201-2.604-.2-2.505-.3-2.604m40.871-4.008L849 479.749m36.164-35.865l-40.271 8.014m44.979 23.842l-.3-2.905-.3-2.905-.301-2.905-.401-2.905-.4-2.905-.502-2.905-.4-2.905-.501-2.905-.501-2.906-.501-2.905-.601-2.805M849 479.748l-.2-2.505-.3-2.604-.301-2.505-.3-2.604-.402-2.505-.4-2.504-.401-2.605-.4-2.504-.401-2.505-.501-2.504-.501-2.505m5.51 56.1l-41.073-.1m39.67-28.15l-40.872 4.007"/><path d="M850.403 507.998v-5.21l-.1-2.504-.1-2.605-.101-2.604-.1-2.505-.1-2.604-.2-2.505-.201-2.604-.2-2.505-.3-2.604m-39.671 28.149v-4.307l-.1-2.204v-2.204l-.1-2.204-.1-2.204-.2-2.204-.101-2.204-.2-2.203-.2-2.204-.201-2.204M849 479.748l-40.872 4.007m36.765-31.857l-40.271 8.015M849 479.748l-.2-2.505-.3-2.604-.301-2.505-.3-2.604-.402-2.505-.4-2.504-.401-2.605-.4-2.504-.401-2.505-.501-2.504-.501-2.505m-36.765 31.857l-.2-2.104-.2-2.204-.301-2.204-.3-2.204-.301-2.204-.301-2.103-.3-2.204-.401-2.204-.4-2.104-.402-2.204-.4-2.103m80.542-16.029l-40.271 8.014m32.457-39.369l-39.27 11.92m47.084 19.435l-.601-2.905-.601-2.905-.601-2.805-.701-2.905-.702-2.805-.7-2.905-.702-2.805-.802-2.805-.801-2.805-.801-2.805-.802-2.905m-32.457 39.369l-.501-2.504-.501-2.504-.601-2.605-.601-2.404-.601-2.505-.601-2.504-.601-2.505-.702-2.504-.7-2.404-.702-2.505-.701-2.504m39.269-11.921l-39.27 11.92m28.451-42.274l-37.967 15.728m48.786 14.626l-.901-2.805-.902-2.705-.902-2.805-.901-2.805-1.002-2.805-1.002-2.704-1.002-2.805-1.001-2.705-1.102-2.705-1.002-2.705-1.102-2.805M838.08 424.45l-.8-2.404-.802-2.405-.801-2.504-.802-2.404-.801-2.404-.902-2.405-.901-2.404-.902-2.404-.902-2.404-1.001-2.405-.902-2.404m16.329 53.995l-40.271 8.015m33.458-35.463l-39.369 11.921"/><path d="M844.893 451.898l-.501-2.504-.501-2.504-.601-2.605-.601-2.404-.601-2.505-.601-2.504-.601-2.505-.702-2.504-.7-2.404-.702-2.505-.701-2.504m-33.459 35.463l-.401-2.204-.5-2.104-.502-2.204-.5-2.104-.502-2.204-.5-2.103-.602-2.104-.5-2.104-.601-2.103-.602-2.104-.7-2.204m39.368-11.921l-39.369 11.921m29.853-38.468l-37.967 15.728m47.483 10.819l-.8-2.404-.802-2.405-.801-2.504-.802-2.404-.801-2.404-.902-2.405-.901-2.404-.902-2.404-.902-2.404-1.001-2.405-.902-2.404m-29.853 38.468l-.6-2.104-.702-2.003-.701-2.104-.702-2.104-.7-2.103-.702-2.004-.801-2.104-.802-2.103-.801-2.004-.802-2.003-.801-2.104M272.582 217.584l2.604-2.604 2.605-2.605 2.604-2.504 2.705-2.505 2.705-2.504 2.705-2.404 2.705-2.505 2.804-2.404 2.805-2.404 2.805-2.304 2.805-2.405m-.801 56.2l2.304-2.404 2.404-2.305 2.304-2.203 2.405-2.305 2.504-2.203 2.404-2.204 2.505-2.204 2.404-2.204 2.504-2.104 2.505-2.204 2.604-2.103m-55.898-4.609l29.05 29.052m.802-56.2l26.046 31.757"/><path d="M301.633 246.636l2.304-2.404 2.404-2.305 2.304-2.203 2.405-2.305 2.504-2.203 2.404-2.204 2.505-2.204 2.404-2.204 2.504-2.104 2.505-2.204 2.604-2.103m2.104 53.394l2.104-2.004 2.104-2.103 2.103-2.004 2.204-2.003 2.104-2.004 2.204-1.903 2.204-2.004 2.204-1.903 2.203-1.904 2.204-1.903 2.304-1.903m-52.893-7.313l28.951 28.95m-2.104-53.393l26.046 31.756m-52.092-63.513l2.805-2.304 2.905-2.203 2.906-2.305 2.905-2.203 2.905-2.204 2.905-2.204 3.005-2.204 2.905-2.104 3.006-2.104 3.105-2.103 3.006-2.004m-6.312 55.699l2.505-2.004 2.604-2.104 2.605-2.003 2.605-2.004 2.604-2.003 2.705-2.004 2.605-1.903 2.704-1.904 2.705-1.903 2.705-1.903 2.805-1.803m-55.198-10.219l26.046 31.757m6.312-55.699l22.84 34.16"/><path d="M328.48 222.193l2.505-2.004 2.604-2.104 2.605-2.003 2.605-2.004 2.604-2.003 2.705-2.004 2.605-1.903 2.704-1.904 2.705-1.903 2.705-1.903 2.805-1.803m-3.106 53.294l2.304-1.803 2.204-1.804 2.405-1.903 2.304-1.703 2.304-1.803 2.404-1.703 2.304-1.803 2.404-1.703 2.405-1.603 2.404-1.703 2.404-1.603m-51.892-12.622l26.046 31.756m3.106-53.294l22.74 34.16m-45.58-68.321l3.005-2.003 3.105-2.004 3.106-2.003 3.105-1.904 3.106-1.903 3.205-1.904 3.106-1.903 3.206-1.803 3.205-1.803 3.206-1.803 3.206-1.703m-11.721 54.897l2.705-1.804 2.805-1.803 2.805-1.803 2.704-1.803 2.905-1.703 2.805-1.703 2.805-1.603 2.906-1.703 2.804-1.603 2.906-1.603 2.905-1.502m-53.895-15.528l22.84 34.16m11.721-54.896l19.334 36.264"/><path d="M357.632 200.655l2.705-1.804 2.805-1.803 2.805-1.803 2.704-1.803 2.905-1.703 2.805-1.703 2.805-1.603 2.906-1.703 2.804-1.603 2.906-1.603 2.905-1.502m-8.315 52.793l2.504-1.703 2.405-1.603 2.504-1.503 2.505-1.602 2.504-1.503 2.504-1.503 2.505-1.502 2.604-1.403 2.505-1.503 2.604-1.402 2.505-1.402m-50.389-17.531l22.74 34.16m8.315-52.793l19.334 36.164m-38.668-72.428l3.205-1.703 3.306-1.703 3.206-1.603 3.306-1.703 3.305-1.603 3.306-1.503 3.306-1.603 3.406-1.502 3.306-1.403 3.406-1.502 3.406-1.403m-17.13 53.495l2.905-1.603 3.005-1.503 2.905-1.503 2.905-1.402 3.006-1.503 3.005-1.402 3.005-1.403 3.006-1.302 3.005-1.402 3.005-1.303 3.106-1.202m-52.192-20.736l19.334 36.264m17.13-53.495l15.728 37.967"/><path d="M388.687 182.022l2.905-1.603 3.005-1.503 2.905-1.503 2.905-1.402 3.006-1.503 3.005-1.402 3.005-1.403 3.006-1.302 3.005-1.402 3.005-1.303 3.106-1.202m-13.525 51.692l2.606-1.403 2.604-1.302 2.605-1.303 2.705-1.302 2.604-1.302 2.705-1.302 2.604-1.203 2.705-1.202 2.705-1.202 2.605-1.102 2.704-1.202m-48.485-22.339l19.334 36.164m13.524-51.692l15.627 37.867m-31.355-75.834l3.406-1.402 3.406-1.303 3.406-1.402 3.406-1.302 3.406-1.203 3.506-1.302 3.406-1.202 3.507-1.102 3.506-1.202 3.406-1.102 3.506-1.102m-22.139 51.591l3.005-1.302 3.106-1.202 3.005-1.202 3.105-1.102 3.106-1.202 3.105-1.102 3.106-1.102 3.105-1.002 3.206-1.102 3.106-1.002 3.105-.901m-49.788-25.746l15.728 37.967m22.139-51.591l11.921 39.37"/><path d="M421.545 166.494l3.005-1.302 3.106-1.202 3.005-1.202 3.105-1.102 3.106-1.202 3.105-1.102 3.106-1.102 3.105-1.002 3.206-1.102 3.106-1.002 3.105-.901m-18.433 50.088l2.805-1.102 2.705-1.002 2.705-1.102 2.705-1.001 2.805-1.002 2.704-1.002 2.805-1.002 2.805-.901 2.805-.902 2.705-.901 2.805-.902m-45.981-27.048l15.627 37.867m18.433-50.088l11.921 39.269m-23.842-78.639l3.606-1.002 3.507-1.002 3.506-1.001 3.506-1.002 3.606-.902 3.506-.901 3.607-.802 3.506-.801 3.606-.801 3.607-.802 3.606-.701m-27.248 49.087l3.206-1.002 3.205-.902 3.106-.901 3.205-.802 3.206-.901 3.206-.802 3.205-.701 3.206-.801 3.206-.702 3.205-.7 3.306-.602m-47.183-30.554l11.921 39.37m27.248-49.087l8.014 40.271"/><path d="M455.605 154.273l3.206-1.002 3.205-.902 3.106-.901 3.205-.802 3.206-.901 3.206-.802 3.205-.701 3.206-.801 3.206-.702 3.205-.7 3.306-.602m-23.341 48.085l2.905-.801 2.805-.802 2.805-.801 2.805-.802 2.805-.7 2.905-.702 2.805-.701 2.905-.702 2.805-.6 2.905-.602 2.905-.6m-43.276-31.456l11.921 39.269m23.341-48.085l8.014 40.271m-61.709 18.633l2.805-1.102 2.705-1.002 2.705-1.102 2.705-1.001 2.805-1.002 2.704-1.002 2.805-1.002 2.805-.901 2.805-.902 2.705-.901 2.805-.902M452.9 242.328l2.404-.901 2.405-1.002 2.404-.902 2.404-.901 2.404-.902 2.405-.902 2.404-.801 2.404-.801 2.505-.802 2.404-.801 2.404-.802m-42.275-28.45l15.728 37.967m14.626-48.786l11.921 39.27"/><path d="M452.9 242.328l2.404-.901 2.405-1.002 2.404-.902 2.404-.901 2.404-.902 2.405-.902 2.404-.801 2.404-.801 2.505-.802 2.404-.801 2.404-.802m-10.819 47.484l2.104-.801 2.003-.802 2.004-.801 2.104-.801 2.103-.802 2.004-.701 2.103-.701 2.104-.702 2.104-.7 2.003-.702 2.104-.601M452.9 242.328l15.728 37.967m10.819-47.484l11.921 39.37m-23.842-78.639l2.905-.801 2.805-.802 2.805-.801 2.805-.802 2.805-.7 2.905-.702 2.805-.701 2.905-.702 2.805-.6 2.905-.602 2.905-.6m-19.434 47.082l2.505-.7 2.504-.702 2.404-.701 2.505-.702 2.504-.6 2.504-.602 2.505-.6 2.404-.602 2.605-.6 2.504-.502 2.505-.5m-39.37-32.458l11.921 39.27m19.434-47.084L506.896 226"/><path d="M479.447 232.811l2.505-.7 2.504-.702 2.404-.701 2.505-.702 2.504-.6 2.504-.602 2.505-.6 2.404-.602 2.605-.6 2.504-.502 2.505-.5m-15.528 46.18l2.204-.7 2.104-.601 2.104-.601 2.103-.501 2.104-.601 2.104-.501 2.204-.501 2.103-.501 2.204-.5 2.104-.502 2.204-.4m-35.463-33.46l11.921 39.37M506.896 226l8.014 40.27m-16.029-80.542l2.805-.6 2.906-.502 2.905-.5 2.905-.502 2.905-.4 2.905-.501 2.905-.4 2.905-.402 2.905-.3 2.906-.3 2.905-.301M506.896 226l2.504-.502 2.504-.5 2.505-.401 2.504-.4 2.605-.402 2.504-.4 2.505-.401 2.604-.3 2.505-.301 2.604-.3 2.505-.2m-35.864-36.165L506.896 226m23.842-44.98l4.007 40.872"/><path d="M506.896 226l2.504-.502 2.504-.5 2.505-.401 2.504-.4 2.605-.402 2.504-.4 2.505-.401 2.604-.3 2.505-.301 2.604-.3 2.505-.2M514.91 266.27l2.103-.4 2.204-.4 2.104-.402 2.204-.4 2.204-.3 2.104-.301 2.204-.301 2.203-.3 2.204-.301 2.204-.2 2.104-.2M506.896 226l8.014 40.27m19.835-44.378l4.007 40.872m-8.014-81.744l2.905-.3 2.905-.301 3.005-.2 2.905-.2 2.906-.101 2.905-.2 2.905-.1 3.005-.1 2.905-.101h5.811m-28.15 42.475l2.604-.3 2.505-.2 2.604-.201 2.505-.2 2.604-.1 2.505-.1 2.605-.101 2.604-.1 2.505-.1h5.109m-32.157-39.47l4.007 40.872m27.749-42.074v41.072"/><path d="M534.745 221.892l2.604-.3 2.505-.2 2.604-.201 2.505-.2 2.604-.1 2.505-.1 2.605-.101 2.604-.1 2.505-.1h5.109m-24.143 42.274l2.204-.2 2.204-.2 2.204-.2 2.203-.101 2.204-.2 2.204-.1 2.204-.1h2.204l2.204-.1h4.408m-28.25-39.671l4.007 40.872m24.143-42.274l.1 41.072m80.041-156.376l3.607.701 3.606.802 3.606.8 3.506.802 3.607.802 3.506.901 3.606.902 3.507 1.002 3.506 1.001 3.506 1.002 3.606 1.002m-47.183 30.554l3.306.601 3.206.701 3.205.702 3.206.801 3.206.701 3.205.802 3.206.901 3.205.802 3.106.901 3.206.902 3.205 1.002m-27.248-49.087l-8.014 40.271m47.183-30.554l-11.92 39.37"/><path d="M635.022 145.457l3.306.601 3.206.701 3.205.702 3.206.801 3.206.701 3.205.802 3.206.901 3.205.802 3.106.901 3.206.902 3.205 1.002m-43.276 31.455l2.905.601 2.905.601 2.805.601 2.905.702 2.805.7 2.905.702 2.805.701 2.805.802 2.805.801 2.805.802 2.905.801m-23.341-48.085l-8.014 40.271m43.276-31.455l-11.92 39.269m23.841-78.639l3.507 1.102 3.406 1.102 3.506 1.202 3.506 1.102 3.406 1.202 3.506 1.302 3.406 1.203 3.406 1.302 3.406 1.402 3.406 1.303 3.406 1.402m-49.788 25.746l3.106.901 3.105 1.002 3.206 1.102 3.105 1.002 3.106 1.102 3.105 1.102 3.106 1.202 3.105 1.102 3.006 1.202 3.105 1.202 3.005 1.302m-22.139-51.591l-11.92 39.37m49.787-25.746l-15.728 37.967"/><path d="M670.284 154.273l3.106.901 3.105 1.002 3.206 1.102 3.105 1.002 3.106 1.102 3.105 1.102 3.106 1.202 3.105 1.102 3.006 1.202 3.105 1.202 3.005 1.302m-45.981 27.048l2.805.902 2.705.901 2.805.902 2.805.901 2.805 1.002 2.705 1.002 2.805 1.002 2.704 1.001 2.705 1.102 2.705 1.002 2.805 1.102m-18.433-50.088l-11.92 39.269m45.98-27.048l-15.627 37.867m-125.822-24.944h5.91l2.905.1 3.005.1 2.906.1 2.905.2 2.905.101 2.905.2 3.005.2 2.905.301 2.906.3m-32.257 39.471h5.209l2.504.1 2.605.1 2.604.1 2.505.1 2.604.1 2.505.2 2.604.201 2.505.2 2.604.301m-28.65-42.074v41.072m32.658-39.87l-4.008 40.872"/><path d="M562.895 220.49h5.209l2.504.1 2.605.1 2.604.1 2.505.1 2.604.1 2.505.2 2.604.201 2.505.2 2.604.301m-28.149 39.67h4.307l2.204.1h2.204l2.204.1 2.204.1 2.204.201 2.204.1 2.204.2 2.204.2 2.203.201m-24.242-42.274l.1 41.072m28.149-39.67l-4.007 40.872m8.015-81.744l2.905.3 2.905.3 2.905.301 2.905.401 2.905.4 2.905.502 2.905.4 2.906.501 2.905.501 2.905.501 2.805.601m-35.864 36.164l2.505.2 2.605.3 2.504.301 2.605.301 2.504.4 2.504.401 2.605.401 2.504.4 2.505.402 2.504.5 2.505.501m-23.842-44.979l-4.008 40.872m35.864-36.164L618.994 226"/><path d="M591.144 221.892l2.505.2 2.605.3 2.504.301 2.605.301 2.504.4 2.504.401 2.605.401 2.504.4 2.505.402 2.504.5 2.505.501m-31.857 36.765l2.104.2 2.204.201 2.204.3 2.204.301 2.204.3 2.103.301 2.204.3 2.204.401 2.104.401 2.204.4 2.104.401m-19.836-44.378l-4.007 40.872M618.994 226l-8.014 40.27m16.028-80.542l2.905.601 2.905.601 2.805.601 2.905.702 2.805.7 2.905.702 2.805.701 2.805.802 2.805.801 2.805.802 2.905.801M618.994 226l2.504.5 2.505.501 2.604.601 2.404.601 2.505.601 2.504.601 2.505.601 2.504.702 2.404.7 2.505.702 2.504.701m-19.434-47.083L618.994 226m39.369-32.458l-11.92 39.27"/><path d="M618.994 226l2.504.5 2.505.501 2.604.601 2.404.601 2.505.601 2.504.601 2.505.601 2.504.702 2.404.7 2.505.702 2.504.701M610.98 266.27l2.203.401 2.104.501 2.204.5 2.104.502 2.204.5 2.103.502 2.104.6 2.104.502 2.104.6 2.103.602 2.204.7M618.994 226l-8.014 40.27m35.462-33.459l-11.92 39.37m23.841-78.639l2.805.902 2.705.901 2.805.902 2.805.901 2.805 1.002 2.705 1.002 2.805 1.002 2.704 1.001 2.705 1.102 2.705 1.002 2.805 1.102m-42.275 28.45l2.404.802 2.405.801 2.504.802 2.404.801 2.405.801 2.404.902 2.404.902 2.404.901 2.405.902 2.404 1.002 2.404.901m-14.626-48.786l-11.92 39.27m42.274-28.451l-15.728 37.967"/><path d="M646.442 232.811l2.404.802 2.405.801 2.504.802 2.404.801 2.405.801 2.404.902 2.404.902 2.404.901 2.405.902 2.404 1.002 2.404.901m-38.468 29.852l2.104.602 2.003.701 2.104.701 2.104.702 2.104.7 2.003.702 2.104.802 2.104.801 2.003.801 2.004.802 2.103.801m-10.819-47.484l-11.92 39.37m38.468-29.853l-15.729 37.967m62.811-151.768l3.406 1.403 3.406 1.502 3.306 1.403 3.406 1.502 3.306 1.603 3.306 1.503 3.306 1.603 3.306 1.703 3.205 1.603 3.306 1.703 3.206 1.703m-52.193 20.736l3.106 1.202 3.005 1.303 3.006 1.402 3.005 1.302 3.005 1.403 3.006 1.402 3.005 1.503 2.905 1.402 2.905 1.503 3.005 1.503 2.906 1.603m-17.131-53.495l-15.728 37.967m52.193-20.736l-19.334 36.264"/><path d="M704.344 166.494l3.106 1.202 3.005 1.303 3.006 1.402 3.005 1.302 3.005 1.403 3.006 1.402 3.005 1.503 2.905 1.402 2.905 1.503 3.005 1.503 2.906 1.603m-48.486 22.339l2.705 1.202 2.604 1.102 2.705 1.202 2.705 1.202 2.604 1.203 2.705 1.302 2.605 1.302 2.705 1.302 2.604 1.303 2.605 1.302 2.604 1.403m-13.524-51.692l-15.627 37.867m48.486-22.339l-19.335 36.164m38.669-72.428l3.205 1.703 3.206 1.803 3.206 1.803 3.205 1.803 3.106 1.903 3.206 1.904 3.105 1.903 3.105 1.904 3.106 2.003 3.105 2.004 3.006 2.003m-53.895 15.528l2.905 1.502 2.905 1.603 2.805 1.603 2.905 1.703 2.805 1.603 2.805 1.703 2.905 1.703 2.705 1.803 2.805 1.803 2.805 1.803 2.704 1.804m-11.72-54.897l-19.334 36.264m53.895-15.528l-22.84 34.16"/><path d="M737.203 182.022l2.905 1.502 2.905 1.603 2.805 1.603 2.905 1.703 2.805 1.603 2.805 1.703 2.905 1.703 2.705 1.803 2.805 1.803 2.805 1.803 2.704 1.804m-50.389 17.531l2.505 1.402 2.604 1.402 2.505 1.503 2.604 1.403 2.505 1.502 2.504 1.503 2.505 1.503 2.504 1.602 2.505 1.503 2.404 1.603 2.504 1.703m-8.314-52.793l-19.335 36.164m50.389-17.531l-22.74 34.16m45.581-68.321l3.005 2.004 3.106 2.103 3.005 2.104 2.905 2.104 3.005 2.204 2.905 2.204 2.906 2.204 2.905 2.203 2.905 2.305 2.905 2.203 2.805 2.304m-55.198 10.219l2.805 1.803 2.705 1.903 2.705 1.903 2.705 1.904 2.604 1.903 2.705 2.004 2.605 2.003 2.604 2.004 2.605 2.003 2.604 2.104 2.505 2.004m-6.311-55.699l-22.84 34.16m55.197-10.218l-26.046 31.757"/><path d="M768.257 200.655l2.805 1.803 2.705 1.903 2.705 1.903 2.705 1.904 2.604 1.903 2.705 2.004 2.605 2.003 2.604 2.004 2.605 2.003 2.604 2.104 2.505 2.004m-51.892 12.622l2.404 1.603 2.405 1.703 2.404 1.603 2.404 1.703 2.304 1.803 2.405 1.703 2.304 1.803 2.304 1.703 2.404 1.903 2.204 1.804 2.304 1.803m-3.106-53.294l-22.74 34.16m51.892-12.622l-26.046 31.756m52.092-63.513l2.805 2.405 2.805 2.304 2.805 2.404 2.805 2.404 2.705 2.505 2.704 2.404 2.705 2.504 2.705 2.505 2.604 2.504 2.605 2.605 2.605 2.604m-55.899 4.609l2.605 2.103 2.504 2.204 2.504 2.104 2.405 2.204 2.504 2.204 2.404 2.204 2.505 2.203 2.404 2.305 2.304 2.203 2.404 2.305 2.304 2.404m-.801-56.2l-26.046 31.757m55.899-4.609l-29.052 29.052"/><path d="M797.409 222.193l2.605 2.103 2.504 2.204 2.504 2.104 2.405 2.204 2.504 2.204 2.404 2.204 2.505 2.203 2.404 2.305 2.304 2.203 2.404 2.305 2.304 2.404m-52.893 7.313l2.304 1.903 2.204 1.903 2.204 1.904 2.204 1.903 2.204 2.004 2.203 1.903 2.104 2.004 2.204 2.003 2.104 2.004 2.103 2.103 2.104 2.004m2.104-53.394l-26.046 31.756m52.893-7.313l-28.95 28.95"/></g></svg>