<svg width="1506.667" height="1356" viewBox="0 0 1130 1017" xmlns="http://www.w3.org/2000/svg" version="1.2" baseProfile="tiny"><g stroke-width="3.005" stroke-miterlimit="2" fill="none" stroke="#000" fill-rule="evenodd" font-family="Sans Serif" font-size="9" font-weight="400"><path d="M214.479 856.413l102.08-102.08m245.935 246.937V826.96m-348.015 29.453l25.745 24.043 27.349 22.039 28.95 20.035 30.254 17.932 31.456 15.727 32.557 13.424 33.36 11.12 34.06 8.815 34.56 6.211 34.962 3.807 35.163 1.202M316.56 754.333l246.335 72.227m-.401 174.71V826.96m348.916 29.453l-102.08-102.08"/><path d="M562.895 1000.768l35.262-1.202 34.962-3.807 34.56-6.21 34.06-8.816 33.36-11.12 32.557-13.424 31.456-15.727 30.253-17.932 28.952-20.035 27.348-22.04 25.745-24.042M562.895 826.56l246.435-72.227m-492.77 0l102.08-102.08M562.895 826.56l.1-174.308M316.56 754.333l246.335 72.227M418.239 652.653h145.257m-.601 173.907l.1-174.308M809.33 754.333l-102.08-102.08M562.895 826.56l246.435-72.227m-245.834-101.68H707.75m-493.271 203.76l-24.043-25.745-22.038-27.349-20.036-28.95-17.932-30.254-15.727-31.456-13.424-32.557-11.12-33.36-8.815-34.06-6.211-34.56-3.807-34.962-1.202-35.162M316.56 754.333l-72.228-246.335m-29.853 348.415l102.08-102.08M70.625 508.398H243.93m72.63 245.935l-72.228-246.335m173.907 144.655V508.398M316.56 754.333l102.08-102.08M244.332 507.998l174.308-.1"/><path d="M70.124 507.998l1.202-35.263 3.807-34.962 6.21-34.56 8.816-34.06 11.12-33.36 13.424-32.557 15.727-31.456 17.932-30.253 20.036-28.951 22.038-27.349 24.043-25.745m29.853 348.516l72.227-246.436M70.625 508.398H243.93m-29.451-348.916l102.08 102.08m-72.227 246.436l72.227-246.436m101.68 246.836V364.143M244.332 507.998l174.308-.1M316.56 261.562l102.08 102.08m-.401 289.011V508.398m145.257 144.255V508.398M418.239 652.653h145.257M418.239 508.398h145.257m0 144.255V508.398M707.75 652.653V508.398M563.496 652.653H707.75M563.496 508.398H707.75m-289.511 0V364.143m145.257 144.255V364.143M418.239 508.398h145.257M418.239 364.143h145.257m0 144.255V364.143M707.75 508.398V364.143M563.496 508.398H707.75M563.496 364.143H707.75m203.66 492.27l-102.08-102.08m246.035-245.935H882.058m29.352 348.015l24.043-25.745 22.039-27.349 20.035-28.95 17.932-30.254 15.728-31.456 13.423-32.557 11.12-33.36 8.816-34.06 6.21-34.56 3.807-34.962 1.202-35.162M809.33 754.333l72.228-246.335m173.807.4H882.058m29.352-348.916l-102.08 102.08m246.435 246.436l-1.202-35.263-3.806-34.962-6.211-34.56-8.816-34.06-11.12-33.36-13.423-32.557-15.728-31.456-17.932-30.253-20.035-28.951-22.04-27.349-24.042-25.745m-29.852 348.516L809.33 261.562m0 492.771l-102.08-102.08m174.308-144.255l-174.308-.1m102.08 246.435l72.228-246.335M707.75 652.653V508.398m173.808-.4l-174.308-.1m102.08-246.336l-102.08 102.08m174.308 144.356L809.33 261.562M707.75 508.398V364.143M214.479 159.482l25.745-24.043 27.349-22.039 28.95-20.035 30.254-17.932 31.456-15.728 32.557-13.423 33.36-11.12 34.06-8.815 34.56-6.211 34.962-3.807 35.163-1.202M316.56 261.562l246.335-72.227m-348.416-29.853l102.08 102.08M562.494 15.527v174.308M316.56 261.562l246.335-72.227M418.239 364.143h145.257M316.56 261.562l102.08 102.08m144.255-174.307l.1 174.308"/><path d="M562.895 15.127l35.262 1.202 34.962 3.807 34.56 6.21 34.06 8.816 33.36 11.12 32.557 13.423 31.456 15.728 30.253 17.932 28.952 20.035 27.348 22.04 25.745 24.042m-348.515 29.853l246.435 72.227M562.494 15.527v174.308m348.916-30.353l-102.08 102.08m-246.435-72.227l246.435 72.227M563.496 364.143H707.75M562.895 189.335l.1 174.308M809.33 261.562l-102.08 102.08"/></g></svg>