<?xml version="1.0" encoding="utf-8"?>
<!-- Generator: Adobe Illustrator 23.0.2, SVG Export Plug-In . SVG Version: 6.00 Build 0)  -->
<svg version="1.1" xmlns="http://www.w3.org/2000/svg" xmlns:xlink="http://www.w3.org/1999/xlink" x="0px" y="0px"
	 viewBox="0 0 299.62 64.37" style="enable-background:new 0 0 299.62 64.37;" xml:space="preserve">
<style type="text/css">
	.st0{fill:url(#SVGID_1_);}
	.st1{fill:#A08157;}
	.st2{fill:none;stroke:#000000;stroke-miterlimit:10;}
	.st3{fill:none;stroke:#000000;stroke-width:0.5;stroke-linecap:square;stroke-linejoin:round;}
	.st4{font-family:'MyriadPro-SemiCn';}
	.st5{font-size:5px;}
	.st6{fill:url(#SVGID_2_);}
	.st7{fill:none;stroke:#000000;stroke-width:0.5;stroke-linecap:square;stroke-linejoin:round;stroke-miterlimit:10;}
</style>
<g id="Superlattice">
	<linearGradient id="SVGID_1_" gradientUnits="userSpaceOnUse" x1="3.8368" y1="39.4909" x2="96.9714" y2="39.4909">
		<stop  offset="0" style="stop-color:#000000"/>
		<stop  offset="0.2598" style="stop-color:#A08157"/>
	</linearGradient>
	<rect x="3.84" y="16.12" class="st0" width="93.13" height="46.75"/>
	<rect x="92.46" y="16.12" class="st1" width="122.78" height="46.75"/>
</g>
<g id="Wave">
	<polyline class="st2" points="39.44,41.06 41.48,41.07 42.88,41.08 43.53,41.05 44.28,40.97 44.98,40.9 45.36,40.9 45.68,40.95 
		46.01,41.03 46.33,41.16 46.71,41.36 47.3,41.67 47.51,41.75 47.73,41.79 47.89,41.78 48.05,41.75 48.21,41.67 48.38,41.55 
		48.54,41.39 48.7,41.18 48.91,40.85 49.18,40.36 49.88,39.02 50.04,38.79 50.21,38.62 50.31,38.56 50.42,38.54 50.53,38.56 
		50.64,38.63 50.74,38.75 50.85,38.93 50.96,39.16 51.12,39.61 51.28,40.18 51.44,40.86 51.66,41.91 51.98,43.67 52.3,45.42 
		52.52,46.42 52.68,47.02 52.79,47.32 52.9,47.53 53,47.64 53.06,47.65 53.11,47.64 53.17,47.59 53.22,47.52 53.33,47.28 
		53.44,46.91 53.54,46.42 53.65,45.8 53.81,44.65 53.97,43.25 54.19,41.05 54.46,37.96 54.89,32.95 55.1,30.81 55.27,29.52 
		55.37,28.85 55.48,28.36 55.59,28.06 55.64,27.99 55.7,27.97 55.75,28.01 55.8,28.1 55.86,28.25 55.97,28.71 56.07,29.4 
		56.18,30.32 56.29,31.45 56.45,33.54 56.61,36.02 56.83,39.84 57.26,48.25 57.53,53.23 57.69,55.81 57.85,57.95 57.96,59.08 
		58.06,59.94 58.17,60.52 58.23,60.69 58.28,60.78 58.33,60.8 58.39,60.73 58.44,60.59 58.5,60.36 58.6,59.66 58.71,58.65 
		58.82,57.33 58.98,54.81 59.14,51.73 59.36,46.92 59.68,38.86 60.06,29.63 60.27,25.14 60.43,22.39 60.54,20.93 60.65,19.78 
		60.76,18.97 60.81,18.7 60.86,18.52 60.92,18.43 60.97,18.43 61.03,18.52 61.08,18.7 61.13,18.97 61.24,19.78 61.35,20.93 
		61.46,22.39 61.62,25.14 61.78,28.43 61.99,33.45 62.75,51.73 62.91,54.81 63.07,57.33 63.18,58.65 63.29,59.66 63.39,60.36 
		63.45,60.59 63.5,60.73 63.56,60.8 63.61,60.78 63.66,60.69 63.72,60.52 63.77,60.27 63.88,59.55 63.99,58.55 64.09,57.29 
		64.26,54.99 64.47,51.31 64.79,45.07 65.17,37.87 65.39,34.32 65.55,32.1 65.71,30.32 65.82,29.4 65.92,28.71 66.03,28.25 
		66.09,28.1 66.14,28.01 66.19,27.97 66.25,27.99 66.3,28.06 66.35,28.19 66.46,28.59 66.57,29.17 66.68,29.92 66.84,31.31 
		67.05,33.54 67.38,37.32 67.7,41.05 67.92,43.25 68.08,44.65 68.24,45.8 68.35,46.42 68.45,46.91 68.56,47.28 68.67,47.52 
		68.72,47.59 68.78,47.64 68.83,47.65 68.88,47.64 68.94,47.6 69.05,47.44 69.15,47.18 69.26,46.84 69.42,46.19 69.64,45.15 
		70.02,43.07 70.34,41.37 70.55,40.4 70.71,39.79 70.88,39.3 71.04,38.93 71.15,38.75 71.25,38.63 71.36,38.56 71.47,38.54 
		71.58,38.56 71.68,38.62 71.79,38.72 71.95,38.93 72.17,39.29 72.49,39.93 72.87,40.66 73.08,41.02 73.3,41.32 73.46,41.5 
		73.62,41.63 73.78,41.72 73.94,41.78 74.11,41.79 74.32,41.76 74.54,41.7 74.81,41.57 75.77,41.07 76.1,40.97 76.42,40.91 
		76.74,40.9 77.17,40.92 79.11,41.08 80.03,41.08 82.23,41.05 82.45,41.06 82.45,41.06 	"/>
</g>
<g id="Guias">
</g>
<g id="Marcas">
	<g>
		<g>
			<line class="st3" x1="5.7" y1="13.89" x2="29.36" y2="13.89"/>
			<g>
				<polygon points="3.93,13.89 6.42,14.91 5.83,13.89 6.42,12.88 				"/>
			</g>
			<g>
				<polygon points="31.12,13.89 28.63,14.91 29.22,13.89 28.63,12.88 				"/>
			</g>
		</g>
	</g>
	<text transform="matrix(1 0 0 1 13.3789 11.3018)" class="st4 st5">PML</text>
	<g>
		<g>
			<line class="st3" x1="39.44" y1="14.02" x2="80.68" y2="14.02"/>
			<g>
				<polygon points="82.45,14.02 79.96,15.03 80.55,14.02 79.96,13 				"/>
			</g>
		</g>
	</g>
	<text transform="matrix(1 0 0 1 55.8701 11.4226)" class="st4 st5">Pulse</text>
	
		<linearGradient id="SVGID_2_" gradientUnits="userSpaceOnUse" x1="278.3898" y1="-11.5082" x2="371.5244" y2="-11.5082" gradientTransform="matrix(-1 0 0 -1 576.8082 27.9826)">
		<stop  offset="0" style="stop-color:#000000"/>
		<stop  offset="0.2598" style="stop-color:#A08157"/>
	</linearGradient>
	<polygon class="st6" points="298.42,16.12 205.28,16.12 205.28,62.87 298.42,62.87 	"/>
	<g>
		<g>
			<line class="st3" x1="272.99" y1="13.49" x2="296.65" y2="13.49"/>
			<g>
				<polygon points="271.23,13.49 273.72,14.51 273.13,13.49 273.72,12.47 				"/>
			</g>
			<g>
				<polygon points="298.42,13.49 295.93,14.51 296.52,13.49 295.93,12.47 				"/>
			</g>
		</g>
	</g>
	<text transform="matrix(1 0 0 1 280.6762 10.8655)" class="st4 st5">PML</text>
	<text transform="matrix(1 0 0 1 231.2314 5.8658)"><tspan x="0" y="0" class="st4 st5">Measurement</tspan><tspan x="7.58" y="6" class="st4 st5">probe</tspan></text>
	<rect x="243.54" y="23.87" width="2.02" height="31.49"/>
</g>
<g id="Frame">
	<rect x="3.84" y="16.12" class="st7" width="294.58" height="46.75"/>
</g>
</svg>
