<svg width="1506.667" height="1356" viewBox="0 0 1130 1017" xmlns="http://www.w3.org/2000/svg" version="1.2" baseProfile="tiny"><g stroke-width="3.005" stroke-miterlimit="2" fill="none" stroke="#000" fill-rule="evenodd" font-family="Sans Serif" font-size="9" font-weight="400"><path d="M418.239 652.653v-72.127m72.127 72.127v-72.127m-72.127 72.127h72.127m-72.127-72.127h72.127m0 72.127v-72.127m73.13 72.127v-72.127m-73.13 72.127h73.13m-73.13-72.127h73.13m-145.257 0v-72.128m72.127 72.128v-72.128m-72.127 72.128h72.127m-72.127-72.128h72.127m0 72.128v-72.128m73.13 72.128v-72.128m-73.13 72.128h73.13m-73.13-72.128h73.13m0 144.255v-72.127m72.127 72.127v-72.127m-72.127 72.127h72.127m-72.127-72.127h72.127m0 72.127v-72.127m72.127 72.127v-72.127m-72.127 72.127h72.128m-72.128-72.127h72.128m-144.255 0v-72.128m72.127 72.128v-72.128m-72.127 72.128h72.127m-72.127-72.128h72.127m0 72.128v-72.128m72.127 72.128v-72.128m-72.127 72.128h72.128m-72.128-72.128h72.128m-289.512 0v-72.127m72.127 72.127v-72.127m-72.127 72.127h72.127m-72.127-72.128h72.127m0 72.128v-72.127m73.13 72.127v-72.127m-73.13 72.127h73.13m-73.13-72.128h73.13m-145.257 0v-72.127m72.127 72.127v-72.127m-72.127 72.127h72.127m-72.127-72.127h72.127m0 72.127v-72.127m73.13 72.127v-72.127m-73.13 72.127h73.13m-73.13-72.127h73.13m0 144.255v-72.127m72.127 72.127v-72.127m-72.127 72.127h72.127m-72.127-72.128h72.127m0 72.128v-72.127m72.127 72.127v-72.127m-72.127 72.127h72.128m-72.128-72.128h72.128m-144.255 0v-72.127m72.127 72.127v-72.127m-72.127 72.127h72.127m-72.127-72.127h72.127m0 72.127v-72.127m72.127 72.127v-72.127m-72.127 72.127h72.128m-72.128-72.127h72.128M407.02 876.85l16.328-43.177m61.609 61.609l8.214-43.377M407.02 876.85l77.937 18.432m-61.609-61.609l69.823 18.232m-8.214 43.377l8.214-43.377m69.323 62.21v-44.078m-77.537 25.245l77.938 18.332m-69.724-61.709l69.724 18.232m-139.547-36.464l16.429-43.276m53.394 61.508l8.215-43.376m-78.038 25.144l69.823 18.232m-53.394-61.508l61.609 18.132m-8.215 43.376l8.215-43.376m61.108 61.508v-43.076m-69.323 24.944l69.724 18.232m-61.509-61.608l61.509 18.031m-.401 87.555v-44.078m78.438 25.245l-8.214-43.377m-69.823 61.709l78.037-18.332m-78.037-25.145l69.823-18.232m8.214 43.377l-8.214-43.377m86.152 24.945l-16.329-43.177m-61.609 61.609l77.938-18.433m-86.152-24.944l69.823-18.232m-140.047 36.364v-43.076m70.224 24.944l-8.215-43.376m-61.608 61.608l69.823-18.232m-69.823-25.345l61.608-18.031m8.215 43.376l-8.215-43.376m78.038 25.144l-16.429-43.276m-53.394 61.508l69.823-18.232m-78.038-25.144l61.61-18.132m-492.07-126.524l-18.433-77.938m61.61 61.609l-18.233-69.823m-24.944 86.152l43.176-16.329m-61.609-61.609l43.377-8.214m18.233 69.823l-18.233-69.823m61.509 53.394l-18.132-61.609m-25.144 78.038l43.276-16.429m-61.509-53.395l43.377-8.214m-86.754 16.429l-18.332-77.937m61.709 69.722l-18.232-69.722m-25.145 77.937l43.377-8.214m-61.208-69.323h43.076m18.132 69.322l-18.232-69.722m61.609 61.508l-18.032-61.508m-25.345 69.722l43.377-8.214m-61.509-61.108h43.076m-86.653-.4l18.332-78.038m25.145 78.038l18.232-69.824m-61.208 70.224h43.076M175.61 429.96l43.377 8.214m-18.232 69.824l18.232-69.824m25.345 69.824l18.032-61.61m-61.509 62.01h43.076m-24.944-70.224l43.377 8.215M175.61 429.96l18.433-77.938m24.944 86.152l18.232-69.823M175.61 429.96l43.377 8.214m-24.944-86.152l43.176 16.329m-18.232 69.823l18.232-69.823m25.145 78.038l18.132-61.61m-61.509 53.395l43.377 8.215M237.22 368.35l43.276 16.43m651.35 279.093l-43.176-16.329m61.609-61.609l-43.377-8.214m24.944 86.152l18.433-77.938m-61.609 61.609l18.232-69.823m43.377 8.214l-43.377-8.214m61.308-69.323h-43.075m25.144 77.537l18.332-77.937m-61.709 69.722l18.233-69.722M888.67 647.544l-43.276-16.429m61.508-53.395l-43.376-8.214m25.144 78.038l18.232-69.823m-61.508 53.394l18.132-61.609m43.376 8.214l-43.376-8.214m61.609-61.108h-43.077m24.844 69.322l18.233-69.722m-61.609 61.508l18.032-61.508m86.652.4h-43.075m25.144-78.438l-43.377 8.214m61.709 69.824L950.28 429.96m-25.145 78.038l-18.233-69.824m43.377-8.214l-43.377 8.214m24.944-86.152l-43.176 16.329m61.609 61.609l-18.433-77.938m-24.944 86.152l-18.232-69.823m36.465 140.047h-43.077m24.844-70.224l-43.376 8.215m61.609 61.609l-18.233-69.824m-25.344 69.824l-18.032-61.61m43.376-8.214l-43.376 8.215m25.144-78.039l-43.276 16.43m61.508 53.394l-18.232-69.823m-25.144 78.038l-18.132-61.61M407.02 139.046l77.937-18.433m-61.609 61.609l69.823-18.232m-86.151-24.944l16.328 43.176m61.609-61.609l8.214 43.377m-69.823 18.232l69.823-18.232m-53.394 61.508l61.609-18.132m-78.038-25.144l16.429 43.276m53.394-61.508l8.215 43.376m-16.429-86.753l77.938-18.332m-69.724 61.709l69.724-18.232m-77.938-25.145l8.214 43.377m69.323-61.309v43.077m-69.323 18.232l69.724-18.232m-61.509 61.608l61.509-18.031m-69.724-25.345l8.215 43.376m61.108-61.608v44.077m.401-87.555l78.037 18.333m-78.037 25.145l69.823 18.232m-70.224-61.309v43.077m78.438-25.145l-8.214 43.377m-69.823-18.232l69.823 18.232m-69.823 25.345l61.608 18.031m-62.009-61.608v44.077m70.224-25.845l-8.215 43.376m16.429-86.753l77.938 18.433m-86.152 24.944l69.823 18.232m-61.609-61.609l-8.214 43.377m86.152-24.944l-16.329 43.176m-69.823-18.232l69.823 18.232m-78.038 25.144l61.61 18.132m-53.395-61.508l-8.215 43.376m78.038-25.144l-16.429 43.276M374.361 963.302l16.33-43.276m76.134 71.225l9.116-47.984m-101.58 20.035l8.115 3.206 8.214 3.205 8.315 3.006 8.315 2.805 8.314 2.704 8.515 2.605 8.415 2.404 8.515 2.204 8.515 2.104 8.616 2.003 8.615 1.703m-76.135-71.225l85.25 23.24m-9.115 47.985l9.116-47.984m86.553 58.003v-44.08m-95.669 34.061l8.615 1.703 8.715 1.503 8.616 1.302 8.715 1.203 8.816 1.001 8.715.802 8.816.7 8.715.602 8.816.4 8.815.201 8.716.1m-86.955-57.501l86.955 13.924M390.69 920.026l16.33-43.177m68.92 66.418l9.017-47.985m-94.267 24.744l85.25 23.24m-68.92-66.416l77.937 18.432m-9.017 47.985l9.017-47.985m77.537 61.909v-43.076m-86.554 29.152l86.955 13.924m-77.938-61.909l77.938 18.332m-.401 87.656v-44.08m96.57 34.061l-9.116-47.984m-87.053 57.501l8.815-.1 8.816-.2 8.815-.401 8.716-.601 8.815-.701 8.716-.802 8.815-1.001 8.716-1.203 8.615-1.302 8.715-1.503 8.615-1.703m-96.169-34.06l87.053-13.924m9.116 47.984l-9.116-47.984m101.58 20.035l-16.329-43.276m-76.135 71.225l8.616-1.703 8.615-2.003 8.515-2.104 8.515-2.204 8.415-2.404 8.515-2.605 8.315-2.704 8.314-2.805 8.315-3.006 8.215-3.205 8.114-3.206m-101.58-20.035l85.251-23.241m-172.705 37.165v-43.076m87.454 29.152l-9.016-47.985m-78.037 61.909l87.053-13.924m-87.053-29.653l78.037-18.332m9.016 47.985l-9.016-47.985m94.267 24.744l-16.329-43.177m-68.922 66.418l85.251-23.241m-94.267-24.744l77.938-18.433M107.59 696.53l-3.206-8.114-3.205-8.214-3.006-8.315-2.804-8.315-2.705-8.314-2.605-8.515-2.404-8.415-2.204-8.515-2.104-8.515-2.003-8.615-1.703-8.616m71.226 76.135l-23.242-85.25M107.59 696.53l43.277-16.328M79.64 604.067l47.985-9.116m23.242 85.251l-23.242-85.25m66.418 68.921l-18.433-77.938m-24.743 94.267l43.176-16.329m-66.418-68.922l47.985-9.016m-95.97 18.132l-1.702-8.615-1.503-8.715-1.302-8.616-1.202-8.715-1.002-8.816-.802-8.715-.7-8.815-.602-8.716-.4-8.815-.2-8.816-.101-8.715m57.501 86.953l-13.924-86.953M79.64 604.067l47.985-9.116m-57-86.553H113.7m13.925 86.553l-13.924-86.953m61.909 77.937l-18.332-77.937m-29.653 86.953l47.985-9.016m-61.91-77.537h44.079"/><path d="M70.124 507.998l.1-8.816.2-8.816.401-8.815.601-8.716.701-8.815.802-8.716 1.002-8.815 1.202-8.716 1.302-8.615 1.503-8.715 1.703-8.615m34.059 96.17l13.925-87.054m-57 87.454H113.7m-34.06-96.57l47.985 9.116M113.7 507.998l13.925-87.054m29.653 87.054l18.332-78.038m-61.91 78.438h44.079m-30.154-87.454l47.985 9.016m-95.97-18.132l1.704-8.616 2.003-8.615 2.104-8.515 2.204-8.515 2.404-8.415 2.605-8.515 2.705-8.314 2.804-8.315 3.006-8.315 3.205-8.214 3.206-8.115m20.035 101.58l23.242-85.25M79.64 411.828l47.985 9.116m-20.035-101.58l43.277 16.33m-23.242 85.25l23.242-85.25m24.743 94.266l18.433-77.938m-66.418 68.922l47.985 9.016m-24.743-94.267l43.176 16.329M1018.3 696.53l-43.277-16.328m71.226-76.135l-47.985-9.116M1018.3 696.53l3.205-8.114 3.206-8.214 3.005-8.315 2.805-8.315 2.705-8.314 2.604-8.515 2.404-8.415 2.204-8.515 2.104-8.515 2.004-8.615 1.703-8.616m-71.226 76.135l23.24-85.25m47.986 9.115l-47.985-9.116m57.101-86.553h-43.076m33.96 95.669l1.703-8.615 1.502-8.715 1.303-8.616 1.202-8.715 1.001-8.816.802-8.715.701-8.815.601-8.716.4-8.815.201-8.816.1-8.715m-57.501 86.953l13.924-86.953m-37.165 172.204l-43.177-16.329m66.418-68.922l-47.985-9.016m24.744 94.267l23.24-85.25m-66.417 68.921l18.433-77.938m47.985 9.016l-47.985-9.016m62.01-77.537H968.21m30.054 86.553l13.924-86.953m-61.909 77.937l18.332-77.937m86.754.4h-43.076m33.96-96.57l-47.985 9.116"/><path d="M1055.765 507.998l-.1-8.816-.2-8.816-.4-8.815-.602-8.716-.701-8.815-.802-8.716-1.001-8.815-1.202-8.716-1.303-8.615-1.502-8.715-1.703-8.615m-34.061 96.17l-13.924-87.054m47.985-9.116l-47.985 9.116m20.036-101.58l-43.277 16.33m71.226 76.134l-1.703-8.616-2.004-8.615-2.104-8.515-2.204-8.515-2.404-8.415-2.604-8.515-2.705-8.314-2.805-8.315-3.005-8.315-3.206-8.214-3.206-8.115m-20.035 101.58l-23.241-85.25m37.266 172.704H968.21m30.054-87.454l-47.985 9.016m61.909 78.038l-13.924-87.054m-29.653 87.054L950.28 429.96m47.984-9.016l-47.985 9.016m24.744-94.267l-43.177 16.329m66.418 68.922l-23.241-85.25m-24.744 94.266l-18.433-77.938M374.361 52.593l8.115-3.206 8.214-3.205 8.315-3.006 8.315-2.805 8.314-2.704 8.515-2.605 8.415-2.404 8.515-2.204 8.515-2.104 8.616-2.003 8.615-1.703M390.69 95.87l85.25-23.242M374.361 52.593l16.33 43.276m76.134-71.225l9.116 47.984M390.69 95.87l85.25-23.242m-68.92 66.418l77.937-18.433M390.69 95.87l16.33 43.176m68.92-66.418l9.017 47.985m-18.132-95.969l8.615-1.703 8.715-1.503 8.616-1.302 8.715-1.203 8.816-1.001 8.715-.802 8.816-.701 8.715-.601 8.816-.4 8.815-.201 8.716-.1M475.94 72.628l86.955-13.924m-96.07-34.06l9.116 47.984m86.553-57.101v43.077M475.94 72.628l86.955-13.924m-77.938 61.909l77.938-18.332M475.94 72.628l9.017 47.985m77.537-62.009v44.077"/><path d="M562.895 15.127l8.815.1 8.816.2 8.815.401 8.716.601 8.815.701 8.716.802 8.815 1.001 8.716 1.203 8.615 1.302 8.715 1.503 8.615 1.703m-96.169 34.06l87.053 13.924m-87.454-57.101v43.077m96.57-33.96l-9.116 47.984m-87.053-13.924l87.053 13.924m-87.053 29.652l78.037 18.333m-78.438-62.009v44.077m87.454-30.053l-9.016 47.985m18.132-95.969l8.616 1.703 8.615 2.003 8.515 2.104 8.515 2.204 8.415 2.404 8.515 2.605 8.315 2.704 8.314 2.805 8.315 3.006 8.215 3.205 8.114 3.206m-101.58 20.035L735.2 95.87m-76.136-71.226l-9.116 47.984m101.58-20.035l-16.329 43.276m-85.251-23.241L735.2 95.87m-94.268 24.743l77.938 18.433m-68.922-66.418l-9.016 47.985m94.267-24.743l-16.329 43.176M316.56 754.333l25.444-25.445m36.164 43.477l19.134-29.953m-80.742 11.921l61.608 18.032m-36.164-43.477l55.298 13.524m42.475 47.985l12.723-34.461m48.886 52.593l6.311-39.07m-67.92 20.938l61.609 18.132M452.5 755.936l55.197 13.524m-91.261-57.101l19.134-30.053m29.652 39.069l12.823-34.561m-61.609 25.545l48.786 9.016m-29.652-39.069l42.475 4.508m-84.95-9.016l25.545-25.546m16.93 30.054l19.133-30.054m-61.608 25.546l42.475 4.508m-17.331-29.653h36.064m-18.733 29.653l19.133-30.054m23.342 34.562l12.722-34.562m-55.197 30.054l42.475 4.508m-23.742-34.161h36.063m134.137 155.876l-6.31-39.07m67.919 20.938l-12.722-34.461m-48.887 52.593l61.61-18.132m-67.921-20.937l55.198-13.524m74.331 16.429l-19.134-29.953m80.743 11.921l-25.445-25.445m-36.164 43.477l61.609-18.032m-80.743-11.921l55.298-13.524m-123.218-7.513l-12.822-34.561m61.609 25.545l-19.134-30.053m-29.653 39.069l48.787-9.016m-61.609-25.545l42.475-4.508m-42.475 4.508l-12.723-34.562m55.198 30.054l-19.134-30.054m-23.341 34.562l42.475-4.508m-54.697-29.653h36.064m18.633 29.653l-19.134-30.054m61.609 25.546l-25.545-25.546m-16.93 30.054l42.475-4.508m-61.108-25.145h36.064M316.56 754.333l-18.033-61.609m43.477 36.164L328.48 673.59m-11.92 80.743l25.444-25.445m-43.477-36.164l29.953-19.134m64.615 4.208l-4.508-42.475m29.652 17.33V616.59m-25.144 61.208l25.545-25.546m-30.053-16.929l30.053-19.134m-60.107 38.267l-9.015-48.786m39.069 29.653l-4.508-42.476m-25.546 61.609l30.054-19.133m-39.069-29.653l34.56-12.823m4.509 42.476l-4.508-42.476m34.16 23.743v-36.064m-29.652 54.797l30.053-19.134m-34.561-23.342l34.56-12.722m-138.143 50.99l-18.132-61.609m52.592 48.887l-13.523-55.198m-20.937 67.92l34.46-12.722m-52.592-48.887l39.069-6.31m-39.069-116.807l18.132-61.61m20.937 67.921l13.523-55.198m-52.592 48.887l39.069 6.31m-20.937-67.919l34.46 12.722m-16.429-74.331l18.032-61.609m11.921 80.743l13.524-55.298m-43.477 36.164l29.953 19.134m-11.92-80.743l25.444 25.445m7.514 123.218l9.015-48.786m25.546 61.608l4.508-42.475m-39.069 29.653l34.56 12.822m-25.545-61.608l30.054 19.133m-4.508 42.475l4.508-42.475m29.652 55.698v-36.063m-34.16 22.84l34.56 12.723m-30.052-55.198l30.053 19.134m-30.053-19.134l4.508-42.475m25.144 62.11v-36.064m-29.652 16.429l30.053 19.134m-25.545-61.609l25.545 25.546m390.69 390.69l-25.445-25.445m43.477-36.164l-29.953-19.134m11.921 80.743l18.032-61.609m-43.477 36.164l13.524-55.298m47.985-42.475l-34.461-12.722m52.593-48.887l-39.07-6.31m20.938 67.919l18.132-61.609m-52.593 48.887l13.524-55.198m-57.101 91.261l-30.053-19.133m39.069-29.653l-34.561-12.823m25.545 61.609l9.016-48.786m-39.069 29.653l4.508-42.476m-9.016 84.951l-25.545-25.546m30.053-16.929l-30.053-19.134m25.545 61.609l4.508-42.475m-29.553 17.33V616.59m29.553 18.733l-30.053-19.134m34.56-23.342l-34.56-12.722m30.053 55.198l4.508-42.476M707.75 616.59v-36.064m155.776-134.137l-39.07 6.31m20.938-67.919l-34.461 12.722m52.593 48.887l-18.132-61.61M824.457 452.7l-13.524-55.198m16.429-74.331l-29.953 19.134m11.921-80.743l-25.445 25.445m43.477 36.164l-18.032-61.609m-11.921 80.743l-13.524-55.298m-7.513 123.218l-34.561 12.822m25.545-61.608l-30.053 19.133m39.069 29.653l-9.016-48.786m-25.546 61.608l-4.507-42.475m4.507 42.475l-34.56 12.723m30.053-55.198l-30.053 19.134m34.56 23.341l-4.507-42.475M707.75 436.27v-36.063m29.553-19.635l-30.053 19.134m25.545-61.609l-25.545 25.546m30.053 16.929l-4.508-42.475m-25.045 62.11v-36.064M316.56 261.562l61.608-18.032m-36.164 43.477l55.298-13.524m-80.742-11.921l25.444 25.445m36.164-43.477l19.134 29.953m-4.207 64.614l42.475-4.508m-17.331 30.554h36.064m-61.208-26.046l25.545 25.546m16.93-30.053l19.133 30.053m-38.267-60.107l48.786-9.016m-29.652 39.07l42.475-4.509m-61.609-25.545l19.134 30.053m29.652-39.069l12.823 34.561m-42.475 4.509l42.475-4.509m-23.742 35.062h36.063M435.57 333.59l19.133 30.053m23.342-34.562l12.722 34.562m-50.99-138.145l61.609-18.132M452.5 259.96l55.197-13.525m-67.92-20.937L452.5 259.96m48.886-52.594l6.311 39.07m116.806-39.07l61.61 18.132m-67.921 20.937l55.198 13.524m-48.887-52.593l-6.31 39.07m67.919-20.938L673.39 259.96m74.331-16.43l61.609 18.032m-80.743 11.921l55.298 13.524m-36.164-43.477l-19.134 29.953m80.743-11.921l-25.445 25.445m-123.218 7.513l48.787 9.016m-61.609 25.545l42.475 4.508m-29.653-39.069l-12.822 34.561m61.609-25.545L690.32 333.59m-42.475-4.509l42.475 4.508m-54.697 30.554h36.064m-23.842-35.062l-12.723 34.562m55.198-30.053l-19.134 30.053m19.134-30.053l42.475 4.507m-61.108 26.046h36.064M690.32 333.59l-19.134 30.053m61.609-25.546l-25.545 25.546m-492.771 492.77l25.545-25.545m49.086 86.853l23.643-38.267m-98.274-23.041l6.311 6.211 6.311 6.01 6.512 5.911 6.611 5.81 6.712 5.71 6.812 5.61 6.913 5.51 6.912 5.31 7.112 5.209 7.213 5.009 7.213 5.008m-49.087-86.853l72.729 48.586m-23.643 38.267l23.643-38.267m61.608 83.848l16.33-43.276m-101.581-2.305l7.414 4.809 7.413 4.708 7.513 4.508 7.614 4.408 7.713 4.308 7.714 4.207 7.814 4.007 7.914 3.807 8.014 3.706 8.014 3.607 8.114 3.506m-61.608-83.848l77.937 40.572m-150.666-89.158l25.445-25.445m47.284 74.031l23.541-38.368m-96.27-10.218l72.729 48.586m-47.283-74.031l70.824 35.663m-23.541 38.368l23.541-38.368m54.396 78.94l16.33-43.177m-94.267 2.605l77.937 40.572m-54.396-78.94l70.725 35.763M265.47 805.423l25.544-25.545m45.28 61.208l20.937-34.36m-91.761-1.303l70.824 35.663m-45.28-61.208l66.217 26.847m-20.937 34.361l20.937-34.36m49.789 70.124l16.328-43.177m-87.054 7.413l70.725 35.763m-49.788-70.124l66.117 26.948m-132.334-53.795l25.545-25.545m40.672 52.392l20.937-34.36m-87.154 7.513l66.217 26.847m-40.671-52.392l61.608 18.032m-20.937 34.36l20.937-34.36m45.18 61.308l16.429-43.276m-82.546 16.328l66.117 26.948m-45.18-61.308l61.609 18.032m311.751 172.905l-16.329-43.276m101.579-2.305l-23.641-38.267m-61.609 83.848l8.114-3.506 8.014-3.607 8.015-3.706 7.913-3.807 7.814-4.007 7.714-4.207 7.714-4.308 7.613-4.408 7.513-4.508 7.413-4.708 7.413-4.809m-101.579 2.305l77.938-40.572m23.641 38.267l-23.641-38.267m98.273-23.041l-25.545-25.545m-49.087 86.853l7.213-5.008 7.213-5.01 7.113-5.208 6.912-5.31 6.912-5.51 6.812-5.61 6.712-5.71 6.612-5.81 6.511-5.91 6.311-6.01 6.311-6.212m-98.273 23.041l72.728-48.586m-150.666 89.158l-16.329-43.177m94.267 2.605l-23.542-38.368m-54.396 78.94l77.938-40.572m-94.267-2.604l70.725-35.764m23.542 38.368l-23.542-38.368m96.27-10.218l-25.445-25.445m-47.283 74.031l72.728-48.586m-96.27 10.218l70.825-35.663M718.87 876.85l-16.329-43.177m87.054 7.413l-20.937-34.36M718.87 876.85l70.725-35.764m-87.054-7.413l66.117-26.948m20.937 34.361l-20.937-34.36m91.762-1.303l-25.545-25.545m-45.28 61.208l70.825-35.663m-91.762 1.302l66.217-26.847m-132.334 53.795l-16.429-43.276m82.546 16.328l-20.937-34.36m-45.18 61.308l66.117-26.948m-82.546-16.328l61.61-18.032m20.936 34.36l-20.937-34.36m87.154 7.513l-25.545-25.545m-40.672 52.392l66.217-26.847m-87.154-7.513l61.609-18.032m-594.851 102.08l-6.211-6.311-6.01-6.311-5.911-6.512-5.81-6.611-5.71-6.712-5.61-6.812-5.51-6.912-5.31-6.913-5.209-7.112-5.009-7.213-5.008-7.213m86.853 49.087l-48.586-72.728m23.041 98.273l25.545-25.545m-86.854-49.087l38.268-23.641m48.586 72.728l-48.586-72.728m74.032 47.283l-35.664-70.825m10.218 96.27l25.445-25.445m-74.031-47.283l38.368-23.542m-76.636 47.183l-4.808-7.413-4.708-7.413-4.508-7.513-4.408-7.614-4.308-7.713-4.207-7.714-4.007-7.814-3.807-7.914-3.706-8.014-3.607-8.014-3.506-8.114m83.848 61.609l-40.571-77.938m2.303 101.579l38.268-23.641m-83.848-61.61l43.277-16.328m40.571 77.938l-40.571-77.938m78.939 54.396l-35.763-70.725m-2.605 94.267l38.368-23.542m-78.939-54.396l43.176-16.329m71.427 141.55l-35.664-70.825m61.208 45.28l-26.847-66.217m1.303 91.762l25.544-25.545m-61.208-45.28l34.36-20.937m26.848 66.217l-26.847-66.217m52.393 40.672l-18.033-61.609m-7.513 87.154l25.545-25.545m-52.392-40.673l34.36-20.936m-68.721 41.874l-35.763-70.725m70.124 49.787l-26.948-66.116m-7.413 87.054l34.36-20.937m-70.123-49.788l43.176-16.329m26.948 66.116l-26.948-66.116m61.308 45.18l-18.031-61.609m-16.329 82.545l34.36-20.936m-61.307-45.18l43.276-16.429M107.59 319.364l3.506-8.114 3.607-8.014 3.706-8.014 3.807-7.914 4.007-7.814 4.207-7.714 4.308-7.713 4.408-7.614 4.508-7.513 4.708-7.413 4.809-7.413m-2.304 101.579l40.571-77.938m-83.848 61.609l43.277 16.33m2.303-101.58l38.268 23.641m-40.571 77.938l40.571-77.938m2.605 94.267l35.763-70.725m-78.939 54.396l43.176 16.329m-2.605-94.267l38.368 23.542m-76.636-47.183l5.01-7.213 5.008-7.213 5.21-7.112 5.309-6.913 5.51-6.912 5.61-6.812 5.71-6.712 5.81-6.611 5.91-6.512 6.011-6.311 6.211-6.311m-23.041 98.273l48.586-72.728m-86.854 49.087l38.268 23.641m23.041-98.273l25.545 25.545m-48.586 72.728l48.586-72.728m-10.218 96.27l35.663-70.825m-74.031 47.283l38.368 23.542m10.218-96.27l25.445 25.445m-71.426 141.55l35.763-70.725m7.414 87.053l26.947-66.116m-70.124 49.788l43.176 16.329m-7.413-87.054l34.36 20.937M237.22 368.35l26.947-66.116m16.329 82.546l18.031-61.609M237.22 368.35l43.276 16.43m-16.329-82.546l34.36 20.937m-68.721-41.874l35.663-70.825m-1.302 91.762l26.847-66.217m-61.208 45.28l34.36 20.937m1.304-91.762l25.544 25.545m-26.847 66.217l26.847-66.217m7.513 87.154l18.032-61.609m-52.392 40.672l34.36 20.937m-7.513-87.154l25.545 25.545M911.41 856.413l-25.545-25.545m86.854-49.087L934.45 758.14m-23.04 98.273l6.211-6.311 6.01-6.311 5.911-6.512 5.81-6.611 5.71-6.712 5.61-6.812 5.51-6.912 5.31-6.913 5.209-7.112 5.009-7.213 5.009-7.213m-86.854 49.087l48.586-72.728m38.268 23.641L934.45 758.14m83.85-61.61l-43.277-16.328m-2.304 101.579l4.808-7.413 4.708-7.413 4.508-7.513 4.408-7.614 4.308-7.713 4.207-7.714 4.007-7.814 3.807-7.914 3.707-8.014 3.606-8.014 3.506-8.114m-83.848 61.609l40.572-77.938m-89.158 150.666l-25.445-25.445m74.031-47.283l-38.368-23.542m-10.218 96.27l48.586-72.728m-74.031 47.283l35.663-70.825m38.368 23.542l-38.368-23.542m78.94-54.396l-43.177-16.329m2.605 94.267l40.572-77.938m-78.94 54.396l35.763-70.725m-71.426 141.55l-25.545-25.545m61.208-45.28l-34.36-20.937m-1.303 91.762l35.663-70.825m-61.208 45.28l26.848-66.217m34.36 20.937l-34.36-20.937m70.123-49.788l-43.176-16.329m7.413 87.054l35.763-70.725m-70.123 49.787l26.947-66.116m-53.795 132.334l-25.545-25.545m52.393-40.673l-34.361-20.936m7.513 87.154l26.848-66.217m-52.393 40.672l18.032-61.609m34.361 20.936l-34.361-20.936m61.308-45.18l-43.276-16.429m16.329 82.545l26.947-66.116m-61.308 45.18l18.032-61.609M1018.3 319.364l-43.277 16.33m-2.304-101.58l-38.268 23.641m83.849 61.609l-3.507-8.114-3.606-8.014-3.707-8.014-3.807-7.914-4.007-7.814-4.207-7.714-4.308-7.713-4.408-7.614-4.508-7.513-4.708-7.413-4.808-7.413m2.304 101.579l-40.572-77.938m38.268-23.641l-38.268 23.641m-23.041-98.273l-25.545 25.545m86.854 49.087l-5.01-7.213-5.008-7.213-5.21-7.112-5.309-6.913-5.51-6.912-5.61-6.812-5.71-6.712-5.81-6.611-5.91-6.512-6.01-6.311-6.212-6.311m23.041 98.273l-48.586-72.728m89.158 150.666l-43.177 16.329m2.605-94.267l-38.368 23.542m78.94 54.396l-40.572-77.938m-2.605 94.267l-35.763-70.725m38.368-23.542l-38.368 23.542m-10.218-96.27l-25.445 25.445m74.031 47.283l-48.586-72.728m10.218 96.27l-35.663-70.825m71.426 141.55l-43.176 16.329m7.413-87.054l-34.36 20.937m70.123 49.788l-35.763-70.725m-7.413 87.053l-26.947-66.116m34.36-20.937l-34.36 20.937m-1.303-91.762l-25.545 25.545m61.208 45.28l-35.663-70.825m1.303 91.762l-26.848-66.217M888.67 368.35l-43.276 16.43m16.329-82.546l-34.361 20.937m61.308 45.179l-26.947-66.116m-16.329 82.546l-18.032-61.609m34.361-20.937l-34.361 20.937m7.513-87.154l-25.545 25.545m52.393 40.672l-26.848-66.217m-7.513 87.154l-18.032-61.609m-594.851-102.08l6.311-6.211 6.311-6.01 6.512-5.911 6.611-5.81 6.712-5.71 6.812-5.61 6.913-5.51 6.912-5.31 7.112-5.209 7.213-5.009 7.213-5.009m-49.087 86.854l72.729-48.586m-98.274 23.041l25.545 25.545m49.086-86.854l23.643 38.268m-72.729 48.586l72.729-48.586m-47.283 74.031l70.824-35.663m-96.27 10.218l25.445 25.445m47.284-74.031l23.541 38.368M289.11 98.173l7.414-4.808 7.413-4.708 7.513-4.508 7.614-4.408 7.713-4.308 7.714-4.207 7.814-4.007 7.914-3.807 8.014-3.707 8.014-3.606 8.114-3.506m-61.608 83.848L390.69 95.87m-101.58 2.303l23.643 38.268m61.608-83.848l16.33 43.276m-77.938 40.572L390.69 95.87m-54.396 78.939l70.725-35.763m-94.266-2.605l23.541 38.368M390.69 95.87l16.33 43.176m-141.55 71.426l70.824-35.663m-45.28 61.208l66.217-26.847m-91.761 1.302l25.544 25.545m45.28-61.208l20.937 34.36m-66.217 26.848l66.217-26.847m-40.671 52.392l61.608-18.032m-87.154-7.513l25.545 25.545m40.672-52.392l20.937 34.36m-41.874-68.721l70.725-35.763m-49.788 70.124l66.117-26.948m-87.054-7.413l20.937 34.36m49.789-70.123l16.328 43.176m-66.117 26.948l66.117-26.948m-45.18 61.308l61.609-18.032m-82.546-16.328l20.937 34.36m45.18-61.308l16.429 43.276M751.528 52.593l8.114 3.506 8.014 3.606 8.015 3.707 7.913 3.807 7.814 4.007 7.714 4.207 7.714 4.308 7.613 4.408 7.513 4.508 7.413 4.708 7.413 4.808M735.199 95.87l77.938 40.571m-61.609-83.848l-16.329 43.276m101.579 2.304l-23.641 38.268M735.199 95.87l77.938 40.571m-94.267 2.605l70.725 35.763M735.199 95.87l-16.329 43.176m94.267-2.605l-23.542 38.368m47.183-76.636l7.213 5.01 7.213 5.008 7.113 5.21 6.912 5.309 6.912 5.51 6.812 5.61 6.712 5.71 6.612 5.81 6.511 5.91 6.311 6.01 6.311 6.212m-98.273-23.041l72.728 48.586m-49.087-86.854l-23.641 38.268m98.273 23.041l-25.545 25.545m-72.728-48.586l72.728 48.586m-96.27-10.218l70.825 35.663m-47.283-74.031l-23.542 38.368m96.27 10.218l-25.445 25.445m-141.55-71.426l70.725 35.763m-87.054 7.413l66.117 26.948m-49.788-70.124l-16.329 43.176m87.054-7.413l-20.937 34.36m-66.117-26.947l66.117 26.948m-82.546 16.328l61.61 18.032m-45.181-61.308l-16.429 43.276m82.546-16.328l-20.937 34.36m41.874-68.721l70.825 35.663m-91.762-1.302l66.217 26.847m-45.28-61.208l-20.937 34.36m91.762 1.303l-25.545 25.545m-66.217-26.847l66.217 26.847m-87.154 7.513l61.609 18.032m-40.672-52.392l-20.937 34.36m87.154-7.513l-25.545 25.545M465.222 721.375l12.823-34.561m36.063 43.576l6.412-39.069m-55.298 30.054l48.886 9.016m-36.063-43.577l42.475 4.507m-6.412 39.069l6.412-39.069m42.976 48.486V695.73m-49.388 34.66l48.887 9.016m-42.475-48.085l42.475 4.508m-84.95-9.015l12.722-34.562m29.753 39.069l6.31-39.069m-48.785 34.562l42.475 4.507m-30.154-38.668h36.064m-5.91 38.668l6.31-39.069m36.666 43.478v-43.077m-42.976 38.668l42.475 4.508m-36.565-43.176h37.066m0 87.154V695.73m48.284 34.66l-6.41-39.069m-42.375 48.085l48.786-9.015m-48.786-34.561l42.375-4.509m6.41 39.069l-6.41-39.069m55.297 30.054l-12.822-34.561M611.78 730.39l48.887-9.015m-55.297-30.054l42.475-4.507m-84.349 8.916v-43.077m41.874 38.668l-6.312-39.069m-36.063 43.578l42.375-4.509m-41.874-38.668h36.063m5.811 38.668l-6.312-39.069m48.787 34.562l-12.723-34.562m-29.752 39.069l42.475-4.507m-48.285-34.161h36.063M349.518 605.67l-9.016-48.886m43.577 36.063l-4.508-42.475m-30.053 55.298l34.56-12.823m-43.576-36.063l39.069-6.412m4.508 42.475l-4.508-42.475m38.668 30.154v-36.064m-34.16 48.385l34.56-12.722m-39.069-29.753l39.07-6.31m-78.138 12.722l-9.016-48.887m48.084 42.475l-4.507-42.475m-34.561 48.887l39.069-6.412m-48.486-41.974h44.078m4.407 41.974l-4.507-42.475m43.176 36.565v-36.064m-38.669 41.974l39.07-6.31m-43.477-35.664h43.076m-86.753-.501l9.016-48.786m34.561 48.786l4.508-42.374m-48.486 42.875h44.078m-34.661-49.287l39.069 6.412m-4.508 42.374l4.508-42.374m38.668 42.875v-36.063m-43.076 36.063h43.076m-38.669-42.875l39.07 6.31m-78.138-12.722l9.016-48.886m30.052 55.298l4.509-42.476m-43.577 36.064l39.069 6.412m-30.053-55.298l34.56 12.822m-4.508 42.476l4.509-42.476m34.16 49.288V436.27m-38.669 29.253l39.07 6.31m-34.561-48.786l34.56 12.723m357.733 169.9l-34.561-12.823m43.577-36.063l-39.07-6.412m30.054 55.298l9.016-48.886m-43.578 36.063l4.509-42.475m39.069 6.412l-39.07-6.412m48.586-41.974h-44.077m34.561 48.386l9.016-48.887m-48.085 42.475l4.508-42.475m-9.017 84.95l-34.56-12.722m39.069-29.753l-39.07-6.31m34.561 48.785l4.509-42.475m-38.569 30.154v-36.064m38.569 5.91l-39.07-6.31m43.578-35.664H707.75m38.569 41.974l4.508-42.475m-43.077 36.565v-36.064m87.154 0h-44.077m34.561-49.287l-39.07 6.412m48.086 42.374l-9.016-48.786m-34.561 48.786l-4.508-42.374m39.069-6.412l-39.07 6.412m30.054-55.298l-34.561 12.822m43.577 36.064l-9.016-48.886m-30.053 55.298l-4.508-42.476m9.016 85.351H707.75m38.569-42.875l-39.07 6.31m43.578 36.064l-4.508-42.374m-38.569 42.875v-36.063m38.569-6.812l-39.07 6.31m34.561-48.786l-34.56 12.723m39.069 29.753l-4.508-42.476m-34.061 49.288V436.27M465.222 294.52l48.886-9.016m-36.063 43.577l42.475-4.508m-55.298-30.053l12.823 34.561m36.063-43.577l6.412 39.07m-42.475 4.507l42.475-4.508m-30.154 39.57h36.064m-48.385-35.062l12.722 34.562m29.753-39.07l6.31 39.07m-12.722-78.139l48.887-9.015m-42.475 48.084l42.475-4.507m-48.887-34.562l6.412 39.07m42.976-47.584v43.076m-42.976 4.507l42.475-4.507m-36.565 44.077h37.066m-42.976-39.57l6.31 39.07m36.666-43.577v44.077m-.501-87.654l48.786 9.015m-48.786 34.562l42.375 4.507m-41.874-47.583v43.076m48.284-34.562l-6.41 39.07m-42.375-4.508l42.375 4.507m-41.874 39.57h36.063m-36.063-44.077v44.077m41.874-39.57l-6.312 39.07m12.722-78.139l48.887 9.016m-55.297 30.053l42.475 4.508m-36.065-43.577l-6.41 39.07m55.297-30.054l-12.822 34.561m-42.475-4.508l42.475 4.508m-48.285 35.062h36.063m-30.253-39.57l-6.312 39.07m48.787-34.562l-12.723 34.562M378.168 772.365l9.517-15.027m21.238 24.042l8.014-16.128m-38.769 7.113l30.755 9.016m-21.238-24.043l29.252 7.914m-8.014 16.128l8.014-16.128m22.84 25.145l6.311-17.23m-37.165 8.213l30.854 9.017m-22.84-25.145l29.151 7.914m-58.403-15.828l9.617-14.926m19.635 22.84l7.914-16.128m-37.166 8.214l29.252 7.914m-19.635-22.84l27.549 6.712m-7.914 16.128l7.914-16.128m21.237 24.042l6.412-17.23m-35.563 9.316l29.151 7.914m-21.238-24.042l27.65 6.812m-110.496-27.048l12.823-12.823m14.826 19.535l11.22-13.925m-38.869 7.213l27.65 6.712m-14.827-19.535l26.046 5.61m-11.22 13.925l11.22-13.925m16.429 20.737l9.517-15.027m-37.166 8.215l27.649 6.812m-16.429-20.737l25.946 5.71m-51.992-11.32l12.722-12.722m13.324 18.332l11.12-13.824m-37.166 8.214l26.046 5.61m-13.323-18.332l24.443 4.508m-11.12 13.824l11.12-13.824m14.826 19.534l9.617-15.026m-35.563 9.316l25.946 5.71m-14.826-19.535l24.443 4.509m-19.134 30.053l9.517-15.027m18.031 21.739l8.015-16.129m-35.563 9.417l27.549 6.712m-18.032-21.739l26.046 5.61m-8.015 16.129l8.015-16.129m19.635 22.941l6.41-17.331m-34.06 10.519l27.65 6.812m-19.635-22.941l26.046 5.61m-52.092-11.22l9.617-15.026m16.429 20.636l8.014-16.128m-34.06 10.518l26.046 5.61m-16.429-20.636l24.443 4.508m-8.014 16.128l8.014-16.128m18.031 21.738l6.312-17.23m-32.357 11.62l26.046 5.61m-18.032-21.738l24.343 4.508m36.164 87.154l3.105-19.535m27.649 28.55l1.603-20.736m-32.357 11.721l30.754 9.015m-27.649-28.55l29.252 7.814m-1.603 20.736l1.603-20.736m29.152 29.752l.1-21.838m-30.855 12.822l30.755 9.016m-29.152-29.752l29.252 7.914m-58.504-15.728l3.206-19.534m26.046 27.348l1.603-20.637m-30.855 12.823l29.252 7.814m-26.046-27.348l27.649 6.711m-1.603 20.637l1.603-20.637m28.15 28.751v-22.039m-29.753 13.925l29.252 7.914m-27.649-28.551l27.649 6.812M452.5 755.936l6.41-17.331m21.238 24.043l4.709-18.333M452.5 755.936l27.648 6.712m-21.238-24.043l25.947 5.71m-4.709 18.333l4.709-18.333m22.84 25.145l3.206-19.535m-30.755 12.723l27.549 6.812m-22.84-25.145l26.046 5.61m-51.993-11.32l6.312-17.23m19.635 22.94l4.808-18.432m-30.755 12.722l25.947 5.71m-19.635-22.94l24.443 4.508m-4.808 18.432l4.808-18.432m21.238 24.042l3.205-19.534m-29.251 13.924l26.046 5.61m-21.238-24.042l24.443 4.508m-6.411 39.069l3.206-19.535m24.443 26.246l1.603-20.636m-29.252 13.925l27.649 6.711m-24.443-26.246l26.046 5.61m-1.603 20.636l1.603-20.636m26.547 27.348v-22.039m-28.15 15.327l27.649 6.812m-26.046-27.448l26.046 5.61m-52.092-11.22l3.205-19.534m22.841 25.144l1.603-20.637m-27.649 15.027l26.046 5.61m-22.841-25.145l24.444 4.508m-1.603 20.637l1.603-20.637m24.944 25.946v-21.037m-26.547 15.728l26.046 5.61m-24.443-26.247l24.443 4.508M367.55 703.343l12.822-12.823m11.621 17.33l11.12-13.924m-35.563 9.417l24.443 4.508m-11.621-17.331l22.74 3.406m-11.119 13.924l11.12-13.924m13.323 18.433l9.517-15.027m-33.96 10.518l24.443 4.509m-13.324-18.433l22.84 3.406m-45.58-6.812l12.723-12.722m10.017 16.128l11.22-13.824m-33.96 10.418l22.74 3.406m-10.017-16.128l21.237 2.304m-11.22 13.824l11.22-13.824m11.621 17.23l9.617-15.026m-32.458 11.62l22.84 3.406m-11.62-17.23l21.238 2.204M562.895 826.56l.1-21.838m30.755 12.822l-1.604-20.736m-29.251 29.752l30.854-9.016m-30.754-12.822l29.151-7.914m1.604 20.736l-1.604-20.736m32.357 11.721l-3.105-19.535m-27.648 28.55l30.753-9.015m-32.357-11.721l29.252-7.814m-57.902 15.928v-22.039m28.65 13.925l-1.603-20.637m-27.548 28.551l29.151-7.914m-29.151-13.825l27.548-6.812m1.603 20.637l-1.603-20.637m30.855 12.823l-3.206-19.534m-26.046 27.348l29.252-7.814m-30.855-12.823l27.65-6.711m-54.697 13.423v-22.039m27.047 15.327l-1.602-20.636m-25.946 27.448l27.548-6.812m-27.548-15.026l25.946-5.61m1.602 20.636l-1.602-20.636m29.251 13.925l-3.205-19.535m-24.444 26.246l27.65-6.711m-29.253-13.925l26.047-5.61m-51.491 10.919v-21.037m25.444 15.728l-1.602-20.637m-24.343 26.247l25.946-5.61m-25.946-16.129l24.343-4.508m1.602 20.637l-1.602-20.637m27.649 15.027l-3.206-19.534m-22.841 25.144l26.047-5.61m-27.649-15.027l24.443-4.507m6.411 39.069l-3.205-19.535m30.753 12.723l-4.707-18.333m-22.841 25.145l27.549-6.812m-30.754-12.723l26.046-5.61m4.707 18.333l-4.707-18.333m32.357 11.621l-6.412-17.331m-21.238 24.043l27.65-6.712m-32.357-11.621l25.945-5.71m-51.991 11.32l-3.206-19.534m29.252 13.924l-4.809-18.432m-21.237 24.042l26.046-5.61M611.78 730.39l24.444-4.507m4.809 18.432l-4.809-18.432m30.754 12.722l-6.31-17.23m-19.635 22.94l25.945-5.71m-30.754-12.722l24.443-4.508m25.445 69.022l-6.31-17.23m37.165 8.213l-8.014-16.128m-22.841 25.145l30.855-9.016m-37.166-8.215l29.152-7.914m8.014 16.128l-8.014-16.128m38.768 7.113l-9.517-15.027m-21.237 24.042l30.754-9.015m-38.768-7.113l29.251-7.914m-58.403 15.828l-6.411-17.23m35.563 9.316l-7.914-16.128m-21.238 24.042l29.152-7.914m-35.563-9.316l27.649-6.812m7.914 16.128l-7.914-16.128m37.165 8.214l-9.617-14.926m-19.634 22.84l29.251-7.914m-37.165-8.214l27.548-6.712m-55.197 13.524l-6.412-17.331m34.061 10.519l-8.015-16.129m-19.634 22.941l27.649-6.812m-34.061-10.519l26.046-5.61m8.015 16.129l-8.015-16.129m35.563 9.417l-9.516-15.027m-18.032 21.739l27.548-6.712m-35.563-9.417l26.047-5.61m-52.093 11.22l-6.31-17.23m32.356 11.62l-8.014-16.128m-18.032 21.738l26.046-5.61m-32.357-11.62l24.343-4.508m8.014 16.128l-8.014-16.128m34.06 10.518l-9.616-15.026m-16.43 20.636l26.047-5.61m-34.061-10.518l24.444-4.508m19.133 30.053l-9.516-15.027m37.165 8.215l-11.22-13.925m-16.429 20.737l27.65-6.812m-37.167-8.215l25.946-5.71m11.22 13.925l-11.22-13.925m38.869 7.213l-12.823-12.823M756.236 735.6l27.649-6.712m-38.869-7.213l26.046-5.61m-51.992 11.32l-9.616-15.026m35.562 9.316l-11.12-13.824m-14.826 19.534l25.946-5.71m-35.562-9.316l24.443-4.508m11.119 13.824l-11.12-13.824m37.166 8.214l-12.722-12.722m-13.324 18.332l26.046-5.61m-37.165-8.215l24.443-4.507m-48.886 9.016l-9.517-15.027m33.96 10.518l-11.12-13.924m-13.323 18.433l24.443-4.508m-33.96-10.519l22.84-3.406m11.12 13.924l-11.12-13.924m35.563 9.417l-12.823-12.823m-11.62 17.33l24.443-4.507m-35.563-9.417l22.74-3.406m-45.58 6.812l-9.617-15.026m32.457 11.62l-11.22-13.824m-11.62 17.23l22.84-3.406m-32.457-11.62l21.237-2.204m11.22 13.824l-11.22-13.824m33.96 10.418l-12.722-12.722m-10.018 16.128l22.74-3.406m-33.96-10.418l21.238-2.304m-390.791 51.09l-6.712-27.649m19.535 14.826l-5.61-26.046m-7.213 38.869l12.823-12.823m-19.535-14.826l13.925-11.22m5.61 26.046l-5.61-26.046m18.333 13.324l-4.51-24.443m-8.213 37.165l12.722-12.722m-18.332-13.323l13.824-11.12m-27.749 22.339l-6.812-27.649m20.737 16.43l-5.71-25.947m-8.215 37.166l13.925-11.22M328.48 673.59l15.027-9.517m5.71 25.947l-5.71-25.947m19.534 14.827l-4.508-24.444m-9.316 35.564l13.824-11.12m-19.534-14.827l15.026-9.617m-60.006 38.268l-9.015-30.754m24.042 21.237l-7.914-29.252m-7.113 38.769l15.027-9.517m-24.042-21.237l16.128-8.015m7.914 29.252l-7.914-29.252m22.84 19.635l-6.711-27.549m-8.215 37.166l14.926-9.617m-22.84-19.635l16.129-7.914m-32.257 15.929l-9.016-30.855m25.144 22.84l-7.914-29.151m-8.214 37.166l16.128-8.015m-25.144-22.84l17.23-6.311m7.914 29.151l-7.914-29.151m24.043 21.237l-6.813-27.648m-9.316 35.562l16.129-7.914m-24.043-21.237l17.23-6.411m13.524 55.197l-6.711-27.549m21.738 18.032l-5.61-26.046m-9.417 35.563l15.027-9.517m-21.738-18.032l16.128-8.014m5.61 26.046l-5.61-26.046m20.636 16.429l-4.507-24.443m-10.519 34.06l15.026-9.617m-20.636-16.429l16.129-8.014m-32.257 16.028l-6.813-27.648m22.941 19.634l-5.61-26.046m-10.518 34.06l16.128-8.014m-22.941-19.634l17.331-6.412m5.61 26.046l-5.61-26.046m21.739 18.032l-4.508-24.343m-11.621 32.357l16.129-8.014m-21.739-18.032l17.23-6.31m18.033 97.672l-4.51-24.443m17.332 11.62l-3.406-22.74m-9.416 35.563l12.822-12.823m-17.331-11.62l13.925-11.12m3.406 22.74l-3.406-22.74m16.129 10.018l-2.305-21.238m-10.418 33.96l12.723-12.722m-16.129-10.018l13.824-11.22m-27.749 22.34l-4.508-24.444m18.433 13.324l-3.406-22.84m-10.519 33.96l13.925-11.12m-18.433-13.324l15.027-9.516m3.406 22.84l-3.406-22.84m17.23 11.62l-2.203-21.237m-11.621 32.457l13.824-11.22m-17.23-11.62l15.027-9.617m-73.631-16.93l-6.711-27.65m24.042 21.238l-5.71-25.946m-11.621 32.358l17.331-6.412m-24.042-21.237l18.332-4.709m5.71 25.946l-5.71-25.946m22.941 19.635l-4.508-24.443m-12.723 30.754l17.23-6.31m-22.94-19.636l18.433-4.808m-36.765 9.517l-6.812-27.549m25.144 22.84l-5.61-26.046m-12.722 30.755l18.332-4.709m-25.144-22.84l19.534-3.206m5.61 26.046l-5.61-26.046m24.043 21.238l-4.508-24.443m-13.925 29.251l18.433-4.808m-24.043-21.237l19.535-3.206m-78.138 12.722l-9.016-30.754m28.55 27.648l-7.814-29.25m-11.72 32.356l19.534-3.105m-28.55-27.649l20.736-1.603m7.814 29.251l-7.814-29.25m27.349 26.045l-6.712-27.649M281.898 566.4l19.535-3.205m-27.349-26.045l20.637-1.604m-41.373 3.206l-9.016-30.754m29.752 29.152l-7.914-29.253m-12.822 30.855l20.736-1.603m-29.752-29.151l21.838-.1m7.914 29.252l-7.914-29.253m28.55 27.649l-6.811-27.649m-13.825 29.253l20.637-1.604m-28.751-27.148h22.039m13.424 54.797l-6.712-27.649m26.246 24.444l-5.61-26.047m-13.924 29.252l19.534-3.206m-26.247-24.443l20.637-1.603m5.61 26.047l-5.61-26.047m25.145 22.841l-4.508-24.443m-15.027 27.649l19.535-3.206m-25.145-22.841l20.637-1.602m-41.274 3.205l-6.811-27.649m27.448 26.046l-5.61-26.046m-15.027 27.649l20.637-1.603m-27.348-25.545h22.039m5.309 25.545l-5.61-26.046m26.247 24.443l-4.508-24.443m-16.129 26.046l20.637-1.602m-25.946-23.943h21.037m-86.753-.4l9.016-30.855m12.822 30.754l7.914-29.151m-29.752 29.252l21.838-.1m-12.822-30.755l20.736 1.603m-7.914 29.151l7.914-29.151m13.825 29.151l6.812-27.548m-28.751 28.049h22.039m-13.925-29.652l20.637 1.603m-41.373-3.206l9.016-30.754m11.72 32.357l7.814-29.252m-28.55 27.649l20.736 1.603m-11.72-32.357l19.534 3.105m-7.814 29.252l7.814-29.252m12.822 30.855l6.713-27.65m-27.349 26.047l20.637 1.603m-12.823-30.855l19.535 3.206m-13.524 55.197l6.812-27.548m15.026 27.548l5.61-25.945m-27.348 26.446h22.039m-15.328-28.049l20.637 1.603m-5.61 25.945l5.61-25.945m16.129 25.945l4.508-24.343m-25.946 24.844h21.037m-15.728-26.446l20.637 1.602m-41.274-3.205l6.713-27.65m13.924 29.253l5.61-26.046m-26.247 24.443l20.637 1.603M301.433 452.7l19.534 3.206m-5.61 26.046l5.61-26.046m15.027 27.648l4.508-24.443m-25.145 22.841l20.637 1.602m-15.027-27.648l19.535 3.205m-39.069-6.411l6.812-27.549m12.722 30.755l5.61-26.046m-25.144 22.84l19.534 3.206m-12.722-30.755l18.332 4.709m-5.61 26.046l5.61-26.046m13.925 29.251l4.508-24.443m-24.043 21.238l19.535 3.205m-13.925-29.251l18.433 4.808m-36.765-9.517l6.711-27.649m11.621 32.358l5.71-25.946m-24.042 21.237l18.332 4.709m-11.621-32.358l17.331 6.412m-5.71 25.946l5.71-25.946m12.723 30.754l4.508-24.443m-22.941 19.635l18.433 4.808m-12.723-30.754l17.23 6.31m-69.021-25.444l9.016-30.855m8.214 37.166l7.914-29.151m-25.144 22.84l17.23 6.311m-8.214-37.166l16.128 8.015m-7.914 29.151l7.914-29.151m9.316 35.562l6.813-27.649m-24.043 21.238l17.23 6.411m-9.316-35.562l16.129 7.913m-32.257-15.928l9.015-30.754m7.113 38.769l7.914-29.252m-24.042 21.237l16.128 8.015m-7.113-38.769l15.027 9.517m-7.914 29.252l7.914-29.252m8.215 37.165l6.711-27.548m-22.84 19.635l16.129 7.913m-8.215-37.165l14.926 9.617m-13.524 55.197l6.813-27.649m10.518 34.061l5.61-26.046m-22.941 19.634l17.331 6.412m-10.518-34.061l16.128 8.015m-5.61 26.046l5.61-26.046m11.621 32.357l4.508-24.343m-21.739 18.032l17.23 6.31m-11.62-32.356l16.129 8.014m-32.257-16.029l6.711-27.548m9.417 35.563l5.61-26.046m-21.738 18.031l16.128 8.015m-9.417-35.563l15.027 9.517m-5.61 26.046l5.61-26.046m10.519 34.06l4.507-24.443m-20.636 16.429l16.129 8.014m-10.519-34.06l15.026 9.617m-30.053-19.134l6.812-27.649m8.215 37.166l5.71-25.946m-20.737 16.429l15.027 9.517m-8.215-37.166l13.925 11.22m-5.71 25.946l5.71-25.946m9.316 35.563l4.508-24.444m-19.534 14.827l15.026 9.617m-9.316-35.563l13.824 11.12m-27.749-22.34l6.712-27.649m7.213 38.869l5.61-26.046m-19.535 14.826l13.925 11.22m-7.213-38.869l12.823 12.823m-5.61 26.046l5.61-26.046m8.214 37.165l4.508-24.443m-18.332 13.324l13.824 11.12m-8.214-37.166l12.722 12.722m-9.016 48.887l4.508-24.444m10.519 33.96l3.406-22.84m-18.433 13.324l15.027 9.516m-10.519-33.96l13.925 11.12m-3.406 22.84l3.406-22.84m11.621 32.457l2.203-21.237m-17.23 11.62l15.027 9.617m-11.621-32.457l13.824 11.22m-27.749-22.34l4.508-24.443m9.417 35.563l3.406-22.74m-17.331 11.62l13.925 11.12m-9.416-35.563l12.822 12.823m-3.406 22.74l3.406-22.74m10.418 33.96l2.305-21.238m-16.129 10.018l13.824 11.22m-10.418-33.96l12.723 12.722m434.267 354.627l-15.027-9.517m24.043-21.237l-16.129-8.015m7.113 38.769l9.016-30.754m-24.043 21.237l7.914-29.252m16.129 8.015l-16.129-8.015m25.145-22.84l-17.23-6.311m8.214 37.166l9.016-30.855m-25.144 22.84l7.913-29.151m-15.828 58.403l-14.926-9.617m22.841-19.635l-16.13-7.914m8.215 37.166l7.914-29.252m-22.84 19.635l6.712-27.549m16.129 7.914l-16.13-7.914m24.043-21.237l-17.23-6.411m9.317 35.562l7.913-29.151m-24.043 21.237l6.813-27.648m-27.048 110.495l-12.823-12.823m19.535-14.826l-13.925-11.22m7.213 38.869l6.712-27.649m-19.535 14.826l5.61-26.046m13.925 11.22l-13.925-11.22m20.737-16.429l-15.027-9.517m8.215 37.166l6.812-27.649m-20.737 16.43l5.71-25.947m-11.32 51.992l-12.722-12.722m18.332-13.323l-13.824-11.12m8.214 37.165l5.61-26.046m-18.332 13.324l4.508-24.443m13.824 11.12l-13.824-11.12m19.534-14.827l-15.026-9.617m9.316 35.564l5.71-25.947M762.848 678.9l4.508-24.444m30.053 19.134l-15.027-9.517m21.738-18.032l-16.128-8.014m9.417 35.563l6.712-27.549m-21.739 18.032l5.61-26.046m16.128 8.014l-16.128-8.014m22.941-19.634l-17.33-6.412m10.517 34.06l6.813-27.648m-22.941 19.634l5.61-26.046m-11.22 52.092l-15.026-9.617m20.636-16.429l-16.128-8.014m10.518 34.06l5.61-26.046m-20.636 16.429l4.508-24.443m16.128 8.014l-16.128-8.014m21.738-18.032l-17.23-6.31m11.62 32.356l5.61-26.046m-21.738 18.032l4.508-24.343m87.154-36.164l-19.535-3.105m28.551-27.649l-20.737-1.603m11.721 32.357l9.016-30.754M843.991 566.4l7.814-29.25m20.737 1.602l-20.737-1.603m29.753-29.151l-21.839-.1m12.823 30.854l9.016-30.754m-29.753 29.152l7.914-29.253M843.991 566.4l-19.534-3.205m27.348-26.045l-20.636-1.604m12.822 30.854l7.814-29.25m-27.348 26.045l6.712-27.649m20.636 1.604l-20.636-1.604m28.851-27.148h-22.04m13.825 28.752l7.914-29.253m-28.55 27.649l6.812-27.649m-27.048 110.496l-17.33-6.412m24.042-21.237l-18.333-4.709m11.621 32.358l6.712-27.65m-24.043 21.238l5.71-25.946m18.333 4.709l-18.333-4.709m25.145-22.84l-19.535-3.206m12.723 30.755l6.812-27.549m-25.145 22.84l5.61-26.046m-11.32 51.992l-17.23-6.31m22.94-19.636l-18.432-4.808m12.722 30.754l5.71-25.946m-22.94 19.635l4.508-24.443m18.432 4.808l-18.432-4.808m24.042-21.237l-19.534-3.206m13.924 29.251l5.61-26.046m-24.042 21.238l4.508-24.443m39.069 6.411l-19.535-3.206m26.247-24.443l-20.637-1.603m13.925 29.252l6.712-27.649m-26.247 24.444l5.61-26.047m20.637 1.603l-20.637-1.603m27.448-25.545h-22.038m15.227 27.148l6.812-27.649m-27.449 26.046l5.61-26.046m-11.22 52.093l-19.534-3.206m25.144-22.841l-20.636-1.602m15.026 27.649l5.61-26.047m-25.144 22.841l4.508-24.443m20.636 1.602l-20.636-1.602m26.046-23.943h-21.038m15.628 25.545l5.61-26.046m-26.246 24.443l4.508-24.443M758.34 703.343l-12.823-12.823m17.331-11.62l-13.925-11.12m9.417 35.563l4.508-24.443m-17.331 11.62l3.406-22.74m13.925 11.12l-13.925-11.12m18.433-13.324l-15.027-9.516m10.519 33.96l4.508-24.444m-18.433 13.324l3.406-22.84m-6.812 45.58l-12.722-12.722m16.128-10.018L735.1 656.56m10.417 33.96l3.406-22.74m-16.128 10.018l2.304-21.238m13.824 11.22L735.1 656.56m17.23-11.62l-15.027-9.617m11.62 32.457l3.406-22.84m-17.23 11.62l2.204-21.237m144.255-127.325l-21.839-.1m12.823-30.755l-20.737 1.603m29.753 29.252l-9.016-30.855m-12.823 30.754l-7.914-29.151m20.737-1.603l-20.737 1.603m11.721-32.357l-19.535 3.105m28.551 27.649l-9.016-30.754m-11.721 32.357l-7.814-29.252m16.029 58.904h-22.04m13.825-29.652l-20.636 1.603m28.55 27.548l-7.914-29.151m-13.825 29.151l-6.811-27.548m20.636-1.603l-20.636 1.603m12.822-30.855l-19.534 3.206m27.348 26.046l-7.814-29.252m-12.822 30.855l-6.712-27.65m13.523 55.699h-22.038m15.227-28.049l-20.637 1.603m27.448 25.945l-6.811-27.548m-15.027 27.548l-5.61-25.945m20.637-1.603l-20.637 1.603m13.925-29.252l-19.535 3.206m26.247 24.443l-6.712-27.65m-13.925 29.253l-5.61-26.046m11.02 52.492h-21.038m15.628-26.446l-20.636 1.602m26.246 24.343l-5.61-25.945m-16.128 25.945l-4.508-24.343m20.636-1.602l-20.636 1.602m15.026-27.648l-19.534 3.205m25.144 22.841l-5.61-26.046m-15.026 27.648l-4.508-24.443m39.069-6.411l-19.535 3.206m12.723-30.755l-18.333 4.709m25.145 22.84l-6.812-27.549m-12.723 30.755l-5.61-26.046m18.333-4.709l-18.333 4.709m11.621-32.358l-17.33 6.412m24.042 21.237l-6.712-27.649m-11.621 32.358l-5.71-25.946m11.32 51.992l-19.534 3.205m13.924-29.251l-18.432 4.808m24.042 21.238l-5.61-26.046m-13.924 29.251l-4.508-24.443m18.432-4.808l-18.432 4.808m12.722-30.754l-17.23 6.31m22.94 19.636l-5.71-25.946m-12.722 30.754l-4.508-24.443m69.022-25.445l-17.23 6.311m8.214-37.166l-16.129 8.015m25.145 22.84l-9.016-30.855m-8.215 37.166l-7.914-29.151m16.129-8.015l-16.129 8.015m7.113-38.769l-15.027 9.517m24.043 21.237l-9.016-30.754m-7.112 38.769l-7.915-29.252m15.828 58.403l-17.23 6.411m9.317-35.562l-16.13 7.913m24.043 21.238l-7.914-29.151m-9.316 35.562l-6.812-27.649m16.129-7.913l-16.13 7.913m8.215-37.165l-14.926 9.617m22.841 19.635l-7.915-29.252m-8.215 37.165l-6.711-27.548m13.524 55.197l-17.33 6.412m10.517-34.061l-16.128 8.015m22.941 19.634l-6.812-27.649m-10.519 34.061l-5.61-26.046m16.128-8.015l-16.128 8.015m9.417-35.563l-15.027 9.517m21.738 18.031l-6.711-27.548m-9.417 35.563l-5.61-26.046m11.22 52.092l-17.23 6.31m11.62-32.356l-16.128 8.014m21.738 18.032l-5.61-26.046m-11.62 32.357l-4.508-24.343m16.128-8.014l-16.128 8.014m10.518-34.06l-15.026 9.617m20.636 16.429l-5.61-26.046m-10.518 34.06l-4.508-24.443m30.053-19.134l-15.027 9.517m8.215-37.166l-13.925 11.22m20.737 16.429l-6.812-27.649m-8.215 37.166l-5.71-25.946m13.925-11.22l-13.925 11.22m7.213-38.869l-12.823 12.823m19.535 14.826l-6.712-27.649m-7.213 38.869l-5.61-26.046m11.32 51.992l-15.026 9.617m9.316-35.563l-13.824 11.12m19.534 14.826l-5.71-25.946m-9.316 35.563l-4.508-24.444m13.824-11.119l-13.824 11.12m8.214-37.166l-12.722 12.722m18.332 13.324l-5.61-26.046m-8.214 37.165l-4.508-24.443m9.016 48.887l-15.027 9.516m10.519-33.96l-13.925 11.12m18.433 13.324l-4.508-24.444m-10.518 33.96l-3.407-22.84m13.925-11.12l-13.925 11.12m9.417-35.563l-12.823 12.823m17.331 11.62l-4.508-24.443m-9.417 35.563l-3.406-22.74m6.813 45.58l-15.027 9.617m11.62-32.457l-13.824 11.22m17.231 11.62l-3.407-22.84m-11.62 32.457l-2.204-21.237m13.824-11.22l-13.824 11.22m10.418-33.96l-12.722 12.722m16.128 10.018l-3.406-22.74m-10.418 33.96l-2.304-21.238m-390.791-51.09l27.65-6.712m-14.827 19.535l26.046-5.61m-38.869-7.213l12.823 12.823m14.826-19.535l11.22 13.925m-26.046 5.61l26.046-5.61m-13.323 18.332l24.443-4.508m-37.166-8.214l12.722 12.722m13.324-18.332l11.12 13.824m-22.34-27.749l27.649-6.812m-16.429 20.737l25.946-5.71m-37.166-8.215l11.22 13.925m16.429-20.737l9.517 15.027m-25.946 5.71l25.946-5.71m-14.826 19.534l24.443-4.508m-35.563-9.316l11.12 13.824m14.826-19.534l9.617 15.026m-38.268-60.006l30.755-9.016m-21.238 24.043l29.252-7.914m-38.769-7.113l9.517 15.027m21.238-24.043l8.014 16.129m-29.252 7.914l29.252-7.914m-19.635 22.84l27.549-6.712m-37.166-8.214l9.617 14.926m19.635-22.84l7.914 16.128m-15.928-32.257l30.854-9.016m-22.84 25.145l29.151-7.914m-37.165-8.215l8.014 16.129m22.84-25.145l6.311 17.23m-29.151 7.915l29.151-7.914m-21.238 24.042l27.65-6.812m-35.563-9.316l7.914 16.128m21.237-24.042l6.412 17.23m-55.198 13.524l27.549-6.712m-18.032 21.739l26.046-5.61m-35.563-9.417l9.517 15.027m18.031-21.739l8.015 16.129m-26.046 5.61l26.046-5.61m-16.429 20.636l24.443-4.508m-34.06-10.518l9.617 15.026m16.429-20.636l8.014 16.128m-16.029-32.257l27.65-6.812M432.865 282.9l26.046-5.61m-34.061-10.519l8.015 16.129m19.635-22.94l6.41 17.33m-26.045 5.61l26.046-5.61m-18.032 21.738l24.343-4.508m-32.357-11.62l8.014 16.128m18.031-21.738l6.312 17.23m-97.672 18.032l24.443-4.508m-11.621 17.331l22.74-3.406m-35.562-9.417l12.822 12.823m11.621-17.331l11.12 13.925m-22.741 3.406l22.74-3.406m-10.017 16.128l21.237-2.304m-33.96-10.418l12.723 12.722m10.017-16.128l11.22 13.824m-22.339-27.749l24.443-4.508m-13.324 18.433l22.84-3.406m-33.959-10.519l11.12 13.925m13.323-18.433l9.517 15.027m-22.841 3.406l22.84-3.406m-11.62 17.23l21.238-2.204m-32.458-11.62l11.22 13.824m11.621-17.23l9.617 15.026m16.93-73.629l27.648-6.713M458.91 277.29l25.947-5.71M452.5 259.96l6.41 17.33m21.238-24.043l4.709 18.333m-25.947 5.71l25.947-5.71m-19.635 22.94l24.443-4.508M458.91 277.29l6.312 17.23m19.635-22.94l4.808 18.432m-9.517-36.765l27.549-6.812m-22.84 25.145l26.046-5.61m-30.755-12.723l4.709 18.333m22.84-25.145l3.206 19.535m-26.046 5.61l26.046-5.61m-21.238 24.042l24.443-4.508m-29.251-13.924l4.808 18.432m21.238-24.042l3.205 19.534m-12.722-78.138l30.754-9.016m-27.649 28.55l29.252-7.813m-32.357-11.721l3.105 19.535m27.649-28.551l1.603 20.737m-29.252 7.813l29.252-7.813m-26.046 27.348l27.649-6.711M504.491 226.9l3.206 19.535m26.046-27.348l1.603 20.637m-3.206-41.374l30.755-9.015m-29.152 29.752l29.252-7.914M532.14 198.35l1.603 20.737m29.152-29.752l.1 21.838m-29.252 7.914l29.252-7.914m-27.649 28.551l27.649-6.812m-29.252-13.825l1.603 20.637m28.15-28.851v22.039m-55.799 13.523l27.649-6.711m-24.443 26.246l26.046-5.61m-29.252-13.925l3.206 19.535m24.443-26.246l1.603 20.636m-26.046 5.61l26.046-5.61m-22.841 25.144l24.444-4.508m-27.649-15.026l3.205 19.534m22.841-25.144l1.603 20.636m-3.206-41.272l27.649-6.812m-26.046 27.448l26.046-5.61m-27.649-15.026l1.603 20.636m26.547-27.448v22.038m-26.547 5.41l26.046-5.61m-24.443 26.246l24.443-4.507m-26.046-16.129l1.603 20.636m24.944-26.046v22.04m-.601-87.655l30.854 9.015m-30.754 12.823l29.151 7.914m-29.251-29.752l.1 21.838m30.755-12.823l-1.604 20.737m-29.151-7.914l29.151 7.914m-29.151 13.825l27.548 6.812m-27.047-28.851v22.039m28.65-13.825l-1.603 20.637m3.207-41.374l30.753 9.016m-32.357 11.721l29.252 7.814M593.75 198.35l-1.604 20.737m32.357-11.721l-3.105 19.535m-29.252-7.814l29.252 7.814m-30.855 12.823l27.65 6.711m-26.047-27.348l-1.603 20.637m30.855-12.824l-3.206 19.535m-55.197-13.523l27.548 6.812m-27.548 15.026l25.946 5.61m-25.445-27.448v22.038m27.047-15.226l-1.602 20.636m-25.946-5.61l25.946 5.61m-25.946 16.129l24.343 4.507m-23.842-26.046v22.04m25.444-16.63l-1.602 20.636m3.205-41.272l27.65 6.711M588.94 260.36l26.047 5.61m-24.444-26.246l-1.602 20.636m29.251-13.925l-3.205 19.535m-26.047-5.61l26.047 5.61m-27.649 15.026l24.443 4.508M588.94 260.36l-1.602 20.636m27.649-15.026l-3.206 19.534m6.411-39.069l27.549 6.812m-30.754 12.723l26.046 5.61m-22.841-25.145l-3.205 19.535m30.753-12.723l-4.707 18.333m-26.046-5.61l26.046 5.61m-29.253 13.924l24.444 4.508m-21.237-24.042l-3.206 19.534m29.252-13.924l-4.809 18.432m9.516-36.765l27.65 6.712m-32.357 11.621l25.945 5.71m-21.238-24.043l-4.707 18.333m32.357-11.62l-6.412 17.33m-25.945-5.71l25.945 5.71m-30.754 12.722l24.443 4.508m-19.634-22.94l-4.809 18.432m30.754-12.722l-6.31 17.23m25.444-69.022l30.855 9.016m-37.166 8.215l29.152 7.914m-22.841-25.145l-6.31 17.23m37.165-8.214l-8.014 16.129m-29.152-7.914l29.152 7.914m-35.563 9.317l27.649 6.811m-21.238-24.042l-6.411 17.23m35.563-9.316l-7.914 16.128m15.928-32.257l30.754 9.016m-38.768 7.113l29.251 7.914m-21.237-24.043l-8.014 16.129m38.768-7.113l-9.517 15.027m-29.251-7.914l29.251 7.914m-37.165 8.214l27.548 6.712m-19.634-22.84l-7.914 16.128m37.165-8.214l-9.617 14.926M673.39 259.96l27.649 6.811m-34.061 10.519l26.046 5.61m-19.634-22.94l-6.412 17.33m34.061-10.519l-8.015 16.129m-26.046-5.61l26.046 5.61m-32.357 11.62l24.343 4.508m-18.032-21.738l-6.31 17.23m32.356-11.62l-8.014 16.128m16.029-32.257l27.548 6.712m-35.563 9.417l26.047 5.61m-18.032-21.739l-8.015 16.129m35.563-9.417l-9.516 15.027m-26.047-5.61l26.047 5.61m-34.061 10.518l24.444 4.508m-16.43-20.636l-8.014 16.128m34.06-10.518l-9.616 15.026m19.133-30.053l27.65 6.812m-37.167 8.215l25.946 5.71m-16.429-20.737l-9.516 15.027m37.165-8.215l-11.22 13.925m-25.946-5.71l25.946 5.71m-35.562 9.316l24.443 4.508M719.07 288.51l-9.616 15.026m35.562-9.316l-11.12 13.824m22.34-27.749l27.649 6.712m-38.869 7.213l26.046 5.61m-14.826-19.535l-11.22 13.925m38.869-7.213l-12.823 12.823m-26.046-5.61l26.046 5.61m-37.165 8.214l24.443 4.508m-13.324-18.332l-11.12 13.824m37.166-8.214l-12.722 12.722m-48.886-9.016l24.443 4.508m-33.96 10.519l22.84 3.406m-13.323-18.433l-9.517 15.027m33.96-10.519l-11.12 13.925m-22.84-3.406l22.84 3.406M690.32 333.59l21.237 2.203m-11.62-17.23l-9.617 15.026m32.457-11.62l-11.22 13.824m22.34-27.749l24.443 4.508m-35.563 9.417l22.74 3.406m-11.62-17.331l-11.12 13.925m35.563-9.417l-12.823 12.823m-22.74-3.406l22.74 3.406m-33.96 10.418l21.238 2.304m-10.018-16.128l-11.22 13.824m33.96-10.418l-12.722 12.722"/></g></svg>