<?xml version="1.0" encoding="UTF-8" standalone="no"?>
<svg
   xmlns:dc="http://purl.org/dc/elements/1.1/"
   xmlns:cc="http://creativecommons.org/ns#"
   xmlns:rdf="http://www.w3.org/1999/02/22-rdf-syntax-ns#"
   xmlns:svg="http://www.w3.org/2000/svg"
   xmlns="http://www.w3.org/2000/svg"
   xmlns:sodipodi="http://sodipodi.sourceforge.net/DTD/sodipodi-0.dtd"
   xmlns:inkscape="http://www.inkscape.org/namespaces/inkscape"
   viewBox="0 0 928.29336 928.39303"
   version="1.2"
   id="svg626"
   sodipodi:docname="ball_1_q3.svg"
   inkscape:version="0.92.2 5c3e80d, 2017-08-06">
  <metadata
     id="metadata630">
    <rdf:RDF>
      <cc:Work
         rdf:about="">
        <dc:format>image/svg+xml</dc:format>
        <dc:type
           rdf:resource="http://purl.org/dc/dcmitype/StillImage" />
      </cc:Work>
    </rdf:RDF>
  </metadata>
  <sodipodi:namedview
     pagecolor="#ffffff"
     bordercolor="#666666"
     borderopacity="1"
     objecttolerance="10"
     gridtolerance="10"
     guidetolerance="10"
     inkscape:pageopacity="0"
     inkscape:pageshadow="2"
     inkscape:window-width="640"
     inkscape:window-height="480"
     id="namedview628"
     showgrid="false"
     inkscape:zoom="0.11484381"
     inkscape:cx="978.08606"
     inkscape:cy="619.3419"
     inkscape:window-x="0"
     inkscape:window-y="0"
     inkscape:window-maximized="0"
     inkscape:current-layer="svg626" />
  <title
     id="title500">Qt SVG Document</title>
  <desc
     id="desc502">Generated with Qt</desc>
  <defs
     id="defs504" />
  <g
     id="g624"
     style="fill:none;fill-rule:evenodd;stroke:#000000;stroke-width:1;stroke-linecap:square;stroke-linejoin:bevel"
     transform="translate(-226.43505,-13.113424)">
    <g
       font-size="9"
       font-weight="400"
       font-style="normal"
       id="g506"
       style="font-style:normal;font-weight:400;font-size:9px;font-family:'Sans Serif';fill:none;stroke:#000000;stroke-width:1;stroke-linecap:square;stroke-linejoin:bevel;stroke-opacity:1" />
    <g
       transform="scale(1.00104)"
       font-size="9"
       font-weight="400"
       font-style="normal"
       id="g508"
       style="font-style:normal;font-weight:400;font-size:9px;font-family:'Sans Serif';fill:none;stroke:#000000;stroke-width:1;stroke-linecap:square;stroke-linejoin:bevel;stroke-opacity:1" />
    <g
       transform="scale(1.00104)"
       font-size="9"
       font-weight="400"
       font-style="normal"
       id="g512"
       style="font-style:normal;font-weight:400;font-size:9px;font-family:'Sans Serif';fill:none;stroke:#000000;stroke-width:1;stroke-linecap:round;stroke-linejoin:round;stroke-opacity:1">
      <polyline
         points="228.5,15.5 228.5,15.5 228.5,938.5 1151.5,938.5 1151.5,15.5 228.5,15.5 "
         id="polyline510"
         style="vector-effect:none;fill:none" />
    </g>
    <g
       transform="scale(1.00104)"
       font-size="9"
       font-weight="400"
       font-style="normal"
       id="g514"
       style="font-style:normal;font-weight:400;font-size:9px;font-family:'Sans Serif';fill:none;stroke:#000000;stroke-width:1;stroke-linecap:square;stroke-linejoin:bevel;stroke-opacity:1" />
    <g
       transform="scale(1.00104)"
       font-size="9"
       font-weight="400"
       font-style="normal"
       id="g516"
       style="font-style:normal;font-weight:400;font-size:9px;font-family:'Sans Serif';fill:none;stroke:#000000;stroke-width:1;stroke-linecap:square;stroke-linejoin:bevel;stroke-opacity:1" />
    <g
       transform="scale(1.00104)"
       font-size="9"
       font-weight="400"
       font-style="normal"
       id="g518"
       style="font-style:normal;font-weight:400;font-size:9px;font-family:'Sans Serif';fill:none;stroke:#000000;stroke-width:1;stroke-linecap:square;stroke-linejoin:bevel;stroke-opacity:1" />
    <g
       transform="scale(1.00104)"
       font-size="9"
       font-weight="400"
       font-style="normal"
       id="g520"
       style="font-style:normal;font-weight:400;font-size:9px;font-family:'Sans Serif';fill:none;stroke:#000000;stroke-width:1;stroke-linecap:square;stroke-linejoin:bevel;stroke-opacity:1" />
    <g
       transform="scale(1.00104)"
       font-size="9"
       font-weight="400"
       font-style="normal"
       id="g610"
       style="font-style:normal;font-weight:400;font-size:9px;font-family:'Sans Serif';fill:none;stroke:#000000;stroke-width:4;stroke-linecap:round;stroke-linejoin:round;stroke-opacity:1">
      <polyline
         points="363.4,802.8 363.4,802.8 458.9,707.3 "
         id="polyline522"
         style="vector-effect:none;fill:none" />
      <polyline
         points="689.5,938.5 689.5,938.5 689.5,774.5 "
         id="polyline524"
         style="vector-effect:none;fill:none" />
      <polyline
         points="363.4,802.8 363.4,802.8 367.6,807 371.8,811.2 376.2,815.2 380.6,819.3 385,823.2 389.5,827.1 394,831 398.6,834.7 403.2,838.4 407.9,842.1 412.7,845.7 417.4,849.2 422.3,852.7 427.1,856.1 432,859.4 437,862.7 442,865.9 447,869.1 452.1,872.1 457.2,875.2 462.4,878.1 467.6,881 472.8,883.8 478.1,886.6 483.4,889.2 488.7,891.9 494.1,894.4 499.5,896.9 504.9,899.3 510.4,901.6 515.8,903.9 521.4,906.1 526.9,908.3 532.5,910.3 538.1,912.3 543.7,914.2 549.3,916.1 555,917.9 560.7,919.6 566.4,921.2 572.1,922.8 577.9,924.2 583.7,925.7 589.5,927 595.3,928.3 601.1,929.4 606.9,930.6 612.8,931.6 618.6,932.5 624.5,933.4 630.4,934.2 636.3,935 642.2,935.6 648.1,936.2 654,936.7 659.9,937.1 665.9,937.4 671.8,937.7 677.8,937.9 683.7,938 689.6,938 "
         id="polyline526"
         style="vector-effect:none;fill:none" />
      <polyline
         points="458.9,707.3 458.9,707.3 689.6,774.9 "
         id="polyline528"
         style="vector-effect:none;fill:none" />
      <polyline
         points="689.5,938.5 689.5,938.5 689.5,774.5 "
         id="polyline530"
         style="vector-effect:none;fill:none" />
      <polyline
         points="1015.9,802.8 1015.9,802.8 920.4,707.3 "
         id="polyline532"
         style="vector-effect:none;fill:none" />
      <polyline
         points="689.6,938 689.6,938 695.6,938 701.5,937.9 707.5,937.7 713.4,937.4 719.4,937.1 725.3,936.7 731.2,936.2 737.1,935.6 743,935 748.9,934.2 754.8,933.4 760.7,932.5 766.5,931.6 772.4,930.6 778.2,929.4 784,928.3 789.8,927 795.6,925.7 801.4,924.2 807.2,922.8 812.9,921.2 818.6,919.6 824.3,917.9 830,916.1 835.6,914.2 841.2,912.3 846.8,910.3 852.4,908.3 857.9,906.1 863.5,903.9 868.9,901.6 874.4,899.3 879.8,896.9 885.2,894.4 890.6,891.9 895.9,889.2 901.2,886.6 906.5,883.8 911.7,881 916.9,878.1 922.1,875.2 927.2,872.1 932.3,869.1 937.3,865.9 942.3,862.7 947.3,859.4 952.2,856.1 957,852.7 961.9,849.2 966.6,845.7 971.4,842.1 976.1,838.4 980.7,834.7 985.3,831 989.8,827.1 994.3,823.2 998.7,819.3 1003.1,815.2 1007.5,811.2 1011.7,807 1015.9,802.8 "
         id="polyline534"
         style="vector-effect:none;fill:none" />
      <polyline
         points="689.6,774.9 689.6,774.9 920.4,707.3 "
         id="polyline536"
         style="vector-effect:none;fill:none" />
      <polyline
         points="458.9,707.3 458.9,707.3 689.6,774.9 689.7,611.7 554.5,611.7 458.9,707.3 "
         id="polyline538"
         style="vector-effect:none;fill:none" />
      <polyline
         points="689.6,774.9 689.6,774.9 920.4,707.3 824.8,611.7 689.7,611.7 689.6,774.9 "
         id="polyline540"
         style="vector-effect:none;fill:none" />
      <polyline
         points="363.4,802.8 363.4,802.8 359.2,798.6 355,794.4 351,790 346.9,785.6 343,781.2 339.1,776.7 335.2,772.2 331.5,767.6 327.8,763 324.1,758.3 320.5,753.5 317,748.8 313.5,743.9 310.1,739.1 306.8,734.2 303.5,729.2 300.3,724.2 297.1,719.2 294.1,714.1 291,709 288.1,703.8 285.2,698.6 282.4,693.4 279.6,688.1 277,682.8 274.3,677.5 271.8,672.1 269.3,666.7 266.9,661.3 264.6,655.8 262.3,650.4 260.1,644.8 257.9,639.3 255.9,633.7 253.9,628.1 252,622.5 250.1,616.9 248.3,611.2 246.6,605.5 245,599.8 243.4,594.1 242,588.3 240.5,582.5 239.2,576.7 237.9,570.9 236.8,565.1 235.6,559.3 234.6,553.4 233.7,547.6 232.8,541.7 232,535.8 231.2,529.9 230.6,524 230,518.1 229.5,512.2 229.1,506.3 228.8,500.3 228.5,494.4 228.3,488.4 228.2,482.5 228.2,476.6 "
         id="polyline542"
         style="vector-effect:none;fill:none" />
      <polyline
         points="458.9,707.3 458.9,707.3 391.3,476.6 "
         id="polyline544"
         style="vector-effect:none;fill:none" />
      <polyline
         points="363.4,802.8 363.4,802.8 458.9,707.3 "
         id="polyline546"
         style="vector-effect:none;fill:none" />
      <polyline
         points="228.5,476.5 228.5,476.5 391.5,476.5 "
         id="polyline548"
         style="vector-effect:none;fill:none" />
      <polyline
         points="458.9,707.3 458.9,707.3 554.5,611.7 554.5,476.5 391.3,476.6 458.9,707.3 "
         id="polyline550"
         style="vector-effect:none;fill:none" />
      <polyline
         points="228.2,476.6 228.2,476.6 228.2,470.6 228.3,464.7 228.5,458.7 228.8,452.8 229.1,446.8 229.5,440.9 230,435 230.6,429.1 231.2,423.2 232,417.3 232.8,411.4 233.7,405.5 234.6,399.7 235.6,393.8 236.8,388 237.9,382.2 239.2,376.4 240.5,370.6 242,364.8 243.4,359 245,353.3 246.6,347.6 248.3,341.9 250.1,336.2 252,330.6 253.9,325 255.9,319.4 257.9,313.8 260.1,308.3 262.3,302.7 264.6,297.3 266.9,291.8 269.3,286.4 271.8,281 274.3,275.6 277,270.3 279.6,265 282.4,259.7 285.2,254.5 288.1,249.3 291,244.1 294.1,239 297.1,233.9 300.3,228.9 303.5,223.9 306.8,218.9 310.1,214 313.5,209.2 317,204.3 320.5,199.6 324.1,194.8 327.8,190.1 331.5,185.5 335.2,180.9 339.1,176.4 343,171.9 346.9,167.5 351,163.1 355,158.7 359.2,154.5 363.4,150.3 "
         id="polyline552"
         style="vector-effect:none;fill:none" />
      <polyline
         points="391.3,476.6 391.3,476.6 458.9,245.8 "
         id="polyline554"
         style="vector-effect:none;fill:none" />
      <polyline
         points="228.5,476.5 228.5,476.5 391.5,476.5 "
         id="polyline556"
         style="vector-effect:none;fill:none" />
      <polyline
         points="363.4,150.3 363.4,150.3 458.9,245.8 "
         id="polyline558"
         style="vector-effect:none;fill:none" />
      <polyline
         points="391.3,476.6 391.3,476.6 554.5,476.5 554.5,341.4 458.9,245.8 391.3,476.6 "
         id="polyline560"
         style="vector-effect:none;fill:none" />
      <polyline
         points="554.5,611.5 554.5,611.5 689.5,611.5 689.5,476.5 554.5,476.5 554.5,611.5 "
         id="polyline562"
         style="vector-effect:none;fill:none" />
      <polyline
         points="689.5,611.5 689.5,611.5 824.5,611.5 824.5,476.5 689.5,476.5 689.5,611.5 "
         id="polyline564"
         style="vector-effect:none;fill:none" />
      <polyline
         points="554.5,476.5 554.5,476.5 689.5,476.5 689.5,341.5 554.5,341.5 554.5,476.5 "
         id="polyline566"
         style="vector-effect:none;fill:none" />
      <polyline
         points="689.5,476.5 689.5,476.5 824.5,476.5 824.5,341.5 689.5,341.5 689.5,476.5 "
         id="polyline568"
         style="vector-effect:none;fill:none" />
      <polyline
         points="1015.9,802.8 1015.9,802.8 920.4,707.3 "
         id="polyline570"
         style="vector-effect:none;fill:none" />
      <polyline
         points="1151.5,476.5 1151.5,476.5 988.5,476.5 "
         id="polyline572"
         style="vector-effect:none;fill:none" />
      <polyline
         points="1015.9,802.8 1015.9,802.8 1020.1,798.6 1024.3,794.4 1028.3,790 1032.4,785.6 1036.3,781.2 1040.2,776.7 1044.1,772.2 1047.8,767.6 1051.5,763 1055.2,758.3 1058.8,753.5 1062.3,748.8 1065.8,743.9 1069.2,739.1 1072.5,734.2 1075.8,729.2 1079,724.2 1082.2,719.2 1085.2,714.1 1088.3,709 1091.2,703.8 1094.1,698.6 1096.9,693.4 1099.7,688.1 1102.3,682.8 1105,677.5 1107.5,672.1 1110,666.7 1112.4,661.3 1114.7,655.8 1117,650.4 1119.2,644.8 1121.4,639.3 1123.4,633.7 1125.4,628.1 1127.3,622.5 1129.2,616.9 1131,611.2 1132.7,605.5 1134.3,599.8 1135.9,594.1 1137.3,588.3 1138.8,582.5 1140.1,576.7 1141.4,570.9 1142.5,565.1 1143.7,559.3 1144.7,553.4 1145.6,547.6 1146.5,541.7 1147.3,535.8 1148.1,529.9 1148.7,524 1149.3,518.1 1149.8,512.2 1150.2,506.3 1150.5,500.3 1150.8,494.4 1151,488.4 1151.1,482.5 1151.1,476.6 "
         id="polyline574"
         style="vector-effect:none;fill:none" />
      <polyline
         points="920.4,707.3 920.4,707.3 988,476.6 "
         id="polyline576"
         style="vector-effect:none;fill:none" />
      <polyline
         points="1151.5,476.5 1151.5,476.5 988.5,476.5 "
         id="polyline578"
         style="vector-effect:none;fill:none" />
      <polyline
         points="1015.9,150.3 1015.9,150.3 920.4,245.8 "
         id="polyline580"
         style="vector-effect:none;fill:none" />
      <polyline
         points="1151.1,476.6 1151.1,476.6 1151.1,470.6 1151,464.7 1150.8,458.7 1150.5,452.8 1150.2,446.8 1149.8,440.9 1149.3,435 1148.7,429.1 1148.1,423.2 1147.3,417.3 1146.5,411.4 1145.6,405.5 1144.7,399.7 1143.7,393.8 1142.5,388 1141.4,382.2 1140.1,376.4 1138.8,370.6 1137.3,364.8 1135.9,359 1134.3,353.3 1132.7,347.6 1131,341.9 1129.2,336.2 1127.3,330.6 1125.4,325 1123.4,319.4 1121.4,313.8 1119.2,308.3 1117,302.7 1114.7,297.3 1112.4,291.8 1110,286.4 1107.5,281 1105,275.6 1102.3,270.3 1099.7,265 1096.9,259.7 1094.1,254.5 1091.2,249.3 1088.3,244.1 1085.2,239 1082.2,233.9 1079,228.9 1075.8,223.9 1072.5,218.9 1069.2,214 1065.8,209.2 1062.3,204.3 1058.8,199.6 1055.2,194.8 1051.5,190.1 1047.8,185.5 1044.1,180.9 1040.2,176.4 1036.3,171.9 1032.4,167.5 1028.3,163.1 1024.3,158.7 1020.1,154.5 1015.9,150.3 "
         id="polyline582"
         style="vector-effect:none;fill:none" />
      <polyline
         points="988,476.6 988,476.6 920.4,245.8 "
         id="polyline584"
         style="vector-effect:none;fill:none" />
      <polyline
         points="920.4,707.3 920.4,707.3 988,476.6 824.8,476.5 824.8,611.7 920.4,707.3 "
         id="polyline586"
         style="vector-effect:none;fill:none" />
      <polyline
         points="988,476.6 988,476.6 920.4,245.8 824.8,341.4 824.8,476.5 988,476.6 "
         id="polyline588"
         style="vector-effect:none;fill:none" />
      <polyline
         points="363.4,150.3 363.4,150.3 367.6,146.1 371.8,141.9 376.2,137.9 380.6,133.8 385,129.9 389.5,126 394,122.1 398.6,118.4 403.2,114.7 407.9,111 412.7,107.4 417.4,103.9 422.3,100.4 427.1,97 432,93.7 437,90.4 442,87.2 447,84 452.1,81 457.2,77.9 462.4,75 467.6,72.1 472.8,69.3 478.1,66.5 483.4,63.9 488.7,61.2 494.1,58.7 499.5,56.2 504.9,53.8 510.4,51.5 515.8,49.2 521.4,47 526.9,44.8 532.5,42.8 538.1,40.8 543.7,38.9 549.3,37 555,35.2 560.7,33.5 566.4,31.9 572.1,30.3 577.9,28.9 583.7,27.4 589.5,26.1 595.3,24.8 601.1,23.7 606.9,22.5 612.8,21.5 618.6,20.6 624.5,19.7 630.4,18.9 636.3,18.1 642.2,17.5 648.1,16.9 654,16.4 659.9,16 665.9,15.7 671.8,15.4 677.8,15.2 683.7,15.1 689.6,15.1 "
         id="polyline590"
         style="vector-effect:none;fill:none" />
      <polyline
         points="458.9,245.8 458.9,245.8 689.6,178.2 "
         id="polyline592"
         style="vector-effect:none;fill:none" />
      <polyline
         points="363.4,150.3 363.4,150.3 458.9,245.8 "
         id="polyline594"
         style="vector-effect:none;fill:none" />
      <polyline
         points="689.5,15.5 689.5,15.5 689.5,178.5 "
         id="polyline596"
         style="vector-effect:none;fill:none" />
      <polyline
         points="458.9,245.8 458.9,245.8 554.5,341.4 689.7,341.4 689.6,178.2 458.9,245.8 "
         id="polyline598"
         style="vector-effect:none;fill:none" />
      <polyline
         points="689.6,15.1 689.6,15.1 695.6,15.1 701.5,15.2 707.5,15.4 713.4,15.7 719.4,16 725.3,16.4 731.2,16.9 737.1,17.5 743,18.1 748.9,18.9 754.8,19.7 760.7,20.6 766.5,21.5 772.4,22.5 778.2,23.7 784,24.8 789.8,26.1 795.6,27.4 801.4,28.9 807.2,30.3 812.9,31.9 818.6,33.5 824.3,35.2 830,37 835.6,38.9 841.2,40.8 846.8,42.8 852.4,44.8 857.9,47 863.5,49.2 868.9,51.5 874.4,53.8 879.8,56.2 885.2,58.7 890.6,61.2 895.9,63.9 901.2,66.5 906.5,69.3 911.7,72.1 916.9,75 922.1,77.9 927.2,81 932.3,84 937.3,87.2 942.3,90.4 947.3,93.7 952.2,97 957,100.4 961.9,103.9 966.6,107.4 971.4,111 976.1,114.7 980.7,118.4 985.3,122.1 989.8,126 994.3,129.9 998.7,133.8 1003.1,137.9 1007.5,141.9 1011.7,146.1 1015.9,150.3 "
         id="polyline600"
         style="vector-effect:none;fill:none" />
      <polyline
         points="689.6,178.2 689.6,178.2 920.4,245.8 "
         id="polyline602"
         style="vector-effect:none;fill:none" />
      <polyline
         points="689.5,15.5 689.5,15.5 689.5,178.5 "
         id="polyline604"
         style="vector-effect:none;fill:none" />
      <polyline
         points="1015.9,150.3 1015.9,150.3 920.4,245.8 "
         id="polyline606"
         style="vector-effect:none;fill:none" />
      <polyline
         points="689.6,178.2 689.6,178.2 689.7,341.4 824.8,341.4 920.4,245.8 689.6,178.2 "
         id="polyline608"
         style="vector-effect:none;fill:none" />
    </g>
    <g
       transform="scale(1.00104)"
       font-size="9"
       font-weight="400"
       font-style="normal"
       id="g612"
       style="font-style:normal;font-weight:400;font-size:9px;font-family:'Sans Serif';fill:none;stroke:#000000;stroke-width:1;stroke-linecap:square;stroke-linejoin:bevel;stroke-opacity:1" />
    <g
       transform="scale(1.00104)"
       font-size="9"
       font-weight="400"
       font-style="normal"
       id="g614"
       style="font-style:normal;font-weight:400;font-size:9px;font-family:'Sans Serif';fill:none;stroke:#000000;stroke-width:1;stroke-linecap:square;stroke-linejoin:bevel;stroke-opacity:1" />
    <g
       transform="scale(1.00104)"
       font-size="9"
       font-weight="400"
       font-style="normal"
       id="g618"
       style="font-style:normal;font-weight:400;font-size:9px;font-family:'Sans Serif';fill:none;stroke:#000000;stroke-width:1;stroke-linecap:round;stroke-linejoin:round;stroke-opacity:1">
      <polyline
         points="228.5,15.5 228.5,938.5 1151.5,938.5 1151.5,15.5 228.5,15.5 "
         id="polyline616"
         style="vector-effect:none;fill:none" />
    </g>
    <g
       transform="scale(1.00104)"
       font-size="9"
       font-weight="400"
       font-style="normal"
       id="g620"
       style="font-style:normal;font-weight:400;font-size:9px;font-family:'Sans Serif';fill:none;stroke:#000000;stroke-width:1;stroke-linecap:square;stroke-linejoin:bevel;stroke-opacity:1" />
    <g
       font-size="9"
       font-weight="400"
       font-style="normal"
       id="g622"
       style="font-style:normal;font-weight:400;font-size:9px;font-family:'Sans Serif';fill:none;stroke:#000000;stroke-width:1;stroke-linecap:square;stroke-linejoin:bevel;stroke-opacity:1" />
  </g>
</svg>
