<?xml version="1.0" encoding="UTF-8" standalone="no"?>
<svg
   xmlns:dc="http://purl.org/dc/elements/1.1/"
   xmlns:cc="http://creativecommons.org/ns#"
   xmlns:rdf="http://www.w3.org/1999/02/22-rdf-syntax-ns#"
   xmlns:svg="http://www.w3.org/2000/svg"
   xmlns="http://www.w3.org/2000/svg"
   xmlns:sodipodi="http://sodipodi.sourceforge.net/DTD/sodipodi-0.dtd"
   xmlns:inkscape="http://www.inkscape.org/namespaces/inkscape"
   viewBox="0 0 925.26147 925.36115"
   version="1.2"
   id="svg230"
   sodipodi:docname="ball_0_q3.svg"
   inkscape:version="0.92.2 5c3e80d, 2017-08-06">
  <metadata
     id="metadata234">
    <rdf:RDF>
      <cc:Work
         rdf:about="">
        <dc:format>image/svg+xml</dc:format>
        <dc:type
           rdf:resource="http://purl.org/dc/dcmitype/StillImage" />
      </cc:Work>
    </rdf:RDF>
  </metadata>
  <sodipodi:namedview
     pagecolor="#ffffff"
     bordercolor="#666666"
     borderopacity="1"
     objecttolerance="10"
     gridtolerance="10"
     guidetolerance="10"
     inkscape:pageopacity="0"
     inkscape:pageshadow="2"
     inkscape:window-width="640"
     inkscape:window-height="480"
     id="namedview232"
     showgrid="false"
     inkscape:zoom="0.11484381"
     inkscape:cx="976.08371"
     inkscape:cy="617.3018"
     inkscape:window-x="0"
     inkscape:window-y="0"
     inkscape:window-maximized="0"
     inkscape:current-layer="svg230" />
  <title
     id="title158">Qt SVG Document</title>
  <desc
     id="desc160">Generated with Qt</desc>
  <defs
     id="defs162" />
  <g
     id="g228"
     style="fill:none;fill-rule:evenodd;stroke:#000000;stroke-width:1;stroke-linecap:square;stroke-linejoin:bevel"
     transform="translate(-227.93681,-14.615184)">
    <g
       font-size="9"
       font-weight="400"
       font-style="normal"
       id="g164"
       style="font-style:normal;font-weight:400;font-size:9px;font-family:'Sans Serif';fill:none;stroke:#000000;stroke-width:1;stroke-linecap:square;stroke-linejoin:bevel;stroke-opacity:1" />
    <g
       transform="scale(1.00104)"
       font-size="9"
       font-weight="400"
       font-style="normal"
       id="g166"
       style="font-style:normal;font-weight:400;font-size:9px;font-family:'Sans Serif';fill:none;stroke:#000000;stroke-width:1;stroke-linecap:square;stroke-linejoin:bevel;stroke-opacity:1" />
    <g
       transform="scale(1.00104)"
       font-size="9"
       font-weight="400"
       font-style="normal"
       id="g170"
       style="font-style:normal;font-weight:400;font-size:9px;font-family:'Sans Serif';fill:none;stroke:#000000;stroke-width:1;stroke-linecap:round;stroke-linejoin:round;stroke-opacity:1">
      <polyline
         points="228.5,15.5 228.5,15.5 228.5,938.5 1151.5,938.5 1151.5,15.5 228.5,15.5 "
         id="polyline168"
         style="vector-effect:none;fill:none" />
    </g>
    <g
       transform="scale(1.00104)"
       font-size="9"
       font-weight="400"
       font-style="normal"
       id="g172"
       style="font-style:normal;font-weight:400;font-size:9px;font-family:'Sans Serif';fill:none;stroke:#000000;stroke-width:1;stroke-linecap:square;stroke-linejoin:bevel;stroke-opacity:1" />
    <g
       transform="scale(1.00104)"
       font-size="9"
       font-weight="400"
       font-style="normal"
       id="g174"
       style="font-style:normal;font-weight:400;font-size:9px;font-family:'Sans Serif';fill:none;stroke:#000000;stroke-width:1;stroke-linecap:square;stroke-linejoin:bevel;stroke-opacity:1" />
    <g
       transform="scale(1.00104)"
       font-size="9"
       font-weight="400"
       font-style="normal"
       id="g176"
       style="font-style:normal;font-weight:400;font-size:9px;font-family:'Sans Serif';fill:none;stroke:#000000;stroke-width:1;stroke-linecap:square;stroke-linejoin:bevel;stroke-opacity:1" />
    <g
       transform="scale(1.00104)"
       font-size="9"
       font-weight="400"
       font-style="normal"
       id="g178"
       style="font-style:normal;font-weight:400;font-size:9px;font-family:'Sans Serif';fill:none;stroke:#000000;stroke-width:1;stroke-linecap:square;stroke-linejoin:bevel;stroke-opacity:1" />
    <g
       transform="scale(1.00104)"
       font-size="9"
       font-weight="400"
       font-style="normal"
       id="g214"
       style="font-style:normal;font-weight:400;font-size:9px;font-family:'Sans Serif';fill:none;stroke:#000000;stroke-width:4;stroke-linecap:round;stroke-linejoin:round;stroke-opacity:1">
      <polyline
         points="363.4,802.8 363.4,802.8 554.5,611.7 "
         id="polyline180"
         style="vector-effect:none;fill:none" />
      <polyline
         points="1015.9,802.8 1015.9,802.8 824.8,611.7 "
         id="polyline182"
         style="vector-effect:none;fill:none" />
      <polyline
         points="363.4,802.8 363.4,802.8 371.8,811.5 380.5,819.8 389.4,827.9 398.5,835.6 407.8,843.1 417.3,850.3 427,857.2 436.9,863.8 446.9,870.1 457.1,876.2 467.5,881.9 478,887.4 488.6,892.5 499.4,897.4 510.3,902 521.3,906.3 532.4,910.4 543.7,914.1 555,917.6 566.4,920.7 577.9,923.6 589.5,926.2 601.1,928.5 612.8,930.5 624.5,932.2 636.3,933.7 648.1,934.8 660,935.7 671.8,936.2 683.7,936.5 695.6,936.5 707.5,936.2 719.3,935.7 731.2,934.8 743,933.7 754.8,932.2 766.5,930.5 778.2,928.5 789.8,926.2 801.4,923.6 812.9,920.7 824.3,917.6 835.6,914.1 846.9,910.4 858,906.3 869,902 879.9,897.4 890.7,892.5 901.3,887.4 911.8,881.9 922.2,876.2 932.4,870.1 942.4,863.8 952.3,857.2 962,850.3 971.5,843.1 980.8,835.6 989.9,827.9 998.8,819.8 1007.5,811.5 1015.9,802.8 "
         id="polyline184"
         style="vector-effect:none;fill:none" />
      <polyline
         points="554.5,611.5 554.5,611.5 824.5,611.5 "
         id="polyline186"
         style="vector-effect:none;fill:none" />
      <polyline
         points="363.4,802.8 363.4,802.8 354.7,794.4 346.4,785.7 338.3,776.8 330.6,767.7 323.1,758.4 315.9,748.9 309,739.2 302.4,729.3 296.1,719.3 290,709.1 284.3,698.7 278.8,688.2 273.7,677.6 268.8,666.8 264.2,655.9 259.9,644.9 255.8,633.8 252.1,622.5 248.6,611.2 245.5,599.8 242.6,588.3 240,576.7 237.7,565.1 235.7,553.4 234,541.7 232.5,529.9 231.4,518.1 230.5,506.2 230,494.4 229.7,482.5 229.7,470.6 230,458.7 230.5,446.9 231.4,435 232.5,423.2 234,411.4 235.7,399.7 237.7,388 240,376.4 242.6,364.8 245.5,353.3 248.6,341.9 252.1,330.6 255.8,319.3 259.9,308.2 264.2,297.2 268.8,286.3 273.7,275.5 278.8,264.9 284.3,254.4 290,244 296.1,233.8 302.4,223.8 309,213.9 315.9,204.2 323.1,194.7 330.6,185.4 338.3,176.3 346.4,167.4 354.7,158.7 363.4,150.3 "
         id="polyline188"
         style="vector-effect:none;fill:none" />
      <polyline
         points="554.5,611.5 554.5,611.5 554.5,341.5 "
         id="polyline190"
         style="vector-effect:none;fill:none" />
      <polyline
         points="363.4,802.8 363.4,802.8 554.5,611.7 "
         id="polyline192"
         style="vector-effect:none;fill:none" />
      <polyline
         points="363.4,150.3 363.4,150.3 554.5,341.4 "
         id="polyline194"
         style="vector-effect:none;fill:none" />
      <polyline
         points="554.5,611.5 554.5,611.5 824.5,611.5 824.5,341.5 554.5,341.5 554.5,611.5 "
         id="polyline196"
         style="vector-effect:none;fill:none" />
      <polyline
         points="1015.9,802.8 1015.9,802.8 824.8,611.7 "
         id="polyline198"
         style="vector-effect:none;fill:none" />
      <polyline
         points="1015.9,150.3 1015.9,150.3 824.8,341.4 "
         id="polyline200"
         style="vector-effect:none;fill:none" />
      <polyline
         points="1015.9,802.8 1015.9,802.8 1024.6,794.4 1032.9,785.7 1041,776.8 1048.7,767.7 1056.2,758.4 1063.4,748.9 1070.3,739.2 1076.9,729.3 1083.2,719.3 1089.3,709.1 1095,698.7 1100.5,688.2 1105.6,677.6 1110.5,666.8 1115.1,655.9 1119.4,644.9 1123.5,633.8 1127.2,622.5 1130.7,611.2 1133.8,599.8 1136.7,588.3 1139.3,576.7 1141.6,565.1 1143.6,553.4 1145.3,541.7 1146.8,529.9 1147.9,518.1 1148.8,506.2 1149.3,494.4 1149.6,482.5 1149.6,470.6 1149.3,458.7 1148.8,446.9 1147.9,435 1146.8,423.2 1145.3,411.4 1143.6,399.7 1141.6,388 1139.3,376.4 1136.7,364.8 1133.8,353.3 1130.7,341.9 1127.2,330.6 1123.5,319.3 1119.4,308.2 1115.1,297.2 1110.5,286.3 1105.6,275.5 1100.5,264.9 1095,254.4 1089.3,244 1083.2,233.8 1076.9,223.8 1070.3,213.9 1063.4,204.2 1056.2,194.7 1048.7,185.4 1041,176.3 1032.9,167.4 1024.6,158.7 1015.9,150.3 "
         id="polyline202"
         style="vector-effect:none;fill:none" />
      <polyline
         points="824.5,611.5 824.5,611.5 824.5,341.5 "
         id="polyline204"
         style="vector-effect:none;fill:none" />
      <polyline
         points="363.4,150.3 363.4,150.3 371.8,141.6 380.5,133.3 389.4,125.2 398.5,117.5 407.8,110 417.3,102.8 427,95.9 436.9,89.3 446.9,83 457.1,76.9 467.5,71.2 478,65.7 488.6,60.6 499.4,55.7 510.3,51.1 521.3,46.8 532.4,42.7 543.7,39 555,35.5 566.4,32.4 577.9,29.5 589.5,26.9 601.1,24.6 612.8,22.6 624.5,20.9 636.3,19.4 648.1,18.3 660,17.4 671.8,16.9 683.7,16.6 695.6,16.6 707.5,16.9 719.3,17.4 731.2,18.3 743,19.4 754.8,20.9 766.5,22.6 778.2,24.6 789.8,26.9 801.4,29.5 812.9,32.4 824.3,35.5 835.6,39 846.9,42.7 858,46.8 869,51.1 879.9,55.7 890.7,60.6 901.3,65.7 911.8,71.2 922.2,76.9 932.4,83 942.4,89.3 952.3,95.9 962,102.8 971.5,110 980.8,117.5 989.9,125.2 998.8,133.3 1007.5,141.6 1015.9,150.3 "
         id="polyline206"
         style="vector-effect:none;fill:none" />
      <polyline
         points="554.5,341.5 554.5,341.5 824.5,341.5 "
         id="polyline208"
         style="vector-effect:none;fill:none" />
      <polyline
         points="363.4,150.3 363.4,150.3 554.5,341.4 "
         id="polyline210"
         style="vector-effect:none;fill:none" />
      <polyline
         points="1015.9,150.3 1015.9,150.3 824.8,341.4 "
         id="polyline212"
         style="vector-effect:none;fill:none" />
    </g>
    <g
       transform="scale(1.00104)"
       font-size="9"
       font-weight="400"
       font-style="normal"
       id="g216"
       style="font-style:normal;font-weight:400;font-size:9px;font-family:'Sans Serif';fill:none;stroke:#000000;stroke-width:1;stroke-linecap:square;stroke-linejoin:bevel;stroke-opacity:1" />
    <g
       transform="scale(1.00104)"
       font-size="9"
       font-weight="400"
       font-style="normal"
       id="g218"
       style="font-style:normal;font-weight:400;font-size:9px;font-family:'Sans Serif';fill:none;stroke:#000000;stroke-width:1;stroke-linecap:square;stroke-linejoin:bevel;stroke-opacity:1" />
    <g
       transform="scale(1.00104)"
       font-size="9"
       font-weight="400"
       font-style="normal"
       id="g222"
       style="font-style:normal;font-weight:400;font-size:9px;font-family:'Sans Serif';fill:none;stroke:#000000;stroke-width:1;stroke-linecap:round;stroke-linejoin:round;stroke-opacity:1">
      <polyline
         points="228.5,15.5 228.5,938.5 1151.5,938.5 1151.5,15.5 228.5,15.5 "
         id="polyline220"
         style="vector-effect:none;fill:none" />
    </g>
    <g
       transform="scale(1.00104)"
       font-size="9"
       font-weight="400"
       font-style="normal"
       id="g224"
       style="font-style:normal;font-weight:400;font-size:9px;font-family:'Sans Serif';fill:none;stroke:#000000;stroke-width:1;stroke-linecap:square;stroke-linejoin:bevel;stroke-opacity:1" />
    <g
       font-size="9"
       font-weight="400"
       font-style="normal"
       id="g226"
       style="font-style:normal;font-weight:400;font-size:9px;font-family:'Sans Serif';fill:none;stroke:#000000;stroke-width:1;stroke-linecap:square;stroke-linejoin:bevel;stroke-opacity:1" />
  </g>
</svg>
