<?xml version="1.0" encoding="UTF-8" standalone="no"?>
<svg
   xmlns:dc="http://purl.org/dc/elements/1.1/"
   xmlns:cc="http://creativecommons.org/ns#"
   xmlns:rdf="http://www.w3.org/1999/02/22-rdf-syntax-ns#"
   xmlns:svg="http://www.w3.org/2000/svg"
   xmlns="http://www.w3.org/2000/svg"
   xmlns:sodipodi="http://sodipodi.sourceforge.net/DTD/sodipodi-0.dtd"
   xmlns:inkscape="http://www.inkscape.org/namespaces/inkscape"
   viewBox="0 0 927.8642 927.86378"
   version="1.2"
   id="svg152"
   sodipodi:docname="ball_0_q2.svg"
   inkscape:version="0.92.2 5c3e80d, 2017-08-06">
  <metadata
     id="metadata156">
    <rdf:RDF>
      <cc:Work
         rdf:about="">
        <dc:format>image/svg+xml</dc:format>
        <dc:type
           rdf:resource="http://purl.org/dc/dcmitype/StillImage" />
      </cc:Work>
    </rdf:RDF>
  </metadata>
  <sodipodi:namedview
     pagecolor="#ffffff"
     bordercolor="#666666"
     borderopacity="1"
     objecttolerance="10"
     gridtolerance="10"
     guidetolerance="10"
     inkscape:pageopacity="0"
     inkscape:pageshadow="2"
     inkscape:window-width="640"
     inkscape:window-height="480"
     id="namedview154"
     showgrid="false"
     inkscape:zoom="0.11484381"
     inkscape:cx="978.08579"
     inkscape:cy="618.63652"
     inkscape:window-x="0"
     inkscape:window-y="0"
     inkscape:window-maximized="0"
     inkscape:current-layer="svg152" />
  <title
     id="title80">Qt SVG Document</title>
  <desc
     id="desc82">Generated with Qt</desc>
  <defs
     id="defs84" />
  <g
     id="g150"
     style="fill:none;fill-rule:evenodd;stroke:#000000;stroke-width:1;stroke-linecap:square;stroke-linejoin:bevel"
     transform="translate(-226.43525,-13.113624)">
    <g
       font-size="9"
       font-weight="400"
       font-style="normal"
       id="g86"
       style="font-style:normal;font-weight:400;font-size:9px;font-family:'Sans Serif';fill:none;stroke:#000000;stroke-width:1;stroke-linecap:square;stroke-linejoin:bevel;stroke-opacity:1" />
    <g
       transform="scale(1.00104)"
       font-size="9"
       font-weight="400"
       font-style="normal"
       id="g88"
       style="font-style:normal;font-weight:400;font-size:9px;font-family:'Sans Serif';fill:none;stroke:#000000;stroke-width:1;stroke-linecap:square;stroke-linejoin:bevel;stroke-opacity:1" />
    <g
       transform="scale(1.00104)"
       font-size="9"
       font-weight="400"
       font-style="normal"
       id="g92"
       style="font-style:normal;font-weight:400;font-size:9px;font-family:'Sans Serif';fill:none;stroke:#000000;stroke-width:1;stroke-linecap:round;stroke-linejoin:round;stroke-opacity:1">
      <polyline
         points="228.5,15.5 228.5,15.5 228.5,938.5 1151.5,938.5 1151.5,15.5 228.5,15.5 "
         id="polyline90"
         style="vector-effect:none;fill:none" />
    </g>
    <g
       transform="scale(1.00104)"
       font-size="9"
       font-weight="400"
       font-style="normal"
       id="g94"
       style="font-style:normal;font-weight:400;font-size:9px;font-family:'Sans Serif';fill:none;stroke:#000000;stroke-width:1;stroke-linecap:square;stroke-linejoin:bevel;stroke-opacity:1" />
    <g
       transform="scale(1.00104)"
       font-size="9"
       font-weight="400"
       font-style="normal"
       id="g96"
       style="font-style:normal;font-weight:400;font-size:9px;font-family:'Sans Serif';fill:none;stroke:#000000;stroke-width:1;stroke-linecap:square;stroke-linejoin:bevel;stroke-opacity:1" />
    <g
       transform="scale(1.00104)"
       font-size="9"
       font-weight="400"
       font-style="normal"
       id="g98"
       style="font-style:normal;font-weight:400;font-size:9px;font-family:'Sans Serif';fill:none;stroke:#000000;stroke-width:1;stroke-linecap:square;stroke-linejoin:bevel;stroke-opacity:1" />
    <g
       transform="scale(1.00104)"
       font-size="9"
       font-weight="400"
       font-style="normal"
       id="g100"
       style="font-style:normal;font-weight:400;font-size:9px;font-family:'Sans Serif';fill:none;stroke:#000000;stroke-width:1;stroke-linecap:square;stroke-linejoin:bevel;stroke-opacity:1" />
    <g
       transform="scale(1.00104)"
       font-size="9"
       font-weight="400"
       font-style="normal"
       id="g136"
       style="font-style:normal;font-weight:400;font-size:9px;font-family:'Sans Serif';fill:none;stroke:#000000;stroke-width:4;stroke-linecap:round;stroke-linejoin:round;stroke-opacity:1">
      <polyline
         points="363.4,802.8 363.4,802.8 554.5,611.7 "
         id="polyline102"
         style="vector-effect:none;fill:none" />
      <polyline
         points="1015.9,802.8 1015.9,802.8 824.8,611.7 "
         id="polyline104"
         style="vector-effect:none;fill:none" />
      <polyline
         points="363.4,802.8 363.4,802.8 374.1,811.6 384.8,820 395.5,828.1 406.1,836 416.8,843.5 427.5,850.8 438.2,857.8 448.9,864.4 459.6,870.8 470.3,876.9 481,882.8 491.7,888.3 502.4,893.5 513.1,898.4 523.8,903.1 534.5,907.5 545.2,911.5 555.9,915.3 566.6,918.8 577.3,922 588,924.9 598.7,927.5 609.4,929.8 620.1,931.9 630.8,933.6 641.5,935.1 652.2,936.2 662.9,937.1 673.6,937.7 684.3,938 695,938 705.7,937.7 716.4,937.1 727.1,936.2 737.8,935.1 748.5,933.6 759.2,931.9 769.9,929.8 780.6,927.5 791.3,924.9 802,922 812.7,918.8 823.4,915.3 834.1,911.5 844.8,907.5 855.5,903.1 866.2,898.4 876.9,893.5 887.6,888.3 898.3,882.8 909,876.9 919.7,870.8 930.4,864.4 941.1,857.8 951.8,850.8 962.5,843.5 973.2,836 983.8,828.1 994.5,820 1005.2,811.6 1015.9,802.8 "
         id="polyline106"
         style="vector-effect:none;fill:none" />
      <polyline
         points="554.5,611.5 554.5,611.5 824.5,611.5 "
         id="polyline108"
         style="vector-effect:none;fill:none" />
      <polyline
         points="363.4,802.8 363.4,802.8 354.6,792.1 346.2,781.4 338.1,770.7 330.2,760.1 322.7,749.4 315.4,738.7 308.4,728 301.8,717.3 295.4,706.6 289.3,695.9 283.4,685.2 277.9,674.5 272.7,663.8 267.8,653.1 263.1,642.4 258.7,631.7 254.7,621 250.9,610.3 247.4,599.6 244.2,588.9 241.3,578.2 238.7,567.5 236.4,556.8 234.3,546.1 232.6,535.4 231.1,524.7 230,514 229.1,503.3 228.5,492.6 228.2,481.9 228.2,471.2 228.5,460.5 229.1,449.8 230,439.1 231.1,428.4 232.6,417.7 234.3,407 236.4,396.3 238.7,385.6 241.3,374.9 244.2,364.2 247.4,353.5 250.9,342.8 254.7,332.1 258.7,321.4 263.1,310.7 267.8,300 272.7,289.3 277.9,278.6 283.4,267.9 289.3,257.2 295.4,246.5 301.8,235.8 308.4,225.1 315.4,214.4 322.7,203.7 330.2,193 338.1,182.4 346.2,171.7 354.6,161 363.4,150.3 "
         id="polyline110"
         style="vector-effect:none;fill:none" />
      <polyline
         points="554.5,611.5 554.5,611.5 554.5,341.5 "
         id="polyline112"
         style="vector-effect:none;fill:none" />
      <polyline
         points="363.4,802.8 363.4,802.8 554.5,611.7 "
         id="polyline114"
         style="vector-effect:none;fill:none" />
      <polyline
         points="363.4,150.3 363.4,150.3 554.5,341.4 "
         id="polyline116"
         style="vector-effect:none;fill:none" />
      <polyline
         points="554.5,611.5 554.5,611.5 824.5,611.5 824.5,341.5 554.5,341.5 554.5,611.5 "
         id="polyline118"
         style="vector-effect:none;fill:none" />
      <polyline
         points="1015.9,802.8 1015.9,802.8 824.8,611.7 "
         id="polyline120"
         style="vector-effect:none;fill:none" />
      <polyline
         points="1015.9,150.3 1015.9,150.3 824.8,341.4 "
         id="polyline122"
         style="vector-effect:none;fill:none" />
      <polyline
         points="1015.9,802.8 1015.9,802.8 1024.7,792.1 1033.1,781.4 1041.2,770.7 1049.1,760.1 1056.6,749.4 1063.9,738.7 1070.9,728 1077.5,717.3 1083.9,706.6 1090,695.9 1095.9,685.2 1101.4,674.5 1106.6,663.8 1111.5,653.1 1116.2,642.4 1120.6,631.7 1124.6,621 1128.4,610.3 1131.9,599.6 1135.1,588.9 1138,578.2 1140.6,567.5 1142.9,556.8 1145,546.1 1146.7,535.4 1148.2,524.7 1149.3,514 1150.2,503.3 1150.8,492.6 1151.1,481.9 1151.1,471.2 1150.8,460.5 1150.2,449.8 1149.3,439.1 1148.2,428.4 1146.7,417.7 1145,407 1142.9,396.3 1140.6,385.6 1138,374.9 1135.1,364.2 1131.9,353.5 1128.4,342.8 1124.6,332.1 1120.6,321.4 1116.2,310.7 1111.5,300 1106.6,289.3 1101.4,278.6 1095.9,267.9 1090,257.2 1083.9,246.5 1077.5,235.8 1070.9,225.1 1063.9,214.4 1056.6,203.7 1049.1,193 1041.2,182.4 1033.1,171.7 1024.7,161 1015.9,150.3 "
         id="polyline124"
         style="vector-effect:none;fill:none" />
      <polyline
         points="824.5,611.5 824.5,611.5 824.5,341.5 "
         id="polyline126"
         style="vector-effect:none;fill:none" />
      <polyline
         points="363.4,150.3 363.4,150.3 374.1,141.5 384.8,133.1 395.5,125 406.1,117.1 416.8,109.6 427.5,102.3 438.2,95.3 448.9,88.7 459.6,82.3 470.3,76.2 481,70.3 491.7,64.8 502.4,59.6 513.1,54.7 523.8,50 534.5,45.6 545.2,41.6 555.9,37.8 566.6,34.3 577.3,31.1 588,28.2 598.7,25.6 609.4,23.3 620.1,21.2 630.8,19.5 641.5,18 652.2,16.9 662.9,16 673.6,15.4 684.3,15.1 695,15.1 705.7,15.4 716.4,16 727.1,16.9 737.8,18 748.5,19.5 759.2,21.2 769.9,23.3 780.6,25.6 791.3,28.2 802,31.1 812.7,34.3 823.4,37.8 834.1,41.6 844.8,45.6 855.5,50 866.2,54.7 876.9,59.6 887.6,64.8 898.3,70.3 909,76.2 919.7,82.3 930.4,88.7 941.1,95.3 951.8,102.3 962.5,109.6 973.2,117.1 983.8,125 994.5,133.1 1005.2,141.5 1015.9,150.3 "
         id="polyline128"
         style="vector-effect:none;fill:none" />
      <polyline
         points="554.5,341.5 554.5,341.5 824.5,341.5 "
         id="polyline130"
         style="vector-effect:none;fill:none" />
      <polyline
         points="363.4,150.3 363.4,150.3 554.5,341.4 "
         id="polyline132"
         style="vector-effect:none;fill:none" />
      <polyline
         points="1015.9,150.3 1015.9,150.3 824.8,341.4 "
         id="polyline134"
         style="vector-effect:none;fill:none" />
    </g>
    <g
       transform="scale(1.00104)"
       font-size="9"
       font-weight="400"
       font-style="normal"
       id="g138"
       style="font-style:normal;font-weight:400;font-size:9px;font-family:'Sans Serif';fill:none;stroke:#000000;stroke-width:1;stroke-linecap:square;stroke-linejoin:bevel;stroke-opacity:1" />
    <g
       transform="scale(1.00104)"
       font-size="9"
       font-weight="400"
       font-style="normal"
       id="g140"
       style="font-style:normal;font-weight:400;font-size:9px;font-family:'Sans Serif';fill:none;stroke:#000000;stroke-width:1;stroke-linecap:square;stroke-linejoin:bevel;stroke-opacity:1" />
    <g
       transform="scale(1.00104)"
       font-size="9"
       font-weight="400"
       font-style="normal"
       id="g144"
       style="font-style:normal;font-weight:400;font-size:9px;font-family:'Sans Serif';fill:none;stroke:#000000;stroke-width:1;stroke-linecap:round;stroke-linejoin:round;stroke-opacity:1">
      <polyline
         points="228.5,15.5 228.5,938.5 1151.5,938.5 1151.5,15.5 228.5,15.5 "
         id="polyline142"
         style="vector-effect:none;fill:none" />
    </g>
    <g
       transform="scale(1.00104)"
       font-size="9"
       font-weight="400"
       font-style="normal"
       id="g146"
       style="font-style:normal;font-weight:400;font-size:9px;font-family:'Sans Serif';fill:none;stroke:#000000;stroke-width:1;stroke-linecap:square;stroke-linejoin:bevel;stroke-opacity:1" />
    <g
       font-size="9"
       font-weight="400"
       font-style="normal"
       id="g148"
       style="font-style:normal;font-weight:400;font-size:9px;font-family:'Sans Serif';fill:none;stroke:#000000;stroke-width:1;stroke-linecap:square;stroke-linejoin:bevel;stroke-opacity:1" />
  </g>
</svg>
