<svg width="1506.667" height="1356" viewBox="0 0 1130 1017" xmlns="http://www.w3.org/2000/svg" version="1.2" baseProfile="tiny"><g stroke-width="3.005" stroke-miterlimit="2" fill="none" stroke="#000" fill-rule="evenodd" font-family="Sans Serif" font-size="9" font-weight="400"><path d="M493.372 577.52v-69.122m70.124 69.122v-69.122m-70.124 69.122h70.124m-70.124-69.122h70.124m0 69.122v-69.122m69.122 69.122v-69.122m-69.122 69.122h69.122m-69.122-69.122h69.122m-139.246 0v-70.124m70.124 70.124v-70.124m-70.124 70.124h70.124m-70.124-70.124h70.124m0 70.124v-70.124m69.122 70.124v-70.124m-69.122 70.124h69.122m-69.122-70.124h69.122M330.584 740.308L446.79 624.103m-9.618 187.431l62.912-151.768m-169.5 80.542l8.515 8.114 8.716 7.814 9.015 7.513 9.217 7.213 9.517 6.812 9.717 6.512 10.017 6.21 10.218 5.811 10.319 5.41 10.618 5.109 10.72 4.708m9.617-187.431l4.207 4.107 4.408 3.907 4.508 3.706 4.608 3.607 4.708 3.406 4.909 3.306 5.009 3.105 5.109 2.905 5.109 2.705 5.309 2.504 5.41 2.405m188.633 151.768l-62.911-151.768m169.499 80.542L679.1 624.103m9.617 187.431l10.719-4.708 10.619-5.11 10.318-5.409 10.218-5.81 10.018-6.211 9.717-6.512 9.517-6.812 9.216-7.213 9.016-7.513 8.715-7.814 8.515-8.114m-169.499-80.542l5.41-2.405 5.309-2.504 5.109-2.705 5.109-2.905 5.009-3.105 4.908-3.306 4.709-3.406 4.608-3.607 4.508-3.706 4.407-3.907 4.208-4.107m-232.31 0l23.24-23.241m30.054 58.904l15.828-45.38"/><path d="M446.79 624.103l4.207 4.107 4.408 3.907 4.508 3.706 4.608 3.607 4.708 3.406 4.909 3.306 5.009 3.105 5.109 2.905 5.109 2.705 5.309 2.504 5.41 2.405m-30.054-58.904l45.882 13.524m-15.828 45.38l15.828-45.38m47.584 58.303v-48.085m-63.412 35.162l5.41 2.103 5.61 1.904 5.609 1.803 5.61 1.503 5.71 1.402 5.71 1.102 5.81 1.002 5.81.701 5.911.501 5.81.3 5.91.1m-47.082-57.801l47.083 10.518m-92.965-24.042l23.242-23.241m22.64 36.765l12.221-36.765m-58.103 23.241l45.882 13.524m-22.54-36.866h35.062m-12.522 36.866l12.221-36.765m35.363 46.983V577.52m-47.584 36.866l47.083 10.518m-34.561-47.384h35.062m0 95.169v-48.085m62.31 35.162l-15.828-45.38m-46.983 57.802l5.81-.1 5.81-.301 5.91-.5 5.811-.702 5.81-1.002 5.71-1.102 5.71-1.402 5.61-1.503 5.61-1.803 5.61-1.904 5.41-2.103m-62.811-34.862l46.983-10.518m15.828 45.38l-15.828-45.38m69.122 9.717l-23.241-23.241m-30.053 58.904l5.41-2.405 5.309-2.504 5.109-2.705 5.109-2.905 5.009-3.105 4.908-3.306 4.709-3.406 4.608-3.607 4.508-3.706 4.407-3.907 4.208-4.107m-69.122-9.717l45.88-13.524m-92.362 23.742V577.52m46.482 36.866l-12.222-36.765m-34.761 47.283l46.983-10.518m-46.482-36.866h34.06m12.422 36.866l-12.222-36.765m58.103 23.241l-23.241-23.241m-22.64 36.765l45.88-13.524m-58.302-23.342h35.062M330.584 740.308l-8.114-8.515-7.814-8.715-7.513-9.016-7.213-9.217-6.812-9.516-6.512-9.718-6.21-10.017-5.81-10.218-5.41-10.319-5.11-10.618-4.708-10.72m187.432-9.616l-4.108-4.208-3.907-4.408-3.706-4.507-3.607-4.609-3.406-4.708-3.306-4.909-3.105-5.008-2.905-5.11-2.705-5.109-2.504-5.309-2.405-5.41m-80.542 169.5L446.79 624.103m-187.432 9.617l151.768-62.911"/><path d="M446.79 624.103l-4.108-4.208-3.907-4.408-3.706-4.507-3.607-4.609-3.406-4.708-3.306-4.909-3.105-5.008-2.905-5.11-2.705-5.109-2.504-5.309-2.405-5.41m58.904 30.054l-13.523-45.881m-9.717 69.122l23.24-23.241m-58.904-30.053l45.38-15.828m13.524 45.881l-13.523-45.881m36.865 22.539v-35.062m-23.342 58.404l23.242-23.241m-36.765-22.641l36.765-12.221m-82.146 28.05l-2.103-5.41-1.904-5.61-1.803-5.61-1.503-5.61-1.402-5.71-1.102-5.71-1.002-5.81-.7-5.81-.502-5.91-.3-5.811-.1-5.91m57.802 47.082l-10.519-47.083m-34.862 62.912l45.38-15.828m-57.301-46.583h47.084m10.218 46.582l-10.519-47.083m47.384 34.561v-34.06m-36.865 46.582l36.765-12.221m-46.983-34.361h47.083M259.358 382.175l4.709-10.719 5.109-10.618 5.41-10.319 5.81-10.218 6.21-10.017 6.512-9.718 6.812-9.516 7.213-9.217 7.513-9.016 7.814-8.715 8.114-8.515m80.542 169.499l2.405-5.41 2.504-5.309 2.705-5.109 2.905-5.109 3.105-5.008 3.306-4.91 3.406-4.707 3.607-4.609 3.706-4.508 3.907-4.407 4.107-4.208m-187.431-9.617l151.768 62.911m-80.542-169.499L446.79 391.792m-48.086 116.105l.1-5.81.301-5.81.501-5.91.701-5.81 1.002-5.811 1.102-5.71 1.402-5.71 1.503-5.61 1.803-5.61 1.904-5.61 2.103-5.41m34.862 62.811l10.519-46.983m-57.302 47.484h47.084m-35.163-63.312l45.38 15.828m-10.518 46.983l10.519-46.983m36.865 47.484v-35.062m-47.083 35.062h47.083m-36.865-47.484l36.765 12.222"/><path d="M411.126 445.086l2.405-5.41 2.504-5.309 2.705-5.109 2.905-5.109 3.105-5.008 3.306-4.91 3.406-4.707 3.607-4.609 3.706-4.508 3.907-4.407 4.107-4.208m9.718 69.122l13.523-45.88m-58.904 30.052l45.38 15.828m-9.716-69.122l23.24 23.241m-13.523 45.881l13.523-45.88m23.342 58.302v-35.062m-36.865 22.64l36.765 12.222m-23.242-58.103l23.242 23.241m302.033 302.034L679.1 624.103m187.431 9.617l-151.768-62.911m80.542 169.499l8.115-8.515 7.813-8.715 7.514-9.016 7.212-9.217 6.812-9.516 6.512-9.718 6.21-10.017 5.811-10.218 5.41-10.319 5.109-10.618 4.708-10.72M679.1 624.103l4.107-4.208 3.907-4.408 3.707-4.507 3.606-4.609 3.406-4.708 3.306-4.909 3.105-5.008 2.905-5.11 2.705-5.109 2.505-5.309 2.404-5.41m151.768-188.633l-151.768 62.911m80.542-169.499L679.1 391.792m187.431-9.617l-4.708-10.719-5.11-10.618-5.409-10.319-5.81-10.218-6.211-10.017-6.512-9.718-6.812-9.516-7.212-9.217-7.514-9.016-7.813-8.715-8.115-8.515m-80.542 169.499l-2.404-5.41-2.505-5.309-2.705-5.109-2.905-5.109-3.105-5.008-3.306-4.91-3.406-4.707-3.606-4.609-3.707-4.508-3.907-4.407-4.107-4.208m0 232.311l-23.241-23.241m58.904-30.053l-45.38-15.828"/><path d="M679.1 624.103l4.107-4.208 3.907-4.408 3.707-4.507 3.606-4.609 3.406-4.708 3.306-4.909 3.105-5.008 2.905-5.11 2.705-5.109 2.505-5.309 2.404-5.41m-58.904 30.054l13.524-45.881m45.38 15.828l-45.38-15.828m57.401-46.583h-47.083m35.062 62.411l2.104-5.41 1.903-5.61 1.803-5.61 1.503-5.61 1.402-5.71 1.102-5.71 1.002-5.81.701-5.81.501-5.91.3-5.811.1-5.91m-57.801 47.082l10.518-47.083m-24.042 92.965l-23.241-23.241m36.765-22.641l-36.765-12.221m23.241 58.103l13.524-45.881m-36.765 22.539v-35.062m36.765 12.522l-36.765-12.221m47.082-34.361h-47.082m36.765 46.582l10.518-47.083m-47.283 34.561v-34.06m94.166 0h-47.083m35.062-63.312l-45.38 15.828m57.802 46.983l-.1-5.81-.3-5.81-.502-5.91-.701-5.81-1.002-5.811-1.102-5.71-1.402-5.71-1.503-5.61-1.803-5.61-1.903-5.61-2.104-5.41m-34.862 62.811l-10.518-46.983m45.38-15.828l-45.38 15.828m9.717-69.122l-23.241 23.241m58.904 30.053l-2.404-5.41-2.505-5.309-2.705-5.109-2.905-5.109-3.105-5.008-3.306-4.91-3.406-4.707-3.606-4.609-3.707-4.508-3.907-4.407-4.107-4.208m-9.717 69.122l-13.524-45.88m23.841 93.364h-47.082m36.765-47.484l-36.765 12.222m47.283 34.761l-10.518-46.983m-36.765 47.484v-35.062m36.765-12.422l-36.765 12.222m23.241-58.103l-23.241 23.241m36.765 22.64l-13.524-45.88m-23.241 58.302v-35.062M330.584 275.587l8.515-8.114 8.716-7.814 9.015-7.513 9.217-7.213 9.517-6.812 9.717-6.512 10.017-6.21 10.218-5.811 10.319-5.41 10.618-5.109 10.72-4.708m9.617 187.431l4.207-4.107 4.408-3.907 4.508-3.706 4.608-3.607 4.708-3.406 4.909-3.306 5.009-3.105 5.109-2.905 5.109-2.705 5.309-2.505 5.41-2.404m-169.5-80.542L446.79 391.792m-9.618-187.431l62.912 151.768"/><path d="M446.79 391.792l4.207-4.107 4.408-3.907 4.508-3.706 4.608-3.607 4.708-3.406 4.909-3.306 5.009-3.105 5.109-2.905 5.109-2.705 5.309-2.505 5.41-2.404m-30.054 58.904l45.882-13.524m-69.122-9.717l23.24 23.241m30.054-58.903l15.828 45.38m-45.882 13.523l45.882-13.524m-22.54 36.765h35.062m-58.404-23.241l23.242 23.241m22.64-36.764l12.221 36.764m-28.049-82.144l5.41-2.104 5.61-1.904 5.609-1.803 5.61-1.503 5.71-1.402 5.71-1.102 5.81-1.002 5.81-.701 5.911-.501 5.81-.3 5.91-.1m-47.082 57.802l47.083-10.52m-62.911-34.86l15.828 45.38m47.584-57.402v47.083m-47.584 10.319l47.083-10.52m-34.561 47.284h35.062m-47.584-36.764l12.221 36.764m35.363-47.083v47.083m125.221-233.913l10.719 4.708 10.619 5.11 10.318 5.409 10.218 5.81 10.018 6.211 9.717 6.512 9.517 6.812 9.216 7.213 9.016 7.513 8.715 7.814 8.515 8.114M625.806 356.13l5.41 2.403 5.309 2.505 5.109 2.705 5.109 2.905 5.009 3.105 4.908 3.306 4.709 3.406 4.608 3.607 4.508 3.706 4.407 3.907 4.208 4.107m9.617-187.431L625.806 356.13m169.499-80.543L679.1 391.792m-116.105-48.085l5.81.1 5.81.301 5.91.5 5.811.702 5.81 1.002 5.71 1.102 5.71 1.402 5.61 1.503 5.61 1.803 5.61 1.904 5.41 2.103m-62.811 34.861l46.983 10.52m-46.482-57.402v47.083m62.31-35.061l-15.828 45.38m-46.983-10.52l46.983 10.52m-46.482 36.764h34.06m-34.06-47.083v47.083m46.482-36.764l-12.222 36.764"/><path d="M625.806 356.13l5.41 2.403 5.309 2.505 5.109 2.705 5.109 2.905 5.009 3.105 4.908 3.306 4.709 3.406 4.608 3.607 4.508 3.706 4.407 3.907 4.208 4.107m-69.122 9.718l45.88 13.523m-30.052-58.903l-15.828 45.38m69.122-9.718l-23.241 23.241m-45.881-13.523l45.88 13.523m-58.302 23.241h35.062m-22.64-36.764l-12.222 36.764m58.103-23.241l-23.241 23.241M214.479 856.413l58.103-58.102m16.528 119.41l45.682-68.32m-120.313 7.012l6.311 6.211 6.311 6.01 6.512 5.911 6.611 5.81 6.712 5.71 6.812 5.61 6.913 5.51 6.912 5.31 7.112 5.209 7.213 5.009 7.213 5.008M272.582 798.31l5.209 5.21 5.31 5.009 5.409 4.908 5.51 4.909 5.61 4.708 5.61 4.709 5.81 4.508 5.81 4.407 5.91 4.408 5.91 4.208 6.112 4.107m-45.682 68.32l45.682-68.32m39.569 113.901l31.456-75.934M289.11 917.721l7.414 4.809 7.413 4.708 7.513 4.508 7.614 4.408 7.713 4.308 7.714 4.207 7.814 4.007 7.914 3.807 8.014 3.706 8.014 3.607 8.114 3.506M334.792 849.4l6.11 4.008 6.211 3.907 6.311 3.806 6.312 3.707 6.41 3.606 6.412 3.406 6.512 3.306 6.611 3.306 6.612 3.106 6.712 2.905 6.812 2.905M272.582 798.31l58.002-58.002m4.208 109.092l45.58-68.32"/><path d="M272.582 798.31l5.209 5.21 5.31 5.009 5.409 4.908 5.51 4.909 5.61 4.708 5.61 4.709 5.81 4.508 5.81 4.407 5.91 4.408 5.91 4.208 6.112 4.107m-4.208-109.093l4.208 4.107 4.307 4.007 4.308 3.907 4.408 3.907 4.407 3.807 4.608 3.706 4.609 3.707 4.608 3.506 4.708 3.506 4.809 3.306 4.808 3.306m-45.58 68.32l45.58-68.32m25.445 106.288l31.355-75.834M334.792 849.4l6.11 4.008 6.211 3.907 6.311 3.806 6.312 3.707 6.41 3.606 6.412 3.406 6.512 3.306 6.611 3.306 6.612 3.106 6.712 2.905 6.812 2.905M380.372 781.08l4.909 3.306 5.009 3.105 5.008 3.006 5.11 2.905 5.108 2.905 5.11 2.805 5.209 2.605 5.31 2.604 5.308 2.505 5.41 2.404 5.31 2.304m-62.812 151.768l31.456-75.934m61.008 103.883l16.028-80.542m-108.492 52.593l8.115 3.206 8.214 3.205 8.315 3.006 8.315 2.805 8.314 2.704 8.515 2.605 8.415 2.404 8.515 2.204 8.515 2.104 8.616 2.003 8.615 1.703m-61.008-103.883l6.812 2.705 6.812 2.704 6.912 2.505 6.913 2.304 6.912 2.304 7.112 2.104 7.013 2.003 7.112 1.904 7.113 1.703 7.112 1.602 7.213 1.503m-16.028 80.542l16.028-80.542m79.641 90.561v-82.146m-95.669 72.127l8.615 1.703 8.715 1.503 8.616 1.302 8.715 1.203 8.816 1.001 8.715.802 8.816.7 8.715.602 8.816.4 8.815.201 8.716.1m-80.042-90.058l7.213 1.402 7.213 1.202 7.212 1.102 7.313 1.001 7.213.902 7.313.701 7.313.601 7.313.401 7.313.3 7.313.2 7.313.101m-157.078-31.255l31.355-75.834m45.681 99.176l16.028-80.543"/><path d="M405.817 887.368l6.812 2.705 6.812 2.704 6.912 2.505 6.913 2.304 6.912 2.304 7.112 2.104 7.013 2.003 7.112 1.904 7.113 1.703 7.112 1.602 7.213 1.503m-45.681-99.175l5.51 2.104 5.41 2.103 5.51 2.004 5.61 1.903 5.51 1.803 5.71 1.703 5.61 1.603 5.609 1.503 5.71 1.402 5.71 1.303 5.81 1.202m-16.028 80.543l16.028-80.543m63.613 88.957v-82.145m-79.641 73.731l7.213 1.402 7.213 1.202 7.212 1.102 7.313 1.001 7.213.902 7.313.701 7.313.601 7.313.401 7.313.3 7.313.2 7.313.101m-64.014-88.456l5.71 1.102 5.81 1.002 5.811.901 5.81.802 5.81.6 5.81.602 5.911.5 5.81.301 5.81.3 5.911.201h5.81m-125.722-24.944l31.456-75.934m30.253 94.567l16.029-80.543"/><path d="M437.172 811.534l5.51 2.104 5.41 2.103 5.51 2.004 5.61 1.903 5.51 1.803 5.71 1.703 5.61 1.603 5.609 1.503 5.71 1.402 5.71 1.303 5.81 1.202M468.628 735.6l4.107 1.603 4.108 1.602 4.107 1.503 4.207 1.403 4.107 1.402 4.308 1.302 4.208 1.202 4.207 1.102 4.308 1.002 4.307 1.002 4.308.901m-16.029 80.543l16.029-80.543m47.985 86.854l.1-82.145m-64.114 75.834l5.71 1.102 5.81 1.002 5.811.901 5.81.802 5.81.6 5.81.602 5.911.5 5.81.301 5.81.3 5.911.201h5.81m-47.984-86.854l4.307.802 4.308.801 4.308.601 4.407.601 4.408.501 4.308.401 4.408.4 4.407.301 4.408.2 4.408.1h4.408M468.628 735.6l31.456-75.834m14.826 89.858l16.028-80.542"/><path d="M468.628 735.6l4.107 1.603 4.108 1.602 4.107 1.503 4.207 1.403 4.107 1.402 4.308 1.302 4.208 1.202 4.207 1.102 4.308 1.002 4.307 1.002 4.308.901m-14.826-89.858l2.704 1.001 2.705 1.102 2.805 1.002 2.805.902 2.705.901 2.905.902 2.805.801 2.805.702 2.805.7 2.905.702 2.905.601m-16.028 80.542l16.028-80.542m32.558 85.752v-82.145m-48.586 76.935l4.307.802 4.308.801 4.308.601 4.407.601 4.408.501 4.308.401 4.408.4 4.407.301 4.408.2 4.408.1h4.408m-32.057-85.25l2.805.501 2.905.501 2.905.5 2.905.402 2.906.3 2.905.3 3.005.201 2.905.2 2.905.1 2.905.1h3.006m-.501 329.083v-82.146m96.57 72.127l-16.028-80.542m-80.141 90.059l8.815-.1 8.816-.2 8.815-.401 8.716-.601 8.815-.701 8.716-.802 8.815-1.001 8.716-1.203 8.615-1.302 8.715-1.503 8.615-1.703m-96.169-72.628l7.413-.1 7.313-.2 7.313-.301 7.312-.4 7.313-.602 7.313-.701 7.213-.902 7.313-1.001 7.213-1.102 7.212-1.202 7.213-1.403m16.028 80.542l-16.028-80.542m108.492 52.593l-31.456-75.934m-61.008 103.883l8.616-1.703 8.615-2.003 8.515-2.104 8.515-2.204 8.415-2.404 8.515-2.605 8.315-2.704 8.314-2.805 8.315-3.006 8.215-3.205 8.114-3.206M643.036 910.71l7.213-1.504 7.112-1.602 7.113-1.703 7.113-1.904 7.012-2.003 7.113-2.104 6.912-2.304 6.912-2.304 6.912-2.505 6.812-2.704 6.812-2.705m-157.578 31.756v-82.145m80.542 73.731l-16.028-80.543"/><path d="M562.895 918.623l7.413-.1 7.313-.2 7.313-.301 7.312-.4 7.313-.602 7.313-.701 7.213-.902 7.313-1.001 7.213-1.102 7.212-1.202 7.213-1.403m-80.141-74.231h5.91l5.91-.2 5.81-.3 5.811-.301 5.91-.501 5.81-.601 5.811-.601 5.81-.802 5.81-.901 5.81-1.002 5.71-1.102m16.029 80.543l-16.028-80.543m93.064 57.201l-31.355-75.834m-45.681 99.176l7.213-1.504 7.112-1.602 7.113-1.703 7.113-1.904 7.012-2.003 7.113-2.104 6.912-2.304 6.912-2.304 6.912-2.505 6.812-2.704 6.812-2.705m-93.064-57.201l5.81-1.202 5.71-1.303 5.71-1.402 5.61-1.503 5.61-1.603 5.71-1.703 5.51-1.803 5.61-1.903 5.51-2.004 5.41-2.103 5.509-2.104m62.811 151.768l-31.456-75.934m116.706 30.353l-45.68-68.32m-39.57 113.901l8.114-3.506 8.014-3.607 8.015-3.706 7.913-3.807 7.814-4.007 7.714-4.207 7.714-4.308 7.613-4.408 7.513-4.508 7.413-4.708 7.413-4.809m-116.706-30.353l6.812-2.905 6.712-2.905 6.612-3.106 6.612-3.306 6.511-3.306 6.411-3.406 6.412-3.606 6.31-3.707 6.312-3.806 6.211-3.907 6.11-4.007m45.681 68.32l-45.68-68.32m120.312 7.012l-58.102-58.102m-16.53 119.41l7.213-5.008 7.213-5.01 7.113-5.208 6.912-5.31 6.912-5.51 6.812-5.61 6.712-5.71 6.612-5.81 6.511-5.91 6.311-6.01 6.311-6.212M791.098 849.4l6.11-4.106 5.911-4.208 5.91-4.408 5.81-4.407 5.811-4.508 5.61-4.709 5.61-4.708 5.51-4.909 5.41-4.908 5.308-5.01 5.21-5.208m-133.236 89.057l-31.355-75.834M791.098 849.4l-45.58-68.32"/><path d="M720.072 887.368l6.812-2.905 6.712-2.905 6.612-3.106 6.612-3.306 6.511-3.306 6.411-3.406 6.412-3.606 6.31-3.707 6.312-3.806 6.211-3.907 6.11-4.007m-102.38-37.867l5.31-2.304 5.409-2.404 5.31-2.505 5.309-2.604 5.209-2.605 5.109-2.805 5.109-2.905 5.109-2.905 5.009-3.006 5.009-3.105 4.908-3.306m45.581 68.32l-45.58-68.32m107.79 17.23l-58.003-58.002M791.098 849.4l6.11-4.106 5.911-4.208 5.91-4.408 5.81-4.407 5.811-4.508 5.61-4.709 5.61-4.708 5.51-4.909 5.41-4.908 5.308-5.01 5.21-5.208M745.517 781.08l4.809-3.306 4.808-3.306 4.709-3.506 4.608-3.506 4.608-3.707 4.608-3.706 4.408-3.807 4.408-3.907 4.307-3.907 4.308-4.007 4.207-4.107m-232.41 96.17l.1-82.145m64.013 75.834l-16.028-80.543m-48.085 86.854h5.91l5.91-.2 5.81-.3 5.811-.301 5.91-.501 5.81-.601 5.811-.601 5.81-.802 5.81-.901 5.81-1.002 5.71-1.102m-64.012-75.834h4.307l4.408-.1 4.408-.2 4.408-.301 4.408-.401 4.307-.4 4.408-.502 4.408-.6 4.307-.602 4.308-.801 4.308-.802m16.028 80.543l-16.028-80.543m77.737 61.91L657.26 735.6m-30.252 94.567l5.81-1.202 5.71-1.303 5.71-1.402 5.61-1.503 5.61-1.603 5.71-1.703 5.51-1.803 5.61-1.903 5.51-2.004 5.41-2.103 5.509-2.104m-77.737-61.91l4.307-.901 4.308-1.002 4.307-1.002 4.208-1.102 4.207-1.202 4.308-1.302 4.107-1.402 4.208-1.403 4.107-1.503 4.107-1.602 4.107-1.603m-93.765 19.234v-82.145m47.484 76.935l-16.029-80.542"/><path d="M562.995 754.333h4.307l4.408-.1 4.408-.2 4.408-.301 4.408-.401 4.307-.4 4.408-.502 4.408-.6 4.307-.602 4.308-.801 4.308-.802m-47.985-77.436h2.905l2.905-.1 2.905-.1 2.905-.201 3.006-.2 2.905-.3 2.905-.301 2.905-.401 2.905-.501 2.905-.5 2.805-.502m16.029 80.542l-16.029-80.542m62.31 66.518l-31.455-75.834m-14.826 89.858l4.307-.901 4.308-1.002 4.307-1.002 4.208-1.102 4.207-1.202 4.308-1.302 4.107-1.402 4.208-1.403 4.107-1.503 4.107-1.602 4.107-1.603m-62.31-66.518l2.905-.6 2.905-.702 2.805-.701 2.805-.702 2.805-.801 2.905-.902 2.705-.901 2.805-.902 2.805-1.002 2.705-1.102 2.705-1.001M214.479 856.413l-6.211-6.311-6.01-6.311-5.911-6.512-5.81-6.611-5.71-6.712-5.61-6.812-5.51-6.912-5.31-6.913-5.209-7.112-5.009-7.213-5.008-7.213m119.411 16.529l-5.21-5.209-5.008-5.31-4.91-5.409-4.908-5.51-4.708-5.61-4.708-5.61-4.508-5.81-4.408-5.81-4.408-5.91-4.207-5.91-4.108-6.111m-7.012 120.312l58.103-58.102m-119.412-16.53l68.321-45.68"/><path d="M272.582 798.31l-5.21-5.209-5.008-5.31-4.91-5.409-4.908-5.51-4.708-5.61-4.708-5.61-4.508-5.81-4.408-5.81-4.408-5.91-4.207-5.91-4.108-6.111m109.093 4.207l-4.107-4.207-4.007-4.308-3.907-4.308-3.907-4.407-3.807-4.408-3.706-4.608-3.707-4.608-3.506-4.609-3.506-4.708-3.306-4.808-3.306-4.809m-17.23 107.79l58.002-58.002M221.491 736.1l68.321-45.58M153.17 781.781l-4.808-7.413-4.708-7.413-4.508-7.513-4.408-7.614-4.308-7.713-4.207-7.714-4.007-7.814-3.807-7.914-3.706-8.014-3.607-8.014-3.506-8.114M221.491 736.1l-4.007-6.11-3.907-6.211-3.806-6.311-3.707-6.311-3.606-6.412-3.406-6.411-3.306-6.512-3.306-6.611-3.105-6.612-2.906-6.712-2.905-6.812M153.17 781.781l68.321-45.68M107.59 696.53l75.934-31.455"/><path d="M221.491 736.1l-4.007-6.11-3.907-6.211-3.806-6.311-3.707-6.311-3.606-6.412-3.406-6.411-3.306-6.512-3.306-6.611-3.105-6.612-2.906-6.712-2.905-6.812m106.288 25.445l-3.306-4.909-3.105-5.008-3.006-5.01-2.905-5.108-2.905-5.11-2.805-5.108-2.604-5.21-2.605-5.309-2.504-5.31-2.405-5.409-2.304-5.31M221.491 736.1l68.321-45.58m-106.288-25.445l75.834-31.355M107.59 696.53l-3.206-8.114-3.205-8.214-3.006-8.315-2.804-8.315-2.705-8.314-2.605-8.515-2.404-8.415-2.204-8.515-2.104-8.515-2.003-8.615-1.703-8.616m103.883 61.008l-2.705-6.812-2.704-6.812-2.505-6.912-2.304-6.912-2.304-6.913-2.104-7.112-2.003-7.013-1.903-7.112-1.703-7.113-1.603-7.112-1.503-7.213M107.59 696.53l75.934-31.455M79.64 604.067l80.543-16.028"/><path d="M183.524 665.075l-2.705-6.812-2.704-6.812-2.505-6.912-2.304-6.912-2.304-6.913-2.104-7.112-2.003-7.013-1.903-7.112-1.703-7.113-1.603-7.112-1.503-7.213m99.175 45.681l-2.103-5.51-2.104-5.41-2.004-5.51-1.903-5.61-1.803-5.509-1.703-5.71-1.603-5.61-1.503-5.61-1.402-5.71-1.303-5.71-1.202-5.81m-57.201 93.064l75.834-31.355m-99.175-45.681l80.542-16.028M79.64 604.067l-1.702-8.615-1.503-8.715-1.302-8.616-1.202-8.715-1.002-8.816-.802-8.715-.7-8.815-.602-8.716-.4-8.815-.2-8.816-.101-8.715m90.059 80.041l-1.402-7.213-1.203-7.212-1.102-7.213-1.001-7.313-.902-7.213-.701-7.313-.601-7.313-.4-7.313-.301-7.313-.2-7.313-.101-7.312M79.64 604.067l80.543-16.028m-89.558-79.641h82.145"/><path d="M160.183 588.039l-1.402-7.213-1.203-7.212-1.102-7.213-1.001-7.313-.902-7.213-.701-7.313-.601-7.313-.4-7.313-.301-7.313-.2-7.313-.101-7.312m88.456 64.012l-1.102-5.71-1.001-5.81-.902-5.81-.801-5.81-.601-5.81-.602-5.81-.5-5.911-.3-5.81-.301-5.81-.2-5.911v-5.81m-74.232 80.041l80.542-16.028m-87.955-63.613h82.145m24.443 125.322l-2.103-5.51-2.104-5.41-2.004-5.51-1.903-5.61-1.803-5.509-1.703-5.71-1.603-5.61-1.503-5.61-1.402-5.71-1.303-5.71-1.202-5.81m94.567 30.253l-1.602-4.107-1.603-4.107-1.503-4.108-1.402-4.207-1.403-4.107-1.302-4.308-1.202-4.207-1.102-4.208-1.002-4.307-1.002-4.308-.901-4.308m-61.91 77.738l75.934-31.456m-94.567-30.254l80.543-16.028"/><path d="M335.292 602.264l-1.602-4.107-1.603-4.107-1.503-4.108-1.402-4.207-1.403-4.107-1.302-4.308-1.202-4.207-1.102-4.208-1.002-4.307-1.002-4.308-.901-4.308m89.858 14.827l-1.001-2.705-1.102-2.705-1.002-2.805-.902-2.805-.901-2.705-.902-2.905-.801-2.805-.702-2.805-.7-2.805-.702-2.905-.601-2.905m-66.518 62.31l75.834-31.455m-89.858-14.827l80.542-16.028M240.725 572.01l-1.102-5.71-1.001-5.81-.902-5.81-.801-5.81-.601-5.81-.602-5.81-.5-5.911-.3-5.81-.301-5.81-.2-5.911v-5.81m86.853 47.984l-.802-4.307-.801-4.308-.601-4.307-.601-4.408-.501-4.408-.4-4.308-.402-4.407-.3-4.408-.2-4.408-.1-4.408v-4.408m-75.835 64.113l80.543-16.028m-86.854-47.984l82.145-.1"/><path d="M321.268 555.982l-.802-4.307-.801-4.308-.601-4.307-.601-4.408-.501-4.408-.4-4.308-.402-4.407-.3-4.408-.2-4.408-.1-4.408v-4.408m85.25 32.057l-.5-2.805-.502-2.905-.5-2.905-.401-2.905-.3-2.905-.301-2.906-.2-3.005-.201-2.905-.1-2.905-.1-2.905v-3.006m-77.437 48.085l80.542-16.028m-84.75-31.556h82.145m-329.081-.4l.1-8.816.2-8.816.401-8.815.601-8.716.701-8.815.802-8.716 1.002-8.815 1.202-8.716 1.302-8.615 1.503-8.715 1.703-8.615m72.628 96.17l.1-7.414.2-7.312.301-7.313.4-7.313.602-7.313.701-7.313.902-7.213 1.001-7.313 1.102-7.213 1.203-7.212 1.402-7.213m-89.558 80.542h82.145m-73.13-96.57l80.543 16.028"/><path d="M152.269 507.998l.1-7.414.2-7.312.301-7.313.4-7.313.602-7.313.701-7.313.902-7.213 1.001-7.313 1.102-7.213 1.203-7.212 1.402-7.213m74.231 80.142v-5.91l.2-5.911.301-5.81.3-5.81.501-5.911.602-5.81.6-5.81.802-5.811.902-5.81 1.001-5.81 1.102-5.71m-87.955 64.513h82.145m-74.732-80.542l80.542 16.028M79.64 411.828l1.704-8.616 2.003-8.615 2.104-8.515 2.204-8.515 2.404-8.415 2.605-8.515 2.705-8.314 2.804-8.315 3.006-8.315 3.205-8.214 3.206-8.115m52.593 108.492l1.503-7.213 1.603-7.112 1.703-7.113 1.903-7.112 2.003-7.013 2.104-7.112 2.304-6.913 2.304-6.912 2.505-6.912 2.704-6.812 2.705-6.812M79.64 411.828l80.543 16.028M107.59 319.364l75.934 31.456"/><path d="M160.183 427.856l1.503-7.213 1.603-7.112 1.703-7.113 1.903-7.112 2.003-7.013 2.104-7.112 2.304-6.913 2.304-6.912 2.505-6.912 2.704-6.812 2.705-6.812m57.201 93.064l1.202-5.81 1.303-5.71 1.402-5.71 1.503-5.61 1.603-5.61 1.703-5.71 1.803-5.51 1.903-5.61 2.004-5.51 2.104-5.409 2.103-5.51m-99.175 45.681l80.542 16.028m-57.201-93.064l75.834 31.355m-24.944 125.823v-5.91l.2-5.911.301-5.81.3-5.81.501-5.911.602-5.81.6-5.81.802-5.811.902-5.81 1.001-5.81 1.102-5.71m75.835 64.012v-4.307l.1-4.408.2-4.408.3-4.408.401-4.407.4-4.308.502-4.408.6-4.408.602-4.307.801-4.308.802-4.307m-86.854 48.085l82.145-.1m-75.834-64.014l80.543 16.029"/><path d="M316.56 507.897v-4.307l.1-4.408.2-4.408.3-4.408.401-4.407.4-4.308.502-4.408.6-4.408.602-4.307.801-4.308.802-4.307m77.436 47.984v-2.905l.1-2.905.1-2.905.201-2.905.2-3.005.301-2.906.3-2.905.401-2.905.501-2.905.501-2.905.5-2.805m-84.749 32.457h82.145m-77.937-48.485l80.542 16.028m-161.085-32.057l1.202-5.81 1.303-5.71 1.402-5.71 1.503-5.61 1.603-5.61 1.703-5.71 1.803-5.51 1.903-5.61 2.004-5.51 2.104-5.409 2.103-5.51m61.91 77.738l.901-4.308 1.002-4.308 1.002-4.307 1.102-4.208 1.202-4.207 1.302-4.308 1.403-4.107 1.402-4.207 1.503-4.108 1.603-4.107 1.602-4.107m-94.567 30.253l80.543 16.029m-61.91-77.738l75.934 31.456"/><path d="M321.268 459.913l.901-4.308 1.002-4.308 1.002-4.307 1.102-4.208 1.202-4.207 1.302-4.308 1.403-4.107 1.402-4.207 1.503-4.108 1.603-4.107 1.602-4.107m66.518 62.309l.601-2.904.701-2.905.701-2.805.702-2.805.801-2.805.902-2.905.901-2.705.902-2.805 1.002-2.805 1.102-2.705 1.001-2.705m-89.858 14.827l80.542 16.028m-66.518-62.311l75.834 31.456M107.59 319.364l3.506-8.114 3.607-8.014 3.706-8.014 3.807-7.914 4.007-7.814 4.207-7.714 4.308-7.713 4.408-7.614 4.508-7.513 4.708-7.413 4.809-7.413m30.353 116.706l2.905-6.812 2.906-6.712 3.105-6.612 3.306-6.611 3.306-6.512 3.406-6.411 3.606-6.412 3.707-6.31 3.806-6.312 3.907-6.21 4.007-6.112m-113.901 39.57l75.934 31.456M153.17 234.114l68.321 45.68"/><path d="M183.524 350.82l2.905-6.812 2.906-6.712 3.105-6.612 3.306-6.611 3.306-6.512 3.406-6.411 3.606-6.412 3.707-6.31 3.806-6.312 3.907-6.21 4.007-6.112m37.867 102.381l2.304-5.31 2.405-5.409 2.504-5.31 2.605-5.308 2.604-5.21 2.805-5.109 2.905-5.109 2.905-5.109 3.006-5.009 3.105-5.008 3.306-4.91M183.524 350.82l75.834 31.355m-37.867-102.381l68.321 45.58m-136.642-91.26l5.01-7.213 5.008-7.213 5.21-7.112 5.309-6.913 5.51-6.912 5.61-6.812 5.71-6.712 5.81-6.611 5.91-6.512 6.011-6.311 6.211-6.311m7.012 120.312l4.108-6.11 4.207-5.91 4.408-5.911 4.408-5.81 4.508-5.81 4.708-5.61 4.708-5.61 4.909-5.51 4.909-5.41 5.008-5.31 5.21-5.209m-119.412 16.53l68.321 45.68m-7.012-120.312l58.103 58.102"/><path d="M221.491 279.794l4.108-6.11 4.207-5.91 4.408-5.911 4.408-5.81 4.508-5.81 4.708-5.61 4.708-5.61 4.909-5.51 4.909-5.41 5.008-5.31 5.21-5.209m17.23 107.791l3.306-4.809 3.306-4.808 3.506-4.708 3.506-4.609 3.707-4.608 3.706-4.608 3.807-4.408 3.907-4.407 3.907-4.308 4.007-4.308 4.107-4.207m-109.093 4.207l68.321 45.58m-17.23-107.79l58.002 58.003M911.41 856.413l-58.102-58.102m119.411-16.53l-68.321-45.68m7.012 120.312l6.211-6.311 6.01-6.311 5.911-6.512 5.81-6.611 5.71-6.712 5.61-6.812 5.51-6.912 5.31-6.913 5.209-7.112 5.009-7.213 5.009-7.213M853.308 798.31l5.209-5.209 5.009-5.31 4.908-5.409 4.91-5.51 4.707-5.61 4.709-5.61 4.508-5.81 4.407-5.81 4.408-5.91 4.208-5.91 4.107-6.111m68.321 45.68l-68.321-45.68M1018.3 696.53l-75.935-31.455m30.354 116.706l4.808-7.413 4.708-7.413 4.508-7.513 4.408-7.614 4.308-7.713 4.207-7.714 4.007-7.814 3.807-7.914 3.707-8.014 3.606-8.014 3.506-8.114M904.398 736.1l4.007-6.11 3.907-6.211 3.807-6.311 3.706-6.311 3.607-6.412 3.406-6.411 3.305-6.512 3.306-6.611 3.106-6.612 2.905-6.712 2.905-6.812M853.308 798.31l-58.003-58.002m109.093-4.208l-68.32-45.58"/><path d="M853.308 798.31l5.209-5.209 5.009-5.31 4.908-5.409 4.91-5.51 4.707-5.61 4.709-5.61 4.508-5.81 4.407-5.81 4.408-5.91 4.208-5.91 4.107-6.111m-109.093 4.207l4.107-4.207 4.008-4.308 3.906-4.308 3.907-4.407 3.807-4.408 3.707-4.608 3.706-4.608 3.506-4.609 3.507-4.708 3.305-4.808 3.306-4.809m68.321 45.58l-68.32-45.58m106.287-25.445l-75.834-31.355m37.867 102.38l4.007-6.11 3.907-6.211 3.807-6.311 3.706-6.311 3.607-6.412 3.406-6.411 3.305-6.512 3.306-6.611 3.106-6.612 2.905-6.712 2.905-6.812M836.077 690.52l3.306-4.909 3.106-5.008 3.005-5.01 2.905-5.108 2.905-5.11 2.805-5.108 2.605-5.21 2.604-5.309 2.505-5.31 2.404-5.409 2.304-5.31M1018.3 696.53l-75.935-31.455m103.884-61.008l-80.543-16.028M1018.3 696.53l3.205-8.114 3.206-8.214 3.005-8.315 2.805-8.315 2.705-8.314 2.604-8.515 2.404-8.415 2.204-8.515 2.104-8.515 2.004-8.615 1.703-8.616m-103.884 61.008l2.705-6.812 2.705-6.812 2.504-6.912 2.304-6.912 2.304-6.913 2.104-7.112 2.003-7.013 1.904-7.112 1.703-7.113 1.603-7.112 1.502-7.213m80.543 16.028l-80.543-16.028m89.659-79.641H973.22m73.029 95.669l1.703-8.615 1.502-8.715 1.303-8.616 1.202-8.715 1.001-8.816.802-8.715.701-8.815.601-8.716.4-8.815.201-8.816.1-8.715m-90.059 80.041l1.403-7.213 1.202-7.212 1.102-7.213 1.002-7.313.901-7.213.701-7.313.601-7.313.401-7.313.3-7.313.201-7.313.1-7.312m-31.255 157.077l-75.834-31.355m99.175-45.681l-80.542-16.028"/><path d="M942.365 665.075l2.705-6.812 2.705-6.812 2.504-6.912 2.304-6.912 2.304-6.913 2.104-7.112 2.003-7.013 1.904-7.112 1.703-7.113 1.603-7.112 1.502-7.213m-99.175 45.681l2.104-5.51 2.103-5.41 2.004-5.51 1.903-5.61 1.804-5.509 1.703-5.71 1.602-5.61 1.503-5.61 1.403-5.71 1.302-5.71 1.202-5.81m80.542 16.028l-80.542-16.028m88.056-63.613h-82.146m74.632 79.641l1.403-7.213 1.202-7.212 1.102-7.213 1.002-7.313.901-7.213.701-7.313.601-7.313.401-7.313.3-7.313.201-7.313.1-7.312m-88.456 64.012l1.102-5.71 1.002-5.81.901-5.81.802-5.81.6-5.81.602-5.81.5-5.911.301-5.81.3-5.81.201-5.911v-5.81M866.531 633.72l-75.934-31.456m94.567-30.254l-80.542-16.028"/><path d="M866.531 633.72l2.104-5.51 2.103-5.41 2.004-5.51 1.903-5.61 1.804-5.509 1.703-5.71 1.602-5.61 1.503-5.61 1.403-5.71 1.302-5.71 1.202-5.81m-94.567 30.253l1.603-4.107 1.603-4.107 1.502-4.108 1.403-4.207 1.402-4.107 1.302-4.308 1.203-4.207 1.102-4.208 1.001-4.307 1.002-4.308.902-4.308m80.542 16.028l-80.542-16.028m86.853-47.984l-82.145-.1m75.834 64.112l1.102-5.71 1.002-5.81.901-5.81.802-5.81.6-5.81.602-5.81.5-5.911.301-5.81.3-5.81.201-5.911v-5.81m-86.853 47.984l.801-4.307.801-4.308.602-4.307.6-4.408.502-4.408.4-4.308.4-4.407.301-4.408.2-4.408.101-4.408v-4.408m-18.733 94.367l-75.834-31.455m89.859-14.827l-80.543-16.028"/><path d="M790.597 602.264l1.603-4.107 1.603-4.107 1.502-4.108 1.403-4.207 1.402-4.107 1.302-4.308 1.203-4.207 1.102-4.208 1.001-4.307 1.002-4.308.902-4.308m-89.859 14.827l1.002-2.705 1.102-2.705 1.001-2.805.902-2.805.902-2.705.901-2.905.802-2.805.7-2.805.702-2.805.701-2.905.601-2.905m80.543 16.028l-80.543-16.028m84.851-31.556h-82.146m77.838 47.584l.801-4.307.801-4.308.602-4.307.6-4.408.502-4.408.4-4.308.4-4.407.301-4.408.2-4.408.101-4.408v-4.408m-85.25 32.057l.5-2.805.501-2.905.501-2.905.4-2.905.301-2.905.3-2.906.201-3.005.2-2.905.1-2.905.1-2.905v-3.006m328.181.501H973.22m73.029-96.57l-80.543 16.028m90.059 80.142l-.1-8.816-.2-8.816-.4-8.815-.602-8.716-.701-8.815-.802-8.716-1.001-8.815-1.202-8.716-1.303-8.615-1.502-8.715-1.703-8.615m-72.629 96.17l-.1-7.414-.2-7.312-.3-7.313-.402-7.313-.6-7.313-.702-7.313-.901-7.213-1.002-7.313-1.102-7.213-1.202-7.212-1.403-7.213m80.543-16.028l-80.543 16.028m52.594-108.492l-75.935 31.456m103.884 61.008l-1.703-8.616-2.004-8.615-2.104-8.515-2.204-8.515-2.404-8.415-2.604-8.515-2.705-8.314-2.805-8.315-3.005-8.315-3.206-8.214-3.206-8.115m-52.593 108.492l-1.502-7.213-1.603-7.112-1.703-7.113-1.904-7.112-2.003-7.013-2.104-7.112-2.304-6.913-2.304-6.912-2.504-6.912-2.705-6.812-2.705-6.812m30.855 157.578h-82.146m74.632-80.542l-80.542 16.028"/><path d="M973.62 507.998l-.1-7.414-.2-7.312-.3-7.313-.402-7.313-.6-7.313-.702-7.313-.901-7.213-1.002-7.313-1.102-7.213-1.202-7.212-1.403-7.213m-74.231 80.142v-5.91l-.2-5.911-.3-5.81-.301-5.81-.501-5.911-.601-5.81-.601-5.81-.802-5.811-.901-5.81-1.002-5.81-1.102-5.71m80.542-16.029l-80.542 16.028m57.201-93.064l-75.834 31.355m99.175 45.681l-1.502-7.213-1.603-7.112-1.703-7.113-1.904-7.112-2.003-7.013-2.104-7.112-2.304-6.913-2.304-6.912-2.504-6.912-2.705-6.812-2.705-6.812m-57.201 93.064l-1.202-5.81-1.302-5.71-1.403-5.71-1.503-5.61-1.602-5.61-1.703-5.71-1.804-5.51-1.903-5.61-2.004-5.51-2.103-5.409-2.104-5.51m151.769-62.811l-75.935 31.456m30.354-116.706l-68.321 45.68m113.902 39.57l-3.507-8.114-3.606-8.014-3.707-8.014-3.807-7.914-4.007-7.814-4.207-7.714-4.308-7.713-4.408-7.614-4.508-7.513-4.708-7.413-4.808-7.413M942.365 350.82l-2.905-6.812-2.905-6.712-3.106-6.612-3.306-6.611-3.305-6.512-3.406-6.411-3.607-6.412-3.706-6.31-3.807-6.312-3.907-6.21-4.007-6.112m68.321-45.68l-68.321 45.68m7.012-120.312l-58.102 58.102m119.411 16.53l-5.01-7.213-5.008-7.213-5.21-7.112-5.309-6.913-5.51-6.912-5.61-6.812-5.71-6.712-5.81-6.611-5.91-6.512-6.01-6.311-6.212-6.311m-7.012 120.312l-4.107-6.11-4.208-5.91-4.408-5.911-4.407-5.81-4.508-5.81-4.709-5.61-4.708-5.61-4.909-5.51-4.908-5.41-5.01-5.31-5.208-5.209m89.057 133.236l-75.834 31.355m37.867-102.381l-68.32 45.58"/><path d="M942.365 350.82l-2.905-6.812-2.905-6.712-3.106-6.612-3.306-6.611-3.305-6.512-3.406-6.411-3.607-6.412-3.706-6.31-3.807-6.312-3.907-6.21-4.007-6.112m-37.867 102.381l-2.304-5.31-2.404-5.409-2.505-5.31-2.604-5.308-2.605-5.21-2.805-5.109-2.905-5.109-2.905-5.109-3.005-5.009-3.106-5.008-3.306-4.91m68.321-45.58l-68.32 45.58m17.23-107.79l-58.003 58.003m109.093 4.207l-4.107-6.11-4.208-5.91-4.408-5.911-4.407-5.81-4.508-5.81-4.709-5.61-4.708-5.61-4.909-5.51-4.908-5.41-5.01-5.31-5.208-5.209m-17.231 107.791l-3.306-4.809-3.305-4.808-3.507-4.708-3.506-4.609-3.706-4.608-3.707-4.608-3.807-4.408-3.907-4.407-3.906-4.308-4.008-4.308-4.107-4.207m96.17 232.411l-82.145-.1m75.834-64.014l-80.542 16.029m86.853 48.085v-5.91l-.2-5.911-.3-5.81-.301-5.81-.501-5.911-.601-5.81-.601-5.81-.802-5.811-.901-5.81-1.002-5.81-1.102-5.71m-75.834 64.012v-4.307l-.1-4.408-.2-4.408-.301-4.408-.4-4.407-.401-4.308-.501-4.408-.601-4.408-.602-4.307-.8-4.308-.802-4.307m80.542-16.029l-80.542 16.029m61.909-77.738l-75.934 31.456m94.567 30.253l-1.202-5.81-1.302-5.71-1.403-5.71-1.503-5.61-1.602-5.61-1.703-5.71-1.804-5.51-1.903-5.61-2.004-5.51-2.103-5.409-2.104-5.51m-61.909 77.738l-.902-4.308-1.002-4.308-1.001-4.307-1.102-4.208-1.203-4.207-1.302-4.308-1.402-4.107-1.403-4.207-1.502-4.108-1.603-4.107-1.603-4.107m18.333 94.767h-82.146m77.838-48.485l-80.543 16.028"/><path d="M809.33 507.897v-4.307l-.1-4.408-.2-4.408-.301-4.408-.4-4.407-.401-4.308-.501-4.408-.601-4.408-.602-4.307-.8-4.308-.802-4.307m-77.437 47.984v-2.905l-.1-2.905-.1-2.905-.2-2.905-.201-3.005-.3-2.906-.301-2.905-.401-2.905-.5-2.905-.502-2.905-.5-2.805m80.542-16.028l-80.543 16.028m66.518-62.311l-75.834 31.456m89.859 14.827l-.902-4.308-1.002-4.308-1.001-4.307-1.102-4.208-1.203-4.207-1.302-4.308-1.402-4.107-1.403-4.207-1.502-4.108-1.603-4.107-1.603-4.107M724.08 475.94l-.602-2.904-.7-2.905-.702-2.805-.701-2.805-.802-2.805-.901-2.905-.902-2.705-.902-2.805-1.001-2.805-1.102-2.705-1.002-2.705M214.479 159.482l6.311-6.211 6.311-6.01 6.512-5.911 6.611-5.81 6.712-5.71 6.812-5.61 6.913-5.51 6.912-5.31 7.112-5.209 7.213-5.009 7.213-5.009m-16.529 119.411l5.209-5.209 5.31-5.009 5.409-4.908 5.51-4.909 5.61-4.708 5.61-4.709 5.81-4.508 5.81-4.407 5.91-4.408 5.91-4.208 6.112-4.107m-120.313-7.012l58.103 58.102M289.11 98.173l45.682 68.321"/><path d="M272.582 217.584l5.209-5.209 5.31-5.009 5.409-4.908 5.51-4.909 5.61-4.708 5.61-4.709 5.81-4.508 5.81-4.407 5.91-4.408 5.91-4.208 6.112-4.107m-4.208 109.093l4.208-4.107 4.307-4.007 4.308-3.907 4.408-3.907 4.407-3.807 4.608-3.706 4.609-3.707 4.608-3.506 4.708-3.506 4.809-3.306 4.808-3.306m-107.79-17.231l58.002 58.003m4.208-109.093l45.58 68.32M289.11 98.173l7.414-4.808 7.413-4.708 7.513-4.508 7.614-4.408 7.713-4.308 7.714-4.207 7.814-4.007 7.914-3.807 8.014-3.707 8.014-3.606 8.114-3.506m-39.569 113.901l6.11-4.007 6.211-3.907 6.311-3.807 6.312-3.706 6.41-3.606 6.412-3.406 6.512-3.306 6.611-3.306 6.612-3.106 6.712-2.905 6.812-2.905M289.11 98.173l45.682 68.321m39.569-113.901l31.456 75.934"/><path d="M334.792 166.494l6.11-4.007 6.211-3.907 6.311-3.807 6.312-3.706 6.41-3.606 6.412-3.406 6.512-3.306 6.611-3.306 6.612-3.106 6.712-2.905 6.812-2.905m-25.445 106.288l4.909-3.306 5.009-3.105 5.008-3.006 5.11-2.905 5.108-2.905 5.11-2.805 5.209-2.605 5.31-2.604 5.308-2.505 5.41-2.404 5.31-2.304m-102.381-37.867l45.58 68.32m25.445-106.287l31.355 75.834M374.361 52.593l8.115-3.206 8.214-3.205 8.315-3.006 8.315-2.805 8.314-2.704 8.515-2.605 8.415-2.404 8.515-2.204 8.515-2.104 8.616-2.003 8.615-1.703m-61.008 103.883l6.812-2.705 6.812-2.704 6.912-2.505 6.913-2.304 6.912-2.304 7.112-2.104 7.013-2.003 7.112-1.904 7.113-1.703 7.112-1.602 7.213-1.503M374.361 52.593l31.456 75.934m61.008-103.883l16.028 80.542"/><path d="M405.817 128.527l6.812-2.705 6.812-2.704 6.912-2.505 6.913-2.304 6.912-2.304 7.112-2.104 7.013-2.003 7.112-1.904 7.113-1.703 7.112-1.602 7.213-1.503m-45.681 99.175l5.51-2.104 5.41-2.103 5.51-2.004 5.61-1.903 5.51-1.803 5.71-1.703 5.61-1.603 5.609-1.503 5.71-1.402 5.71-1.303 5.81-1.202m-93.064-57.201l31.355 75.834m45.681-99.175l16.028 80.542M466.825 24.644l8.615-1.703 8.715-1.503 8.616-1.302 8.715-1.203 8.816-1.001 8.715-.802 8.816-.701 8.715-.601 8.816-.4 8.815-.201 8.716-.1"/><path d="M482.853 105.186l7.213-1.403 7.213-1.202 7.212-1.102 7.313-1.001 7.213-.902 7.313-.701 7.313-.601 7.313-.401 7.313-.3 7.313-.201 7.313-.1m-96.07-72.628l16.028 80.542m79.641-89.659v82.146"/><path d="M482.853 105.186l7.213-1.403 7.213-1.202 7.212-1.102 7.313-1.001 7.213-.902 7.313-.701 7.313-.601 7.313-.401 7.313-.3 7.313-.201 7.313-.1m-64.014 88.456l5.71-1.102 5.81-1.002 5.811-.901 5.81-.802 5.81-.6 5.81-.602 5.911-.5 5.81-.301 5.81-.3 5.911-.201h5.81m-80.041-74.231l16.028 80.542m63.613-88.055v82.145m-125.322 24.543l5.51-2.104 5.41-2.103 5.51-2.004 5.61-1.903 5.51-1.803 5.71-1.703 5.61-1.603 5.609-1.503 5.71-1.402 5.71-1.303 5.81-1.202m-30.253 94.567l4.107-1.603 4.108-1.602 4.107-1.503 4.207-1.403 4.107-1.402 4.308-1.302 4.208-1.202 4.207-1.102 4.308-1.002 4.307-1.002 4.308-.902m-77.738-61.909l31.456 75.934m30.253-94.567l16.029 80.542"/><path d="M468.628 280.295l4.107-1.603 4.108-1.602 4.107-1.503 4.207-1.403 4.107-1.402 4.308-1.302 4.208-1.202 4.207-1.102 4.308-1.002 4.307-1.002 4.308-.902m-14.826 89.86l2.704-1.003 2.705-1.101 2.805-1.002 2.805-.902 2.705-.901 2.905-.902 2.805-.801 2.805-.702 2.805-.7 2.905-.702 2.905-.601m-62.31-66.518l31.456 75.834m14.826-89.859l16.028 80.543m-32.057-161.085l5.71-1.102 5.81-1.002 5.811-.901 5.81-.802 5.81-.6 5.81-.602 5.911-.5 5.81-.301 5.81-.3 5.911-.201h5.81M514.91 266.27l4.307-.8 4.308-.802 4.308-.601 4.407-.601 4.408-.501 4.308-.401 4.408-.4 4.407-.301 4.408-.2 4.408-.1h4.408m-64.114-75.835l16.029 80.542m47.985-86.853l.1 82.145"/><path d="M514.91 266.27l4.307-.8 4.308-.802 4.308-.601 4.407-.601 4.408-.501 4.308-.401 4.408-.4 4.407-.301 4.408-.2 4.408-.1h4.408m-32.057 85.25l2.805-.501 2.905-.501 2.905-.5 2.905-.402 2.906-.3 2.905-.3 3.005-.201 2.905-.2 2.905-.1 2.905-.1h3.006M514.91 266.27l16.028 80.543m32.558-84.85v82.145m-.601-328.981l8.815.1 8.816.2 8.815.401 8.716.601 8.815.701 8.716.802 8.815 1.001 8.716 1.203 8.615 1.302 8.715 1.503 8.615 1.703m-96.169 72.628l7.413.1 7.313.2 7.313.3 7.312.402 7.313.6 7.313.702 7.213.902 7.313 1.001 7.213 1.102 7.212 1.202 7.213 1.403m-80.542-89.659v82.146m96.57-73.029l-16.028 80.542"/><path d="M562.895 97.272l7.413.1 7.313.2 7.313.3 7.312.402 7.313.6 7.313.702 7.213.902 7.313 1.001 7.213 1.102 7.212 1.202 7.213 1.403m-80.141 74.231h5.91l5.91.2 5.81.3 5.811.301 5.91.501 5.81.601 5.811.601 5.81.802 5.81.901 5.81 1.002 5.71 1.102m-64.513-88.055v82.145m80.542-74.632l-16.028 80.542m32.056-161.084l8.616 1.703 8.615 2.003 8.515 2.104 8.515 2.204 8.415 2.404 8.515 2.605 8.315 2.704 8.314 2.805 8.315 3.006 8.215 3.205 8.114 3.206m-108.492 52.593l7.213 1.503 7.112 1.602 7.113 1.703 7.113 1.904 7.012 2.003 7.113 2.104 6.912 2.304 6.912 2.304 6.912 2.505 6.812 2.704 6.812 2.705M659.064 24.644l-16.028 80.542m108.492-52.593l-31.456 75.934"/><path d="M643.036 105.186l7.213 1.503 7.112 1.602 7.113 1.703 7.113 1.904 7.012 2.003 7.113 2.104 6.912 2.304 6.912 2.304 6.912 2.505 6.812 2.704 6.812 2.705m-93.064 57.201l5.81 1.202 5.71 1.303 5.71 1.402 5.61 1.503 5.61 1.603 5.71 1.703 5.51 1.803 5.61 1.903 5.51 2.004 5.41 2.103 5.509 2.104m-45.681-99.175l-16.028 80.542m93.064-57.201l-31.355 75.834m-125.822-24.944h5.91l5.91.2 5.81.3 5.811.301 5.91.501 5.81.601 5.811.601 5.81.802 5.81.901 5.81 1.002 5.71 1.102m-64.012 75.834h4.307l4.408.1 4.408.2 4.408.301 4.408.4 4.307.402 4.408.5 4.408.602 4.307.6 4.308.802 4.308.801m-48.085-86.853l.1 82.145m64.013-75.834L610.98 266.27"/><path d="M562.995 261.562h4.307l4.408.1 4.408.2 4.408.301 4.408.4 4.307.402 4.408.5 4.408.602 4.307.6 4.308.802 4.308.801m-47.985 77.437h2.905l2.905.1 2.905.1 2.905.201 3.006.2 2.905.3 2.905.301 2.905.401 2.905.501 2.905.5 2.805.502m-31.455-84.85v82.145m47.484-77.838l-16.029 80.543m32.057-161.085l5.81 1.202 5.71 1.303 5.71 1.402 5.61 1.503 5.61 1.603 5.71 1.703 5.51 1.803 5.61 1.903 5.51 2.004 5.41 2.103 5.509 2.104M610.98 266.27l4.307.902 4.308 1.002 4.307 1.002 4.208 1.102 4.207 1.202 4.308 1.302 4.107 1.402 4.208 1.403 4.107 1.503 4.107 1.602 4.107 1.603m-30.253-94.567L610.98 266.27m77.737-61.909l-31.456 75.934"/><path d="M610.98 266.27l4.307.902 4.308 1.002 4.307 1.002 4.208 1.102 4.207 1.202 4.308 1.302 4.107 1.402 4.208 1.403 4.107 1.503 4.107 1.602 4.107 1.603m-62.31 66.518l2.905.6 2.905.702 2.805.701 2.805.702 2.805.801 2.905.902 2.705.901 2.805.902 2.805 1.002 2.705 1.101 2.705 1.002M610.98 266.27l-16.029 80.543m62.31-66.518l-31.455 75.834M751.528 52.593l8.114 3.506 8.014 3.606 8.015 3.707 7.913 3.807 7.814 4.007 7.714 4.207 7.714 4.308 7.613 4.408 7.513 4.508 7.413 4.708 7.413 4.808m-116.706 30.354l6.812 2.905 6.712 2.905 6.612 3.106 6.612 3.306 6.511 3.306 6.411 3.406 6.412 3.606 6.31 3.706 6.312 3.807 6.211 3.907 6.11 4.007M751.528 52.593l-31.456 75.934m116.706-30.354l-45.68 68.321"/><path d="M720.072 128.527l6.812 2.905 6.712 2.905 6.612 3.106 6.612 3.306 6.511 3.306 6.411 3.406 6.412 3.606 6.31 3.706 6.312 3.807 6.211 3.907 6.11 4.007m-102.38 37.867l5.31 2.304 5.409 2.404 5.31 2.505 5.309 2.604 5.209 2.605 5.109 2.805 5.109 2.905 5.109 2.905 5.009 3.006 5.009 3.105 4.908 3.306m-25.445-106.288l-31.355 75.834m102.381-37.867l-45.58 68.32m91.26-136.641l7.213 5.01 7.213 5.008 7.113 5.21 6.912 5.309 6.912 5.51 6.812 5.61 6.712 5.71 6.612 5.81 6.511 5.91 6.311 6.01 6.311 6.212m-120.312 7.012l6.11 4.107 5.911 4.208 5.91 4.408 5.81 4.407 5.811 4.508 5.61 4.709 5.61 4.708 5.51 4.909 5.41 4.908 5.308 5.01 5.21 5.208m-16.53-119.411l-45.68 68.321m120.312-7.012l-58.102 58.102"/><path d="M791.098 166.494l6.11 4.107 5.911 4.208 5.91 4.408 5.81 4.407 5.811 4.508 5.61 4.709 5.61 4.708 5.51 4.909 5.41 4.908 5.308 5.01 5.21 5.208m-107.791 17.231l4.809 3.306 4.808 3.306 4.709 3.506 4.608 3.506 4.608 3.707 4.608 3.706 4.408 3.807 4.408 3.907 4.307 3.907 4.308 4.007 4.207 4.107m-4.207-109.093l-45.58 68.32m107.79-17.23l-58.003 58.003"/></g></svg>