<svg width="1506.667" height="1356" viewBox="0 0 1130 1017" xmlns="http://www.w3.org/2000/svg" version="1.2" baseProfile="tiny"><g stroke-width="3.005" stroke-miterlimit="2" fill="none" stroke="#000" fill-rule="evenodd" font-family="Sans Serif" font-size="9" font-weight="400"><path d="M214.479 856.413l50.99-50.99m108.892 157.879l32.658-86.453m-192.54-20.436l12.622 12.222 13.123 11.72 13.524 11.32 13.825 10.82 14.325 10.218 14.626 9.817 14.926 9.216 15.327 8.716 15.528 8.214 15.928 7.513 16.128 7.113M265.47 805.423l141.55 71.426m-141.55-71.426l51.09-51.09m90.46 122.517l32.757-86.453M265.47 805.423l141.55 71.426m-90.46-122.516l123.217 36.064m311.751 172.905l-32.658-86.453m192.54-20.436l-50.99-50.99M751.528 963.302l16.128-7.113 15.928-7.513 15.528-8.214 15.327-8.716 14.926-9.216 14.626-9.817 14.326-10.218 13.824-10.82 13.524-11.32 13.123-11.72 12.622-12.222M718.87 876.85l141.55-71.427M718.87 876.85l-32.758-86.453m174.308 15.026l-51.09-51.09M718.87 876.85l141.55-71.427m-174.308-15.026l123.218-36.064m-594.851 102.08l-12.222-12.622-11.72-13.123-11.32-13.524-10.82-13.825-10.218-14.325-9.817-14.626-9.216-14.926-8.716-15.327-8.214-15.528-7.513-15.928-7.113-16.128m157.88 108.892l-71.427-141.55m20.436 192.54l50.99-50.99M107.59 696.53l86.453-32.657m71.427 141.55l-71.427-141.55m122.517 90.46l-36.064-123.218M265.47 805.423l51.09-51.09m-122.517-90.46l86.453-32.758M107.59 319.364l7.113-16.128 7.513-15.928 8.214-15.528 8.716-15.327 9.216-14.926 9.817-14.626 10.219-14.325 10.819-13.825 11.32-13.524 11.72-13.123 12.222-12.622m-20.436 192.54l71.426-141.55M107.59 319.364l86.453 32.658m20.436-192.54l50.99 50.99m-71.426 141.55l71.426-141.55m15.027 174.308l36.063-123.218m-122.516 90.46l86.453 32.758M265.47 210.472l51.09 51.09m594.85 594.851l-50.99-50.99M1018.3 696.53l-86.454-32.657m-20.436 192.54l12.222-12.622 11.72-13.123 11.32-13.524 10.82-13.825 10.218-14.325 9.817-14.626 9.216-14.926 8.716-15.327 8.214-15.528 7.514-15.928 7.112-16.128M860.42 805.423l71.426-141.55m-71.426 141.55l-51.09-51.09m122.516-90.46l-86.452-32.758m15.026 174.308l71.426-141.55m-122.516 90.46l36.064-123.218M1018.3 319.364l-86.454 32.658m-20.436-192.54l-50.99 50.99m157.88 108.892l-7.113-16.128-7.514-15.928-8.214-15.528-8.716-15.327-9.216-14.926-9.817-14.626-10.218-14.325-10.82-13.825-11.32-13.524-11.72-13.123-12.222-12.622m20.436 192.54l-71.426-141.55m71.426 141.55l-86.452 32.758m15.026-174.308l-51.09 51.09m122.516 90.46l-71.426-141.55M845.394 384.78L809.33 261.562m-594.851-102.08l12.622-12.222 13.123-11.72 13.524-11.32 13.825-10.82 14.325-10.218 14.626-9.817 14.926-9.216 15.327-8.716 15.528-8.214 15.928-7.514 16.128-7.112M265.47 210.472l141.55-71.426m-192.541 20.436l50.99 50.99M374.361 52.593l32.658 86.453M265.47 210.472l141.55-71.426m-90.46 122.516l123.217-36.064M265.47 210.472l51.09 51.09m90.46-122.516l32.757 86.452M751.528 52.593l16.128 7.112 15.928 7.514 15.528 8.214 15.327 8.716 14.926 9.216 14.626 9.817 14.326 10.218 13.824 10.82 13.524 11.32 13.123 11.72 12.622 12.222m-192.54-20.436l141.55 71.426M751.528 52.593l-32.658 86.453m192.54 20.436l-50.99 50.99m-141.55-71.426l141.55 71.426m-174.308 15.026l123.218 36.064m-90.46-122.516l-32.758 86.452m174.308-15.026l-51.09 51.09M465.222 721.375l25.545-69.123m72.729 87.555v-87.154m-98.274 68.722l97.773 18.031m-72.629-86.753h73.13m0 87.154v-87.154m97.171 68.722l-25.545-69.123m-72.127 87.154l97.672-18.031m-97.171-68.722h72.127M349.518 605.67l-18.032-97.773m86.753 72.629v-72.128m-68.721 97.272l69.122-25.545m-87.555-71.727h87.154m-86.753-.501l18.032-97.672m68.721 98.173v-72.127m-87.154 72.127h87.154m-68.721-98.173l69.122 25.545m357.732 169.9l-69.122-25.545m87.654-71.727h-87.153m68.621 97.272l18.032-97.773m-86.654 72.629v-72.128m87.154 0h-87.153m68.621-98.173L707.25 435.77m87.154 72.127l-18.032-97.672m-68.622 98.173v-72.127M465.222 294.52l97.773-18.031m-72.629 87.654h73.13m-98.274-69.623l25.545 69.123m72.729-86.653v87.153m-.501-87.654l97.672 18.031m-97.171 69.623h72.127m-72.127-87.153v87.153m97.171-69.623l-25.545 69.123m-216.883 289.01v-72.127m72.127 72.127v-72.127m-72.127 72.127h72.127m-72.127-72.127h72.127m0 72.127v-72.127m73.13 72.127v-72.127m-73.13 72.127h73.13m-73.13-72.127h73.13m-145.257 0v-72.128m72.127 72.128v-72.128m-72.127 72.128h72.127m-72.127-72.128h72.127m0 72.128v-72.128m73.13 72.128v-72.128m-73.13 72.128h73.13m-73.13-72.128h73.13m0 144.255v-72.127m72.127 72.127v-72.127m-72.127 72.127h72.127m-72.127-72.127h72.127m0 72.127v-72.127m72.127 72.127v-72.127m-72.127 72.127h72.128m-72.128-72.127h72.128m-144.255 0v-72.128m72.127 72.128v-72.128m-72.127 72.128h72.127m-72.127-72.128h72.127m0 72.128v-72.128m72.127 72.128v-72.128m-72.127 72.128h72.128m-72.128-72.128h72.128m-289.512 0v-72.127m72.127 72.127v-72.127m-72.127 72.127h72.127m-72.127-72.128h72.127m0 72.128v-72.127m73.13 72.127v-72.127m-73.13 72.127h73.13m-73.13-72.128h73.13m-145.257 0v-72.127m72.127 72.127v-72.127m-72.127 72.127h72.127m-72.127-72.127h72.127m0 72.127v-72.127m73.13 72.127v-72.127m-73.13 72.127h73.13m-73.13-72.127h73.13m0 144.255v-72.127m72.127 72.127v-72.127m-72.127 72.127h72.127m-72.127-72.128h72.127m0 72.128v-72.127m72.127 72.127v-72.127m-72.127 72.127h72.128m-72.128-72.128h72.128m-144.255 0v-72.127m72.127 72.127v-72.127m-72.127 72.127h72.127m-72.127-72.127h72.127m0 72.127v-72.127m72.127 72.127v-72.127m-72.127 72.127h72.128m-72.128-72.127h72.128M407.02 876.85l16.328-43.177m61.609 61.609l8.214-43.377M407.02 876.85l77.937 18.432m-61.609-61.609l69.823 18.232m-8.214 43.377l8.214-43.377m69.323 62.21v-44.078m-77.537 25.245l77.938 18.332m-69.724-61.709l69.724 18.232m-139.547-36.464l16.429-43.276m53.394 61.508l8.215-43.376m-78.038 25.144l69.823 18.232m-53.394-61.508l61.609 18.132m-8.215 43.376l8.215-43.376m61.108 61.508v-43.076m-69.323 24.944l69.724 18.232m-61.509-61.608l61.509 18.031m-.401 87.555v-44.078m78.438 25.245l-8.214-43.377m-69.823 61.709l78.037-18.332m-78.037-25.145l69.823-18.232m8.214 43.377l-8.214-43.377m86.152 24.945l-16.329-43.177m-61.609 61.609l77.938-18.433m-86.152-24.944l69.823-18.232m-140.047 36.364v-43.076m70.224 24.944l-8.215-43.376m-61.608 61.608l69.823-18.232m-69.823-25.345l61.608-18.031m8.215 43.376l-8.215-43.376m78.038 25.144l-16.429-43.276m-53.394 61.508l69.823-18.232m-78.038-25.144l61.61-18.132m-492.07-126.524l-18.433-77.938m61.61 61.609l-18.233-69.823m-24.944 86.152l43.176-16.329m-61.609-61.609l43.377-8.214m18.233 69.823l-18.233-69.823m61.509 53.394l-18.132-61.609m-25.144 78.038l43.276-16.429m-61.509-53.395l43.377-8.214m-86.754 16.429l-18.332-77.937m61.709 69.722l-18.232-69.722m-25.145 77.937l43.377-8.214m-61.208-69.323h43.076m18.132 69.322l-18.232-69.722m61.609 61.508l-18.032-61.508m-25.345 69.722l43.377-8.214m-61.509-61.108h43.076m-86.653-.4l18.332-78.038m25.145 78.038l18.232-69.824m-61.208 70.224h43.076M175.61 429.96l43.377 8.214m-18.232 69.824l18.232-69.824m25.345 69.824l18.032-61.61m-61.509 62.01h43.076m-24.944-70.224l43.377 8.215M175.61 429.96l18.433-77.938m24.944 86.152l18.232-69.823M175.61 429.96l43.377 8.214m-24.944-86.152l43.176 16.329m-18.232 69.823l18.232-69.823m25.145 78.038l18.132-61.61m-61.509 53.395l43.377 8.215M237.22 368.35l43.276 16.43m651.35 279.093l-43.176-16.329m61.609-61.609l-43.377-8.214m24.944 86.152l18.433-77.938m-61.609 61.609l18.232-69.823m43.377 8.214l-43.377-8.214m61.308-69.323h-43.075m25.144 77.537l18.332-77.937m-61.709 69.722l18.233-69.722M888.67 647.544l-43.276-16.429m61.508-53.395l-43.376-8.214m25.144 78.038l18.232-69.823m-61.508 53.394l18.132-61.609m43.376 8.214l-43.376-8.214m61.609-61.108h-43.077m24.844 69.322l18.233-69.722m-61.609 61.508l18.032-61.508m86.652.4h-43.075m25.144-78.438l-43.377 8.214m61.709 69.824L950.28 429.96m-25.145 78.038l-18.233-69.824m43.377-8.214l-43.377 8.214m24.944-86.152l-43.176 16.329m61.609 61.609l-18.433-77.938m-24.944 86.152l-18.232-69.823m36.465 140.047h-43.077m24.844-70.224l-43.376 8.215m61.609 61.609l-18.233-69.824m-25.344 69.824l-18.032-61.61m43.376-8.214l-43.376 8.215m25.144-78.039l-43.276 16.43m61.508 53.394l-18.232-69.823m-25.144 78.038l-18.132-61.61M407.02 139.046l77.937-18.433m-61.609 61.609l69.823-18.232m-86.151-24.944l16.328 43.176m61.609-61.609l8.214 43.377m-69.823 18.232l69.823-18.232m-53.394 61.508l61.609-18.132m-78.038-25.144l16.429 43.276m53.394-61.508l8.215 43.376m-16.429-86.753l77.938-18.332m-69.724 61.709l69.724-18.232m-77.938-25.145l8.214 43.377m69.323-61.309v43.077m-69.323 18.232l69.724-18.232m-61.509 61.608l61.509-18.031m-69.724-25.345l8.215 43.376m61.108-61.608v44.077m.401-87.555l78.037 18.333m-78.037 25.145l69.823 18.232m-70.224-61.309v43.077m78.438-25.145l-8.214 43.377m-69.823-18.232l69.823 18.232m-69.823 25.345l61.608 18.031m-62.009-61.608v44.077m70.224-25.845l-8.215 43.376m16.429-86.753l77.938 18.433m-86.152 24.944l69.823 18.232m-61.609-61.609l-8.214 43.377m86.152-24.944l-16.329 43.176m-69.823-18.232l69.823 18.232m-78.038 25.144l61.61 18.132m-53.395-61.508l-8.215 43.376m78.038-25.144l-16.429 43.276M374.361 963.302l16.33-43.276m76.134 71.225l9.116-47.984m-101.58 20.035l8.115 3.206 8.214 3.205 8.315 3.006 8.315 2.805 8.314 2.704 8.515 2.605 8.415 2.404 8.515 2.204 8.515 2.104 8.616 2.003 8.615 1.703m-76.135-71.225l85.25 23.24m-9.115 47.985l9.116-47.984m86.553 58.003v-44.08m-95.669 34.061l8.615 1.703 8.715 1.503 8.616 1.302 8.715 1.203 8.816 1.001 8.715.802 8.816.7 8.715.602 8.816.4 8.815.201 8.716.1m-86.955-57.501l86.955 13.924M390.69 920.026l16.33-43.177m68.92 66.418l9.017-47.985m-94.267 24.744l85.25 23.24m-68.92-66.416l77.937 18.432m-9.017 47.985l9.017-47.985m77.537 61.909v-43.076m-86.554 29.152l86.955 13.924m-77.938-61.909l77.938 18.332m-.401 87.656v-44.08m96.57 34.061l-9.116-47.984m-87.053 57.501l8.815-.1 8.816-.2 8.815-.401 8.716-.601 8.815-.701 8.716-.802 8.815-1.001 8.716-1.203 8.615-1.302 8.715-1.503 8.615-1.703m-96.169-34.06l87.053-13.924m9.116 47.984l-9.116-47.984m101.58 20.035l-16.329-43.276m-76.135 71.225l8.616-1.703 8.615-2.003 8.515-2.104 8.515-2.204 8.415-2.404 8.515-2.605 8.315-2.704 8.314-2.805 8.315-3.006 8.215-3.205 8.114-3.206m-101.58-20.035l85.251-23.241m-172.705 37.165v-43.076m87.454 29.152l-9.016-47.985m-78.037 61.909l87.053-13.924m-87.053-29.653l78.037-18.332m9.016 47.985l-9.016-47.985m94.267 24.744l-16.329-43.177m-68.922 66.418l85.251-23.241m-94.267-24.744l77.938-18.433M107.59 696.53l-3.206-8.114-3.205-8.214-3.006-8.315-2.804-8.315-2.705-8.314-2.605-8.515-2.404-8.415-2.204-8.515-2.104-8.515-2.003-8.615-1.703-8.616m71.226 76.135l-23.242-85.25M107.59 696.53l43.277-16.328M79.64 604.067l47.985-9.116m23.242 85.251l-23.242-85.25m66.418 68.921l-18.433-77.938m-24.743 94.267l43.176-16.329m-66.418-68.922l47.985-9.016m-95.97 18.132l-1.702-8.615-1.503-8.715-1.302-8.616-1.202-8.715-1.002-8.816-.802-8.715-.7-8.815-.602-8.716-.4-8.815-.2-8.816-.101-8.715m57.501 86.953l-13.924-86.953M79.64 604.067l47.985-9.116m-57-86.553H113.7m13.925 86.553l-13.924-86.953m61.909 77.937l-18.332-77.937m-29.653 86.953l47.985-9.016m-61.91-77.537h44.079"/><path d="M70.124 507.998l.1-8.816.2-8.816.401-8.815.601-8.716.701-8.815.802-8.716 1.002-8.815 1.202-8.716 1.302-8.615 1.503-8.715 1.703-8.615m34.059 96.17l13.925-87.054m-57 87.454H113.7m-34.06-96.57l47.985 9.116M113.7 507.998l13.925-87.054m29.653 87.054l18.332-78.038m-61.91 78.438h44.079m-30.154-87.454l47.985 9.016m-95.97-18.132l1.704-8.616 2.003-8.615 2.104-8.515 2.204-8.515 2.404-8.415 2.605-8.515 2.705-8.314 2.804-8.315 3.006-8.315 3.205-8.214 3.206-8.115m20.035 101.58l23.242-85.25M79.64 411.828l47.985 9.116m-20.035-101.58l43.277 16.33m-23.242 85.25l23.242-85.25m24.743 94.266l18.433-77.938m-66.418 68.922l47.985 9.016m-24.743-94.267l43.176 16.329M1018.3 696.53l-43.277-16.328m71.226-76.135l-47.985-9.116M1018.3 696.53l3.205-8.114 3.206-8.214 3.005-8.315 2.805-8.315 2.705-8.314 2.604-8.515 2.404-8.415 2.204-8.515 2.104-8.515 2.004-8.615 1.703-8.616m-71.226 76.135l23.24-85.25m47.986 9.115l-47.985-9.116m57.101-86.553h-43.076m33.96 95.669l1.703-8.615 1.502-8.715 1.303-8.616 1.202-8.715 1.001-8.816.802-8.715.701-8.815.601-8.716.4-8.815.201-8.816.1-8.715m-57.501 86.953l13.924-86.953m-37.165 172.204l-43.177-16.329m66.418-68.922l-47.985-9.016m24.744 94.267l23.24-85.25m-66.417 68.921l18.433-77.938m47.985 9.016l-47.985-9.016m62.01-77.537H968.21m30.054 86.553l13.924-86.953m-61.909 77.937l18.332-77.937m86.754.4h-43.076m33.96-96.57l-47.985 9.116"/><path d="M1055.765 507.998l-.1-8.816-.2-8.816-.4-8.815-.602-8.716-.701-8.815-.802-8.716-1.001-8.815-1.202-8.716-1.303-8.615-1.502-8.715-1.703-8.615m-34.061 96.17l-13.924-87.054m47.985-9.116l-47.985 9.116m20.036-101.58l-43.277 16.33m71.226 76.134l-1.703-8.616-2.004-8.615-2.104-8.515-2.204-8.515-2.404-8.415-2.604-8.515-2.705-8.314-2.805-8.315-3.005-8.315-3.206-8.214-3.206-8.115m-20.035 101.58l-23.241-85.25m37.266 172.704H968.21m30.054-87.454l-47.985 9.016m61.909 78.038l-13.924-87.054m-29.653 87.054L950.28 429.96m47.984-9.016l-47.985 9.016m24.744-94.267l-43.177 16.329m66.418 68.922l-23.241-85.25m-24.744 94.266l-18.433-77.938M374.361 52.593l8.115-3.206 8.214-3.205 8.315-3.006 8.315-2.805 8.314-2.704 8.515-2.605 8.415-2.404 8.515-2.204 8.515-2.104 8.616-2.003 8.615-1.703M390.69 95.87l85.25-23.242M374.361 52.593l16.33 43.276m76.134-71.225l9.116 47.984M390.69 95.87l85.25-23.242m-68.92 66.418l77.937-18.433M390.69 95.87l16.33 43.176m68.92-66.418l9.017 47.985m-18.132-95.969l8.615-1.703 8.715-1.503 8.616-1.302 8.715-1.203 8.816-1.001 8.715-.802 8.816-.701 8.715-.601 8.816-.4 8.815-.201 8.716-.1M475.94 72.628l86.955-13.924m-96.07-34.06l9.116 47.984m86.553-57.101v43.077M475.94 72.628l86.955-13.924m-77.938 61.909l77.938-18.332M475.94 72.628l9.017 47.985m77.537-62.009v44.077"/><path d="M562.895 15.127l8.815.1 8.816.2 8.815.401 8.716.601 8.815.701 8.716.802 8.815 1.001 8.716 1.203 8.615 1.302 8.715 1.503 8.615 1.703m-96.169 34.06l87.053 13.924m-87.454-57.101v43.077m96.57-33.96l-9.116 47.984m-87.053-13.924l87.053 13.924m-87.053 29.652l78.037 18.333m-78.438-62.009v44.077m87.454-30.053l-9.016 47.985m18.132-95.969l8.616 1.703 8.615 2.003 8.515 2.104 8.515 2.204 8.415 2.404 8.515 2.605 8.315 2.704 8.314 2.805 8.315 3.006 8.215 3.205 8.114 3.206m-101.58 20.035L735.2 95.87m-76.136-71.226l-9.116 47.984m101.58-20.035l-16.329 43.276m-85.251-23.241L735.2 95.87m-94.268 24.743l77.938 18.433m-68.922-66.418l-9.016 47.985m94.267-24.743l-16.329 43.176M316.56 754.333l25.444-25.445m36.164 43.477l19.134-29.953m-80.742 11.921l61.608 18.032m-36.164-43.477l55.298 13.524m-19.134 29.953l19.134-29.953m42.475 47.985l12.723-34.461m-74.332 16.429l61.609 18.032m-42.475-47.985l55.198 13.524m-110.496-27.048l25.545-25.545m29.753 39.069l19.134-30.053m-74.432 16.529l55.298 13.524m-29.752-39.069l48.886 9.016m-19.134 30.053l19.134-30.053m36.064 43.577l12.722-34.561m-67.92 21.037l55.198 13.524m-36.064-43.577l48.786 9.016m-25.445 69.022l12.723-34.461m48.886 52.593l6.311-39.07m-67.92 20.938l61.609 18.132M452.5 755.936l55.197 13.524m-6.311 39.069l6.311-39.07m55.198 57.101l.1-43.577m-61.609 25.546l61.509 18.031m-55.198-57.1l55.298 13.523M452.5 755.936l12.722-34.561m42.475 48.085l6.411-39.07M452.5 755.936l55.197 13.524m-42.475-48.085l48.886 9.016m-6.411 39.069l6.411-39.07m49.388 52.493v-43.076m-55.799 29.653l55.298 13.523m-48.887-52.593l48.887 9.016M367.55 703.343l25.545-25.545m23.341 34.561l19.134-30.053m-68.02 21.037l48.886 9.016m-23.341-34.561l42.475 4.508m-19.134 30.053l19.134-30.053m29.652 39.069l12.823-34.561m-61.609 25.545l48.786 9.016m-29.652-39.069l42.475 4.508m-84.95-9.016l25.545-25.546m16.93 30.054l19.133-30.054m-61.608 25.546l42.475 4.508m-17.331-29.653h36.064m-18.733 29.653l19.133-30.054m23.342 34.562l12.722-34.562m-55.197 30.054l42.475 4.508m-23.742-34.161h36.063m72.529 173.907l.1-43.577m61.508 25.546l-6.31-39.07m-55.298 57.101l61.608-18.031m-61.508-25.546l55.197-13.523m6.311 39.069l-6.31-39.07m67.919 20.938l-12.722-34.461m-48.887 52.593l61.61-18.132m-67.921-20.937l55.198-13.524m-109.894 26.947v-43.076m54.696 29.653l-6.411-39.07m-48.786 52.593l55.197-13.523m-55.197-30.054l48.786-9.015m6.411 39.069l-6.411-39.07m61.609 25.546l-12.723-34.561m-42.475 48.085l55.198-13.524m-61.61-25.546l48.887-9.015m25.445 69.022l-12.722-34.461m74.331 16.429l-19.134-29.953m-42.475 47.985l61.61-18.032m-74.332-16.429l55.197-13.524m19.134 29.953l-19.134-29.953m80.743 11.921l-25.445-25.445m-36.164 43.477l61.609-18.032m-80.743-11.921l55.298-13.524M673.39 755.936l-12.723-34.561m67.92 21.037l-19.133-30.053m-36.064 43.577l55.197-13.524m-67.92-21.037l48.787-9.016m19.133 30.053l-19.133-30.053m74.431 16.529l-25.545-25.545m-29.753 39.069l55.298-13.524m-74.431-16.529l48.886-9.016m-97.673 18.032l-12.822-34.561m61.609 25.545l-19.134-30.053m-29.653 39.069l48.787-9.016m-61.609-25.545l42.475-4.508m19.134 30.053l-19.134-30.053m68.02 21.037l-25.545-25.545m-23.341 34.561l48.886-9.016m-68.02-21.037l42.475-4.508m-84.95 9.016l-12.723-34.562m55.198 30.054l-19.134-30.054m-23.341 34.562l42.475-4.508m-54.697-29.653h36.064m18.633 29.653l-19.134-30.054m61.609 25.546l-25.545-25.546m-16.93 30.054l42.475-4.508m-61.108-25.145h36.064M316.56 754.333l-18.033-61.609m43.477 36.164L328.48 673.59m-11.92 80.743l25.444-25.445m-43.477-36.164l29.953-19.134m13.524 55.298L328.48 673.59m39.07 29.753l-9.017-48.887m-16.529 74.432l25.545-25.545M328.48 673.59l30.053-19.134m-60.006 38.268l-18.031-61.609m47.984 42.475l-13.524-55.197m-16.429 74.331l29.953-19.134m-47.984-42.475l34.46-12.722m13.524 55.197l-13.524-55.197m43.577 36.063l-9.015-48.786m-21.038 67.92l30.053-19.134m-43.577-36.063l34.562-12.723m18.032 97.673l-9.017-48.887m34.562 23.342l-4.508-42.475m-21.037 68.02l25.545-25.545m-34.562-23.342l30.054-19.133m4.508 42.475l-4.508-42.475m29.652 17.33V616.59m-25.144 61.208l25.545-25.546m-30.053-16.929l30.053-19.134m-60.107 38.267l-9.015-48.786m39.069 29.653l-4.508-42.476m-25.546 61.609l30.054-19.133m-39.069-29.653l34.56-12.823m4.509 42.476l-4.508-42.476m34.16 23.743v-36.064m-29.652 54.797l30.053-19.134m-34.561-23.342l34.56-12.722m-138.143 50.99l-18.132-61.609m52.592 48.887l-13.523-55.198m-20.937 67.92l34.46-12.722m-52.592-48.887l39.069-6.31m13.523 55.197l-13.523-55.198m48.085 42.475l-9.016-48.886m-25.546 61.609l34.562-12.723m-48.085-42.475l39.069-6.411m-78.138 12.722l-18.032-61.508m57.101 55.197l-13.524-55.298m-25.545 61.609l39.069-6.31m-57.101-55.198l43.577-.1m13.524 55.297l-13.524-55.298m52.593 48.887l-9.016-48.887m-30.053 55.298l39.069-6.411m-52.493-48.386h43.076m-86.753-.4l18.032-61.61m25.545 61.509l13.524-55.197m-57.101 55.298l43.577-.1m-25.545-61.509l39.069 6.31m-13.524 55.198l13.524-55.197m30.053 55.197l9.016-48.786m-52.493 49.287h43.076M301.433 452.7l39.069 6.411m-78.138-12.722l18.132-61.61m20.937 67.921l13.523-55.198m-52.592 48.887l39.069 6.31m-20.937-67.919l34.46 12.722M301.433 452.7l13.523-55.198m25.546 61.609l9.016-48.886M301.433 452.7l39.069 6.411m-25.546-61.609l34.562 12.723m-69.022-25.445l18.031-61.609m16.429 74.331l13.524-55.197m-47.984 42.475l34.46 12.722m-16.429-74.331l29.953 19.134m-13.524 55.197l13.524-55.197m21.038 67.92l9.015-48.786m-43.577 36.063l34.562 12.723m-21.038-67.92l30.053 19.134m-60.006-38.268l18.032-61.609m11.921 80.743l13.524-55.298m-43.477 36.164l29.953 19.134m-11.92-80.743l25.444 25.445m-13.524 55.298l13.524-55.298m16.529 74.432l9.016-48.887m-39.069 29.753l30.053 19.134m-16.529-74.432l25.545 25.545m-18.031 97.673l9.015-48.786m25.546 61.608l4.508-42.475m-39.069 29.653l34.56 12.822m-25.545-61.608l30.054 19.133m-4.508 42.475l4.508-42.475m29.652 55.698v-36.063m-34.16 22.84l34.56 12.723m-30.052-55.198l30.053 19.134m-60.107-38.267l9.016-48.887m21.038 68.02l4.508-42.475m-34.562 23.342l30.054 19.133m-21.037-68.02l25.545 25.545m-4.508 42.475l4.508-42.475m25.144 62.11v-36.064m-29.652 16.429l30.053 19.134m-25.545-61.609l25.545 25.546m390.69 390.69l-25.445-25.445m43.477-36.164l-29.953-19.134m11.921 80.743l18.032-61.609m-43.477 36.164l13.524-55.298m29.953 19.134l-29.953-19.134m47.985-42.475l-34.461-12.722m16.429 74.331l18.032-61.609m-47.985 42.475l13.524-55.197m-27.048 110.495l-25.545-25.545m39.069-29.753l-30.053-19.134m16.529 74.432l13.524-55.298m-39.069 29.753l9.016-48.887m30.053 19.134l-30.053-19.134m43.577-36.063l-34.561-12.723m21.037 67.92l13.524-55.197m-43.577 36.063l9.016-48.786m69.022 25.445l-34.461-12.722m52.593-48.887l-39.07-6.31m20.938 67.919l18.132-61.609m-52.593 48.887l13.524-55.198m39.069 6.311l-39.07-6.31m57.102-55.198l-43.577-.1m25.545 61.608l18.032-61.508m-57.101 55.197l13.524-55.298m-27.048 110.496l-34.561-12.723m48.085-42.475l-39.07-6.411m25.546 61.609l13.524-55.198m-48.085 42.475l9.016-48.886m39.069 6.411l-39.07-6.411m52.593-48.386h-43.076m29.553 54.797l13.524-55.298m-52.593 48.887l9.016-48.887M758.34 703.343l-25.545-25.545m34.561-23.342l-30.053-19.133m21.037 68.02l9.016-48.887m-34.561 23.342l4.508-42.475m30.053 19.133l-30.053-19.133m39.069-29.653l-34.561-12.823m25.545 61.609l9.016-48.786m-39.069 29.653l4.508-42.476m-9.016 84.951l-25.545-25.546m30.053-16.929l-30.053-19.134m25.545 61.609l4.508-42.475m-29.553 17.33V616.59m29.553 18.733l-30.053-19.134m34.56-23.342l-34.56-12.722m30.053 55.198l4.508-42.476M707.75 616.59v-36.064m173.808-72.528l-43.577-.1m25.545-61.509l-39.07 6.31m57.102 55.299l-18.032-61.61m-25.546 61.509L824.458 452.7m39.068-6.311l-39.07 6.31m20.938-67.919l-34.461 12.722m52.593 48.887l-18.132-61.61M824.457 452.7l-13.524-55.198m27.047 110.896h-43.076m29.553-55.698l-39.07 6.411m52.593 48.786L824.458 452.7m-30.054 55.197l-9.016-48.786m39.069-6.411l-39.07 6.411m25.546-61.609l-34.561 12.723m48.085 42.475l-13.524-55.198m-25.545 61.609l-9.016-48.886m69.022-25.445l-34.461 12.722m16.429-74.331l-29.953 19.134m47.985 42.475l-18.032-61.609m-16.429 74.331l-13.524-55.197m29.953-19.134l-29.953 19.134m11.921-80.743l-25.445 25.445m43.477 36.164l-18.032-61.609m-11.921 80.743l-13.524-55.298m27.048 110.495l-34.561 12.723m21.037-67.92l-30.053 19.134m43.577 36.063l-13.524-55.197m-21.037 67.92l-9.016-48.786m30.053-19.134l-30.053 19.134m16.529-74.432l-25.545 25.545m39.069 29.753l-13.524-55.298m-16.529 74.432l-9.016-48.887m18.032 97.673l-34.561 12.822m25.545-61.608l-30.053 19.133m39.069 29.653l-9.016-48.786m-25.546 61.608l-4.507-42.475m30.053-19.133l-30.053 19.133m21.037-68.02l-25.545 25.545m34.561 23.342l-9.016-48.887m-21.037 68.02l-4.508-42.475m9.015 84.95l-34.56 12.723m30.053-55.198l-30.053 19.134m34.56 23.341l-4.507-42.475M707.75 436.27v-36.063m29.553-19.635l-30.053 19.134m25.545-61.609l-25.545 25.546m30.053 16.929l-4.508-42.475m-25.045 62.11v-36.064M316.56 261.562l61.608-18.032m-36.164 43.477l55.298-13.524m-80.742-11.921l25.444 25.445m36.164-43.477l19.134 29.953m-55.298 13.524l55.298-13.524m-29.752 39.069l48.886-9.016m-74.432-16.529l25.545 25.545m29.753-39.069l19.134 30.053m-38.268-60.006l61.609-18.032m-42.475 47.985L452.5 259.96m-74.332-16.43l19.134 29.953m42.475-47.985L452.5 259.96m-55.198 13.523L452.5 259.96m-36.064 43.576l48.786-9.016m-67.92-21.037l19.134 30.053M452.5 259.96l12.722 34.56m-97.672 18.032l48.886-9.016m-23.341 34.561l42.475-4.508m-68.02-21.037l25.545 25.545m23.341-34.561l19.134 30.053m-42.475 4.508l42.475-4.508m-17.331 30.554h36.064m-61.208-26.046l25.545 25.546m16.93-30.053l19.133 30.053m-38.267-60.107l48.786-9.016m-29.652 39.07l42.475-4.509m-61.609-25.545l19.134 30.053m29.652-39.069l12.823 34.561m-42.475 4.509l42.475-4.509m-23.742 35.062h36.063M435.57 333.59l19.133 30.053m23.342-34.562l12.722 34.562m-50.99-138.145l61.609-18.132M452.5 259.96l55.197-13.525m-67.92-20.937L452.5 259.96m48.886-52.594l6.311 39.07M452.5 259.96l55.197-13.525m-42.475 48.085l48.886-9.016M452.5 259.96l12.722 34.56m42.475-48.085l6.411 39.07m-12.722-78.139l61.509-18.031m-55.198 57.1l55.298-13.523m-61.609-25.546l6.311 39.07m55.198-57.101l.1 43.577m-55.298 13.523l55.298-13.523m-48.887 52.592l48.887-9.015m-55.298-30.054l6.411 39.07m49.388-52.593v44.077m-.601-87.654l61.608 18.031m-61.508 25.546l55.197 13.523m-55.297-57.1l.1 43.577m61.508-25.546l-6.31 39.07m-55.198-13.524l55.197 13.523m-55.197 30.054l48.786 9.015m-48.285-52.592v44.077m54.696-30.554l-6.411 39.07m12.722-78.139l61.61 18.132m-67.921 20.937l55.198 13.524m-48.887-52.593l-6.31 39.07m67.919-20.938L673.39 259.96m-55.198-13.525l55.198 13.524m-61.61 25.545l48.887 9.016m-42.475-48.085l-6.411 39.07m61.609-25.545l-12.723 34.56m25.445-69.022l61.61 18.032m-74.332 16.43l55.197 13.523m-42.475-47.985L673.39 259.96m74.331-16.43l-19.134 29.953M673.39 259.96l55.197 13.523m-67.92 21.037l48.787 9.016M673.39 259.96l-12.723 34.56m67.92-21.037l-19.133 30.053m38.267-60.006l61.609 18.032m-80.743 11.921l55.298 13.524m-36.164-43.477l-19.134 29.953m80.743-11.921l-25.445 25.445m-55.298-13.524l55.298 13.524m-74.431 16.529l48.886 9.016m-29.753-39.069l-19.133 30.053m74.431-16.529l-25.545 25.545m-97.673-18.032l48.787 9.016m-61.609 25.545l42.475 4.508m-29.653-39.069l-12.822 34.561m61.609-25.545L690.32 333.59m-42.475-4.509l42.475 4.508m-54.697 30.554h36.064m-23.842-35.062l-12.723 34.562m55.198-30.053l-19.134 30.053m38.268-60.107l48.886 9.016m-68.02 21.038l42.475 4.507m-23.341-34.561L690.32 333.59m68.02-21.038l-25.545 25.545m-42.475-4.507l42.475 4.507m-61.108 26.046h36.064M690.32 333.59l-19.134 30.053m61.609-25.546l-25.545 25.546"/></g></svg>