<svg width="1506.667" height="1356" viewBox="0 0 1130 1017" xmlns="http://www.w3.org/2000/svg" version="1.2" baseProfile="tiny"><path d="M316.56 754.333l102.08-102.08M562.895 826.56l.1-174.308M316.56 754.333l246.335 72.227M418.239 652.653h145.257m-.601 173.907l.1-174.308M809.33 754.333l-102.08-102.08M562.895 826.56l246.435-72.227m-245.834-101.68H707.75m-391.19 101.68l-72.228-246.335m173.907 144.655V508.398M316.56 754.333l102.08-102.08M244.332 507.998l174.308-.1m-174.308.1l72.227-246.436m101.68 246.836V364.143M244.332 507.998l174.308-.1M316.56 261.562l102.08 102.08m-.401 289.011V508.398m145.257 144.255V508.398M418.239 652.653h145.257M418.239 508.398h145.257m0 144.255V508.398M707.75 652.653V508.398M563.496 652.653H707.75M563.496 508.398H707.75m-289.511 0V364.143m145.257 144.255V364.143M418.239 508.398h145.257M418.239 364.143h145.257m0 144.255V364.143M707.75 508.398V364.143M563.496 508.398H707.75M563.496 364.143H707.75m101.58 390.19l-102.08-102.08m174.308-144.255l-174.308-.1m102.08 246.435l72.228-246.335M707.75 652.653V508.398m173.808-.4l-174.308-.1m102.08-246.336l-102.08 102.08m174.308 144.356L809.33 261.562M707.75 508.398V364.143M316.56 261.562l246.335-72.227M418.239 364.143h145.257M316.56 261.562l102.08 102.08m144.255-174.307l.1 174.308m-.1-174.308l246.435 72.227M563.496 364.143H707.75M562.895 189.335l.1 174.308M809.33 261.562l-102.08 102.08M214.479 856.413l50.99-50.99m108.892 157.879l32.658-86.453m-192.54-20.436l12.622 12.222 13.123 11.72 13.524 11.32 13.825 10.82 14.325 10.218 14.626 9.817 14.926 9.216 15.327 8.716 15.528 8.214 15.928 7.513 16.128 7.113M265.47 805.423l141.55 71.426m-32.659 86.453l32.658-86.453m155.475 124.421v-87.155m-188.133 49.187l16.33 6.411 16.629 5.81 16.83 5.31 16.93 4.608 17.13 4.107 17.23 3.406 17.33 2.805 17.532 2.204 17.53 1.603 17.532.902 17.53.3M407.02 876.85l155.875 36.764M265.47 805.423l51.09-51.09m90.46 122.517l32.757-86.453M265.47 805.423l141.55 71.426m-90.46-122.516l123.217 36.064M407.02 876.85l32.757-86.453m122.717 123.718v-87.154M407.02 876.85l155.875 36.764M439.777 790.397l123.118 36.163m-.401 174.71v-87.155m189.034 49.187l-32.658-86.453m-155.975 123.919l17.63-.3 17.532-.902 17.53-1.603 17.532-2.204 17.33-2.805 17.23-3.406 17.131-4.107 16.93-4.608 16.83-5.31 16.629-5.81 16.329-6.411m-188.633-49.688L718.87 876.85m32.658 86.452l-32.658-86.453m192.54-20.436l-50.99-50.99M751.528 963.302l16.128-7.113 15.928-7.513 15.528-8.214 15.327-8.716 14.926-9.216 14.626-9.817 14.326-10.218 13.824-10.82 13.524-11.32 13.123-11.72 12.622-12.222M718.87 876.85l141.55-71.427M562.494 914.115v-87.154M718.87 876.85l-32.758-86.453M562.895 913.614L718.87 876.85m-155.975-50.29l123.217-36.163m32.758 86.453l-32.758-86.453m174.308 15.026l-51.09-51.09M718.87 876.85l141.55-71.427m-174.308-15.026l123.218-36.064m-594.851 102.08l-12.222-12.622-11.72-13.123-11.32-13.524-10.82-13.825-10.218-14.325-9.817-14.626-9.216-14.926-8.716-15.327-8.214-15.528-7.513-15.928-7.113-16.128m157.88 108.892l-71.427-141.55m20.436 192.54l50.99-50.99M107.59 696.53l86.453-32.657m71.427 141.55l-71.427-141.55m122.517 90.46l-36.064-123.218M265.47 805.423l51.09-51.09m-122.517-90.46l86.453-32.758M107.59 696.53l-6.411-16.328-5.81-16.63-5.31-16.83-4.608-16.93-4.107-17.13-3.406-17.23-2.805-17.33-2.204-17.532-1.603-17.53-.902-17.531-.3-17.531m123.919 155.875l-36.765-155.875M107.59 696.53l86.453-32.657M70.625 508.398h87.154m36.264 155.475l-36.765-155.875m123.218 123.117l-36.164-123.117m-50.289 155.875l86.453-32.758M157.779 508.398h86.152m-173.807-.4l.3-17.632.902-17.53 1.603-17.532 2.204-17.53 2.805-17.331 3.406-17.23 4.107-17.13 4.608-16.93 5.31-16.83 5.81-16.63 6.411-16.329m49.688 188.634l36.765-155.976M70.625 508.398h87.154M107.59 319.364l86.453 32.658m-36.765 155.976l36.765-155.976m50.289 155.976l36.164-123.218M157.779 508.398h86.152m-49.888-156.376l86.453 32.758M107.59 319.364l7.113-16.128 7.513-15.928 8.214-15.528 8.716-15.327 9.216-14.926 9.817-14.626 10.219-14.325 10.819-13.825 11.32-13.524 11.72-13.123 12.222-12.622m-20.436 192.54l71.426-141.55M107.59 319.364l86.453 32.658m20.436-192.54l50.99 50.99m-71.426 141.55l71.426-141.55m15.027 174.308l36.063-123.218m-122.516 90.46l86.453 32.758M265.47 210.472l51.09 51.09m594.85 594.851l-50.99-50.99M1018.3 696.53l-86.454-32.657m-20.436 192.54l12.222-12.622 11.72-13.123 11.32-13.524 10.82-13.825 10.218-14.325 9.817-14.626 9.216-14.926 8.716-15.327 8.214-15.528 7.514-15.928 7.112-16.128M860.42 805.423l71.426-141.55m86.454 32.657l-86.454-32.657m123.519-155.475H968.21m50.09 188.132l6.41-16.328 5.81-16.63 5.31-16.83 4.608-16.93 4.108-17.13 3.406-17.23 2.805-17.33 2.203-17.532 1.603-17.53.902-17.531.3-17.531M931.846 663.873l36.765-155.875M860.42 805.423l-51.09-51.09m122.516-90.46l-86.452-32.758m15.026 174.308l71.426-141.55m-122.516 90.46l36.064-123.218m86.452 32.758l-86.452-32.758M968.21 508.398h-86.152m49.788 155.475l36.765-155.875M845.394 631.115l36.164-123.117m173.807.4H968.21m50.09-189.034l-86.454 32.658m123.919 155.976l-.3-17.632-.902-17.53-1.603-17.532-2.203-17.53-2.805-17.331-3.406-17.23-4.108-17.13-4.608-16.93-5.31-16.83-5.81-16.63-6.41-16.329m-49.689 188.634l-36.765-155.976m86.454-32.658l-86.454 32.658m-20.436-192.54l-50.99 50.99m157.88 108.892l-7.113-16.128-7.514-15.928-8.214-15.528-8.716-15.327-9.216-14.926-9.817-14.626-10.218-14.325-10.82-13.825-11.32-13.524-11.72-13.123-12.222-12.622m20.436 192.54l-71.426-141.55m107.79 297.926h-86.152m49.788-156.376l-86.452 32.758m123.217 123.218l-36.765-155.976m-50.288 155.976L845.394 384.78m86.452-32.758l-86.452 32.758m15.026-174.308l-51.09 51.09m122.516 90.46l-71.426-141.55M845.394 384.78L809.33 261.562m-594.851-102.08l12.622-12.222 13.123-11.72 13.524-11.32 13.825-10.82 14.325-10.218 14.626-9.817 14.926-9.216 15.327-8.716 15.528-8.214 15.928-7.514 16.128-7.112M265.47 210.472l141.55-71.426m-192.541 20.436l50.99 50.99M374.361 52.593l32.658 86.453M265.47 210.472l141.55-71.426m-90.46 122.516l123.217-36.064M265.47 210.472l51.09 51.09m90.46-122.516l32.757 86.452M374.361 52.593l16.33-6.411 16.629-5.81 16.83-5.31 16.93-4.608 17.13-4.107 17.23-3.406 17.33-2.805 17.532-2.204 17.53-1.603 17.532-.902 17.53-.3M407.02 139.046l155.875-36.765M374.361 52.593l32.658 86.453M562.494 15.527v87.154M407.02 139.046l155.875-36.765M439.777 225.498l123.118-36.163M407.02 139.046l32.757 86.452m122.717-122.817v87.154m.401-174.708l17.63.3 17.532.902 17.53 1.603 17.532 2.204 17.33 2.805 17.23 3.406 17.131 4.107 16.93 4.608 16.83 5.31 16.629 5.81 16.329 6.41M562.895 102.28l155.975 36.766M562.494 15.527v87.154m189.034-50.088l-32.658 86.453M562.895 102.28l155.975 36.766m-155.975 50.289l123.217 36.163M562.494 102.681v87.154m156.376-50.789l-32.758 86.452m65.416-172.905l16.128 7.112 15.928 7.514 15.528 8.214 15.327 8.716 14.926 9.216 14.626 9.817 14.326 10.218 13.824 10.82 13.524 11.32 13.123 11.72 12.622 12.222m-192.54-20.436l141.55 71.426M751.528 52.593l-32.658 86.453m192.54 20.436l-50.99 50.99m-141.55-71.426l141.55 71.426m-174.308 15.026l123.218 36.064m-90.46-122.516l-32.758 86.452m174.308-15.026l-51.09 51.09" stroke-width="3.005" stroke-miterlimit="2" fill="none" stroke="#000" font-family="Sans Serif" font-size="9" font-weight="400"/></svg>