<?xml version="1.0" encoding="UTF-8" standalone="no"?>
<svg
   xmlns:dc="http://purl.org/dc/elements/1.1/"
   xmlns:cc="http://creativecommons.org/ns#"
   xmlns:rdf="http://www.w3.org/1999/02/22-rdf-syntax-ns#"
   xmlns:svg="http://www.w3.org/2000/svg"
   xmlns="http://www.w3.org/2000/svg"
   xmlns:sodipodi="http://sodipodi.sourceforge.net/DTD/sodipodi-0.dtd"
   xmlns:inkscape="http://www.inkscape.org/namespaces/inkscape"
   viewBox="0 0 928.30417 928.40384"
   version="1.2"
   id="svg362"
   sodipodi:docname="ball_1_q1.svg"
   inkscape:version="0.92.2 5c3e80d, 2017-08-06">
  <metadata
     id="metadata366">
    <rdf:RDF>
      <cc:Work
         rdf:about="">
        <dc:format>image/svg+xml</dc:format>
        <dc:type
           rdf:resource="http://purl.org/dc/dcmitype/StillImage" />
      </cc:Work>
    </rdf:RDF>
  </metadata>
  <sodipodi:namedview
     pagecolor="#ffffff"
     bordercolor="#666666"
     borderopacity="1"
     objecttolerance="10"
     gridtolerance="10"
     guidetolerance="10"
     inkscape:pageopacity="0"
     inkscape:pageshadow="2"
     inkscape:window-width="640"
     inkscape:window-height="480"
     id="namedview364"
     showgrid="false"
     inkscape:zoom="0.11484381"
     inkscape:cx="978.10053"
     inkscape:cy="619.3419"
     inkscape:window-x="0"
     inkscape:window-y="0"
     inkscape:window-maximized="0"
     inkscape:current-layer="svg362" />
  <title
     id="title236">Qt SVG Document</title>
  <desc
     id="desc238">Generated with Qt</desc>
  <defs
     id="defs240" />
  <g
     id="g360"
     style="fill:none;fill-rule:evenodd;stroke:#000000;stroke-width:1;stroke-linecap:square;stroke-linejoin:bevel"
     transform="translate(-226.42419,-13.102569)">
    <g
       font-size="9"
       font-weight="400"
       font-style="normal"
       id="g242"
       style="font-style:normal;font-weight:400;font-size:9px;font-family:'Sans Serif';fill:none;stroke:#000000;stroke-width:1;stroke-linecap:square;stroke-linejoin:bevel;stroke-opacity:1" />
    <g
       transform="scale(1.00104)"
       font-size="9"
       font-weight="400"
       font-style="normal"
       id="g244"
       style="font-style:normal;font-weight:400;font-size:9px;font-family:'Sans Serif';fill:none;stroke:#000000;stroke-width:1;stroke-linecap:square;stroke-linejoin:bevel;stroke-opacity:1" />
    <g
       transform="scale(1.00104)"
       font-size="9"
       font-weight="400"
       font-style="normal"
       id="g248"
       style="font-style:normal;font-weight:400;font-size:9px;font-family:'Sans Serif';fill:none;stroke:#000000;stroke-width:1;stroke-linecap:round;stroke-linejoin:round;stroke-opacity:1">
      <polyline
         points="228.5,15.5 228.5,15.5 228.5,938.5 1151.5,938.5 1151.5,15.5 228.5,15.5 "
         id="polyline246"
         style="vector-effect:none;fill:none" />
    </g>
    <g
       transform="scale(1.00104)"
       font-size="9"
       font-weight="400"
       font-style="normal"
       id="g250"
       style="font-style:normal;font-weight:400;font-size:9px;font-family:'Sans Serif';fill:none;stroke:#000000;stroke-width:1;stroke-linecap:square;stroke-linejoin:bevel;stroke-opacity:1" />
    <g
       transform="scale(1.00104)"
       font-size="9"
       font-weight="400"
       font-style="normal"
       id="g252"
       style="font-style:normal;font-weight:400;font-size:9px;font-family:'Sans Serif';fill:none;stroke:#000000;stroke-width:1;stroke-linecap:square;stroke-linejoin:bevel;stroke-opacity:1" />
    <g
       transform="scale(1.00104)"
       font-size="9"
       font-weight="400"
       font-style="normal"
       id="g254"
       style="font-style:normal;font-weight:400;font-size:9px;font-family:'Sans Serif';fill:none;stroke:#000000;stroke-width:1;stroke-linecap:square;stroke-linejoin:bevel;stroke-opacity:1" />
    <g
       transform="scale(1.00104)"
       font-size="9"
       font-weight="400"
       font-style="normal"
       id="g256"
       style="font-style:normal;font-weight:400;font-size:9px;font-family:'Sans Serif';fill:none;stroke:#000000;stroke-width:1;stroke-linecap:square;stroke-linejoin:bevel;stroke-opacity:1" />
    <g
       transform="scale(1.00104)"
       font-size="9"
       font-weight="400"
       font-style="normal"
       id="g346"
       style="font-style:normal;font-weight:400;font-size:9px;font-family:'Sans Serif';fill:none;stroke:#000000;stroke-width:4;stroke-linecap:round;stroke-linejoin:round;stroke-opacity:1">
      <polyline
         points="363.4,802.8 363.4,802.8 458.9,707.3 "
         id="polyline258"
         style="vector-effect:none;fill:none" />
      <polyline
         points="689.5,938.5 689.5,938.5 689.5,774.5 "
         id="polyline260"
         style="vector-effect:none;fill:none" />
      <polyline
         points="363.4,802.8 363.4,802.8 368.7,805.1 374.1,807.3 379.4,809.5 384.8,811.7 390.1,813.9 395.5,816.1 400.8,818.4 406.1,820.6 411.5,822.8 416.8,825 422.2,827.2 427.5,829.4 432.9,831.6 438.2,833.9 443.6,836.1 448.9,838.3 454.3,840.5 459.6,842.7 465,844.9 470.3,847.2 475.7,849.4 481,851.6 486.4,853.8 491.7,856 497.1,858.2 502.4,860.5 507.8,862.7 513.1,864.9 518.5,867.1 523.8,869.3 529.2,871.5 534.5,873.7 539.9,876 545.2,878.2 550.6,880.4 555.9,882.6 561.3,884.8 566.6,887 572,889.3 577.3,891.5 582.7,893.7 588,895.9 593.4,898.1 598.7,900.3 604.1,902.5 609.4,904.8 614.8,907 620.1,909.2 625.5,911.4 630.8,913.6 636.2,915.8 641.5,918.1 646.9,920.3 652.2,922.5 657.6,924.7 662.9,926.9 668.3,929.1 673.6,931.4 679,933.6 684.3,935.8 689.6,938 "
         id="polyline262"
         style="vector-effect:none;fill:none" />
      <polyline
         points="458.9,707.3 458.9,707.3 689.6,774.9 "
         id="polyline264"
         style="vector-effect:none;fill:none" />
      <polyline
         points="689.5,938.5 689.5,938.5 689.5,774.5 "
         id="polyline266"
         style="vector-effect:none;fill:none" />
      <polyline
         points="1015.9,802.8 1015.9,802.8 920.4,707.3 "
         id="polyline268"
         style="vector-effect:none;fill:none" />
      <polyline
         points="689.6,938 689.6,938 695,935.8 700.3,933.6 705.7,931.4 711,929.1 716.4,926.9 721.7,924.7 727.1,922.5 732.4,920.3 737.8,918.1 743.1,915.8 748.5,913.6 753.8,911.4 759.2,909.2 764.5,907 769.9,904.8 775.2,902.5 780.6,900.3 785.9,898.1 791.3,895.9 796.6,893.7 802,891.5 807.3,889.3 812.7,887 818,884.8 823.4,882.6 828.7,880.4 834.1,878.2 839.4,876 844.8,873.7 850.1,871.5 855.5,869.3 860.8,867.1 866.2,864.9 871.5,862.7 876.9,860.5 882.2,858.2 887.6,856 892.9,853.8 898.3,851.6 903.6,849.4 909,847.2 914.3,844.9 919.7,842.7 925,840.5 930.4,838.3 935.7,836.1 941.1,833.9 946.4,831.6 951.8,829.4 957.1,827.2 962.5,825 967.8,822.8 973.2,820.6 978.5,818.4 983.8,816.1 989.2,813.9 994.5,811.7 999.9,809.5 1005.2,807.3 1010.6,805.1 1015.9,802.8 "
         id="polyline270"
         style="vector-effect:none;fill:none" />
      <polyline
         points="689.6,774.9 689.6,774.9 920.4,707.3 "
         id="polyline272"
         style="vector-effect:none;fill:none" />
      <polyline
         points="458.9,707.3 458.9,707.3 689.6,774.9 689.7,611.7 554.5,611.7 458.9,707.3 "
         id="polyline274"
         style="vector-effect:none;fill:none" />
      <polyline
         points="689.6,774.9 689.6,774.9 920.4,707.3 824.8,611.7 689.7,611.7 689.6,774.9 "
         id="polyline276"
         style="vector-effect:none;fill:none" />
      <polyline
         points="363.4,802.8 363.4,802.8 361.1,797.5 358.9,792.1 356.7,786.8 354.5,781.4 352.3,776.1 350.1,770.7 347.8,765.4 345.6,760.1 343.4,754.7 341.2,749.4 339,744 336.8,738.7 334.6,733.3 332.3,728 330.1,722.6 327.9,717.3 325.7,711.9 323.5,706.6 321.3,701.2 319,695.9 316.8,690.5 314.6,685.2 312.4,679.8 310.2,674.5 308,669.1 305.7,663.8 303.5,658.4 301.3,653.1 299.1,647.7 296.9,642.4 294.7,637 292.5,631.7 290.2,626.3 288,621 285.8,615.6 283.6,610.3 281.4,604.9 279.2,599.6 276.9,594.2 274.7,588.9 272.5,583.5 270.3,578.2 268.1,572.8 265.9,567.5 263.7,562.1 261.4,556.8 259.2,551.4 257,546.1 254.8,540.7 252.6,535.4 250.4,530 248.1,524.7 245.9,519.3 243.7,514 241.5,508.6 239.3,503.3 237.1,497.9 234.8,492.6 232.6,487.2 230.4,481.9 228.2,476.6 "
         id="polyline278"
         style="vector-effect:none;fill:none" />
      <polyline
         points="458.9,707.3 458.9,707.3 391.3,476.6 "
         id="polyline280"
         style="vector-effect:none;fill:none" />
      <polyline
         points="363.4,802.8 363.4,802.8 458.9,707.3 "
         id="polyline282"
         style="vector-effect:none;fill:none" />
      <polyline
         points="228.5,476.5 228.5,476.5 391.5,476.5 "
         id="polyline284"
         style="vector-effect:none;fill:none" />
      <polyline
         points="458.9,707.3 458.9,707.3 554.5,611.7 554.5,476.5 391.3,476.6 458.9,707.3 "
         id="polyline286"
         style="vector-effect:none;fill:none" />
      <polyline
         points="228.2,476.6 228.2,476.6 230.4,471.2 232.6,465.9 234.8,460.5 237.1,455.2 239.3,449.8 241.5,444.5 243.7,439.1 245.9,433.8 248.1,428.4 250.4,423.1 252.6,417.7 254.8,412.4 257,407 259.2,401.7 261.4,396.3 263.7,391 265.9,385.6 268.1,380.3 270.3,374.9 272.5,369.6 274.7,364.2 276.9,358.9 279.2,353.5 281.4,348.2 283.6,342.8 285.8,337.5 288,332.1 290.2,326.8 292.5,321.4 294.7,316.1 296.9,310.7 299.1,305.4 301.3,300 303.5,294.7 305.7,289.3 308,284 310.2,278.6 312.4,273.3 314.6,267.9 316.8,262.6 319,257.2 321.3,251.9 323.5,246.5 325.7,241.2 327.9,235.8 330.1,230.5 332.3,225.1 334.6,219.8 336.8,214.4 339,209.1 341.2,203.7 343.4,198.4 345.6,193 347.8,187.7 350.1,182.4 352.3,177 354.5,171.7 356.7,166.3 358.9,161 361.1,155.6 363.4,150.3 "
         id="polyline288"
         style="vector-effect:none;fill:none" />
      <polyline
         points="391.3,476.6 391.3,476.6 458.9,245.8 "
         id="polyline290"
         style="vector-effect:none;fill:none" />
      <polyline
         points="228.5,476.5 228.5,476.5 391.5,476.5 "
         id="polyline292"
         style="vector-effect:none;fill:none" />
      <polyline
         points="363.4,150.3 363.4,150.3 458.9,245.8 "
         id="polyline294"
         style="vector-effect:none;fill:none" />
      <polyline
         points="391.3,476.6 391.3,476.6 554.5,476.5 554.5,341.4 458.9,245.8 391.3,476.6 "
         id="polyline296"
         style="vector-effect:none;fill:none" />
      <polyline
         points="554.5,611.5 554.5,611.5 689.5,611.5 689.5,476.5 554.5,476.5 554.5,611.5 "
         id="polyline298"
         style="vector-effect:none;fill:none" />
      <polyline
         points="689.5,611.5 689.5,611.5 824.5,611.5 824.5,476.5 689.5,476.5 689.5,611.5 "
         id="polyline300"
         style="vector-effect:none;fill:none" />
      <polyline
         points="554.5,476.5 554.5,476.5 689.5,476.5 689.5,341.5 554.5,341.5 554.5,476.5 "
         id="polyline302"
         style="vector-effect:none;fill:none" />
      <polyline
         points="689.5,476.5 689.5,476.5 824.5,476.5 824.5,341.5 689.5,341.5 689.5,476.5 "
         id="polyline304"
         style="vector-effect:none;fill:none" />
      <polyline
         points="1015.9,802.8 1015.9,802.8 920.4,707.3 "
         id="polyline306"
         style="vector-effect:none;fill:none" />
      <polyline
         points="1151.5,476.5 1151.5,476.5 988.5,476.5 "
         id="polyline308"
         style="vector-effect:none;fill:none" />
      <polyline
         points="1015.9,802.8 1015.9,802.8 1018.2,797.5 1020.4,792.1 1022.6,786.8 1024.8,781.4 1027,776.1 1029.2,770.7 1031.5,765.4 1033.7,760.1 1035.9,754.7 1038.1,749.4 1040.3,744 1042.5,738.7 1044.7,733.3 1047,728 1049.2,722.6 1051.4,717.3 1053.6,711.9 1055.8,706.6 1058,701.2 1060.3,695.9 1062.5,690.5 1064.7,685.2 1066.9,679.8 1069.1,674.5 1071.3,669.1 1073.6,663.8 1075.8,658.4 1078,653.1 1080.2,647.7 1082.4,642.4 1084.6,637 1086.8,631.7 1089.1,626.3 1091.3,621 1093.5,615.6 1095.7,610.3 1097.9,604.9 1100.1,599.6 1102.4,594.2 1104.6,588.9 1106.8,583.5 1109,578.2 1111.2,572.8 1113.4,567.5 1115.6,562.1 1117.9,556.8 1120.1,551.4 1122.3,546.1 1124.5,540.7 1126.7,535.4 1128.9,530 1131.2,524.7 1133.4,519.3 1135.6,514 1137.8,508.6 1140,503.3 1142.2,497.9 1144.5,492.6 1146.7,487.2 1148.9,481.9 1151.1,476.6 "
         id="polyline310"
         style="vector-effect:none;fill:none" />
      <polyline
         points="920.4,707.3 920.4,707.3 988,476.6 "
         id="polyline312"
         style="vector-effect:none;fill:none" />
      <polyline
         points="1151.5,476.5 1151.5,476.5 988.5,476.5 "
         id="polyline314"
         style="vector-effect:none;fill:none" />
      <polyline
         points="1015.9,150.3 1015.9,150.3 920.4,245.8 "
         id="polyline316"
         style="vector-effect:none;fill:none" />
      <polyline
         points="1151.1,476.6 1151.1,476.6 1148.9,471.2 1146.7,465.9 1144.5,460.5 1142.2,455.2 1140,449.8 1137.8,444.5 1135.6,439.1 1133.4,433.8 1131.2,428.4 1128.9,423.1 1126.7,417.7 1124.5,412.4 1122.3,407 1120.1,401.7 1117.9,396.3 1115.6,391 1113.4,385.6 1111.2,380.3 1109,374.9 1106.8,369.6 1104.6,364.2 1102.4,358.9 1100.1,353.5 1097.9,348.2 1095.7,342.8 1093.5,337.5 1091.3,332.1 1089.1,326.8 1086.8,321.4 1084.6,316.1 1082.4,310.7 1080.2,305.4 1078,300 1075.8,294.7 1073.6,289.3 1071.3,284 1069.1,278.6 1066.9,273.3 1064.7,267.9 1062.5,262.6 1060.3,257.2 1058,251.9 1055.8,246.5 1053.6,241.2 1051.4,235.8 1049.2,230.5 1047,225.1 1044.7,219.8 1042.5,214.4 1040.3,209.1 1038.1,203.7 1035.9,198.4 1033.7,193 1031.5,187.7 1029.2,182.4 1027,177 1024.8,171.7 1022.6,166.3 1020.4,161 1018.2,155.6 1015.9,150.3 "
         id="polyline318"
         style="vector-effect:none;fill:none" />
      <polyline
         points="988,476.6 988,476.6 920.4,245.8 "
         id="polyline320"
         style="vector-effect:none;fill:none" />
      <polyline
         points="920.4,707.3 920.4,707.3 988,476.6 824.8,476.5 824.8,611.7 920.4,707.3 "
         id="polyline322"
         style="vector-effect:none;fill:none" />
      <polyline
         points="988,476.6 988,476.6 920.4,245.8 824.8,341.4 824.8,476.5 988,476.6 "
         id="polyline324"
         style="vector-effect:none;fill:none" />
      <polyline
         points="363.4,150.3 363.4,150.3 368.7,148 374.1,145.8 379.4,143.6 384.8,141.4 390.1,139.2 395.5,137 400.8,134.7 406.1,132.5 411.5,130.3 416.8,128.1 422.2,125.9 427.5,123.7 432.9,121.5 438.2,119.2 443.6,117 448.9,114.8 454.3,112.6 459.6,110.4 465,108.2 470.3,105.9 475.7,103.7 481,101.5 486.4,99.3 491.7,97.1 497.1,94.9 502.4,92.6 507.8,90.4 513.1,88.2 518.5,86 523.8,83.8 529.2,81.6 534.5,79.4 539.9,77.1 545.2,74.9 550.6,72.7 555.9,70.5 561.3,68.3 566.6,66.1 572,63.8 577.3,61.6 582.7,59.4 588,57.2 593.4,55 598.7,52.8 604.1,50.6 609.4,48.3 614.8,46.1 620.1,43.9 625.5,41.7 630.8,39.5 636.2,37.3 641.5,35 646.9,32.8 652.2,30.6 657.6,28.4 662.9,26.2 668.3,24 673.6,21.7 679,19.5 684.3,17.3 689.6,15.1 "
         id="polyline326"
         style="vector-effect:none;fill:none" />
      <polyline
         points="458.9,245.8 458.9,245.8 689.6,178.2 "
         id="polyline328"
         style="vector-effect:none;fill:none" />
      <polyline
         points="363.4,150.3 363.4,150.3 458.9,245.8 "
         id="polyline330"
         style="vector-effect:none;fill:none" />
      <polyline
         points="689.5,15.5 689.5,15.5 689.5,178.5 "
         id="polyline332"
         style="vector-effect:none;fill:none" />
      <polyline
         points="458.9,245.8 458.9,245.8 554.5,341.4 689.7,341.4 689.6,178.2 458.9,245.8 "
         id="polyline334"
         style="vector-effect:none;fill:none" />
      <polyline
         points="689.6,15.1 689.6,15.1 695,17.3 700.3,19.5 705.7,21.7 711,24 716.4,26.2 721.7,28.4 727.1,30.6 732.4,32.8 737.8,35 743.1,37.3 748.5,39.5 753.8,41.7 759.2,43.9 764.5,46.1 769.9,48.3 775.2,50.6 780.6,52.8 785.9,55 791.3,57.2 796.6,59.4 802,61.6 807.3,63.8 812.7,66.1 818,68.3 823.4,70.5 828.7,72.7 834.1,74.9 839.4,77.1 844.8,79.4 850.1,81.6 855.5,83.8 860.8,86 866.2,88.2 871.5,90.4 876.9,92.6 882.2,94.9 887.6,97.1 892.9,99.3 898.3,101.5 903.6,103.7 909,105.9 914.3,108.2 919.7,110.4 925,112.6 930.4,114.8 935.7,117 941.1,119.2 946.4,121.5 951.8,123.7 957.1,125.9 962.5,128.1 967.8,130.3 973.2,132.5 978.5,134.7 983.8,137 989.2,139.2 994.5,141.4 999.9,143.6 1005.2,145.8 1010.6,148 1015.9,150.3 "
         id="polyline336"
         style="vector-effect:none;fill:none" />
      <polyline
         points="689.6,178.2 689.6,178.2 920.4,245.8 "
         id="polyline338"
         style="vector-effect:none;fill:none" />
      <polyline
         points="689.5,15.5 689.5,15.5 689.5,178.5 "
         id="polyline340"
         style="vector-effect:none;fill:none" />
      <polyline
         points="1015.9,150.3 1015.9,150.3 920.4,245.8 "
         id="polyline342"
         style="vector-effect:none;fill:none" />
      <polyline
         points="689.6,178.2 689.6,178.2 689.7,341.4 824.8,341.4 920.4,245.8 689.6,178.2 "
         id="polyline344"
         style="vector-effect:none;fill:none" />
    </g>
    <g
       transform="scale(1.00104)"
       font-size="9"
       font-weight="400"
       font-style="normal"
       id="g348"
       style="font-style:normal;font-weight:400;font-size:9px;font-family:'Sans Serif';fill:none;stroke:#000000;stroke-width:1;stroke-linecap:square;stroke-linejoin:bevel;stroke-opacity:1" />
    <g
       transform="scale(1.00104)"
       font-size="9"
       font-weight="400"
       font-style="normal"
       id="g350"
       style="font-style:normal;font-weight:400;font-size:9px;font-family:'Sans Serif';fill:none;stroke:#000000;stroke-width:1;stroke-linecap:square;stroke-linejoin:bevel;stroke-opacity:1" />
    <g
       transform="scale(1.00104)"
       font-size="9"
       font-weight="400"
       font-style="normal"
       id="g354"
       style="font-style:normal;font-weight:400;font-size:9px;font-family:'Sans Serif';fill:none;stroke:#000000;stroke-width:1;stroke-linecap:round;stroke-linejoin:round;stroke-opacity:1">
      <polyline
         points="228.5,15.5 228.5,938.5 1151.5,938.5 1151.5,15.5 228.5,15.5 "
         id="polyline352"
         style="vector-effect:none;fill:none" />
    </g>
    <g
       transform="scale(1.00104)"
       font-size="9"
       font-weight="400"
       font-style="normal"
       id="g356"
       style="font-style:normal;font-weight:400;font-size:9px;font-family:'Sans Serif';fill:none;stroke:#000000;stroke-width:1;stroke-linecap:square;stroke-linejoin:bevel;stroke-opacity:1" />
    <g
       font-size="9"
       font-weight="400"
       font-style="normal"
       id="g358"
       style="font-style:normal;font-weight:400;font-size:9px;font-family:'Sans Serif';fill:none;stroke:#000000;stroke-width:1;stroke-linecap:square;stroke-linejoin:bevel;stroke-opacity:1" />
  </g>
</svg>
