<?xml version="1.0" encoding="utf-8"?>
<!-- Generator: Adobe Illustrator 23.0.2, SVG Export Plug-In . SVG Version: 6.00 Build 0)  -->
<svg version="1.1" xmlns="http://www.w3.org/2000/svg" xmlns:xlink="http://www.w3.org/1999/xlink" x="0px" y="0px"
	 viewBox="0 0 299.62 64.37" style="enable-background:new 0 0 299.62 64.37;" xml:space="preserve">
<style type="text/css">
	.st0{fill:#3EAF99;stroke:#000000;stroke-width:0.5;stroke-linecap:square;stroke-linejoin:round;stroke-miterlimit:10;}
	.st1{fill:#ACDD4B;stroke:#000000;stroke-width:0.5;stroke-linecap:square;stroke-linejoin:round;stroke-miterlimit:10;}
	.st2{fill:#A08157;stroke:#000000;stroke-width:0.5;stroke-linecap:square;stroke-linejoin:round;stroke-miterlimit:10;}
	.st3{fill:url(#SVGID_1_);stroke:#000000;stroke-width:0.5;stroke-linecap:square;stroke-linejoin:round;stroke-miterlimit:10;}
	
		.st4{clip-path:url(#SVGID_3_);fill:url(#SVGID_4_);stroke:#0000FF;stroke-linecap:square;stroke-linejoin:round;stroke-miterlimit:10;}
	.st5{fill:none;stroke:#000000;stroke-miterlimit:10;}
	.st6{fill:none;stroke:#000000;stroke-width:0.5;stroke-linecap:square;stroke-linejoin:round;}
	.st7{font-family:'MyriadPro-SemiCn';}
	.st8{font-size:5px;}
	.st9{fill:url(#SVGID_5_);stroke:#000000;stroke-width:0.5;stroke-linecap:square;stroke-linejoin:round;stroke-miterlimit:10;}
</style>
<g id="Superlattice">
	<rect x="144.41" y="16.12" class="st0" width="13.44" height="46.75"/>
	<rect x="157.85" y="16.12" class="st1" width="7.22" height="46.75"/>
	<rect x="165.07" y="16.12" class="st2" width="6.19" height="46.75"/>
	<rect x="137.19" y="16.12" class="st1" width="7.22" height="46.75"/>
	<rect x="131" y="16.12" class="st2" width="6.19" height="46.75"/>
	<rect x="123.78" y="16.12" class="st1" width="7.22" height="46.75"/>
	<rect x="117.6" y="16.12" class="st2" width="6.19" height="46.75"/>
	<rect x="110.38" y="16.12" class="st1" width="7.22" height="46.75"/>
	<rect x="104.19" y="16.12" class="st2" width="6.19" height="46.75"/>
	<rect x="96.97" y="16.12" class="st1" width="7.22" height="46.75"/>
	<linearGradient id="SVGID_1_" gradientUnits="userSpaceOnUse" x1="3.8368" y1="39.4909" x2="96.9714" y2="39.4909">
		<stop  offset="0" style="stop-color:#000000"/>
		<stop  offset="0.2598" style="stop-color:#A08157"/>
	</linearGradient>
	<rect x="3.84" y="16.12" class="st3" width="93.13" height="46.75"/>
	<rect x="171.25" y="16.12" class="st1" width="7.22" height="46.75"/>
	<rect x="178.47" y="16.12" class="st2" width="6.19" height="46.75"/>
	<rect x="184.66" y="16.12" class="st1" width="7.22" height="46.75"/>
	<rect x="191.88" y="16.12" class="st2" width="6.19" height="46.75"/>
	<rect x="198.07" y="16.12" class="st1" width="7.22" height="46.75"/>
</g>
<g id="Wave">
	<g>
		<defs>
			<rect id="SVGID_2_" x="224.06" y="-73.67" width="120.69" height="46.75"/>
		</defs>
		<clipPath id="SVGID_3_">
			<use xlink:href="#SVGID_2_"  style="overflow:visible;"/>
		</clipPath>
		<linearGradient id="SVGID_4_" gradientUnits="userSpaceOnUse" x1="198.9771" y1="-53.543" x2="369.8088" y2="-53.543">
			<stop  offset="0.3501" style="stop-color:#A081D9"/>
			<stop  offset="0.503" style="stop-color:#B0F169"/>
			<stop  offset="0.6552" style="stop-color:#A081D9"/>
		</linearGradient>
		<polyline class="st4" points="198.98,-42.54 226.77,-42.55 229.55,-42.62 232.12,-42.67 233.61,-42.66 235.54,-42.59 
			237.25,-42.54 238.1,-42.55 238.96,-42.6 239.81,-42.7 240.67,-42.85 241.74,-43.1 243.66,-43.59 244.3,-43.7 244.95,-43.77 
			245.59,-43.79 246.01,-43.76 246.66,-43.67 247.3,-43.51 247.94,-43.31 249.65,-42.72 250.08,-42.62 250.5,-42.55 250.93,-42.54 
			251.36,-42.58 251.79,-42.69 252.21,-42.86 252.64,-43.12 253.07,-43.44 253.5,-43.84 254.14,-44.54 254.99,-45.63 256.28,-47.28 
			256.71,-47.75 257.13,-48.14 257.56,-48.45 257.77,-48.55 257.99,-48.63 258.2,-48.68 258.42,-48.7 258.63,-48.68 258.84,-48.63 
			259.06,-48.55 259.27,-48.43 259.7,-48.1 260.13,-47.64 260.55,-47.09 261.19,-46.11 262.48,-44.05 262.91,-43.47 263.33,-43 
			263.55,-42.82 263.76,-42.68 263.97,-42.58 264.19,-42.54 264.4,-42.55 264.62,-42.61 264.83,-42.73 265.04,-42.9 265.26,-43.13 
			265.47,-43.42 265.9,-44.17 266.33,-45.14 266.75,-46.31 267.4,-48.35 269.53,-55.63 269.96,-56.76 270.39,-57.64 270.6,-57.98 
			270.82,-58.24 271.03,-58.43 271.24,-58.53 271.46,-58.56 271.67,-58.49 271.89,-58.35 272.1,-58.12 272.31,-57.81 272.53,-57.42 
			272.95,-56.42 273.38,-55.15 274.02,-52.88 275.95,-45.56 276.38,-44.32 276.8,-43.37 277.02,-43.02 277.23,-42.76 277.44,-42.6 
			277.66,-42.54 277.87,-42.58 278.09,-42.72 278.3,-42.96 278.51,-43.31 278.73,-43.75 279.15,-44.92 279.58,-46.44 280.01,-48.24 
			280.65,-51.34 282.15,-58.87 282.58,-60.7 283,-62.24 283.43,-63.43 283.64,-63.87 283.86,-64.21 284.07,-64.44 284.29,-64.55 
			284.5,-64.55 284.71,-64.44 284.93,-64.21 285.14,-63.87 285.36,-63.43 285.78,-62.24 286.21,-60.7 286.64,-58.87 287.28,-55.74 
			288.78,-48.24 289.2,-46.44 289.63,-44.92 290.06,-43.75 290.27,-43.31 290.49,-42.96 290.7,-42.72 290.91,-42.58 291.13,-42.54 
			291.34,-42.6 291.56,-42.76 291.77,-43.02 291.98,-43.37 292.41,-44.32 292.84,-45.56 293.27,-47.03 294.12,-50.36 294.98,-53.68 
			295.4,-55.15 295.83,-56.42 296.26,-57.42 296.47,-57.81 296.69,-58.12 296.9,-58.35 297.11,-58.49 297.33,-58.56 297.54,-58.53 
			297.76,-58.43 297.97,-58.24 298.18,-57.98 298.4,-57.64 298.82,-56.76 299.25,-55.63 299.89,-53.61 302.03,-46.31 302.46,-45.14 
			302.89,-44.17 303.31,-43.42 303.53,-43.13 303.74,-42.9 303.96,-42.73 304.17,-42.61 304.38,-42.55 304.6,-42.54 304.81,-42.58 
			305.03,-42.68 305.24,-42.82 305.67,-43.22 306.09,-43.75 306.74,-44.71 308.23,-47.09 308.66,-47.64 309.09,-48.1 309.52,-48.43 
			309.73,-48.55 309.94,-48.63 310.16,-48.68 310.37,-48.7 310.58,-48.68 310.8,-48.63 311.01,-48.55 311.44,-48.31 311.87,-47.96 
			312.29,-47.52 312.94,-46.75 314.86,-44.29 315.5,-43.63 315.93,-43.27 316.36,-42.98 316.78,-42.77 317.21,-42.62 317.64,-42.55 
			318.07,-42.54 318.5,-42.58 318.92,-42.67 319.56,-42.85 321.7,-43.57 322.34,-43.7 322.99,-43.78 323.63,-43.78 324.27,-43.73 
			324.91,-43.63 325.76,-43.44 328.33,-42.81 329.19,-42.67 330.04,-42.58 330.9,-42.54 331.97,-42.54 333.68,-42.61 335.6,-42.66 
			337.1,-42.67 339.23,-42.62 342.44,-42.55 345.22,-42.54 360.19,-42.54 369.81,-42.54 369.81,-42.54 		"/>
	</g>
	<polyline class="st5" points="39.44,41.06 41.48,41.07 42.88,41.08 43.53,41.05 44.28,40.97 44.98,40.9 45.36,40.9 45.68,40.95 
		46.01,41.03 46.33,41.16 46.71,41.36 47.3,41.67 47.51,41.75 47.73,41.79 47.89,41.78 48.05,41.75 48.21,41.67 48.38,41.55 
		48.54,41.39 48.7,41.18 48.91,40.85 49.18,40.36 49.88,39.02 50.04,38.79 50.21,38.62 50.31,38.56 50.42,38.54 50.53,38.56 
		50.64,38.63 50.74,38.75 50.85,38.93 50.96,39.16 51.12,39.61 51.28,40.18 51.44,40.86 51.66,41.91 51.98,43.67 52.3,45.42 
		52.52,46.42 52.68,47.02 52.79,47.32 52.9,47.53 53,47.64 53.06,47.65 53.11,47.64 53.17,47.59 53.22,47.52 53.33,47.28 
		53.44,46.91 53.54,46.42 53.65,45.8 53.81,44.65 53.97,43.25 54.19,41.05 54.46,37.96 54.89,32.95 55.1,30.81 55.27,29.52 
		55.37,28.85 55.48,28.36 55.59,28.06 55.64,27.99 55.7,27.97 55.75,28.01 55.8,28.1 55.86,28.25 55.97,28.71 56.07,29.4 
		56.18,30.32 56.29,31.45 56.45,33.54 56.61,36.02 56.83,39.84 57.26,48.25 57.53,53.23 57.69,55.81 57.85,57.95 57.96,59.08 
		58.06,59.94 58.17,60.52 58.23,60.69 58.28,60.78 58.33,60.8 58.39,60.73 58.44,60.59 58.5,60.36 58.6,59.66 58.71,58.65 
		58.82,57.33 58.98,54.81 59.14,51.73 59.36,46.92 59.68,38.86 60.06,29.63 60.27,25.14 60.43,22.39 60.54,20.93 60.65,19.78 
		60.76,18.97 60.81,18.7 60.86,18.52 60.92,18.43 60.97,18.43 61.03,18.52 61.08,18.7 61.13,18.97 61.24,19.78 61.35,20.93 
		61.46,22.39 61.62,25.14 61.78,28.43 61.99,33.45 62.75,51.73 62.91,54.81 63.07,57.33 63.18,58.65 63.29,59.66 63.39,60.36 
		63.45,60.59 63.5,60.73 63.56,60.8 63.61,60.78 63.66,60.69 63.72,60.52 63.77,60.27 63.88,59.55 63.99,58.55 64.09,57.29 
		64.26,54.99 64.47,51.31 64.79,45.07 65.17,37.87 65.39,34.32 65.55,32.1 65.71,30.32 65.82,29.4 65.92,28.71 66.03,28.25 
		66.09,28.1 66.14,28.01 66.19,27.97 66.25,27.99 66.3,28.06 66.35,28.19 66.46,28.59 66.57,29.17 66.68,29.92 66.84,31.31 
		67.05,33.54 67.38,37.32 67.7,41.05 67.92,43.25 68.08,44.65 68.24,45.8 68.35,46.42 68.45,46.91 68.56,47.28 68.67,47.52 
		68.72,47.59 68.78,47.64 68.83,47.65 68.88,47.64 68.94,47.6 69.05,47.44 69.15,47.18 69.26,46.84 69.42,46.19 69.64,45.15 
		70.02,43.07 70.34,41.37 70.55,40.4 70.71,39.79 70.88,39.3 71.04,38.93 71.15,38.75 71.25,38.63 71.36,38.56 71.47,38.54 
		71.58,38.56 71.68,38.62 71.79,38.72 71.95,38.93 72.17,39.29 72.49,39.93 72.87,40.66 73.08,41.02 73.3,41.32 73.46,41.5 
		73.62,41.63 73.78,41.72 73.94,41.78 74.11,41.79 74.32,41.76 74.54,41.7 74.81,41.57 75.77,41.07 76.1,40.97 76.42,40.91 
		76.74,40.9 77.17,40.92 79.11,41.08 80.03,41.08 82.23,41.05 82.45,41.06 82.45,41.06 	"/>
</g>
<g id="Guias">
</g>
<g id="Marcas">
	<g>
		<g>
			<line class="st6" x1="159.63" y1="13.49" x2="203.52" y2="13.49"/>
			<g>
				<polygon points="157.86,13.49 160.35,14.51 159.76,13.49 160.35,12.47 				"/>
			</g>
			<g>
				<polygon points="205.28,13.49 202.8,14.51 203.39,13.49 202.8,12.47 				"/>
			</g>
		</g>
	</g>
	<g>
		<g>
			<line class="st6" x1="98.74" y1="13.49" x2="142.63" y2="13.49"/>
			<g>
				<polygon points="96.97,13.49 99.46,14.51 98.87,13.49 99.46,12.47 				"/>
			</g>
			<g>
				<polygon points="144.39,13.49 141.91,14.51 142.5,13.49 141.91,12.47 				"/>
			</g>
		</g>
	</g>
	<g>
		<g>
			<line class="st6" x1="146.21" y1="13.49" x2="156.08" y2="13.49"/>
			<g>
				<polygon points="144.44,13.49 146.93,14.51 146.34,13.49 146.93,12.47 				"/>
			</g>
			<g>
				<polygon points="157.85,13.49 155.36,14.51 155.95,13.49 155.36,12.47 				"/>
			</g>
		</g>
	</g>
	<text transform="matrix(1 0 0 1 145.2526 10.8658)" class="st7 st8">Cavity</text>
	<text transform="matrix(1 0 0 1 166.0744 5.8658)"><tspan x="0" y="0" class="st7 st8">Photonic/phononic</tspan><tspan x="12.59" y="6" class="st7 st8">mirror</tspan></text>
	<text transform="matrix(1 0 0 1 98.9963 5.8658)"><tspan x="0" y="0" class="st7 st8">Photonic/phononic</tspan><tspan x="12.59" y="6" class="st7 st8">mirror</tspan></text>
	<g>
		<g>
			<line class="st6" x1="5.7" y1="13.89" x2="29.36" y2="13.89"/>
			<g>
				<polygon points="3.93,13.89 6.42,14.91 5.83,13.89 6.42,12.88 				"/>
			</g>
			<g>
				<polygon points="31.12,13.89 28.63,14.91 29.22,13.89 28.63,12.88 				"/>
			</g>
		</g>
	</g>
	<text transform="matrix(1 0 0 1 13.3789 11.3018)" class="st7 st8">PML</text>
	<g>
		<g>
			<line class="st6" x1="39.44" y1="14.02" x2="80.68" y2="14.02"/>
			<g>
				<polygon points="82.45,14.02 79.96,15.03 80.55,14.02 79.96,13 				"/>
			</g>
		</g>
	</g>
	<text transform="matrix(1 0 0 1 55.8701 11.4226)" class="st7 st8">Pulse</text>
	
		<linearGradient id="SVGID_5_" gradientUnits="userSpaceOnUse" x1="278.3898" y1="-11.5082" x2="371.5244" y2="-11.5082" gradientTransform="matrix(-1 0 0 -1 576.8082 27.9826)">
		<stop  offset="0" style="stop-color:#000000"/>
		<stop  offset="0.2598" style="stop-color:#A08157"/>
	</linearGradient>
	<polygon class="st9" points="298.42,16.12 205.28,16.12 205.28,62.87 298.42,62.87 	"/>
	<g>
		<g>
			<line class="st6" x1="272.99" y1="13.49" x2="296.65" y2="13.49"/>
			<g>
				<polygon points="271.23,13.49 273.72,14.51 273.13,13.49 273.72,12.47 				"/>
			</g>
			<g>
				<polygon points="298.42,13.49 295.93,14.51 296.52,13.49 295.93,12.47 				"/>
			</g>
		</g>
	</g>
	<text transform="matrix(1 0 0 1 280.6762 10.8655)" class="st7 st8">PML</text>
	<text transform="matrix(1 0 0 1 231.2314 5.8658)"><tspan x="0" y="0" class="st7 st8">Measurement</tspan><tspan x="7.58" y="6" class="st7 st8">probe</tspan></text>
	<rect x="243.54" y="23.87" width="2.02" height="31.49"/>
</g>
</svg>
