<?xml version="1.0" encoding="UTF-8" standalone="no"?>
<svg
   xmlns:dc="http://purl.org/dc/elements/1.1/"
   xmlns:cc="http://creativecommons.org/ns#"
   xmlns:rdf="http://www.w3.org/1999/02/22-rdf-syntax-ns#"
   xmlns:svg="http://www.w3.org/2000/svg"
   xmlns="http://www.w3.org/2000/svg"
   xmlns:sodipodi="http://sodipodi.sourceforge.net/DTD/sodipodi-0.dtd"
   xmlns:inkscape="http://www.inkscape.org/namespaces/inkscape"
   viewBox="0 0 924.9683 924.96789"
   version="1.2"
   id="svg74"
   sodipodi:docname="ball_0_q1.svg"
   inkscape:version="0.92.2 5c3e80d, 2017-08-06">
  <metadata
     id="metadata78">
    <rdf:RDF>
      <cc:Work
         rdf:about="">
        <dc:format>image/svg+xml</dc:format>
        <dc:type
           rdf:resource="http://purl.org/dc/dcmitype/StillImage" />
      </cc:Work>
    </rdf:RDF>
  </metadata>
  <sodipodi:namedview
     pagecolor="#ffffff"
     bordercolor="#666666"
     borderopacity="1"
     objecttolerance="10"
     gridtolerance="10"
     guidetolerance="10"
     inkscape:pageopacity="0"
     inkscape:pageshadow="2"
     inkscape:window-width="640"
     inkscape:window-height="480"
     id="namedview76"
     showgrid="false"
     inkscape:zoom="0.11484381"
     inkscape:cx="975.6928"
     inkscape:cy="617.3018"
     inkscape:window-x="0"
     inkscape:window-y="0"
     inkscape:window-maximized="0"
     inkscape:current-layer="svg74" />
  <title
     id="title2">Qt SVG Document</title>
  <desc
     id="desc4">Generated with Qt</desc>
  <defs
     id="defs6" />
  <g
     id="g72"
     style="fill:none;fill-rule:evenodd;stroke:#000000;stroke-width:1;stroke-linecap:square;stroke-linejoin:bevel"
     transform="translate(-228.22999,-15.008471)">
    <g
       font-size="9"
       font-weight="400"
       font-style="normal"
       id="g8"
       style="font-style:normal;font-weight:400;font-size:9px;font-family:'Sans Serif';fill:none;stroke:#000000;stroke-width:1;stroke-linecap:square;stroke-linejoin:bevel;stroke-opacity:1" />
    <g
       transform="scale(1.00104)"
       font-size="9"
       font-weight="400"
       font-style="normal"
       id="g10"
       style="font-style:normal;font-weight:400;font-size:9px;font-family:'Sans Serif';fill:none;stroke:#000000;stroke-width:1;stroke-linecap:square;stroke-linejoin:bevel;stroke-opacity:1" />
    <g
       transform="scale(1.00104)"
       font-size="9"
       font-weight="400"
       font-style="normal"
       id="g14"
       style="font-style:normal;font-weight:400;font-size:9px;font-family:'Sans Serif';fill:none;stroke:#000000;stroke-width:1;stroke-linecap:round;stroke-linejoin:round;stroke-opacity:1">
      <polyline
         points="228.5,15.5 228.5,938.5 1151.5,938.5 1151.5,15.5 228.5,15.5 "
         id="polyline12"
         style="vector-effect:none;fill:none" />
    </g>
    <g
       transform="scale(1.00104)"
       font-size="9"
       font-weight="400"
       font-style="normal"
       id="g16"
       style="font-style:normal;font-weight:400;font-size:9px;font-family:'Sans Serif';fill:none;stroke:#000000;stroke-width:1;stroke-linecap:square;stroke-linejoin:bevel;stroke-opacity:1" />
    <g
       transform="scale(1.00104)"
       font-size="9"
       font-weight="400"
       font-style="normal"
       id="g18"
       style="font-style:normal;font-weight:400;font-size:9px;font-family:'Sans Serif';fill:none;stroke:#000000;stroke-width:1;stroke-linecap:square;stroke-linejoin:bevel;stroke-opacity:1" />
    <g
       transform="scale(1.00104)"
       font-size="9"
       font-weight="400"
       font-style="normal"
       id="g20"
       style="font-style:normal;font-weight:400;font-size:9px;font-family:'Sans Serif';fill:none;stroke:#000000;stroke-width:1;stroke-linecap:square;stroke-linejoin:bevel;stroke-opacity:1" />
    <g
       transform="scale(1.00104)"
       font-size="9"
       font-weight="400"
       font-style="normal"
       id="g22"
       style="font-style:normal;font-weight:400;font-size:9px;font-family:'Sans Serif';fill:none;stroke:#000000;stroke-width:1;stroke-linecap:square;stroke-linejoin:bevel;stroke-opacity:1" />
    <g
       transform="scale(1.00104)"
       font-size="9"
       font-weight="400"
       font-style="normal"
       id="g58"
       style="font-style:normal;font-weight:400;font-size:9px;font-family:'Sans Serif';fill:none;stroke:#000000;stroke-width:4;stroke-linecap:round;stroke-linejoin:round;stroke-opacity:1">
      <polyline
         points="363.4,802.8 363.4,802.8 554.5,611.7 "
         id="polyline24"
         style="vector-effect:none;fill:none" />
      <polyline
         points="1015.9,802.8 1015.9,802.8 824.8,611.7 "
         id="polyline26"
         style="vector-effect:none;fill:none" />
      <polyline
         points="363.5,802.5 363.5,802.5 374.5,802.5 384.5,802.5 395.5,802.5 406.5,802.5 416.5,802.5 427.5,802.5 438.5,802.5 448.5,802.5 459.5,802.5 470.5,802.5 481.5,802.5 491.5,802.5 502.5,802.5 513.5,802.5 523.5,802.5 534.5,802.5 545.5,802.5 555.5,802.5 566.5,802.5 577.5,802.5 588.5,802.5 598.5,802.5 609.5,802.5 620.5,802.5 630.5,802.5 641.5,802.5 652.5,802.5 662.5,802.5 673.5,802.5 684.5,802.5 695.5,802.5 705.5,802.5 716.5,802.5 727.5,802.5 737.5,802.5 748.5,802.5 759.5,802.5 769.5,802.5 780.5,802.5 791.5,802.5 802.5,802.5 812.5,802.5 823.5,802.5 834.5,802.5 844.5,802.5 855.5,802.5 866.5,802.5 876.5,802.5 887.5,802.5 898.5,802.5 909.5,802.5 919.5,802.5 930.5,802.5 941.5,802.5 951.5,802.5 962.5,802.5 973.5,802.5 983.5,802.5 994.5,802.5 1005.5,802.5 1015.5,802.5 "
         id="polyline28"
         style="vector-effect:none;fill:none" />
      <polyline
         points="554.5,611.5 554.5,611.5 824.5,611.5 "
         id="polyline30"
         style="vector-effect:none;fill:none" />
      <polyline
         points="363.5,802.5 363.5,802.5 363.5,792.5 363.5,781.5 363.5,770.5 363.5,760.5 363.5,749.5 363.5,738.5 363.5,728.5 363.5,717.5 363.5,706.5 363.5,695.5 363.5,685.5 363.5,674.5 363.5,663.5 363.5,653.5 363.5,642.5 363.5,631.5 363.5,621.5 363.5,610.5 363.5,599.5 363.5,588.5 363.5,578.5 363.5,567.5 363.5,556.5 363.5,546.5 363.5,535.5 363.5,524.5 363.5,514.5 363.5,503.5 363.5,492.5 363.5,481.5 363.5,471.5 363.5,460.5 363.5,449.5 363.5,439.5 363.5,428.5 363.5,417.5 363.5,407.5 363.5,396.5 363.5,385.5 363.5,374.5 363.5,364.5 363.5,353.5 363.5,342.5 363.5,332.5 363.5,321.5 363.5,310.5 363.5,300.5 363.5,289.5 363.5,278.5 363.5,267.5 363.5,257.5 363.5,246.5 363.5,235.5 363.5,225.5 363.5,214.5 363.5,203.5 363.5,193.5 363.5,182.5 363.5,171.5 363.5,161.5 363.5,150.5 "
         id="polyline32"
         style="vector-effect:none;fill:none" />
      <polyline
         points="554.5,611.5 554.5,611.5 554.5,341.5 "
         id="polyline34"
         style="vector-effect:none;fill:none" />
      <polyline
         points="363.4,802.8 363.4,802.8 554.5,611.7 "
         id="polyline36"
         style="vector-effect:none;fill:none" />
      <polyline
         points="363.4,150.3 363.4,150.3 554.5,341.4 "
         id="polyline38"
         style="vector-effect:none;fill:none" />
      <polyline
         points="554.5,611.5 554.5,611.5 824.5,611.5 824.5,341.5 554.5,341.5 554.5,611.5 "
         id="polyline40"
         style="vector-effect:none;fill:none" />
      <polyline
         points="1015.9,802.8 1015.9,802.8 824.8,611.7 "
         id="polyline42"
         style="vector-effect:none;fill:none" />
      <polyline
         points="1015.9,150.3 1015.9,150.3 824.8,341.4 "
         id="polyline44"
         style="vector-effect:none;fill:none" />
      <polyline
         points="1015.5,802.5 1015.5,802.5 1015.5,792.5 1015.5,781.5 1015.5,770.5 1015.5,760.5 1015.5,749.5 1015.5,738.5 1015.5,728.5 1015.5,717.5 1015.5,706.5 1015.5,695.5 1015.5,685.5 1015.5,674.5 1015.5,663.5 1015.5,653.5 1015.5,642.5 1015.5,631.5 1015.5,621.5 1015.5,610.5 1015.5,599.5 1015.5,588.5 1015.5,578.5 1015.5,567.5 1015.5,556.5 1015.5,546.5 1015.5,535.5 1015.5,524.5 1015.5,514.5 1015.5,503.5 1015.5,492.5 1015.5,481.5 1015.5,471.5 1015.5,460.5 1015.5,449.5 1015.5,439.5 1015.5,428.5 1015.5,417.5 1015.5,407.5 1015.5,396.5 1015.5,385.5 1015.5,374.5 1015.5,364.5 1015.5,353.5 1015.5,342.5 1015.5,332.5 1015.5,321.5 1015.5,310.5 1015.5,300.5 1015.5,289.5 1015.5,278.5 1015.5,267.5 1015.5,257.5 1015.5,246.5 1015.5,235.5 1015.5,225.5 1015.5,214.5 1015.5,203.5 1015.5,193.5 1015.5,182.5 1015.5,171.5 1015.5,161.5 1015.5,150.5 "
         id="polyline46"
         style="vector-effect:none;fill:none" />
      <polyline
         points="824.5,611.5 824.5,611.5 824.5,341.5 "
         id="polyline48"
         style="vector-effect:none;fill:none" />
      <polyline
         points="363.5,150.5 363.5,150.5 374.5,150.5 384.5,150.5 395.5,150.5 406.5,150.5 416.5,150.5 427.5,150.5 438.5,150.5 448.5,150.5 459.5,150.5 470.5,150.5 481.5,150.5 491.5,150.5 502.5,150.5 513.5,150.5 523.5,150.5 534.5,150.5 545.5,150.5 555.5,150.5 566.5,150.5 577.5,150.5 588.5,150.5 598.5,150.5 609.5,150.5 620.5,150.5 630.5,150.5 641.5,150.5 652.5,150.5 662.5,150.5 673.5,150.5 684.5,150.5 695.5,150.5 705.5,150.5 716.5,150.5 727.5,150.5 737.5,150.5 748.5,150.5 759.5,150.5 769.5,150.5 780.5,150.5 791.5,150.5 802.5,150.5 812.5,150.5 823.5,150.5 834.5,150.5 844.5,150.5 855.5,150.5 866.5,150.5 876.5,150.5 887.5,150.5 898.5,150.5 909.5,150.5 919.5,150.5 930.5,150.5 941.5,150.5 951.5,150.5 962.5,150.5 973.5,150.5 983.5,150.5 994.5,150.5 1005.5,150.5 1015.5,150.5 "
         id="polyline50"
         style="vector-effect:none;fill:none" />
      <polyline
         points="554.5,341.5 554.5,341.5 824.5,341.5 "
         id="polyline52"
         style="vector-effect:none;fill:none" />
      <polyline
         points="363.4,150.3 363.4,150.3 554.5,341.4 "
         id="polyline54"
         style="vector-effect:none;fill:none" />
      <polyline
         points="1015.9,150.3 1015.9,150.3 824.8,341.4 "
         id="polyline56"
         style="vector-effect:none;fill:none" />
    </g>
    <g
       transform="scale(1.00104)"
       font-size="9"
       font-weight="400"
       font-style="normal"
       id="g60"
       style="font-style:normal;font-weight:400;font-size:9px;font-family:'Sans Serif';fill:none;stroke:#000000;stroke-width:1;stroke-linecap:square;stroke-linejoin:bevel;stroke-opacity:1" />
    <g
       transform="scale(1.00104)"
       font-size="9"
       font-weight="400"
       font-style="normal"
       id="g62"
       style="font-style:normal;font-weight:400;font-size:9px;font-family:'Sans Serif';fill:none;stroke:#000000;stroke-width:1;stroke-linecap:square;stroke-linejoin:bevel;stroke-opacity:1" />
    <g
       transform="scale(1.00104)"
       font-size="9"
       font-weight="400"
       font-style="normal"
       id="g66"
       style="font-style:normal;font-weight:400;font-size:9px;font-family:'Sans Serif';fill:none;stroke:#000000;stroke-width:1;stroke-linecap:round;stroke-linejoin:round;stroke-opacity:1">
      <polyline
         points="228.5,15.5 228.5,938.5 1151.5,938.5 1151.5,15.5 228.5,15.5 "
         id="polyline64"
         style="vector-effect:none;fill:none" />
    </g>
    <g
       transform="scale(1.00104)"
       font-size="9"
       font-weight="400"
       font-style="normal"
       id="g68"
       style="font-style:normal;font-weight:400;font-size:9px;font-family:'Sans Serif';fill:none;stroke:#000000;stroke-width:1;stroke-linecap:square;stroke-linejoin:bevel;stroke-opacity:1" />
    <g
       font-size="9"
       font-weight="400"
       font-style="normal"
       id="g70"
       style="font-style:normal;font-weight:400;font-size:9px;font-family:'Sans Serif';fill:none;stroke:#000000;stroke-width:1;stroke-linecap:square;stroke-linejoin:bevel;stroke-opacity:1" />
  </g>
</svg>
