<?xml version="1.0" encoding="UTF-8" standalone="no"?>
<svg
   xmlns:dc="http://purl.org/dc/elements/1.1/"
   xmlns:cc="http://creativecommons.org/ns#"
   xmlns:rdf="http://www.w3.org/1999/02/22-rdf-syntax-ns#"
   xmlns:svg="http://www.w3.org/2000/svg"
   xmlns="http://www.w3.org/2000/svg"
   xmlns:sodipodi="http://sodipodi.sourceforge.net/DTD/sodipodi-0.dtd"
   xmlns:inkscape="http://www.inkscape.org/namespaces/inkscape"
   viewBox="0 0 928.29379 928.39346"
   version="1.2"
   id="svg494"
   sodipodi:docname="ball_1_q2.svg"
   inkscape:version="0.92.2 5c3e80d, 2017-08-06">
  <metadata
     id="metadata498">
    <rdf:RDF>
      <cc:Work
         rdf:about="">
        <dc:format>image/svg+xml</dc:format>
        <dc:type
           rdf:resource="http://purl.org/dc/dcmitype/StillImage" />
      </cc:Work>
    </rdf:RDF>
  </metadata>
  <sodipodi:namedview
     pagecolor="#ffffff"
     bordercolor="#666666"
     borderopacity="1"
     objecttolerance="10"
     gridtolerance="10"
     guidetolerance="10"
     inkscape:pageopacity="0"
     inkscape:pageshadow="2"
     inkscape:window-width="640"
     inkscape:window-height="480"
     id="namedview496"
     showgrid="false"
     inkscape:zoom="0.11484381"
     inkscape:cx="978.08667"
     inkscape:cy="619.3419"
     inkscape:window-x="0"
     inkscape:window-y="0"
     inkscape:window-maximized="0"
     inkscape:current-layer="svg494" />
  <title
     id="title368">Qt SVG Document</title>
  <desc
     id="desc370">Generated with Qt</desc>
  <defs
     id="defs372" />
  <g
     id="g492"
     style="fill:none;fill-rule:evenodd;stroke:#000000;stroke-width:1;stroke-linecap:square;stroke-linejoin:bevel"
     transform="translate(-226.43459,-13.112967)">
    <g
       font-size="9"
       font-weight="400"
       font-style="normal"
       id="g374"
       style="font-style:normal;font-weight:400;font-size:9px;font-family:'Sans Serif';fill:none;stroke:#000000;stroke-width:1;stroke-linecap:square;stroke-linejoin:bevel;stroke-opacity:1" />
    <g
       transform="scale(1.00104)"
       font-size="9"
       font-weight="400"
       font-style="normal"
       id="g376"
       style="font-style:normal;font-weight:400;font-size:9px;font-family:'Sans Serif';fill:none;stroke:#000000;stroke-width:1;stroke-linecap:square;stroke-linejoin:bevel;stroke-opacity:1" />
    <g
       transform="scale(1.00104)"
       font-size="9"
       font-weight="400"
       font-style="normal"
       id="g380"
       style="font-style:normal;font-weight:400;font-size:9px;font-family:'Sans Serif';fill:none;stroke:#000000;stroke-width:1;stroke-linecap:round;stroke-linejoin:round;stroke-opacity:1">
      <polyline
         points="228.5,15.5 228.5,15.5 228.5,938.5 1151.5,938.5 1151.5,15.5 228.5,15.5 "
         id="polyline378"
         style="vector-effect:none;fill:none" />
    </g>
    <g
       transform="scale(1.00104)"
       font-size="9"
       font-weight="400"
       font-style="normal"
       id="g382"
       style="font-style:normal;font-weight:400;font-size:9px;font-family:'Sans Serif';fill:none;stroke:#000000;stroke-width:1;stroke-linecap:square;stroke-linejoin:bevel;stroke-opacity:1" />
    <g
       transform="scale(1.00104)"
       font-size="9"
       font-weight="400"
       font-style="normal"
       id="g384"
       style="font-style:normal;font-weight:400;font-size:9px;font-family:'Sans Serif';fill:none;stroke:#000000;stroke-width:1;stroke-linecap:square;stroke-linejoin:bevel;stroke-opacity:1" />
    <g
       transform="scale(1.00104)"
       font-size="9"
       font-weight="400"
       font-style="normal"
       id="g386"
       style="font-style:normal;font-weight:400;font-size:9px;font-family:'Sans Serif';fill:none;stroke:#000000;stroke-width:1;stroke-linecap:square;stroke-linejoin:bevel;stroke-opacity:1" />
    <g
       transform="scale(1.00104)"
       font-size="9"
       font-weight="400"
       font-style="normal"
       id="g388"
       style="font-style:normal;font-weight:400;font-size:9px;font-family:'Sans Serif';fill:none;stroke:#000000;stroke-width:1;stroke-linecap:square;stroke-linejoin:bevel;stroke-opacity:1" />
    <g
       transform="scale(1.00104)"
       font-size="9"
       font-weight="400"
       font-style="normal"
       id="g478"
       style="font-style:normal;font-weight:400;font-size:9px;font-family:'Sans Serif';fill:none;stroke:#000000;stroke-width:4;stroke-linecap:round;stroke-linejoin:round;stroke-opacity:1">
      <polyline
         points="363.4,802.8 363.4,802.8 458.9,707.3 "
         id="polyline390"
         style="vector-effect:none;fill:none" />
      <polyline
         points="689.5,938.5 689.5,938.5 689.5,774.5 "
         id="polyline392"
         style="vector-effect:none;fill:none" />
      <polyline
         points="363.4,802.8 363.4,802.8 367.8,807.2 372.3,811.4 376.9,815.6 381.5,819.7 386.1,823.7 390.7,827.7 395.3,831.5 400,835.4 404.7,839.1 409.5,842.8 414.2,846.4 419,849.9 423.9,853.4 428.7,856.8 433.6,860.2 438.5,863.4 443.5,866.6 448.5,869.7 453.5,872.8 458.5,875.8 463.5,878.7 468.6,881.5 473.8,884.3 478.9,887 484.1,889.6 489.3,892.2 494.5,894.7 499.8,897.1 505.1,899.5 510.4,901.8 515.7,904 521.1,906.1 526.5,908.2 532,910.2 537.4,912.1 542.9,914 548.4,915.8 554,917.5 559.6,919.2 565.2,920.8 570.8,922.3 576.5,923.7 582.2,925.1 587.9,926.4 593.7,927.7 599.4,928.8 605.3,929.9 611.1,931 617,931.9 622.9,932.8 628.8,933.6 634.7,934.4 640.7,935.1 646.7,935.7 652.8,936.2 658.9,936.7 665,937.1 671.1,937.4 677.2,937.7 683.4,937.9 689.6,938 "
         id="polyline394"
         style="vector-effect:none;fill:none" />
      <polyline
         points="458.9,707.3 458.9,707.3 689.6,774.9 "
         id="polyline396"
         style="vector-effect:none;fill:none" />
      <polyline
         points="689.5,938.5 689.5,938.5 689.5,774.5 "
         id="polyline398"
         style="vector-effect:none;fill:none" />
      <polyline
         points="1015.9,802.8 1015.9,802.8 920.4,707.3 "
         id="polyline400"
         style="vector-effect:none;fill:none" />
      <polyline
         points="689.6,938 689.6,938 695.9,937.9 702.1,937.7 708.2,937.4 714.3,937.1 720.4,936.7 726.5,936.2 732.6,935.7 738.6,935.1 744.6,934.4 750.5,933.6 756.4,932.8 762.3,931.9 768.2,931 774,929.9 779.9,928.8 785.6,927.7 791.4,926.4 797.1,925.1 802.8,923.7 808.5,922.3 814.1,920.8 819.7,919.2 825.3,917.5 830.9,915.8 836.4,914 841.9,912.1 847.3,910.2 852.8,908.2 858.2,906.1 863.6,904 868.9,901.8 874.2,899.5 879.5,897.1 884.8,894.7 890,892.2 895.2,889.6 900.4,887 905.5,884.3 910.7,881.5 915.8,878.7 920.8,875.8 925.8,872.8 930.8,869.7 935.8,866.6 940.8,863.4 945.7,860.2 950.6,856.8 955.4,853.4 960.3,849.9 965.1,846.4 969.8,842.8 974.6,839.1 979.3,835.4 984,831.5 988.6,827.7 993.2,823.7 997.8,819.7 1002.4,815.6 1007,811.4 1011.5,807.2 1015.9,802.8 "
         id="polyline402"
         style="vector-effect:none;fill:none" />
      <polyline
         points="689.6,774.9 689.6,774.9 920.4,707.3 "
         id="polyline404"
         style="vector-effect:none;fill:none" />
      <polyline
         points="458.9,707.3 458.9,707.3 689.6,774.9 689.7,611.7 554.5,611.7 458.9,707.3 "
         id="polyline406"
         style="vector-effect:none;fill:none" />
      <polyline
         points="689.6,774.9 689.6,774.9 920.4,707.3 824.8,611.7 689.7,611.7 689.6,774.9 "
         id="polyline408"
         style="vector-effect:none;fill:none" />
      <polyline
         points="363.4,802.8 363.4,802.8 359,798.4 354.8,793.9 350.6,789.3 346.5,784.7 342.5,780.1 338.5,775.5 334.7,770.9 330.8,766.2 327.1,761.5 323.4,756.7 319.8,752 316.3,747.2 312.8,742.3 309.4,737.5 306,732.6 302.8,727.7 299.6,722.7 296.5,717.7 293.4,712.7 290.4,707.7 287.5,702.7 284.7,697.6 281.9,692.4 279.2,687.3 276.6,682.1 274,676.9 271.5,671.7 269.1,666.4 266.7,661.1 264.4,655.8 262.2,650.5 260.1,645.1 258,639.7 256,634.2 254.1,628.8 252.2,623.3 250.4,617.8 248.7,612.2 247,606.6 245.4,601 243.9,595.4 242.5,589.7 241.1,584 239.8,578.3 238.5,572.5 237.4,566.8 236.3,560.9 235.2,555.1 234.3,549.2 233.4,543.3 232.6,537.4 231.8,531.5 231.1,525.5 230.5,519.5 230,513.4 229.5,507.3 229.1,501.2 228.8,495.1 228.5,489 228.3,482.8 228.2,476.6 "
         id="polyline410"
         style="vector-effect:none;fill:none" />
      <polyline
         points="458.9,707.3 458.9,707.3 391.3,476.6 "
         id="polyline412"
         style="vector-effect:none;fill:none" />
      <polyline
         points="363.4,802.8 363.4,802.8 458.9,707.3 "
         id="polyline414"
         style="vector-effect:none;fill:none" />
      <polyline
         points="228.5,476.5 228.5,476.5 391.5,476.5 "
         id="polyline416"
         style="vector-effect:none;fill:none" />
      <polyline
         points="458.9,707.3 458.9,707.3 554.5,611.7 554.5,476.5 391.3,476.6 458.9,707.3 "
         id="polyline418"
         style="vector-effect:none;fill:none" />
      <polyline
         points="228.2,476.6 228.2,476.6 228.3,470.3 228.5,464.1 228.8,458 229.1,451.9 229.5,445.8 230,439.7 230.5,433.6 231.1,427.6 231.8,421.6 232.6,415.7 233.4,409.8 234.3,403.9 235.2,398 236.3,392.2 237.4,386.3 238.5,380.6 239.8,374.8 241.1,369.1 242.5,363.4 243.9,357.7 245.4,352.1 247,346.5 248.7,340.9 250.4,335.3 252.2,329.8 254.1,324.3 256,318.9 258,313.4 260.1,308 262.2,302.6 264.4,297.3 266.7,292 269.1,286.7 271.5,281.4 274,276.2 276.6,271 279.2,265.8 281.9,260.7 284.7,255.5 287.5,250.4 290.4,245.4 293.4,240.4 296.5,235.4 299.6,230.4 302.8,225.4 306,220.5 309.4,215.6 312.8,210.8 316.3,205.9 319.8,201.1 323.4,196.4 327.1,191.6 330.8,186.9 334.7,182.2 338.5,177.6 342.5,173 346.5,168.4 350.6,163.8 354.8,159.2 359,154.7 363.4,150.3 "
         id="polyline420"
         style="vector-effect:none;fill:none" />
      <polyline
         points="391.3,476.6 391.3,476.6 458.9,245.8 "
         id="polyline422"
         style="vector-effect:none;fill:none" />
      <polyline
         points="228.5,476.5 228.5,476.5 391.5,476.5 "
         id="polyline424"
         style="vector-effect:none;fill:none" />
      <polyline
         points="363.4,150.3 363.4,150.3 458.9,245.8 "
         id="polyline426"
         style="vector-effect:none;fill:none" />
      <polyline
         points="391.3,476.6 391.3,476.6 554.5,476.5 554.5,341.4 458.9,245.8 391.3,476.6 "
         id="polyline428"
         style="vector-effect:none;fill:none" />
      <polyline
         points="554.5,611.5 554.5,611.5 689.5,611.5 689.5,476.5 554.5,476.5 554.5,611.5 "
         id="polyline430"
         style="vector-effect:none;fill:none" />
      <polyline
         points="689.5,611.5 689.5,611.5 824.5,611.5 824.5,476.5 689.5,476.5 689.5,611.5 "
         id="polyline432"
         style="vector-effect:none;fill:none" />
      <polyline
         points="554.5,476.5 554.5,476.5 689.5,476.5 689.5,341.5 554.5,341.5 554.5,476.5 "
         id="polyline434"
         style="vector-effect:none;fill:none" />
      <polyline
         points="689.5,476.5 689.5,476.5 824.5,476.5 824.5,341.5 689.5,341.5 689.5,476.5 "
         id="polyline436"
         style="vector-effect:none;fill:none" />
      <polyline
         points="1015.9,802.8 1015.9,802.8 920.4,707.3 "
         id="polyline438"
         style="vector-effect:none;fill:none" />
      <polyline
         points="1151.5,476.5 1151.5,476.5 988.5,476.5 "
         id="polyline440"
         style="vector-effect:none;fill:none" />
      <polyline
         points="1015.9,802.8 1015.9,802.8 1020.3,798.4 1024.5,793.9 1028.7,789.3 1032.8,784.7 1036.8,780.1 1040.8,775.5 1044.6,770.9 1048.5,766.2 1052.2,761.5 1055.9,756.7 1059.5,752 1063,747.2 1066.5,742.3 1069.9,737.5 1073.3,732.6 1076.5,727.7 1079.7,722.7 1082.8,717.7 1085.9,712.7 1088.9,707.7 1091.8,702.7 1094.6,697.6 1097.4,692.4 1100.1,687.3 1102.7,682.1 1105.3,676.9 1107.8,671.7 1110.2,666.4 1112.6,661.1 1114.9,655.8 1117.1,650.5 1119.2,645.1 1121.3,639.7 1123.3,634.2 1125.2,628.8 1127.1,623.3 1128.9,617.8 1130.6,612.2 1132.3,606.6 1133.9,601 1135.4,595.4 1136.8,589.7 1138.2,584 1139.5,578.3 1140.8,572.5 1141.9,566.8 1143,560.9 1144.1,555.1 1145,549.2 1145.9,543.3 1146.7,537.4 1147.5,531.5 1148.2,525.5 1148.8,519.5 1149.3,513.4 1149.8,507.3 1150.2,501.2 1150.5,495.1 1150.8,489 1151,482.8 1151.1,476.6 "
         id="polyline442"
         style="vector-effect:none;fill:none" />
      <polyline
         points="920.4,707.3 920.4,707.3 988,476.6 "
         id="polyline444"
         style="vector-effect:none;fill:none" />
      <polyline
         points="1151.5,476.5 1151.5,476.5 988.5,476.5 "
         id="polyline446"
         style="vector-effect:none;fill:none" />
      <polyline
         points="1015.9,150.3 1015.9,150.3 920.4,245.8 "
         id="polyline448"
         style="vector-effect:none;fill:none" />
      <polyline
         points="1151.1,476.6 1151.1,476.6 1151,470.3 1150.8,464.1 1150.5,458 1150.2,451.9 1149.8,445.8 1149.3,439.7 1148.8,433.6 1148.2,427.6 1147.5,421.6 1146.7,415.7 1145.9,409.8 1145,403.9 1144.1,398 1143,392.2 1141.9,386.3 1140.8,380.6 1139.5,374.8 1138.2,369.1 1136.8,363.4 1135.4,357.7 1133.9,352.1 1132.3,346.5 1130.6,340.9 1128.9,335.3 1127.1,329.8 1125.2,324.3 1123.3,318.9 1121.3,313.4 1119.2,308 1117.1,302.6 1114.9,297.3 1112.6,292 1110.2,286.7 1107.8,281.4 1105.3,276.2 1102.7,271 1100.1,265.8 1097.4,260.7 1094.6,255.5 1091.8,250.4 1088.9,245.4 1085.9,240.4 1082.8,235.4 1079.7,230.4 1076.5,225.4 1073.3,220.5 1069.9,215.6 1066.5,210.8 1063,205.9 1059.5,201.1 1055.9,196.4 1052.2,191.6 1048.5,186.9 1044.6,182.2 1040.8,177.6 1036.8,173 1032.8,168.4 1028.7,163.8 1024.5,159.2 1020.3,154.7 1015.9,150.3 "
         id="polyline450"
         style="vector-effect:none;fill:none" />
      <polyline
         points="988,476.6 988,476.6 920.4,245.8 "
         id="polyline452"
         style="vector-effect:none;fill:none" />
      <polyline
         points="920.4,707.3 920.4,707.3 988,476.6 824.8,476.5 824.8,611.7 920.4,707.3 "
         id="polyline454"
         style="vector-effect:none;fill:none" />
      <polyline
         points="988,476.6 988,476.6 920.4,245.8 824.8,341.4 824.8,476.5 988,476.6 "
         id="polyline456"
         style="vector-effect:none;fill:none" />
      <polyline
         points="363.4,150.3 363.4,150.3 367.8,145.9 372.3,141.7 376.9,137.5 381.5,133.4 386.1,129.4 390.7,125.4 395.3,121.6 400,117.7 404.7,114 409.5,110.3 414.2,106.7 419,103.2 423.9,99.7 428.7,96.3 433.6,92.9 438.5,89.7 443.5,86.5 448.5,83.4 453.5,80.3 458.5,77.3 463.5,74.4 468.6,71.6 473.8,68.8 478.9,66.1 484.1,63.5 489.3,60.9 494.5,58.4 499.8,56 505.1,53.6 510.4,51.3 515.7,49.1 521.1,47 526.5,44.9 532,42.9 537.4,41 542.9,39.1 548.4,37.3 554,35.6 559.6,33.9 565.2,32.3 570.8,30.8 576.5,29.4 582.2,28 587.9,26.7 593.7,25.4 599.4,24.3 605.3,23.2 611.1,22.1 617,21.2 622.9,20.3 628.8,19.5 634.7,18.7 640.7,18 646.7,17.4 652.8,16.9 658.9,16.4 665,16 671.1,15.7 677.2,15.4 683.4,15.2 689.6,15.1 "
         id="polyline458"
         style="vector-effect:none;fill:none" />
      <polyline
         points="458.9,245.8 458.9,245.8 689.6,178.2 "
         id="polyline460"
         style="vector-effect:none;fill:none" />
      <polyline
         points="363.4,150.3 363.4,150.3 458.9,245.8 "
         id="polyline462"
         style="vector-effect:none;fill:none" />
      <polyline
         points="689.5,15.5 689.5,15.5 689.5,178.5 "
         id="polyline464"
         style="vector-effect:none;fill:none" />
      <polyline
         points="458.9,245.8 458.9,245.8 554.5,341.4 689.7,341.4 689.6,178.2 458.9,245.8 "
         id="polyline466"
         style="vector-effect:none;fill:none" />
      <polyline
         points="689.6,15.1 689.6,15.1 695.9,15.2 702.1,15.4 708.2,15.7 714.3,16 720.4,16.4 726.5,16.9 732.6,17.4 738.6,18 744.6,18.7 750.5,19.5 756.4,20.3 762.3,21.2 768.2,22.1 774,23.2 779.9,24.3 785.6,25.4 791.4,26.7 797.1,28 802.8,29.4 808.5,30.8 814.1,32.3 819.7,33.9 825.3,35.6 830.9,37.3 836.4,39.1 841.9,41 847.3,42.9 852.8,44.9 858.2,47 863.6,49.1 868.9,51.3 874.2,53.6 879.5,56 884.8,58.4 890,60.9 895.2,63.5 900.4,66.1 905.5,68.8 910.7,71.6 915.8,74.4 920.8,77.3 925.8,80.3 930.8,83.4 935.8,86.5 940.8,89.7 945.7,92.9 950.6,96.3 955.4,99.7 960.3,103.2 965.1,106.7 969.8,110.3 974.6,114 979.3,117.7 984,121.6 988.6,125.4 993.2,129.4 997.8,133.4 1002.4,137.5 1007,141.7 1011.5,145.9 1015.9,150.3 "
         id="polyline468"
         style="vector-effect:none;fill:none" />
      <polyline
         points="689.6,178.2 689.6,178.2 920.4,245.8 "
         id="polyline470"
         style="vector-effect:none;fill:none" />
      <polyline
         points="689.5,15.5 689.5,15.5 689.5,178.5 "
         id="polyline472"
         style="vector-effect:none;fill:none" />
      <polyline
         points="1015.9,150.3 1015.9,150.3 920.4,245.8 "
         id="polyline474"
         style="vector-effect:none;fill:none" />
      <polyline
         points="689.6,178.2 689.6,178.2 689.7,341.4 824.8,341.4 920.4,245.8 689.6,178.2 "
         id="polyline476"
         style="vector-effect:none;fill:none" />
    </g>
    <g
       transform="scale(1.00104)"
       font-size="9"
       font-weight="400"
       font-style="normal"
       id="g480"
       style="font-style:normal;font-weight:400;font-size:9px;font-family:'Sans Serif';fill:none;stroke:#000000;stroke-width:1;stroke-linecap:square;stroke-linejoin:bevel;stroke-opacity:1" />
    <g
       transform="scale(1.00104)"
       font-size="9"
       font-weight="400"
       font-style="normal"
       id="g482"
       style="font-style:normal;font-weight:400;font-size:9px;font-family:'Sans Serif';fill:none;stroke:#000000;stroke-width:1;stroke-linecap:square;stroke-linejoin:bevel;stroke-opacity:1" />
    <g
       transform="scale(1.00104)"
       font-size="9"
       font-weight="400"
       font-style="normal"
       id="g486"
       style="font-style:normal;font-weight:400;font-size:9px;font-family:'Sans Serif';fill:none;stroke:#000000;stroke-width:1;stroke-linecap:round;stroke-linejoin:round;stroke-opacity:1">
      <polyline
         points="228.5,15.5 228.5,938.5 1151.5,938.5 1151.5,15.5 228.5,15.5 "
         id="polyline484"
         style="vector-effect:none;fill:none" />
    </g>
    <g
       transform="scale(1.00104)"
       font-size="9"
       font-weight="400"
       font-style="normal"
       id="g488"
       style="font-style:normal;font-weight:400;font-size:9px;font-family:'Sans Serif';fill:none;stroke:#000000;stroke-width:1;stroke-linecap:square;stroke-linejoin:bevel;stroke-opacity:1" />
    <g
       font-size="9"
       font-weight="400"
       font-style="normal"
       id="g490"
       style="font-style:normal;font-weight:400;font-size:9px;font-family:'Sans Serif';fill:none;stroke:#000000;stroke-width:1;stroke-linecap:square;stroke-linejoin:bevel;stroke-opacity:1" />
  </g>
</svg>
