<svg id="svg" version="1.1" xmlns="http://www.w3.org/2000/svg" xmlns:xlink="http://www.w3.org/1999/xlink" width="400" height="400" viewBox="0, 0, 400,400"><g id="svgg"><path id="path0" d="M136.600 62.672 C 115.636 65.336,105.084 71.285,98.119 84.365 C 94.041 92.022,92.363 93.730,85.478 97.238 C 73.754 103.210,68.009 110.622,63.829 125.172 C 61.019 134.950,60.908 135.680,60.612 146.200 C 59.884 172.126,62.539 177.108,78.086 178.990 C 94.264 180.947,99.033 185.576,98.908 199.200 C 98.774 213.868,93.252 219.241,76.962 220.553 C 62.875 221.688,61.094 224.838,60.538 249.600 C 59.974 274.737,62.557 283.859,73.731 296.196 C 76.121 298.835,76.840 299.330,82.455 302.202 C 90.597 306.366,91.678 307.403,95.018 314.252 C 100.781 326.068,112.832 334.560,126.438 336.390 C 128.067 336.609,132.100 337.170,135.400 337.638 C 142.842 338.691,147.228 338.687,154.291 337.619 C 157.321 337.162,161.028 336.606,162.528 336.385 C 165.391 335.963,169.030 334.364,171.109 332.615 C 173.399 330.688,174.002 328.728,177.263 312.600 C 179.069 303.665,183.096 300.816,195.100 299.981 C 209.992 298.946,214.683 302.454,216.635 316.086 C 219.153 333.669,220.931 335.604,237.000 338.262 C 246.976 339.912,255.700 339.856,266.000 338.077 C 287.324 334.393,293.222 330.329,300.461 314.331 C 303.933 306.658,304.228 306.360,311.508 303.180 C 325.914 296.888,331.015 288.406,334.231 265.400 C 334.539 263.200,335.062 259.780,335.394 257.800 C 336.145 253.316,336.144 249.146,335.390 245.000 C 335.070 243.240,334.435 239.640,333.978 237.000 C 332.275 227.152,329.627 224.638,320.228 223.942 C 301.920 222.586,296.706 216.739,297.300 198.231 C 297.707 185.557,302.417 180.592,315.000 179.573 C 332.130 178.187,332.693 177.458,335.276 153.338 C 335.790 148.533,335.776 148.384,333.814 137.898 C 329.198 113.238,325.995 108.080,309.476 98.707 C 302.206 94.583,301.976 94.355,299.166 88.496 C 293.977 77.679,291.647 75.461,278.546 68.864 C 267.645 63.374,236.265 61.157,226.907 65.215 C 221.130 67.720,219.270 71.145,218.211 81.229 C 216.585 96.720,213.119 99.954,197.779 100.298 C 180.214 100.692,177.639 98.404,175.181 80.228 C 173.691 69.208,171.352 66.110,162.748 63.768 C 159.444 62.869,141.103 62.100,136.600 62.672 M212.317 116.608 C 221.084 118.027,225.303 122.860,228.195 134.800 C 234.987 162.836,236.300 164.346,256.871 167.785 C 278.537 171.407,281.617 175.174,281.748 198.200 C 281.890 223.331,277.916 230.970,262.460 235.276 C 255.556 237.199,249.977 240.369,244.335 245.574 C 240.704 248.925,239.897 250.434,238.793 255.937 C 238.338 258.208,237.458 261.355,236.838 262.933 C 236.218 264.510,234.941 268.140,233.999 271.000 C 231.141 279.684,229.160 282.593,224.601 284.800 C 222.418 285.856,177.485 285.753,173.141 284.681 C 165.676 282.840,160.252 275.713,157.401 264.000 C 156.472 260.185,156.079 259.309,153.808 256.000 C 152.676 254.350,151.173 251.984,150.469 250.741 C 148.355 247.012,146.726 245.846,141.318 244.191 C 126.376 239.618,116.965 234.671,114.835 230.272 C 113.349 227.202,112.383 187.157,113.642 180.800 C 115.407 171.889,119.478 168.849,132.674 166.588 C 151.407 163.377,152.768 162.834,158.500 156.283 C 162.793 151.378,163.607 149.704,164.082 144.800 C 165.666 128.471,170.282 121.520,182.000 117.820 C 187.477 116.090,204.833 115.396,212.317 116.608 " stroke="none" fill="#89f40a" fill-rule="evenodd"></path><path id="path1" d="M192.800 119.975 C 178.009 122.153,173.210 127.648,171.819 144.000 C 170.002 165.348,164.615 170.384,141.420 172.415 C 125.939 173.772,122.371 175.306,118.964 182.071 C 115.952 188.052,115.472 190.684,115.475 201.200 C 115.483 225.540,120.599 230.677,146.099 231.949 C 161.083 232.697,166.800 238.943,166.800 254.563 C 166.800 267.742,170.490 277.033,176.988 280.212 C 186.001 284.621,209.524 284.040,219.238 279.168 C 224.095 276.732,227.361 267.540,227.967 254.600 C 228.715 238.630,234.798 232.857,254.930 229.008 C 274.533 225.260,278.393 220.514,278.398 200.152 C 278.404 180.854,274.354 176.466,255.765 175.627 C 231.338 174.525,225.266 168.190,223.152 141.600 C 221.868 125.448,216.521 120.137,201.200 119.791 C 197.790 119.714,194.010 119.797,192.800 119.975 " stroke="none" fill="#fb2704" fill-rule="evenodd"></path><path id="path2" d="M189.200 116.437 C 173.212 117.736,165.907 125.985,164.082 144.800 C 163.607 149.704,162.793 151.378,158.500 156.283 C 152.768 162.834,151.407 163.377,132.674 166.588 C 114.361 169.726,113.188 171.790,113.236 200.800 C 113.289 232.773,113.051 232.017,124.903 237.872 C 130.855 240.812,133.087 241.672,141.318 244.191 C 146.726 245.846,148.355 247.012,150.469 250.741 C 151.173 251.984,152.676 254.350,153.808 256.000 C 156.079 259.309,156.472 260.185,157.401 264.000 C 160.252 275.713,165.676 282.840,173.141 284.681 C 177.485 285.753,222.418 285.856,224.601 284.800 C 229.160 282.593,231.141 279.684,233.999 271.000 C 234.941 268.140,236.218 264.510,236.838 262.933 C 237.458 261.355,238.338 258.208,238.793 255.937 C 239.897 250.434,240.704 248.925,244.335 245.574 C 249.977 240.369,255.556 237.199,262.460 235.276 C 277.916 230.970,281.890 223.331,281.748 198.200 C 281.617 175.174,278.537 171.407,256.871 167.785 C 236.300 164.346,234.987 162.836,228.195 134.800 C 224.045 117.669,216.688 114.205,189.200 116.437 M209.991 120.805 C 219.100 123.878,222.122 128.653,223.152 141.600 C 225.266 168.190,231.338 174.525,255.765 175.627 C 274.354 176.466,278.404 180.854,278.398 200.152 C 278.393 220.514,274.533 225.260,254.930 229.008 C 234.798 232.857,228.715 238.630,227.967 254.600 C 227.361 267.540,224.095 276.732,219.238 279.168 C 209.524 284.040,186.001 284.621,176.988 280.212 C 170.490 277.033,166.800 267.742,166.800 254.563 C 166.800 238.943,161.083 232.697,146.099 231.949 C 120.599 230.677,115.483 225.540,115.475 201.200 C 115.472 190.684,115.952 188.052,118.964 182.071 C 122.371 175.306,125.939 173.772,141.420 172.415 C 164.615 170.384,170.002 165.348,171.819 144.000 C 172.943 130.794,175.199 126.512,182.982 122.814 C 189.768 119.589,203.385 118.577,209.991 120.805 " stroke="none" fill="#fbf401" fill-rule="evenodd"></path><path id="path3" d="M0.000 200.000 L 0.000 400.000 200.000 400.000 L 400.000 400.000 400.000 200.000 L 400.000 0.000 200.000 0.000 L 0.000 0.000 0.000 200.000 M153.200 62.805 C 169.649 63.646,173.334 66.567,175.181 80.228 C 177.639 98.404,180.214 100.692,197.779 100.298 C 213.119 99.954,216.585 96.720,218.211 81.229 C 219.270 71.145,221.130 67.720,226.907 65.215 C 236.265 61.157,267.645 63.374,278.546 68.864 C 291.647 75.461,293.977 77.679,299.166 88.496 C 301.976 94.355,302.206 94.583,309.476 98.707 C 325.995 108.080,329.198 113.238,333.814 137.898 C 335.776 148.384,335.790 148.533,335.276 153.338 C 332.693 177.458,332.130 178.187,315.000 179.573 C 302.417 180.592,297.707 185.557,297.300 198.231 C 296.706 216.739,301.920 222.586,320.228 223.942 C 329.627 224.638,332.275 227.152,333.978 237.000 C 334.435 239.640,335.070 243.240,335.390 245.000 C 336.144 249.146,336.145 253.316,335.394 257.800 C 335.062 259.780,334.539 263.200,334.231 265.400 C 331.015 288.406,325.914 296.888,311.508 303.180 C 304.228 306.360,303.933 306.658,300.461 314.331 C 293.222 330.329,287.324 334.393,266.000 338.077 C 255.700 339.856,246.976 339.912,237.000 338.262 C 220.931 335.604,219.153 333.669,216.635 316.086 C 214.683 302.454,209.992 298.946,195.100 299.981 C 183.096 300.816,179.069 303.665,177.263 312.600 C 174.002 328.728,173.399 330.688,171.109 332.615 C 169.030 334.364,165.391 335.963,162.528 336.385 C 161.028 336.606,157.321 337.162,154.291 337.619 C 147.228 338.687,142.842 338.691,135.400 337.638 C 132.100 337.170,128.067 336.609,126.438 336.390 C 112.832 334.560,100.781 326.068,95.018 314.252 C 91.678 307.403,90.597 306.366,82.455 302.202 C 76.840 299.330,76.121 298.835,73.731 296.196 C 62.557 283.859,59.974 274.737,60.538 249.600 C 61.094 224.838,62.875 221.688,76.962 220.553 C 93.252 219.241,98.774 213.868,98.908 199.200 C 99.033 185.576,94.264 180.947,78.086 178.990 C 62.539 177.108,59.884 172.126,60.612 146.200 C 60.908 135.680,61.019 134.950,63.829 125.172 C 68.009 110.622,73.754 103.210,85.478 97.238 C 92.363 93.730,94.041 92.022,98.119 84.365 C 104.552 72.284,111.997 67.416,129.200 64.041 C 138.349 62.246,140.309 62.145,153.200 62.805 " stroke="none" fill="#2b04fb" fill-rule="evenodd"></path></g></svg>